<svg xmlns="http://www.w3.org/2000/svg" width="24" height="24" fill="none"><g fill="#F7F7F7"><path d="M22.692 5.518c-.352-1.44-1.791-2.907-3.255-3.352v.877a1.72 1.72 0 0 1 .409 2.419 1.773 1.773 0 0 1-2.452.403 1.72 1.72 0 0 1 0-2.822V1.758a33 33 0 0 0-2.234-.29v1.575a1.72 1.72 0 0 1 .409 2.419 1.773 1.773 0 0 1-2.452.403 1.72 1.72 0 0 1 0-2.822V1.33a36 36 0 0 0-2.234 0v1.712a1.72 1.72 0 0 1 .409 2.419 1.773 1.773 0 0 1-2.452.403 1.72 1.72 0 0 1 0-2.822v-1.58a33 33 0 0 0-2.233.29v1.285a1.72 1.72 0 0 1 .408 2.419 1.773 1.773 0 0 1-2.452.403 1.72 1.72 0 0 1 0-2.822v-.872c-1.459.44-2.903 1.908-3.255 3.352a33 33 0 0 0-.513 2.827h22.41q-.193-1.413-.513-2.827"/><path d="M5.585 5.673c.684 0 1.235-.544 1.235-1.22 0-.482-.29-.918-.736-1.115V.492A.496.496 0 0 0 5.585 0a.496.496 0 0 0-.499.492v2.846a1.216 1.216 0 0 0-.632 1.608c.2.44.642.727 1.131.727m4.277 0c.684 0 1.235-.544 1.235-1.22 0-.482-.29-.918-.736-1.115V.492A.496.496 0 0 0 9.86 0a.496.496 0 0 0-.498.492v2.846c-.623.272-.908.99-.632 1.608.2.44.641.727 1.13.727m4.279 0c.684 0 1.235-.544 1.235-1.22 0-.482-.29-.918-.737-1.115V.492A.496.496 0 0 0 14.14 0a.496.496 0 0 0-.5.492v2.846c-.622.272-.907.99-.631 1.608.2.44.641.727 1.13.727m4.276 0c.684 0 1.236-.544 1.236-1.22 0-.482-.29-.918-.737-1.115V.492A.496.496 0 0 0 18.415 0a.496.496 0 0 0-.499.492v2.846c-.622.272-.907.99-.632 1.608.2.44.642.727 1.131.727M12 11.674c-2.495 0-4.514 1.992-4.514 4.453s2.02 4.454 4.514 4.454 4.514-1.992 4.514-4.454c-.004-2.456-2.024-4.449-4.514-4.453m1.996 6.31c-.385.469-.903.712-1.516.769v.792h-1.003v-.769c-.584-.014-1.04-.262-1.416-.68-.247-.28-.356-.618-.39-.994l.062-.004q.425.001.851-.005a.08.08 0 0 1 .085.056v.005c.115.394.466.581.804.577v-1.21l-.3-.047a2.3 2.3 0 0 1-.808-.286 1.36 1.36 0 0 1-.65-.975c-.09-.506.118-.895.475-1.233a1.95 1.95 0 0 1 1.23-.548c.02 0 .034-.005.053-.005v-.713h.042v-.004h.903v.004h.062v.675q.016.006.038.005c.19.014.38.056.56.131.48.202.8.558 1.003 1.022.067.146.114.305.129.465h-1.031a.48.48 0 0 0-.257-.432 1 1 0 0 0-.437-.131v1.181c.11.01.214.014.323.028.375.043.732.188 1.022.427.627.52.641 1.322.166 1.899"/><path d="M10.879 15.209a.86.86 0 0 0 .423.234q.085.016.175.023v-1.06a1 1 0 0 0-.494.113c-.247.132-.29.507-.104.69m2.105 1.547c-.162-.07-.333-.075-.5-.09v1.065h.139c.17-.01.337-.057.48-.146.08-.051.147-.112.17-.201.067-.296-.018-.506-.29-.628"/><path d="M23.296 9.048H.704a32 32 0 0 0 .603 10.75c.366 1.51 1.925 3.043 3.45 3.404a33.2 33.2 0 0 0 14.48 0c1.53-.361 3.083-1.899 3.45-3.404a31.8 31.8 0 0 0 .608-10.75M12 21.613c-3.07 0-5.56-2.457-5.56-5.486s2.49-5.485 5.56-5.485 5.56 2.457 5.56 5.485-2.49 5.486-5.56 5.486"/></g></svg>