<svg xmlns="http://www.w3.org/2000/svg" width="24" height="24" fill="none"><g fill="#F7F7F7"><path d="M5.672 9.89V8.386a2.81 2.81 0 0 0 2.11-2.713C7.781 4.362 6.903 0 4.968 0S2.156 4.362 2.156 5.672c0 1.307.9 2.398 2.11 2.713V9.89zm7.031 0V8.386a2.81 2.81 0 0 0 2.11-2.713C14.813 4.362 13.936 0 12 0S9.188 4.362 9.188 5.672c0 1.307.9 2.398 2.109 2.713V9.89zm7.031 0V8.386a2.81 2.81 0 0 0 2.11-2.713c0-1.31-.877-5.672-2.813-5.672-1.935 0-2.812 4.362-2.812 5.672 0 1.307.9 2.398 2.11 2.713V9.89zM7.902 16.143a1.575 1.575 0 0 0 .534 2.011l1.004.67a5.06 5.06 0 0 1 1.375-3.818l-1.942-.97a.7.7 0 0 1-.315-.315l-1.211-2.424H5.714c.14 1.551.693 2.45.976 2.812h1.091a.703.703 0 0 1 .63 1.018zm15.395-4.846h-2.568l-1.91 1.91c1.237.61 2.322 1.282 2.322 3.012v3.468C22.893 17.607 24 14.927 24 12a.703.703 0 0 0-.703-.703"/><path d="M12 24c2.95 0 5.648-1.126 7.734-2.903V16.22c0-.962-.482-1.243-1.878-1.917l-.546-.267a.704.704 0 0 1-.182-1.126l1.612-1.612H8.92l.792 1.585 2.604 1.302a.704.704 0 0 1 .182 1.126l-.589.589a3.65 3.65 0 0 0-.685 4.224.703.703 0 0 1-1.02.9l-2.547-1.699a2.98 2.98 0 0 1-1.012-3.808h-.269a.7.7 0 0 1-.475-.186c-.067-.06-1.364-1.323-1.58-4.033H.704A.703.703 0 0 0 0 12c0 6.591 5.409 12 12 12"/></g></svg>