<svg xmlns="http://www.w3.org/2000/svg" width="24" height="24" fill="none"><path fill="#F7F7F7" d="M12 6.484c.595 0 1.078-.482 1.078-1.075a1.077 1.077 0 0 0-2.156 0c0 .593.483 1.075 1.078 1.075m.703-3.452V.5h-1.406v2.532a2.46 2.46 0 0 1 1.406 0m3.75 18.253a2.044 2.044 0 0 0-2.044-2.04h-1.706V7.786a2.46 2.46 0 0 1-1.406 0v11.46H9.638a2.044 2.044 0 0 0-2.044 2.04v.813H6.047V23.5H18v-1.402h-1.547zm-7.781-8.14v-.7h-.957L5.347 7.363l4.4-.912a2.46 2.46 0 0 1-.207-1.39L3.847 6.243l-2.89 6.201H0v.701c0 2.385 1.945 4.325 4.336 4.325s4.336-1.94 4.336-4.325m-6.165-.7L4.336 8.52l1.828 3.923zm20.536-3.18L20.067 2.88l-5.95 1.234a2.46 2.46 0 0 1 .366 1.356l3.953-.82-2.151 4.616h-.957v.701A4.337 4.337 0 0 0 24 9.966v-.7zm-5.207 0 1.828-3.923 1.829 3.923z"/></svg>