<svg xmlns="http://www.w3.org/2000/svg" width="24" height="24" fill="none"><path fill="#F7F7F7" d="M12.02 5.492c-.955.112-1.85-1.097-1.999-2.699-.15-1.603.533-2.673 1.488-2.785s1.82.776 1.969 2.38c.149 1.602-.504 2.992-1.459 3.104zm6.593-1.352c.611-.017 1.103-.86 1.099-1.883S19.21.623 18.6.64s-1.103.655-1.099 1.678.502 1.838 1.113 1.821zm-3-.64c.611-.018 1.103-.86 1.099-1.884C16.708.593 16.21-.018 15.6 0s-1.103.655-1.099 1.678.502 1.838 1.113 1.821zm5.845 2c.526-.016.949-.738.946-1.615s-.432-1.4-.958-1.386-.95.562-.946 1.438.432 1.577.958 1.562m1.906-.5c-.349.01-.63.373-.628.958s.287 1.05.636 1.041.63-.49.628-1.076c-.002-.585-.287-.934-.636-.924M11 11.5v3a2.5 2.5 0 1 1-5 0v-3a2.5 2.5 0 1 1 5 0m-1.6 0c0-.496-.404-.9-.9-.9s-.9.404-.9.9v3c0 .495.404.9.9.9s.9-.405.9-.9zm-6.9-.9c.496 0 .9.404.9.9H5a2.5 2.5 0 1 0-5 0v3a2.5 2.5 0 1 0 5 0H3.4c0 .495-.404.9-.9.9a.9.9 0 0 1-.9-.9v-3c0-.496.404-.9.9-.9M16 18.667h-2c.575-.527 2-1.245 2-2.668a2 2 0 1 0-4 0v.333h1.333V16a.667.667 0 1 1 1.334 0c0 1-2.667 1.84-2.667 3.347V20h4zm2.5-12.668c-.371 0-.869-.22-1.35-.434C16.521 5.287 15.872 5 15.162 5 13.591 5 12 6.065 12 8.103c0 1.362.857 2.367 1.614 3.255.189.22.374.438.545.659A3.99 3.99 0 0 1 18 16v4a2 2 0 0 1-2 2h-1.649c.626 1.308 2.028 2.177 3.614 1.97 1.77-.23 3.035-1.846 3.035-3.63v-1.942c0-1.607.515-3.05 1.014-4.443.484-1.358.986-2.764.986-4.272 0-3.682-3.153-3.682-4.5-3.682z"/></svg>