<svg xmlns="http://www.w3.org/2000/svg" width="24" height="24" fill="none"><g fill="#000" fill-opacity=".56"><path d="M22.543 13.714h-3.686v-2.571a2.572 2.572 0 0 0-5.143 0v2.571h-3.686a1.457 1.457 0 0 0-1.457 1.457v1.372A1.465 1.465 0 0 0 9.763 18l.154.857H1.963a.25.25 0 0 1-.249-.248V1.963a.25.25 0 0 1 .249-.249H15.18a.25.25 0 0 1 .248.249V6a.857.857 0 1 0 1.715 0V1.963A1.97 1.97 0 0 0 15.18 0H1.963A1.97 1.97 0 0 0 0 1.963v16.646a1.97 1.97 0 0 0 1.963 1.962h8.254l.266 1.509a2.314 2.314 0 0 0 2.28 1.92h3.523a.857.857 0 1 0 0-1.714h-3.523a.61.61 0 0 1-.592-.497L11.503 18h9.566l-.67 3.789a.61.61 0 0 1-.59.497.857.857 0 1 0 0 1.714 2.314 2.314 0 0 0 2.28-1.92l.72-4.08a1.466 1.466 0 0 0 1.19-1.457V15.17a1.457 1.457 0 0 0-1.456-1.457m-.257 1.715v.857h-3.429v-.857zm-12 0h3.428v.857h-3.428zm5.143-4.286a.857.857 0 1 1 1.714 0v5.143h-1.715z"/><path d="M4.286 3.429a.857.857 0 1 0 0 1.714.857.857 0 0 0 0-1.714m8.571 0h-6a.857.857 0 0 0 0 1.714h6a.857.857 0 0 0 0-1.714M4.286 6.857a.857.857 0 1 0 0 1.714.857.857 0 0 0 0-1.714m9.428.857a.857.857 0 0 0-.857-.857h-6a.857.857 0 0 0 0 1.714h6a.857.857 0 0 0 .857-.857m-9.428 2.572a.857.857 0 1 0 0 1.714.857.857 0 0 0 0-1.714m2.571 0a.857.857 0 1 0 0 1.714h4.286a.857.857 0 1 0 0-1.714z"/></g></svg>