<svg xmlns="http://www.w3.org/2000/svg" width="24" height="24" fill="none"><g fill="#F7F7F7"><path d="M12.008 6.4a5.606 5.606 0 0 0-5.6 5.6c0 3.088 2.512 5.6 5.6 5.6s5.6-2.512 5.6-5.6-2.512-5.6-5.6-5.6m.8 9.2c0 .44-.36.8-.8.8s-.8-.36-.8-.8v-.424c0-.44.36-.8.8-.8s.8.36.8.8zm0-2.968c0 .44-.36.8-.8.8s-.8-.36-.8-.8V8.4c0-.44.36-.8.8-.8s.8.36.8.8z"/><path d="M23.208 9.2h-2.024a9.4 9.4 0 0 0-.712-1.704l1.432-1.432a.797.797 0 0 0 0-1.128l-2.832-2.832a.8.8 0 0 0-.568-.232.83.83 0 0 0-.568.232l-1.432 1.432a10 10 0 0 0-1.704-.712V.8c0-.44-.36-.8-.8-.8h-4c-.44 0-.8.36-.8.8v2.024a9 9 0 0 0-1.704.712L6.064 2.104c-.304-.304-.832-.304-1.128 0L2.104 4.936a.797.797 0 0 0 0 1.128l1.432 1.432A9.6 9.6 0 0 0 2.824 9.2H.8c-.44 0-.8.36-.8.8v4c0 .44.36.8.8.8h2.024c.184.592.416 1.16.712 1.704l-1.432 1.432a.797.797 0 0 0 0 1.128l2.832 2.832a.797.797 0 0 0 1.128 0l1.432-1.432c.544.288 1.12.528 1.704.712V23.2c0 .44.36.8.8.8h4c.44 0 .8-.36.8-.8v-2.024a9.4 9.4 0 0 0 1.704-.712l1.432 1.432a.797.797 0 0 0 1.128 0l2.832-2.832a.797.797 0 0 0 0-1.128l-1.432-1.432c.288-.544.528-1.12.712-1.704H23.2c.44 0 .8-.36.8-.8v-4c0-.44-.36-.8-.8-.8zm-11.2 10c-3.968 0-7.2-3.232-7.2-7.2s3.232-7.2 7.2-7.2 7.2 3.232 7.2 7.2-3.232 7.2-7.2 7.2"/></g></svg>