<svg xmlns="http://www.w3.org/2000/svg" width="24" height="24" fill="none"><path fill="#F7F7F7" fill-rule="evenodd" d="M24 2.4A2.397 2.397 0 0 0 21.6 0H2.4A2.397 2.397 0 0 0 0 2.4v19.2A2.397 2.397 0 0 0 2.4 24h19.2a2.397 2.397 0 0 0 2.4-2.4zm-1.6 0v19.2a.8.8 0 0 1-.8.8H2.4a.8.8 0 0 1-.8-.8V2.4a.8.8 0 0 1 .8-.8h19.2a.8.8 0 0 1 .8.8M8 17.6v-7.2a1.6 1.6 0 0 0-1.6-1.6H4.8a1.6 1.6 0 0 0-1.6 1.6v7.2a1.6 1.6 0 0 0 1.6 1.6h1.6A1.6 1.6 0 0 0 8 17.6m6.4 0V6.4a1.6 1.6 0 0 0-1.6-1.6h-1.6a1.6 1.6 0 0 0-1.6 1.6v11.2a1.6 1.6 0 0 0 1.6 1.6h1.6a1.6 1.6 0 0 0 1.6-1.6m6.4 0v-4.8a1.6 1.6 0 0 0-1.6-1.6h-1.6a1.6 1.6 0 0 0-1.6 1.6v4.8a1.6 1.6 0 0 0 1.6 1.6h1.6a1.6 1.6 0 0 0 1.6-1.6M11.2 6.4v11.2h1.6V6.4zm-6.4 4v7.2h1.6v-7.2zm12.8 7.2h1.6v-4.8h-1.6z" clip-rule="evenodd"/></svg>