<svg xmlns="http://www.w3.org/2000/svg" width="24" height="24" fill="none"><path fill="#4280EF" d="M24 12.288c0-.81-.08-1.647-.213-2.432h-11.55v4.628h6.615a5.45 5.45 0 0 1-2.454 3.634l3.948 3.006C22.666 19.007 24 15.922 24 12.288"/><path fill="#34A353" d="M12.237 24c3.307 0 6.081-1.072 8.109-2.902l-3.948-2.98c-1.094.732-2.508 1.15-4.161 1.15-3.201 0-5.895-2.117-6.882-4.941L1.3 17.386C3.38 21.438 7.595 24 12.237 24"/><path fill="#F6B704" d="M5.355 14.3a7.15 7.15 0 0 1 0-4.6L1.3 6.615a11.8 11.8 0 0 0 0 10.77z"/><path fill="#E54335" d="M12.237 4.759a6.76 6.76 0 0 1 4.694 1.803l3.495-3.45C18.212 1.072 15.278-.026 12.236 0 7.597 0 3.382 2.563 1.3 6.615L5.355 9.7c.987-2.85 3.68-4.941 6.882-4.941"/></svg>