<svg xmlns="http://www.w3.org/2000/svg" width="20" height="24" fill="none"><g fill="#F7F7F7"><path d="M8.379 24h3.22c.628 0 1.236-.215 1.716-.607.48-.393.8-.937.905-1.536H5.757c.104.6.425 1.143.905 1.536.48.392 1.088.607 1.717.607m-2.662-4.286h8.542V21H5.717zM19.98 9.071C19.51.954 9.21-2.974 3.133 2.621-1.674 6.837-.818 14.79 4.8 17.944c.36.21.636.532.784.913h8.808a1.88 1.88 0 0 1 .79-.918 9.8 9.8 0 0 0 3.679-3.787 9.4 9.4 0 0 0 1.12-5.08m-9.992 7.96a7.76 7.76 0 0 1-5.384-2.157A7.25 7.25 0 0 1 2.37 9.67c.42-9.768 14.82-9.765 15.239 0a7.25 7.25 0 0 1-2.235 5.203 7.76 7.76 0 0 1-5.385 2.157"/><path d="M9.988 3.165A6.86 6.86 0 0 0 5.23 5.073 6.4 6.4 0 0 0 3.256 9.67c.368 8.627 13.098 8.624 13.465 0a6.4 6.4 0 0 0-1.974-4.598 6.86 6.86 0 0 0-4.759-1.908m4.657 5.178a.42.42 0 0 1-.133.297.45.45 0 0 1-.62 0 .42.42 0 0 1-.134-.297v-.339l-3.415 3.3a.457.457 0 0 1-.625 0l-1.104-1.071-2.524 2.443a.454.454 0 0 1-.623-.007.423.423 0 0 1-.007-.602L8.3 9.324a.47.47 0 0 1 .315-.124.47.47 0 0 1 .314.124l1.105 1.072L13.129 7.4h-.346a.45.45 0 0 1-.31-.128.42.42 0 0 1 0-.602.45.45 0 0 1 .31-.128c2.146.017 1.85-.29 1.862 1.8"/></g></svg>