<svg xmlns="http://www.w3.org/2000/svg" width="24" height="24" fill="none"><g fill="#F7F7F7"><path d="M12 12.703a.703.703 0 1 0 0-1.406.703.703 0 0 0 0 1.406M24 12a.703.703 0 0 0-.703-.703H21.89a.703.703 0 0 0-.703.703c0 5.066-4.122 9.188-9.188 9.188a9.16 9.16 0 0 1-6.494-2.694l.907-.907a.703.703 0 0 0-.45-1.198l-4.04-.27a.703.703 0 0 0-.749.749l.27 4.04a.703.703 0 0 0 1.198.45l.873-.873A11.92 11.92 0 0 0 12 24c3.205 0 6.219-1.248 8.485-3.515A11.92 11.92 0 0 0 24 12M2.813 12c0-5.066 4.121-9.187 9.187-9.188a9.16 9.16 0 0 1 6.494 2.694l-.907.907a.703.703 0 0 0 .45 1.198l4.04.27a.703.703 0 0 0 .749-.749l-.27-4.04a.703.703 0 0 0-1.198-.45l-.873.873A11.92 11.92 0 0 0 12 0a11.92 11.92 0 0 0-8.485 3.515A11.92 11.92 0 0 0 0 12c0 .388.315.703.703.703H2.11A.703.703 0 0 0 2.813 12"/><path d="M19.078 11.297h.667a7.8 7.8 0 0 0-.527-2.197l-1.274-.085C16.22 8.9 15.391 6.9 16.427 5.604a7.75 7.75 0 0 0-3.724-1.35v.668a.703.703 0 0 1-1.406 0v-.668A7.74 7.74 0 0 0 7.02 6.025l.472.473a.703.703 0 1 1-.994.994l-.472-.471a7.74 7.74 0 0 0-1.771 4.276h.667a.703.703 0 0 1 0 1.406h-.667c.067.749.243 1.49.527 2.197l1.274.085c1.724.115 2.553 2.114 1.517 3.411a7.75 7.75 0 0 0 3.724 1.35v-.668a.703.703 0 0 1 1.406 0v.668a7.74 7.74 0 0 0 4.277-1.771l-.472-.473a.703.703 0 0 1 .994-.994l.472.471a7.74 7.74 0 0 0 1.771-4.276h-.667a.703.703 0 0 1 0-1.406m-2.86 1.406h-2.23A2.11 2.11 0 0 1 12 14.11 2.11 2.11 0 0 1 9.89 12c0-.917.588-1.698 1.407-1.988v-2.23a.703.703 0 0 1 1.406 0v2.23a2.12 2.12 0 0 1 1.285 1.285h2.23a.703.703 0 0 1 0 1.406"/></g></svg>