<svg xmlns="http://www.w3.org/2000/svg" width="20" height="24" fill="none"><path fill="#F7F7F7" d="m3.63 9.856.49-.476.49.476c.389.379.901.587 1.442.587a2.06 2.06 0 0 0 1.442-.587l.49-.476.49.476c.39.379.902.587 1.442.587a2.06 2.06 0 0 0 1.443-.587l.49-.476.49.476c.39.379.902.587 1.442.587a2.06 2.06 0 0 0 1.443-.587l.49-.476.49.476a2.06 2.06 0 0 0 2.779.095q-.237-.5-.529-1.01c-.798-1.397-1.905-2.86-3.292-4.347C12.82 2.081 9.997 0 9.997 0s-2.82 2.11-5.16 4.636C3.068 6.542 1.782 8.353.982 10.056a2.06 2.06 0 0 0 2.647-.2m14.017 1.994a3.45 3.45 0 0 1-1.932-.588 3.45 3.45 0 0 1-1.933.588 3.45 3.45 0 0 1-1.932-.588 3.45 3.45 0 0 1-1.932.588 3.45 3.45 0 0 1-1.933-.588 3.45 3.45 0 0 1-1.932.588 3.45 3.45 0 0 1-1.932-.588 3.45 3.45 0 0 1-1.933.588 3.45 3.45 0 0 1-1.737-.466Q0 12.744 0 13.998a9.94 9.94 0 0 0 2.929 7.073A9.93 9.93 0 0 0 9.999 24a9.93 9.93 0 0 0 7.072-2.93A9.94 9.94 0 0 0 20 13.999c0-.86-.159-1.764-.472-2.703a3.45 3.45 0 0 1-1.882.555m-9.505 3.115a.703.703 0 1 1 0 1.406.703.703 0 0 1 0-1.406m3.78 5.188a.703.703 0 1 1 .001-1.407.703.703 0 0 1 0 1.407m-3.565.08-.994-.994 4.302-4.303.995.994z"/></svg>