<?xml version="1.0" encoding="UTF-8"?>
<svg version="1.1" xmlns="http://www.w3.org/2000/svg" width="1131" height="793">
<path d="M0 0 C373.23 0 746.46 0 1131 0 C1131 261.69 1131 523.38 1131 793 C757.77 793 384.54 793 0 793 C0 531.31 0 269.62 0 0 Z " fill="#FEFEFE" transform="translate(0,0)"/>
<path d="M0 0 C2.48168945 1.17651367 2.48168945 1.17651367 5.11328125 2.66796875 C6.10312012 3.22508545 7.09295898 3.78220215 8.11279297 4.35620117 C9.69664795 5.26269409 9.69664795 5.26269409 11.3125 6.1875 C12.40449707 6.80665283 13.49649414 7.42580566 14.62158203 8.0637207 C17.50227278 9.70148116 20.37868561 11.34618576 23.25213623 12.99658203 C24.99012717 13.99433218 26.72967899 14.98936178 28.46923828 15.984375 C31.7753815 17.87819899 35.07637634 19.78061334 38.375 21.6875 C39.39634033 22.27490967 40.41768066 22.86231934 41.4699707 23.4675293 C42.41573975 24.01836182 43.36150879 24.56919434 44.3359375 25.13671875 C45.58189697 25.85927856 45.58189697 25.85927856 46.85302734 26.59643555 C48.85453295 27.9049022 50.39133378 29.24151658 52 31 C45.0047898 35.87575586 37.71119643 40.07022023 30.25 44.1875 C28.04652277 45.40952134 25.84338498 46.63215499 23.640625 47.85546875 C22.67672852 48.38809326 21.71283203 48.92071777 20.71972656 49.46948242 C18.88049101 50.50450645 17.06454257 51.58185586 15.27246094 52.6965332 C13 54 13 54 11 54 C11 64.23 11 74.46 11 85 C25.1644471 77.19929 39.32670524 69.39729645 53.4375 61.5 C54.46584961 60.92677002 55.49419922 60.35354004 56.55371094 59.76293945 C60.89084087 57.3386041 65.20827431 54.89950549 69.453125 52.31640625 C70.09838135 51.92839844 70.7436377 51.54039062 71.40844727 51.140625 C73.0244596 50.16130423 74.62821191 49.16182388 76.23046875 48.16015625 C79.72653313 46.69565537 81.33858279 47.12049801 85 48 C87.85473633 49.36010742 87.85473633 49.36010742 90.83203125 51.10546875 C91.94924561 51.75306152 93.06645996 52.4006543 94.2175293 53.06787109 C95.41594208 53.77426273 96.61426366 54.48080911 97.8125 55.1875 C99.67801416 56.27498787 101.54533353 57.35932644 103.41285706 58.44335938 C104.69001424 59.18484553 105.96657039 59.92736787 107.24253845 60.67089844 C111.5900083 63.19985459 115.96566825 65.67191152 120.3671875 68.10546875 C122.09038208 69.05933472 122.09038208 69.05933472 123.84838867 70.0324707 C126.0444683 71.24427248 128.24249861 72.45254705 130.44262695 73.65698242 C131.91542114 74.47259644 131.91542114 74.47259644 133.41796875 75.3046875 C134.28188232 75.77890137 135.1457959 76.25311523 136.03588867 76.74169922 C138 78 138 78 139 80 C138.36835937 80.35078613 137.73671875 80.70157227 137.0859375 81.06298828 C123.33297865 88.70985139 109.66630949 96.48090039 96.08984375 104.4375 C89.78429581 108.1321331 83.45705564 111.78852681 77.125 115.4375 C76.04484619 116.06003662 74.96469238 116.68257324 73.85180664 117.32397461 C71.66203666 118.58576826 69.47217645 119.84740534 67.28222656 121.10888672 C64.01825673 122.98948106 60.75505811 124.87140546 57.4921875 126.75390625 C55.88210815 127.67925171 55.88210815 127.67925171 54.23950195 128.62329102 C52.08619395 129.87074588 49.94134736 131.13292622 47.80541992 132.40991211 C42.79665443 135.38070969 37.85801464 138.13922225 32.48376465 140.40162659 C21.11051634 145.05951834 21.11051634 145.05951834 12 153 C8.71461858 162.96702095 9.73668401 173.73099081 11 184 C23.42728051 177.098421 35.81305832 170.15059651 48.0625 162.9375 C57.01056172 157.6754025 66.06675906 152.6590832 75.21337891 147.75146484 C82.54307846 143.81188601 89.78516312 139.74037854 96.99682617 135.58935547 C103.80255728 131.6741858 110.64436867 127.82705599 117.5 124 C125.37649607 119.6008096 133.23289195 115.16960417 141.0625 110.6875 C141.91457031 110.20265137 142.76664063 109.71780273 143.64453125 109.21826172 C147.68508832 106.91643039 151.70253516 104.58704528 155.68359375 102.18359375 C156.41505615 101.75022705 157.14651855 101.31686035 157.90014648 100.87036133 C159.25626286 100.06608861 160.60420711 99.2477979 161.94165039 98.4128418 C163.75 97.3515625 163.75 97.3515625 167 96 C170.61356102 97.1259298 173.8204274 98.91925626 177.11328125 100.765625 C178.10312012 101.31951904 179.09295898 101.87341309 180.11279297 102.4440918 C181.69664795 103.33801636 181.69664795 103.33801636 183.3125 104.25 C184.40449707 104.86464111 185.49649414 105.47928223 186.62158203 106.11254883 C194.56334639 110.5958029 202.48186064 115.11915459 210.375 119.6875 C211.39634033 120.27499023 212.41768066 120.86248047 213.4699707 121.46777344 C214.41573975 122.01852539 215.36150879 122.56927734 216.3359375 123.13671875 C217.16657715 123.61842529 217.9972168 124.10013184 218.85302734 124.59643555 C220.85453295 125.9049022 222.39133378 127.24151658 224 129 C223.36835937 129.35078613 222.73671875 129.70157227 222.0859375 130.06298828 C208.33297865 137.70985139 194.66630949 145.48090039 181.08984375 153.4375 C174.78429535 157.13213337 168.45702466 160.7884724 162.125 164.4375 C161.04629639 165.05931152 159.96759277 165.68112305 158.85620117 166.32177734 C154.47423228 168.84711251 150.09159223 171.37128175 145.70898438 173.89550781 C133.1323608 181.14033048 120.56963043 188.4073281 108.03857422 195.73071289 C99.61430661 200.65051282 91.16446104 205.52522138 82.7109375 210.39453125 C75.46048459 214.57349158 68.22516137 218.77747989 61 223 C54.88455972 226.57329818 48.76547981 230.13992266 42.6328125 233.68359375 C41.5617627 234.30274658 40.49071289 234.92189941 39.38720703 235.55981445 C37.222631 236.80571733 35.05435231 238.04521066 32.88232422 239.27807617 C27.7629622 242.19306592 22.70150432 245.15318357 17.75808716 248.35673523 C15.45277824 249.84560808 13.12599138 251.29886567 10.79681396 252.75003052 C9.16818425 253.78505559 7.57189651 254.87042678 5.97705078 255.95678711 C-1.22812789 260.41346108 -1.22812789 260.41346108 -5.97241211 259.30639648 C-9.17123359 257.7555241 -12.04069052 255.96835895 -15 254 C-17.08591362 252.78359993 -19.175842 251.57406095 -21.26953125 250.37109375 C-23.45259139 249.06334608 -25.63351283 247.75202289 -27.8125 246.4375 C-30.19848783 245.00830104 -32.58705017 243.58345351 -34.9765625 242.16015625 C-35.57129868 241.80574463 -36.16603485 241.45133301 -36.77879333 241.08618164 C-42.36797906 237.76442232 -48.01677149 234.55492608 -53.6875 231.375 C-62.44819481 226.45922631 -71.14398567 221.4427386 -79.8137207 216.3684082 C-87.15272426 212.07395134 -94.50798923 207.80872865 -101.875 203.5625 C-102.95354248 202.94076904 -104.03208496 202.31903809 -105.14331055 201.6784668 C-108.42860776 199.78518248 -111.71423989 197.89248083 -115 196 C-128.67554314 188.12337411 -142.33960958 180.22879908 -155.96582031 172.26708984 C-163.2562249 168.01017218 -170.56141354 163.77945605 -177.875 159.5625 C-178.94580811 158.9449585 -180.01661621 158.32741699 -181.11987305 157.69116211 C-186.15016697 154.79146088 -191.18212699 151.89470392 -196.21731567 149.00350952 C-217.51994077 136.77058039 -217.51994077 136.77058039 -225.125 132.1875 C-226.09695313 131.60355469 -227.06890625 131.01960937 -228.0703125 130.41796875 C-229.02550781 129.71607422 -229.02550781 129.71607422 -230 129 C-230 128.34 -230 127.68 -230 127 C-229.2879541 126.59386475 -228.5759082 126.18772949 -227.84228516 125.76928711 C-225.68175381 124.53664748 -223.52154822 123.30343681 -221.36157227 122.06982422 C-218.85328956 120.63755087 -216.34313617 119.20862745 -213.83178711 117.78173828 C-207.35554089 114.09653597 -200.9127952 110.36795026 -194.52734375 106.52734375 C-193.34389995 105.8218222 -192.16014918 105.11681527 -190.97607422 104.41235352 C-188.73054446 103.07213424 -186.4935483 101.71749416 -184.26611328 100.34741211 C-182.7441333 99.44454468 -182.7441333 99.44454468 -181.19140625 98.5234375 C-180.30654541 97.98638184 -179.42168457 97.44932617 -178.51000977 96.89599609 C-176 96 -176 96 -173.48803711 96.67871094 C-172.66698486 97.11473633 -171.84593262 97.55076172 -171 98 C-170.195625 98.40589355 -169.39125 98.81178711 -168.5625 99.22998047 C-167.716875 99.68775879 -166.87125 100.14553711 -166 100.6171875 C-165.0416626 101.13531006 -164.0833252 101.65343262 -163.09594727 102.18725586 C-162.07428467 102.74421143 -161.05262207 103.30116699 -160 103.875 C-158.93128662 104.45580322 -157.86257324 105.03660645 -156.76147461 105.63500977 C-149.12240738 109.80275088 -141.54585697 114.07023938 -134.00341797 118.40991211 C-127.23791253 122.30195105 -120.43888138 126.13083604 -113.625 129.9375 C-105.57152226 134.4377007 -97.52795819 138.95442305 -89.5 143.5 C-81.5122579 148.02207718 -73.5111177 152.51946758 -65.5 157 C-57.18082395 161.65484657 -48.86593571 166.31712242 -40.5625 171 C-39.64597656 171.515625 -38.72945312 172.03125 -37.78515625 172.5625 C-32.49890157 175.54767911 -27.27953594 178.61867228 -22.10913086 181.80078125 C-19.92545495 183.13263203 -19.92545495 183.13263203 -17 184 C-17 173.77 -17 163.54 -17 153 C-18.65 152.34 -20.3 151.68 -22 151 C-23.57373278 150.1794454 -25.13201455 149.32875569 -26.67578125 148.453125 C-27.57337158 147.94539551 -28.47096191 147.43766602 -29.39575195 146.91455078 C-30.35827881 146.36524902 -31.32080566 145.81594727 -32.3125 145.25 C-33.32723389 144.67362793 -34.34196777 144.09725586 -35.38745117 143.50341797 C-44.57556641 138.27103185 -53.7069563 132.94285446 -62.83203125 127.6015625 C-69.20565253 123.87369138 -75.60139119 120.18476863 -82 116.5 C-94.35889692 109.37664767 -106.70177758 102.22768321 -119 95 C-120.15866982 94.32092672 -121.31736194 93.64189146 -122.47607422 92.96289062 C-125.99003908 90.90197042 -129.49533259 88.82669204 -133 86.75 C-134.09965088 86.10546875 -135.19930176 85.4609375 -136.33227539 84.796875 C-137.33637451 84.19875 -138.34047363 83.600625 -139.375 82.984375 C-140.26960938 82.45553711 -141.16421875 81.92669922 -142.0859375 81.38183594 C-142.71757812 80.92583008 -143.34921875 80.46982422 -144 80 C-144 79.34 -144 78.68 -144 78 C-143.27111572 77.59797363 -142.54223145 77.19594727 -141.79125977 76.78173828 C-124.52089645 67.2744474 -124.52089645 67.2744474 -107.4375 57.4375 C-106.7662207 57.04280518 -106.09494141 56.64811035 -105.40332031 56.24145508 C-102.5496312 54.55317904 -99.74131778 52.83175681 -96.9609375 51.0234375 C-96.08695313 50.45882812 -95.21296875 49.89421875 -94.3125 49.3125 C-93.60738281 48.83425781 -92.90226563 48.35601562 -92.17578125 47.86328125 C-89.11307365 46.64809565 -87.19321104 47.26938285 -84 48 C-81.20532227 49.28417969 -81.20532227 49.28417969 -78.31640625 50.921875 C-77.23512451 51.52894287 -76.15384277 52.13601074 -75.03979492 52.76147461 C-73.88058895 53.42412811 -72.7214932 54.08697444 -71.5625 54.75 C-70.35893308 55.4299208 -69.15490648 56.10902851 -67.95043945 56.78735352 C-65.49110645 58.17436256 -63.03479728 59.56650416 -60.58105469 60.96337891 C-57.26002137 62.85382528 -53.9318931 64.73143982 -50.6015625 66.60546875 C-45.06092595 69.72508509 -39.5287751 72.85941987 -34 76 C-32.86328857 76.64485352 -32.86328857 76.64485352 -31.70361328 77.30273438 C-20.55796371 83.62802419 -20.55796371 83.62802419 -17 86 C-15.67983419 75.77469834 -14.49349097 64.87738059 -18 55 C-24.15148058 48.04804216 -32.96859635 44.92399358 -41.41210938 41.55517578 C-47.25085635 39.02436344 -52.97578799 35.92418393 -58 32 C-58 31.01 -58 30.02 -58 29 C-56.9790625 28.44054687 -55.958125 27.88109375 -54.90625 27.3046875 C-44.70872914 21.69014789 -34.62093849 15.90645565 -24.58984375 9.99951172 C-22.67939097 8.87724945 -20.76555213 7.76072867 -18.84814453 6.65039062 C-16.89292881 5.51741803 -14.94635944 4.36943163 -13.00732422 3.20898438 C-12.04455566 2.65017578 -11.08178711 2.09136719 -10.08984375 1.515625 C-9.23124756 1.00805664 -8.37265137 0.50048828 -7.48803711 -0.02246094 C-4.42770243 -1.22485325 -3.09924269 -1.02088074 0 0 Z " fill="#47825A" transform="translate(569,150)"/>
<path d="M0 0 C1.76518392 0.96223606 3.53029685 1.92460236 5.29537964 2.88702393 C6.76981191 3.69087965 6.76981191 3.69087965 8.27403069 4.51097488 C23.33585937 12.73830198 38.26665121 21.19803459 53 30 C53.88045833 30.37353261 54.76091665 30.74706522 55.66805553 31.131917 C58 33 58 33 58.63085651 36.46138287 C58.65928752 37.9331864 58.65986263 39.40567565 58.63923645 40.87760925 C58.64759213 41.68871589 58.6559478 42.49982254 58.66455668 43.33550817 C58.6865651 46.0628904 58.67285618 48.78893624 58.65942383 51.51635742 C58.66787263 53.46752448 58.6785147 55.41868311 58.69119263 57.36982727 C58.71942202 62.6753824 58.71685267 67.98053439 58.70889878 73.28614211 C58.70578104 78.82756673 58.73078655 84.36886129 58.75285339 89.91023254 C58.79035942 100.40744841 58.80244527 110.9045347 58.8054778 121.40181094 C58.81016152 133.35092985 58.84306277 145.29991839 58.87837565 157.24897993 C58.95039302 181.83263748 58.98684015 206.4162455 59 231 C59.64026123 231.34780518 60.28052246 231.69561035 60.94018555 232.05395508 C63.85656606 233.63901911 66.7720402 235.22574316 69.6875 236.8125 C70.69490234 237.35970703 71.70230469 237.90691406 72.74023438 238.47070312 C73.71669922 239.00244141 74.69316406 239.53417969 75.69921875 240.08203125 C76.59471436 240.56905518 77.49020996 241.0560791 78.4128418 241.55786133 C80.97264645 242.98475253 83.48700167 244.492201 86 246 C86 181.32 86 116.64 86 50 C89.88461437 51.55384575 93.17185557 53.13764688 96.76953125 55.203125 C97.89512451 55.84757568 99.02071777 56.49202637 100.18041992 57.15600586 C101.39120427 57.85384607 102.60189564 58.5518476 103.8125 59.25 C105.05629798 59.96444561 106.30019562 60.67871774 107.54418945 61.39282227 C111.36632336 63.5891169 115.18389275 65.79325372 119 68 C119.60726929 68.35108826 120.21453857 68.70217651 120.84020996 69.06390381 C124.79239956 71.34979591 128.74104801 73.6417115 132.6875 75.9375 C133.71399658 76.53401367 134.74049316 77.13052734 135.7980957 77.74511719 C136.73484131 78.29200195 137.67158691 78.83888672 138.63671875 79.40234375 C139.45873779 79.88179443 140.28075684 80.36124512 141.12768555 80.85522461 C143 82 143 82 144 83 C144.08575066 85.51399841 144.10592683 88.0001379 144.084198 90.5140686 C144.08137475 91.31036033 144.0785515 92.10665206 144.0756427 92.92707384 C144.06517848 95.6162985 144.04781187 98.30543855 144.03076172 100.99462891 C144.02234072 102.91442628 144.01450621 104.83422631 144.00721741 106.75402832 C143.99544249 109.82736588 143.98323147 112.90069662 143.96924853 115.97402501 C143.93476619 123.60105679 143.91853506 131.22796639 143.91360474 138.85507202 C143.91287205 139.96011003 143.91213936 141.06514804 143.91138446 142.20367205 C143.90871847 146.76527022 143.90667163 151.32686847 143.9049089 155.88846707 C143.8991242 168.85479007 143.87536551 181.82051077 143.79785156 194.78662109 C143.73646391 205.07513508 143.71378309 215.36290812 143.73666394 225.65159166 C143.74731391 231.09903323 143.73825449 236.54485542 143.68233871 241.99205399 C143.63015032 247.11947278 143.6293124 252.24434066 143.66770744 257.37185669 C143.67270024 259.25243189 143.65890423 261.13316621 143.62482262 263.01343918 C143.15056366 273.07409377 143.15056366 273.07409377 147.39682388 281.74357224 C152.37163739 285.18345979 152.37163739 285.18345979 158.1947155 285.72078896 C160.73464753 284.70668013 163.06429912 283.44578939 165.453125 282.11328125 C166.53505127 281.51169189 167.61697754 280.91010254 168.73168945 280.2902832 C169.90458587 279.63124676 171.07735279 278.97197978 172.25 278.3125 C173.4663034 277.63290167 174.68269458 276.95346042 175.89916992 276.27416992 C184.75811485 271.31472651 193.53041451 266.21347504 202.28149414 261.06616211 C209.75305729 256.68653656 217.31836885 252.50741863 224.9362793 248.38891602 C233.73171229 243.62659544 242.40809418 238.66838142 251.07714844 233.68066406 C256.63026186 230.48757746 262.18980173 227.30572643 267.75 224.125 C268.63032898 223.62105713 268.63032898 223.62105713 269.52844238 223.10693359 C276.0463636 219.37677908 282.57460535 215.66675125 289.1328125 212.0078125 C290.26750977 211.37472168 291.40220703 210.74163086 292.57128906 210.08935547 C294.71508774 208.89578621 296.8601953 207.70456368 299.00683594 206.51611328 C304.90073071 203.24605137 304.90073071 203.24605137 310.5703125 199.609375 C313 198 313 198 315 198 C315 220.11 315 242.22 315 265 C299.32088714 273.95949306 283.65010644 282.89525206 267.88671875 291.69921875 C261.49970974 295.27281547 255.14509345 298.90163629 248.79541016 302.54101562 C242.52291869 306.13479125 236.23405354 309.6985704 229.9375 313.25 C220.72357802 318.44755674 211.53637038 323.69095049 202.35757446 328.95019531 C195.88040098 332.66033498 189.39376423 336.35161639 182.875 339.98828125 C181.17126221 340.93876343 181.17126221 340.93876343 179.43310547 341.90844727 C177.28764962 343.10277741 175.14091456 344.29481363 172.99267578 345.48413086 C167.12606013 348.73458891 167.12606013 348.73458891 161.5546875 352.453125 C159 354 159 354 157.11279297 353.73608398 C154.80792905 352.93308367 152.78342035 351.93948274 150.640625 350.76953125 C149.78509033 350.30377686 148.92955566 349.83802246 148.0480957 349.3581543 C147.12472412 348.84808838 146.20135254 348.33802246 145.25 347.8125 C144.27699951 347.27858643 143.30399902 346.74467285 142.30151367 346.19458008 C134.23024182 341.73877367 126.2700003 337.10384341 118.32397461 332.42944336 C109.58164649 327.30105045 100.73602306 322.37236174 91.86547852 317.4699707 C84.1051729 313.17854459 76.38611974 308.82240447 68.69482422 304.40869141 C62.45708445 300.82942545 56.20166899 297.28279082 49.9375 293.75 C41.62373353 289.05733433 33.32096144 284.34571762 25.02957153 279.61364746 C23.82167895 278.92438366 22.61357665 278.23548722 21.40524292 277.54699707 C19.70049417 276.57545268 17.99672101 275.60219708 16.29296875 274.62890625 C15.3186792 274.07275635 14.34438965 273.51660645 13.34057617 272.94360352 C12.23818604 272.30221436 11.1357959 271.6608252 10 271 C9.18442112 270.62932683 8.36884223 270.25865366 7.52854884 269.87674797 C0.56857045 266.41437116 0.56857045 266.41437116 -0.92113328 262.70859647 C-1.26475917 259.83659226 -1.28564264 257.10971305 -1.20254517 254.2180481 C-1.21536154 252.58714621 -1.21536154 252.58714621 -1.22843683 250.92329681 C-1.24491665 247.27808229 -1.189913 243.63746621 -1.13525391 239.99267578 C-1.1324333 237.38098764 -1.13401623 234.76929156 -1.13967896 232.15760803 C-1.14491837 226.53415406 -1.11359184 220.91186182 -1.05730057 215.2887001 C-0.97596838 207.15880127 -0.94998039 199.02946318 -0.93742065 190.89920162 C-0.91554351 177.70819888 -0.84902039 164.51781514 -0.75439453 151.32714844 C-0.66257976 138.51500543 -0.59180802 125.70303065 -0.54931641 112.890625 C-0.54668917 112.10064751 -0.54406194 111.31067003 -0.54135509 110.49675383 C-0.52830455 106.53359981 -0.51566751 102.5704446 -0.50323606 98.6072886 C-0.39959746 65.7377418 -0.22349232 32.86895376 0 0 Z " fill="#47825A" transform="translate(408,350)"/>
<path d="M0 0 C0 87.78 0 175.56 0 266 C-9.57 271.28 -19.14 276.56 -29 282 C-39.86649017 288.33535589 -39.86649017 288.33535589 -50.68945312 294.74169922 C-53 296 -53 296 -58 298 C-58 265.66 -58 233.32 -58 200 C-65.62376322 203.81188161 -73.06624923 207.64116639 -80.4375 211.875 C-90.11293551 217.39112893 -99.84829325 222.78867224 -109.61169434 228.14666748 C-118.33254206 232.93561724 -126.99405308 237.81293555 -135.54394531 242.90283203 C-140.79236006 246 -140.79236006 246 -143 246 C-143.39561415 237.69880466 -143.69672098 229.40159618 -143.88080692 221.09327888 C-143.96921717 217.23391019 -144.08879093 213.38102429 -144.2824707 209.52539062 C-145.49384919 184.7577798 -145.49384919 184.7577798 -141.47393799 178.70050049 C-137.59767386 175.11463605 -133.15044483 173.33655838 -128.17550659 171.74200439 C-125.07511461 170.68454748 -122.40655565 169.07077029 -119.609375 167.3828125 C-117.6571587 166.29524225 -115.70403016 165.20930792 -113.75 164.125 C-107.64568503 160.72163535 -101.54203489 157.31789541 -95.46875 153.859375 C-94.16260742 153.1171167 -94.16260742 153.1171167 -92.83007812 152.35986328 C-91.11662656 151.3737531 -89.4119883 150.37216067 -87.71679688 149.35498047 C-83.25570462 146.70330034 -78.9313111 144.5240954 -74.0625 142.7109375 C-65.48286833 139.31420431 -65.48286833 139.31420431 -59 133 C-56.16941637 122.65572952 -57.0704338 111.57581277 -58 101 C-80.14694398 113.28509969 -102.27117448 125.60929338 -124.30834961 138.09057617 C-129.41256909 140.97951593 -134.52376956 143.85531315 -139.64453125 146.71484375 C-140.75699219 147.33617187 -141.86945313 147.9575 -143.015625 148.59765625 C-145.14374327 149.78526728 -147.27259712 150.97156161 -149.40234375 152.15625 C-155.0228085 155.29273627 -160.56338307 158.51647861 -166.02807617 161.91821289 C-168 163 -168 163 -170 163 C-170 196 -170 229 -170 263 C-221.33333333 292.33333333 -221.33333333 292.33333333 -228 295 C-228 240.88 -228 186.76 -228 131 C-215 123.5 -202 116 -189 108.5 C-186.85757813 107.26378906 -184.71515625 106.02757812 -182.5078125 104.75390625 C-178.14934612 102.23930564 -173.78987809 99.72645339 -169.4296875 97.21484375 C-158.93767906 91.16944841 -148.45518324 85.10889781 -138 79 C-126.45270484 72.25298806 -114.87097973 65.56660682 -103.28222656 58.89111328 C-97.85340058 55.76319852 -92.42680719 52.63141552 -87 49.5 C-84.83334417 48.24998121 -82.6666775 46.99998122 -80.5 45.75 C-79.4275 45.13125 -78.355 44.5125 -77.25 43.875 C-67.5 38.25 -67.5 38.25 -64.24853516 36.37426758 C-62.08662116 35.12693452 -59.92483683 33.8793767 -57.76318359 32.6315918 C-52.27485415 29.46391168 -46.78417467 26.30043239 -41.2890625 23.14453125 C-39.06754027 21.86747981 -36.84618431 20.59013909 -34.625 19.3125 C-33.55443359 18.69689209 -32.48386719 18.08128418 -31.38085938 17.44702148 C-23.50949282 12.90626612 -15.704921 8.2620987 -7.96337891 3.50317383 C-6.8213501 2.80744263 -6.8213501 2.80744263 -5.65625 2.09765625 C-4.66334961 1.48676147 -4.66334961 1.48676147 -3.65039062 0.86352539 C-2 0 -2 0 0 0 Z " fill="#47825A" transform="translate(807,301)"/>
<path d="M0 0 C13.64873418 6.82436709 13.64873418 6.82436709 19.625 10.4375 C21.05664973 11.29014128 22.48899287 12.14161891 23.921875 12.9921875 C24.70884766 13.45979492 25.49582031 13.92740234 26.30664062 14.40917969 C31.22267284 17.31281148 36.16111881 20.17768199 41.10321045 23.03665161 C42.28033969 23.71819764 43.45681832 24.40086866 44.63262939 25.08468628 C46.29261092 26.04999234 47.95485746 27.01140016 49.6171875 27.97265625 C50.58253418 28.53218994 51.54788086 29.09172363 52.54248047 29.66821289 C55.02142019 31.10379602 55.02142019 31.10379602 58 32 C58 119.78 58 207.56 58 298 C54.23589007 296.49435603 50.96459936 294.96798631 47.44921875 293.015625 C45.82874634 292.11674561 45.82874634 292.11674561 44.17553711 291.19970703 C43.02448486 290.55630371 41.87343262 289.91290039 40.6875 289.25 C40.09873077 288.92207458 39.50996155 288.59414917 38.90335083 288.25628662 C27.17282712 281.72205315 15.56557045 274.98555249 4.00170898 268.16064453 C2.69029429 267.40025113 1.35587805 266.67793903 0 266 C0 178.22 0 90.44 0 0 Z " fill="#48835B" transform="translate(324,301)"/>
<path d="M0 0 C5.59853629 2.7700075 9.55100756 6.65746821 12.25 12.3125 C12.31195557 12.9717749 12.37391113 13.6310498 12.43774414 14.31030273 C12.81729017 18.14700899 13.38071511 20.52963766 16.30541992 23.16357422 C19.13964459 24.97089822 22.02187062 26.5659916 25 28.125 C26.07894531 28.72119141 27.15789062 29.31738281 28.26953125 29.93164062 C31.58154132 31.75421459 34.9132702 33.53567639 38.25 35.3125 C40.13158855 36.33470307 42.01187906 37.35930049 43.890625 38.38671875 C46.57845722 39.85557944 49.26739437 41.32189149 51.96264648 42.77709961 C59.7727769 47.00302886 67.43214046 51.46564997 75.08691406 55.96533203 C83.2026882 60.72667304 91.39278992 65.34246071 99.61254883 69.92138672 C108.11828662 74.66457863 116.57688011 79.48690212 125.02563477 84.33044434 C133.32165745 89.08498026 141.64673612 93.78406266 150 98.4375 C159.09943107 103.5085744 168.10967054 108.71547401 177.09082031 113.99267578 C184.58300958 118.37879441 192.1490924 122.61803732 199.75 126.8125 C208.35607651 131.56165216 216.89883746 136.39765754 225.375 141.375 C228.30534618 143.08692488 231.23635521 144.79771023 234.16748047 146.50830078 C236.32806574 147.77289172 238.48569957 149.04253245 240.64111328 150.31591797 C244.06110998 152.33586289 247.49884668 154.32447393 250.9375 156.3125 C251.99533691 156.94293213 253.05317383 157.57336426 254.14306641 158.22290039 C255.13097168 158.78871826 256.11887695 159.35453613 257.13671875 159.9375 C258.00514404 160.44539062 258.87356934 160.95328125 259.76831055 161.4765625 C262.23665917 162.56386279 262.23665917 162.56386279 264.7434082 161.63818359 C265.5705835 161.20070801 266.39775879 160.76323242 267.25 160.3125 C268.50200195 159.65822021 268.50200195 159.65822021 269.77929688 158.99072266 C270.66681641 158.4910498 271.55433594 157.99137695 272.46875 157.4765625 C273.47204346 156.91340332 274.47533691 156.35024414 275.5090332 155.77001953 C277.11331177 154.86292236 277.11331177 154.86292236 278.75 153.9375 C279.86785889 153.30827637 280.98571777 152.67905273 282.13745117 152.03076172 C291.57700774 146.71049165 300.98897497 141.34244735 310.38867188 135.95214844 C315.26688227 133.15675074 320.14934254 130.36879125 325.03134155 127.58001709 C328.02236328 125.871345 331.01312061 124.16221026 334.00390625 122.453125 C335.21500526 121.76106552 336.42610552 121.06900823 337.63720703 120.37695312 C338.53454559 119.86418823 338.53454559 119.86418823 339.45001221 119.34106445 C344.7807617 116.29492188 344.7807617 116.29492188 346.53164673 115.29441833 C347.69536587 114.62943452 348.8590825 113.96444632 350.02279663 113.29945374 C352.92757383 111.63955563 355.83239457 109.97973383 358.73730469 108.32006836 C364.03506422 105.2931939 369.33247869 102.26572261 374.62832642 99.23550415 C386.91462304 92.20549545 399.21074902 85.19408689 411.53955078 78.23876953 C422.00362817 72.33089945 432.43289639 66.36225573 442.86260986 60.39402771 C447.0201441 58.01518397 451.1795215 55.63958892 455.33984375 53.265625 C457.10206167 52.259772 458.86425254 51.25387163 460.62643433 50.24795532 C462.36153678 49.25768383 464.09690507 48.26787817 465.83227539 47.27807617 C471.80800629 43.86572952 477.7715957 40.43448557 483.71875 36.97265625 C484.93210401 36.26761665 486.14548252 35.56261922 487.35888672 34.85766602 C489.66026157 33.52046835 491.95806997 32.17769674 494.25439453 30.83178711 C495.27645996 30.23760986 496.29852539 29.64343262 497.3515625 29.03125 C498.25213379 28.50466797 499.15270508 27.97808594 500.08056641 27.43554688 C502.25 26.3125 502.25 26.3125 504.25 26.3125 C504.51260373 30.01947705 504.67156838 33.72406358 504.8125 37.4375 C504.92561523 39.00757813 504.92561523 39.00757813 505.04101562 40.609375 C505.25601003 48.15806731 505.25601003 48.15806731 502.65478516 51.14306641 C500.26910009 52.77537724 497.8454805 54.0397624 495.25 55.3125 C493.23150851 56.45589185 491.21604535 57.604641 489.203125 58.7578125 C486.97062836 59.98779053 484.73616819 61.21420976 482.5 62.4375 C480.07822534 63.77126324 477.65823655 65.10825171 475.23828125 66.4453125 C474.63834854 66.77638 474.03841583 67.10744751 473.42030334 67.44854736 C468.1507013 70.35936229 462.91119266 73.32022813 457.6875 76.3125 C456.85541016 76.78913086 456.02332031 77.26576172 455.16601562 77.75683594 C450.45519608 80.46079605 445.75204766 83.1779077 441.05078125 85.8984375 C438.86727314 87.16160638 436.68367798 88.4246248 434.5 89.6875 C433.40695557 90.31970459 432.31391113 90.95190918 431.18774414 91.60327148 C422.67007851 96.51873046 414.09626397 101.3277029 405.50488281 106.11279297 C398.37044352 110.09717883 391.29708404 114.17580459 384.25 118.3125 C375.03068873 123.72391713 365.74034819 128.9933735 356.40332031 134.19873047 C347.15751869 139.35443037 337.96258466 144.5954149 328.77978516 149.86230469 C324.58498399 152.26696777 320.38601314 154.66432602 316.1875 157.0625 C314.45832448 158.05076575 312.72915809 159.0390475 311 160.02734375 C307.32608246 162.12681826 303.6514645 164.22506079 299.9763031 166.32235718 C297.49209316 167.74010974 295.00813674 169.15830617 292.52420044 170.57653809 C291.32304282 171.26220679 290.12177377 171.94768035 288.92037964 172.63293457 C287.21615106 173.60502446 285.51236928 174.57789752 283.80859375 175.55078125 C282.71788574 176.16904785 281.62717773 176.78731445 280.50341797 177.42431641 C278.2968355 178.70494891 276.11368956 180.02667053 273.95361328 181.38427734 C272.90802246 182.03477051 271.86243164 182.68526367 270.78515625 183.35546875 C269.86226807 183.94739014 268.93937988 184.53931152 267.98852539 185.14916992 C264.52985634 186.61841821 262.83457789 186.33993052 259.25 185.3125 C256.60717773 184.10424805 256.60717773 184.10424805 253.93359375 182.57421875 C252.43348755 181.724646 252.43348755 181.724646 250.90307617 180.85791016 C249.84193604 180.2447998 248.7807959 179.63168945 247.6875 179 C246.01747925 178.04939697 246.01747925 178.04939697 244.3137207 177.07958984 C240.95446399 175.16528551 237.60201336 173.23945142 234.25 171.3125 C232.47452911 170.29977992 230.69853337 169.28797913 228.921875 168.27734375 C223.69185486 165.29961224 218.47075792 162.30643218 213.25 159.3125 C208.66768354 156.68572086 204.08452916 154.06041488 199.5 151.4375 C198.90785706 151.09869812 198.31571411 150.75989624 197.70562744 150.41082764 C188.22932957 144.99133517 178.71690774 139.63900692 169.18579102 134.31640625 C160.13431405 129.25812204 151.12824439 124.12330606 142.13330078 118.96533203 C136.54953387 115.76447666 130.96249724 112.56933761 125.375 109.375 C124.77730804 109.03325745 124.17961609 108.69151489 123.56381226 108.3394165 C114.71413 103.28036532 105.84797711 98.2511767 96.96875 93.24414062 C88.8225915 88.64641266 80.70430961 84.00042405 72.58752441 79.35113525 C64.25317957 74.57892666 55.88964134 69.8619738 47.5 65.1875 C37.02342912 59.347757 26.64882976 53.34422089 16.3046875 47.2734375 C15.43336182 46.76425781 14.56203613 46.25507812 13.66430664 45.73046875 C12.14215486 44.83647972 10.62494755 43.93396623 9.11499023 43.01953125 C4.79695705 40.44005832 3.16121565 40.20052665 -1.75 41.3125 C-8.60491279 41.77204723 -14.7608536 42.07039578 -20.75 38.3125 C-25.63099275 33.69156014 -29.22671749 29.30597176 -30.12109375 22.48046875 C-30.27937432 15.37646434 -29.5144683 10.71833903 -24.75 5.3125 C-17.35309866 -1.70507306 -9.49705591 -3.88731407 0 0 Z " fill="#49835C" transform="translate(302.75,562.6875)"/>
<path d="M0 0 C6.03136435 2.38775931 9.9845682 6.34606537 13 12 C15.15582145 18.46746436 14.81084022 25.07915104 12.0625 31.3125 C9.0736562 36.50364975 5.71480331 39.98347944 0 42 C-5.97201205 42.63558822 -12.07823056 42.8460875 -17.88671875 41.1640625 C-22.80703592 40.90477351 -26.02312675 43.41311957 -30.125 45.9375 C-32.00469404 47.05295045 -33.88493138 48.16748571 -35.765625 49.28125 C-36.77044922 49.88324219 -37.77527344 50.48523438 -38.81054688 51.10546875 C-43.8653102 54.10799197 -48.97627905 57.01162191 -54.08612061 59.91897583 C-55.88873671 60.94532119 -57.68994479 61.97409526 -59.49072266 63.00366211 C-66.81498523 67.19071769 -74.15192212 71.3548641 -81.5 75.5 C-89.91071875 80.24488573 -98.3043103 85.01917974 -106.6875 89.8125 C-107.56554794 90.31447906 -107.56554794 90.31447906 -108.46133423 90.82659912 C-114.42563159 94.23667004 -120.38845512 97.64930669 -126.34959412 101.06489563 C-129.29510888 102.75239031 -132.24117253 104.43892475 -135.1875 106.125 C-135.76805145 106.45728607 -136.34860291 106.78957214 -136.94674683 107.13192749 C-145.18693278 111.84615506 -153.45747023 116.50347668 -161.75 121.125 C-169.84721325 125.63775171 -177.88279194 130.24138697 -185.875 134.9375 C-195.47208721 140.57661825 -205.17162824 146.00874955 -214.91772461 151.38549805 C-223.38281743 156.06832829 -231.76126322 160.8836646 -240.08203125 165.81835938 C-249.61066397 171.44192927 -259.2845368 176.65649524 -269 182 C-269.33 273.41 -269.66 364.82 -270 459 C-276.75 456.75 -276.75 456.75 -279.6484375 455.0546875 C-280.26074219 454.70019531 -280.87304688 454.34570312 -281.50390625 453.98046875 C-282.12136719 453.61566406 -282.73882812 453.25085938 -283.375 452.875 C-284.01566406 452.50246094 -284.65632813 452.12992188 -285.31640625 451.74609375 C-286.88048477 450.83565998 -288.44065534 449.91851809 -290 449 C-290.29758929 413.59348104 -290.52664142 378.18718143 -290.66384928 342.77966923 C-290.68010837 338.59904176 -290.69693457 334.41841676 -290.71411133 330.23779297 C-290.71752136 329.40550993 -290.7209314 328.57322689 -290.72444477 327.71572316 C-290.78100469 314.24127019 -290.88349849 300.76753861 -291.00298635 287.29351354 C-291.1245797 273.4666882 -291.19676849 259.6402405 -291.22315043 245.81290245 C-291.24098467 237.28094735 -291.29729127 228.75103109 -291.40291407 220.21970373 C-291.47166334 214.36845609 -291.49239605 208.51826142 -291.47551791 202.66663927 C-291.46719087 199.2893643 -291.48698595 195.91851478 -291.54967117 192.54138374 C-291.89834968 172.78895529 -291.89834968 172.78895529 -288.75534415 168.17141724 C-285.33036148 164.91638978 -281.44461206 163.52010706 -277 162 C-274.86904342 160.8466008 -272.75497273 159.66083334 -270.66796875 158.4296875 C-268.50906748 157.2425066 -266.34887195 156.05767682 -264.1875 154.875 C-255.34843679 150.01010241 -246.57312242 145.05149325 -237.875 139.9375 C-228.69329437 134.5413278 -219.43918421 129.29096211 -210.13745117 124.10473633 C-201.00832814 119.01353572 -191.92889332 113.83948492 -182.86132812 108.63964844 C-177.98265472 105.84398542 -173.09974233 103.05574112 -168.21728516 100.26669312 C-165.23328937 98.56210087 -162.24943279 96.85726504 -159.265625 95.15234375 C-158.66721802 94.81042496 -158.06881104 94.46850616 -157.45227051 94.1162262 C-153.83091023 92.04684707 -150.21019747 89.97634013 -146.5900116 87.90490723 C-143.6227163 86.20707345 -140.65514768 84.50971776 -137.6875 82.8125 C-137.10390717 82.47869324 -136.52031433 82.14488647 -135.91903687 81.80096436 C-128.04481277 77.29801405 -120.15404027 72.82540264 -112.25 68.375 C-104.53856583 64.03268441 -96.88173845 59.60576263 -89.25 55.125 C-79.50605515 49.4067525 -69.66343751 43.88433006 -59.77075195 38.42797852 C-51.96416586 34.11577448 -44.22380133 29.70478292 -36.55737305 25.14770508 C-31.21105926 22 -31.21105926 22 -29 22 C-28.97421875 21.41992188 -28.9484375 20.83984375 -28.921875 20.2421875 C-28.38136871 12.79794174 -25.9982322 8.63125831 -20.375 3.6875 C-14.33284508 -1.33883412 -7.53230852 -0.8021221 0 0 Z " fill="#48835B" transform="translate(573,93)"/>
<path d="M0 0 C0.96341309 0.56323975 1.92682617 1.12647949 2.91943359 1.70678711 C4.01924561 2.34310059 5.11905762 2.97941406 6.25219727 3.63500977 C7.44078779 4.33466145 8.62934482 5.03437004 9.81787109 5.73413086 C11.06379904 6.45826168 12.31031074 7.18138894 13.55737305 7.90356445 C16.14896674 9.4054777 18.73799459 10.91167526 21.32519531 12.42114258 C26.74461917 15.57940708 32.18999381 18.69206933 37.63751221 21.80154419 C39.38879226 22.80143893 41.13926669 23.80273294 42.88964844 24.80419922 C50.54791016 29.18234513 58.23739676 33.50221125 65.94287109 37.79663086 C75.0873268 42.89377684 84.14646201 48.12161832 93.17431641 53.42211914 C100.29872971 57.59452399 107.47865056 61.6567603 114.69287109 65.67163086 C122.91487018 70.24735209 131.07861324 74.90745455 139.19287109 79.67163086 C148.41722209 85.08613785 157.71301581 90.3579378 167.05493164 95.56665039 C176.15792961 100.64319945 185.21109537 105.80270476 194.25244141 110.98803711 C197.62336676 112.91811858 200.9977657 114.84207424 204.37255859 116.76538086 C206.25658627 117.83970323 208.14055562 118.91412783 210.02450562 119.98858643 C211.24095835 120.68209631 212.4576059 121.3752646 213.67446899 122.0680542 C215.39344098 123.04684213 217.11152438 124.02719009 218.82958984 125.00756836 C219.81660889 125.57008301 220.80362793 126.13259766 221.82055664 126.7121582 C222.93342041 127.35878418 224.04628418 128.00541016 225.19287109 128.67163086 C226.00950076 129.02734993 226.82613043 129.38306901 227.66750646 129.74956745 C234.62469121 133.11516558 234.62469121 133.11516558 236.113379 137.19325936 C236.45747752 140.42838536 236.47594383 143.53390893 236.39300537 146.78663635 C236.40139978 148.01738433 236.40979418 149.24813231 236.41844296 150.51617569 C236.43178172 153.92697992 236.40038297 157.33206194 236.35011601 160.74216926 C236.30688144 164.4211306 236.32159598 168.09990976 236.32948303 171.77905273 C236.33548682 178.15216033 236.30561252 184.52428478 236.25197601 190.89715767 C236.17496096 200.1165608 236.1588611 209.33530247 236.15873113 218.554991 C236.15742561 233.52041787 236.11592438 248.48543388 236.04492188 263.45068359 C236.04068361 264.34615408 236.03644535 265.24162456 236.03207865 266.16423052 C236.02348307 267.9766183 236.01488157 269.78900606 236.00627418 271.60139379 C235.99987531 272.94925257 235.99987531 272.94925257 235.99334717 274.32434082 C235.98692688 275.673401 235.98692688 275.673401 235.98037688 277.04971493 C235.93339279 287.04076601 235.8960499 297.03184538 235.86230469 307.02294922 C235.85927203 307.91763153 235.85623937 308.81231384 235.85311481 309.73410774 C235.80347434 324.64481871 235.77780495 339.55550433 235.76601052 354.46629089 C235.75730761 363.66443889 235.72491178 372.86195691 235.66200265 382.05989718 C235.62001169 388.3593737 235.59849817 394.65869663 235.59316459 400.95831031 C235.58924052 404.59464012 235.5751827 408.23023076 235.53484535 411.86635399 C235.49127755 415.80562147 235.49376644 419.7440891 235.50067139 423.68360901 C235.48026409 424.83612752 235.45985679 425.98864603 235.43883109 427.17608935 C235.32443291 432.64846122 235.32443291 432.64846122 237.52371836 437.45171154 C239.30267644 439.0006477 239.30267644 439.0006477 242.19287109 440.67163086 C245.81492957 445.349316 246.84980436 450.31353226 246.57177734 456.15209961 C245.52264106 463.12831508 242.57473305 468.24789211 236.96630859 472.51928711 C231.27229956 476.21913879 224.80303177 476.59049007 218.19287109 475.67163086 C213.02277233 473.58982736 209.25725599 470.32495607 206.19287109 465.67163086 C205.61537109 464.80538086 205.03787109 463.93913086 204.44287109 463.04663086 C202.15567061 456.87118955 202.07488517 450.35644913 204.81787109 444.29663086 C207.00131757 440.50679161 209.61621256 438.15974114 213.19287109 435.67163086 C213.85287109 435.67163086 214.51287109 435.67163086 215.19287109 435.67163086 C215.19287109 340.30163086 215.19287109 244.93163086 215.19287109 146.67163086 C213.54287109 146.01163086 211.89287109 145.35163086 210.19287109 144.67163086 C208.32789039 143.70471771 206.47859907 142.70721073 204.64208984 141.68725586 C203.56362793 141.08905029 202.48516602 140.49084473 201.37402344 139.87451172 C200.20934249 139.22378434 199.04479513 138.57281783 197.88037109 137.92163086 C197.28395813 137.58938507 196.68754517 137.25713928 196.07305908 136.91482544 C186.68479466 131.68414959 177.38074616 126.31970028 168.11547852 120.8737793 C161.02453611 116.71425855 153.87640844 112.66885892 146.69287109 108.67163086 C137.46352339 103.53537921 128.32049984 98.26950462 119.21240234 92.92163086 C112.0875892 88.74919126 104.90740968 84.68667842 97.69287109 80.67163086 C88.46355707 75.53531697 79.32050137 70.26950551 70.21240234 64.92163086 C62.05734934 60.14586126 53.82158681 55.52549686 45.5637207 50.93041992 C38.24282581 46.84641418 30.98566744 42.66375832 23.75537109 38.42163086 C16.18267209 33.97873659 8.57778882 29.61508907 0.88696289 25.38012695 C-8.40782081 20.25614764 -17.60316205 14.95645393 -26.80712891 9.67163086 C-26.80712891 9.01163086 -26.80712891 8.35163086 -26.80712891 7.67163086 C-23.94764554 5.95674784 -21.06752862 4.2799786 -18.18212891 2.60913086 C-17.37388672 2.12379883 -16.56564453 1.6384668 -15.73291016 1.13842773 C-14.94013672 0.6840332 -14.14736328 0.22963867 -13.33056641 -0.23852539 C-12.60788574 -0.66270752 -11.88520508 -1.08688965 -11.140625 -1.52392578 C-7.01363015 -2.94665522 -3.84057397 -1.8174085 0 0 Z " fill="#48835B" transform="translate(612.80712890625,128.328369140625)"/>
<path d="M0 0 C0.69222656 0.4125 1.38445313 0.825 2.09765625 1.25 C2.80019531 1.6625 3.50273438 2.075 4.2265625 2.5 C11.26498505 7.20118546 17.04947484 14.84438762 19.66015625 22.9375 C21.67820729 33.60434121 20.24639324 44.17203948 14.7421875 53.5625 C13.30354482 55.59897006 11.79308706 57.42320409 10.09765625 59.25 C9.59621094 59.79269531 9.09476563 60.33539063 8.578125 60.89453125 C1.79741588 67.41127116 -6.71004776 70.52695265 -16.02734375 70.75 C-28.76288424 70.21701483 -36.65450106 66.01201012 -45.21484375 56.75 C-53.42739421 47.15258809 -53.55815676 37.32181729 -52.90234375 25.25 C-52.34681491 22.22754649 -51.43822264 19.90025719 -49.90234375 17.25 C-49.47695313 16.50363281 -49.0515625 15.75726563 -48.61328125 14.98828125 C-38.59817051 -1.21263319 -17.74082822 -8.76390828 0 0 Z " fill="#FBFCFB" transform="translate(838.90234375,95.75)"/>
<path d="M0 0 C0.69222656 0.4125 1.38445313 0.825 2.09765625 1.25 C2.80019531 1.6625 3.50273438 2.075 4.2265625 2.5 C11.26498505 7.20118546 17.04947484 14.84438762 19.66015625 22.9375 C21.67820729 33.60434121 20.24639324 44.17203948 14.7421875 53.5625 C13.30354482 55.59897006 11.79308706 57.42320409 10.09765625 59.25 C9.59621094 59.79269531 9.09476563 60.33539063 8.578125 60.89453125 C1.79741588 67.41127116 -6.71004776 70.52695265 -16.02734375 70.75 C-28.76288424 70.21701483 -36.65450106 66.01201012 -45.21484375 56.75 C-53.42739421 47.15258809 -53.55815676 37.32181729 -52.90234375 25.25 C-52.34681491 22.22754649 -51.43822264 19.90025719 -49.90234375 17.25 C-49.47695313 16.50363281 -49.0515625 15.75726563 -48.61328125 14.98828125 C-38.59817051 -1.21263319 -17.74082822 -8.76390828 0 0 Z M-40.984375 13.8515625 C-47.12047999 21.52481803 -48.12566886 29.67654838 -47.21582031 39.28710938 C-45.9432878 47.2553036 -41.31955284 53.97977123 -35.0234375 58.84765625 C-26.62628663 64.39936373 -19.18415201 65.44234287 -9.23046875 63.8125 C-1.11098958 61.7952381 5.43994505 57.20124341 10.03515625 50.1875 C14.78313086 42.13806635 15.68910504 32.66344331 13.4453125 23.62109375 C9.91292285 14.90382316 3.28318108 8.28233544 -5.1015625 4.171875 C-18.30339367 -0.1734976 -31.8231133 3.83092581 -40.984375 13.8515625 Z " fill="#4F8962" transform="translate(838.90234375,95.75)"/>
<path d="M0 0 C0.70833984 -0.02900391 1.41667969 -0.05800781 2.14648438 -0.08789062 C7.32493595 -0.15005117 10.21085201 0.89958451 14.3125 4.3125 C16.98598144 8.32272217 17.02272805 11.59691606 16.3125 16.3125 C14.3125 19.375 14.3125 19.375 12.3125 21.3125 C13.43701727 24.2844385 14.53543791 26.64690687 16.3125 29.3125 C16.4375 32 16.4375 32 16.3125 34.3125 C14.1875 34.3125 14.1875 34.3125 11.3125 33.3125 C5.3125 26.91905738 5.3125 26.91905738 5.3125 23.3125 C2.6725 23.3125 0.0325 23.3125 -2.6875 23.3125 C-2.6875 26.6125 -2.6875 29.9125 -2.6875 33.3125 C-4.34364657 33.69468767 -6.01207024 34.02645102 -7.6875 34.3125 C-9.36423649 32.63576351 -8.81537817 30.58394924 -8.82644653 28.34594727 C-8.8244223 27.65428467 -8.82239807 26.96262207 -8.8203125 26.25 C-8.82126923 25.54351318 -8.82222595 24.83702637 -8.82321167 24.10913086 C-8.82389333 22.61279207 -8.82204005 21.11645033 -8.81787109 19.62011719 C-8.81252257 17.32219843 -8.81781651 15.02447514 -8.82421875 12.7265625 C-8.82355797 11.27604123 -8.8222768 9.82552009 -8.8203125 8.375 C-8.82233673 7.6833374 -8.82436096 6.9916748 -8.82644653 6.27905273 C-8.7912704 -0.83349427 -6.39446131 0.08495741 0 0 Z " fill="#4C8760" transform="translate(819.6875,111.6875)"/>
<path d="M0 0 C4.00079356 2.4449294 5.65936873 3.95918222 7.125 8.4375 C6.94203289 13.65206255 4.59394296 16.40605704 1 20 C-5.93181818 20.68181818 -5.93181818 20.68181818 -9.9375 18.125 C-13.09695358 14.8698054 -13.33421243 12.57586762 -13.29296875 8.0390625 C-12.83745033 4.86865433 -11.24684343 3.1807598 -9 1 C-5.85088521 -0.57455739 -3.47991184 -0.34799118 0 0 Z " fill="#F6FAF8" transform="translate(569,104)"/>
<path d="M0 0 C3.03978021 0.68164768 4.80055419 2.23591662 6.93359375 4.43359375 C8.46574263 7.49789151 8.16297923 10.05015795 7.93359375 13.43359375 C6.2822007 16.97229315 5.21754146 18.24429528 1.93359375 20.43359375 C-2.1777689 20.89041182 -4.33143118 20.89091157 -7.87890625 18.68359375 C-11.28027908 15.18503884 -11.28027908 15.18503884 -12.06640625 12.43359375 C-11.98938938 8.19766608 -11.44938763 5.97905208 -9.00390625 2.49609375 C-5.68155056 0.16337593 -3.96123376 -0.2471091 0 0 Z " fill="#F7FAF9" transform="translate(296.06640625,572.56640625)"/>
<path d="M0 0 C3.9295493 0.92685276 5.41241975 2.29808529 8.00390625 5.47265625 C8.80273521 8.65073116 8.75254633 11.28805653 8.00390625 14.47265625 C6.06640625 17.53515625 6.06640625 17.53515625 3.00390625 19.47265625 C-1.74667698 20.51211479 -4.93750882 20.14237325 -9.05859375 17.53515625 C-11.66285898 13.41873702 -12.04313378 10.21866555 -10.99609375 5.47265625 C-8.10250338 1.041846 -5.38309693 -0.3983696 0 0 Z " fill="#FAFCFB" transform="translate(838.99609375,572.52734375)"/>
<path d="M0 0 C9.22661871 -0.48561151 9.22661871 -0.48561151 12.6875 1.6875 C14 4 14 4 13.875 6.625 C13 9 13 9 11 11 C7.31975395 11.27629475 3.69505443 11.0859315 0 11 C0 7.37 0 3.74 0 0 Z " fill="#F6F9F8" transform="translate(817,118)"/>
</svg>
