<svg xmlns="http://www.w3.org/2000/svg" width="24" height="24" fill="none"><g fill="#F7F7F7"><path fill-rule="evenodd" d="M.522 12.522h2.087a.522.522 0 0 0 0-1.044H.522a.522.522 0 0 0 0 1.044m1.798 5.664 1.807-1.043a.522.522 0 0 0-.522-.904l-1.807 1.044a.522.522 0 0 0 .522.903m4.388 4.016 1.043-1.807a.522.522 0 0 0-.903-.522L5.804 21.68a.522.522 0 0 0 .904.522m5.814 1.276v-2.087a.522.522 0 0 0-1.044 0v2.087a.522.522 0 0 0 1.044 0m5.664-1.798-1.043-1.807a.522.522 0 0 0-.904.522l1.044 1.807a.522.522 0 0 0 .903-.522m4.016-4.388-1.807-1.044a.522.522 0 0 0-.522.904l1.807 1.044a.522.522 0 0 0 .522-.904m-.811-4.77h2.087a.522.522 0 0 0 0-1.044h-2.087a.522.522 0 0 0 0 1.044m-.998-4.771L22.2 6.708a.522.522 0 0 0-.522-.904l-1.807 1.044a.522.522 0 0 0 .522.903m-3.25-3.622 1.043-1.807a.522.522 0 0 0-.903-.522l-1.044 1.807a.522.522 0 0 0 .904.522m-4.621-1.52V.522a.522.522 0 0 0-1.044 0v2.087a.522.522 0 0 0 1.044 0m-4.771.998L6.708 1.8a.522.522 0 0 0-.904.522l1.044 1.807a.522.522 0 0 0 .903-.522M4.13 6.857 2.321 5.814a.522.522 0 0 0-.522.903l1.807 1.044a.522.522 0 0 0 .522-.904" clip-rule="evenodd"/><path d="M12 19.826a7.826 7.826 0 1 0 0-15.652 7.826 7.826 0 0 0 0 15.652"/></g></svg>