<svg xmlns="http://www.w3.org/2000/svg" width="24" height="24" fill="none"><path fill="#F7F7F7" d="m1.298 17.366 2.435-1.406.703 1.218-2.435 1.406zM19.564 6.819l2.435-1.407.704 1.218-2.436 1.407zM1.296 6.633 2 5.415l2.435 1.406-.703 1.218zM19.564 17.18l.703-1.219 2.436 1.406L22 18.585zM5.414 1.999l1.218-.703L8.038 3.73l-1.218.704zM11.297 0h1.406v2.86h-1.406zm4.663 3.732 1.407-2.435L18.585 2 17.18 4.435zM0 11.297h2.86v1.406H0zm21.14 0H24v1.406h-2.86zM19.734 12A7.73 7.73 0 0 0 12 4.268C7.585 4.26 4.265 7.819 4.266 12a7.77 7.77 0 0 0 3.292 6.37l.006.005h8.866A7.82 7.82 0 0 0 19.734 12m-7.875 3.234-1.124-.843L12 12.703H9.188l2.953-3.937 1.124.843L12 11.297h2.813zM12 24a3.52 3.52 0 0 0 3.516-3.516v-.478c0-.076.02-.15.029-.225H8.453c.01.079.031.155.031.235v.468A3.52 3.52 0 0 0 12 24"/></svg>