<svg xmlns="http://www.w3.org/2000/svg" width="160" height="40" fill="none"><g fill="#fff"><path d="M3.179 13.202v15.135q0 .53-.526.53H.526q-.525 0-.526-.53V13.202q0-.528.526-.529h2.127q.526 0 .526.53m4.245 15.665H5.346q-.525 0-.525-.53V13.203q0-.528.525-.529h1.878q.525 0 .7.353l5.056 9.545h.1v-9.369q0-.528.526-.529h2.077q.526 0 .526.53v15.134q0 .53-.526.53h-1.827q-.552 0-.8-.505l-5.007-9.368h-.1v9.343q0 .53-.525.53m13.03 0h-2.079q-.525 0-.525-.53V13.203q0-.528.525-.529h1.878q.526 0 .7.353l5.058 9.545h.1v-9.369q0-.528.525-.529h2.078q.525 0 .525.53v15.134q0 .53-.525.53h-1.827q-.553 0-.801-.505l-5.007-9.368h-.1v9.343q0 .53-.525.53m50.196 0h-2.128q-.525 0-.526-.53V13.203q0-.528.526-.529h7.984q.5 0 .5.53v1.712q0 .529-.5.529h-5.031q-.3 0-.3.276v3.904q0 .302.3.302h4.28q.525 0 .525.529v1.687q0 .555-.526.556h-4.28q-.3 0-.3.277v5.364q0 .529-.524.529m12.728-.001h-.6q-1.978 0-3.054-1.058t-1.076-3.047v-4.637q0-1.989 1.076-3.047t3.054-1.057h5.781q.552 0 .553.529v11.785q0 .53-.553.529h-2.102q-.525 0-.526-.529v-.831h-.1q-.276.68-.976 1.02c-.46.226-.965.343-1.477.343m2.553-4.685v-5.111q0-.277-.3-.277h-2.353q-.801 0-1.126.34t-.325 1.145v4.332q0 .807.325 1.146.326.34 1.126.34h.926q1.728-.002 1.727-1.916zm7.474 4.685h-2.127q-.525 0-.526-.53V16.553q0-.53.526-.53h2.127q.526 0 .526.53v.856h.1q.275-.68.976-1.033a3.24 3.24 0 0 1 1.477-.352h.9q.502 0 .501.529v1.737q0 .303-.112.416-.113.113-.388.088h-1.727q-1.727 0-1.727 1.963v7.58q0 .532-.526.532m8.776-.001h-2.128q-.525 0-.525-.53V16.553q0-.53.525-.53h2.128q.525 0 .525.53v.83h.101q.3-.604 1.013-.981.713-.378 1.64-.378h.699q2.178 0 3.129 1.611.852-1.611 2.929-1.611h.726q1.926 0 2.916 1.057.988 1.057.991 3.046v8.21q0 .53-.526.529h-2.128q-.525 0-.525-.529V20.28q0-.807-.325-1.146-.325-.34-1.127-.34h-.626q-1.726 0-1.726 1.939v7.605q0 .53-.553.53h-2.102q-.526 0-.526-.53V20.28q0-.807-.338-1.146-.338-.34-1.139-.34h-.776q-1.727 0-1.727 1.914v7.63q0 .53-.525.53m21.64 0h-4.755q-.501 0-.501-.53v-1.611q0-.277.1-.39.1-.114.401-.114h4.179q1.227 0 1.227-.755v-.126q0-.605-1.026-1.159l-2.478-1.385q-1.277-.654-1.878-1.41-.6-.755-.6-1.94 0-1.761.926-2.592.926-.83 2.903-.83h4.18q.5 0 .501.528v1.637q0 .277-.101.39-.1.114-.4.114h-3.479q-1.227 0-1.226.63v.125q0 .556 1.076 1.134l2.527 1.51q1.302.707 1.828 1.449.525.742.525 1.951 0 3.375-3.929 3.374m8.776-3.29v2.432q0 .415-.476.415h-2.228q-.5 0-.5-.415v-2.413q0-.395.5-.395h2.228q.475-.001.476.376m4.383 3.29h-2.403q-.451 0-.301-.53l3.955-15.134q.175-.53.751-.53h3.329q.626 0 .75.53l3.955 15.135q.15.529-.3.529h-2.404q-.276 0-.376-.114-.099-.113-.15-.415l-.699-2.77h-4.881l-.7 2.77q-.05.302-.162.415-.115.114-.364.113m3.628-13.146L138.807 23h3.704l-1.804-7.278zm11.267-2.519v15.135q0 .53-.526.53h-2.128q-.525 0-.525-.53V13.202q0-.528.525-.529h2.128q.525 0 .526.53m-99.882-7.84L48.6 3.405l-3.394 1.958 2.558 1.475v1.9l-4.263-2.41-3.445 1.994 7.708 4.506v1.928l-9.546-5.408-3.383 1.946L48.6 19.312 62.346 11.3l-3.383-1.953-9.527 5.408v-1.928l7.774-4.506-3.487-1.993-4.287 2.408v-1.9zM33.964 28.83l3.485 2.005V14.71l-3.485-2.037zm5.104-13.15v16.107l9.523 5.436 9.523-5.436V27.74l-9.523 5.43-.836-.5V20.726l-3.508-2.04v11.992l-1.67-.948V17.72z"/><path d="m49.4 30.688 3.496-2.005v-6.034l6.826-3.867v2.006l-5.161 2.94v3.947l5.16-2.884v6.044l3.497-2.005V12.673L49.4 20.715zM32.73 11.101l15.187-8.688-.006-.01a1.29 1.29 0 0 0 1.58-.15A1.305 1.305 0 0 0 49.12.106a1.29 1.29 0 0 0-1.538.397 1.3 1.3 0 0 0-.272.798v.031l-.003-.006-15.8 9.058V27.32l1.223.707zM48.171.866a.61.61 0 0 1 1.033.315.62.62 0 0 1-.212.596.61.61 0 0 1-.988-.356.62.62 0 0 1 .167-.555"/><path d="M66.249 29.327a1.3 1.3 0 0 0-.565-.63v-18.3L51.058 2.004l-1.225.703 14.629 8.404v17.572a1.3 1.3 0 0 0-.694 1.244 1.31 1.31 0 0 0 .855 1.138 1.29 1.29 0 0 0 1.379-.334 1.3 1.3 0 0 0 .247-1.405zm-.759.948a.61.61 0 0 1-1.02-.256.62.62 0 0 1 .298-.723.61.61 0 0 1 .762.153.62.62 0 0 1-.04.826m-32.021-.355.002-.073c0-.288-.094-.567-.268-.796a1.296 1.296 0 0 0-1.527-.409 1.31 1.31 0 0 0-.41 2.131 1.29 1.29 0 0 0 1.568.195l-.004.006L48.617 40l14.596-8.373v-1.422L48.616 38.58zm-.727.165a.616.616 0 0 1-.745.355.614.614 0 0 1-.425-.71.62.62 0 0 1 .662-.496.613.613 0 0 1 .555.615q0 .121-.046.236"/><path fill-rule="evenodd" d="M156.319 5.077c-.616 0-1.219.184-1.731.528a3.152 3.152 0 0 0-.472 4.822 3.1 3.1 0 0 0 3.395.68 3.1 3.1 0 0 0 1.398-1.154 3.15 3.15 0 0 0-.388-3.958 3.1 3.1 0 0 0-2.202-.918m-3.682 3.134c0-.732.216-1.448.621-2.058a3.7 3.7 0 0 1 1.652-1.364 3.66 3.66 0 0 1 4.012.803 3.7 3.7 0 0 1 1.007 1.897 3.73 3.73 0 0 1-.209 2.14 3.7 3.7 0 0 1-1.356 1.662 3.664 3.664 0 0 1-4.648-.46 3.72 3.72 0 0 1-1.079-2.619" clip-rule="evenodd"/><path fill-rule="evenodd" d="M155.186 6.787a.287.287 0 0 1 .283-.285h1.133c.3 0 .588.12.801.333a1.145 1.145 0 0 1 0 1.612 1.13 1.13 0 0 1-.801.334h-.849v.855a.287.287 0 0 1-.284.275.284.284 0 0 1-.283-.275zm.567 1.424h.849a.56.56 0 0 0 .536-.348.56.56 0 0 0 0-.443.565.565 0 0 0-.536-.348h-.849z" clip-rule="evenodd"/><path fill-rule="evenodd" d="M156.497 8.259a.283.283 0 0 1 .394.07l.793 1.144a.287.287 0 0 1-.07.396.283.283 0 0 1-.394-.07l-.793-1.143a.29.29 0 0 1 .07-.397" clip-rule="evenodd"/></g></svg>