<svg xmlns="http://www.w3.org/2000/svg" id="Leaf" viewBox="0 0 2183.22 2183.22"><defs><style>.cls-1{fill:#008755}</style></defs><path d="m1466.33 708.13-345.06 194.69v-69.41l281.55-162.21-126.3-71.75-155.25 86.7v-68.39l92.61-53.07-122.91-70.5-122.91 70.5 92.65 53.07v68.39l-154.41-86.7-124.8 71.75 279.21 162.21v69.41L714.96 708.13 592.42 778.2l498.55 288.61 497.91-288.38zm-905.47 701.3 126.25 72.19V901.14l-126.25-73.3zm184.87-473.38v579.85l344.92 195.67 344.93-195.67v-145.73l-344.93 195.46-30.26-17.98v-429.92l-127.07-73.43v431.68l-60.52-34.14v-432.36z" class="cls-1"/><path d="m1119.96 1476.33 126.62-72.19v-217.18l247.23-139.22v72.19l-186.93 105.84v142.09l186.93-103.8v217.56l126.63-72.19V827.84l-500.48 289.48zM516.19 771.24l550.05-312.75-.21-.39a46.87 46.87 0 1 0-21.83-39.61v1.13l-.13-.23-572.2 326V1355l44.32 25.47Zm559.25-368.39a22.18 22.18 0 1 1-6.48 15.66 22.16 22.16 0 0 1 6.48-15.66" class="cls-1"/><path d="M1665.48 1404.2a46.88 46.88 0 1 0 44.27.54V745.85L1180 443.74l-44.38 25.38 529.84 302.51Zm17.25 19.85a22.16 22.16 0 1 1-11.35 6.07 22.2 22.2 0 0 1 11.35-6.07m-591.12 336.4L543 1448.72c0-.87.07-1.73.07-2.6a46.91 46.91 0 1 0-23.07 40.36l-.12.22 571.77 324.91 528.71-301.48v-51.2Zm-574.95-305.84a22.24 22.24 0 1 1 1.68-8.49 22.3 22.3 0 0 1-1.68 8.49" class="cls-1"/></svg>