<svg id="Leaf" xmlns="http://www.w3.org/2000/svg" viewBox="0 0 2183.22 2183.22"><defs><style>.cls-1,.cls-2{fill:#008755;}.cls-2{fill-rule:evenodd;}</style></defs><polygon class="cls-1" points="1466.33 708.13 1121.27 902.82 1121.27 833.41 1402.82 671.2 1276.52 599.45 1121.27 686.15 1121.27 617.76 1213.88 564.69 1090.97 494.19 968.06 564.69 1060.71 617.76 1060.71 686.15 906.3 599.45 781.5 671.2 1060.71 833.41 1060.71 902.82 714.96 708.13 592.42 778.2 1090.97 1066.81 1588.88 778.43 1466.33 708.13"/><polygon class="cls-1" points="560.86 1409.43 687.11 1481.62 687.11 901.14 560.86 827.84 560.86 1409.43"/><polygon class="cls-1" points="745.73 936.05 745.73 1515.9 1090.65 1711.57 1435.58 1515.9 1435.58 1370.17 1090.65 1565.63 1060.39 1547.65 1060.39 1117.73 933.32 1044.3 933.32 1475.98 872.8 1441.84 872.8 1009.48 745.73 936.05"/><polygon class="cls-1" points="1119.96 1476.33 1246.58 1404.14 1246.58 1186.96 1493.81 1047.74 1493.81 1119.93 1306.88 1225.77 1306.88 1367.86 1493.81 1264.06 1493.81 1481.62 1620.44 1409.43 1620.44 827.84 1119.96 1117.32 1119.96 1476.33"/><path class="cls-1" d="M516.19,771.24l550.05-312.75-.21-.39a46.87,46.87,0,1,0-21.83-39.61v1.13l-.13-.23-572.2,326V1355l44.32,25.47Zm559.25-368.39a22.18,22.18,0,1,1-6.48,15.66A22.16,22.16,0,0,1,1075.44,402.85Z"/><path class="cls-1" d="M1665.48,1404.2a46.88,46.88,0,1,0,44.27.54h0V745.85L1180,443.74l-44.38,25.38,529.84,302.51Zm17.25,19.85a22.16,22.16,0,1,1-11.35,6.07A22.2,22.2,0,0,1,1682.73,1424.05Z"/><path class="cls-1" d="M1091.61,1760.45,543,1448.72c0-.87.07-1.73.07-2.6A46.91,46.91,0,1,0,520,1486.48l-.12.22,571.77,324.91,528.71-301.48v-51.2ZM516.66,1454.61a22.24,22.24,0,1,1,1.68-8.49A22.26,22.26,0,0,1,516.66,1454.61Z"/><path class="cls-2" d="M1674,380.84a50.77,50.77,0,1,0,50.77,50.77A50.77,50.77,0,0,0,1674,380.84Zm-60,50.77a60,60,0,1,1,60,60A60,60,0,0,1,1614,431.61Z"/><path class="cls-2" d="M1655.53,408.53a4.62,4.62,0,0,1,4.61-4.61h18.47a18.46,18.46,0,1,1,0,36.92h-13.85v13.85a4.62,4.62,0,0,1-9.23,0Zm9.23,23.08h13.85a9.23,9.23,0,0,0,0-18.46h-13.85Z"/><path class="cls-2" d="M1676.89,432.38a4.62,4.62,0,0,1,6.42,1.15l12.93,18.52a4.61,4.61,0,0,1-7.57,5.28l-12.93-18.52A4.63,4.63,0,0,1,1676.89,432.38Z"/></svg>