<svg xmlns="http://www.w3.org/2000/svg" width="24" height="24" fill="none"><g fill="#F7F7F7"><path d="m18.471 18.726-2.081-4.81h-2.33l-2.322-5.75H10.71l-1.936 4.6H6.87L5.156 18.42l-1.698-2.018L.774 19.06V5.1H0v18.4h23.226v-.293l-2.864-5.672zm-7.632-1.36h.774c.854 0 1.548.689 1.548 1.534s-.694 1.533-1.548 1.533v.767h-.774v-.767A1.543 1.543 0 0 1 9.29 18.9h.775c0 .423.347.767.774.767h.774a.77.77 0 0 0 .774-.767.77.77 0 0 0-.774-.767h-.774A1.543 1.543 0 0 1 9.29 16.6c0-.846.695-1.533 1.549-1.533V14.3h.774v.767c.854 0 1.548.688 1.548 1.533h-.774a.77.77 0 0 0-.774-.767h-.774a.77.77 0 0 0-.774.767c0 .423.347.767.774.767m6.193 5.367h-.774v-.766h.774zm1.549 0h-.774v-.766h.774zm1.548 0h-.774v-.766h.774zm.774-.766h.774v.766h-.774z"/><path d="M22.065 2.8c-1.068 0-1.936.86-1.936 1.917 0 .328.084.637.231.907l-2.037 1.682a1.55 1.55 0 0 0-1.732-.05l-3.43-3.185a2.27 2.27 0 0 0 .388-1.271c0-1.268-1.042-2.3-2.323-2.3S8.903 1.532 8.903 2.8c0 .515.172.991.462 1.375l-5.514 5.72a1.55 1.55 0 0 0-.754-.195c-.854 0-1.549.688-1.549 1.533 0 .846.695 1.534 1.549 1.534s1.548-.688 1.548-1.534c0-.296-.086-.573-.234-.808l5.514-5.72c.371.25.82.395 1.3.395.529 0 1.015-.175 1.406-.47l3.43 3.184c-.121.219-.19.47-.19.736 0 .845.695 1.533 1.548 1.533s1.549-.688 1.549-1.533c0-.235-.054-.457-.15-.656l2.038-1.681c.332.263.752.42 1.208.42 1.068 0 1.936-.86 1.936-1.916A1.93 1.93 0 0 0 22.064 2.8"/></g></svg>