<svg xmlns="http://www.w3.org/2000/svg" width="24" height="26" fill="none"><g fill="#F7F7F7"><path d="M12.003 2.786c-2.547-.061-4.299 2.874-3.06 5.107 1.698 3.183 6.496 1.99 6.521-1.625.045-1.855-1.608-3.529-3.461-3.482m-.245 3.018h.49c1.461.025 1.634 2.117.216 2.395.078.74-.979.763-.923.019h-.526a.464.464 0 0 1 0-.929h1.233a.28.28 0 0 0 .281-.278c-.01-.392-.524-.256-.77-.279-1.462-.025-1.635-2.117-.218-2.396-.077-.739.98-.762.923-.018h.527c.605.009.607.917 0 .928h-1.233c-.368.002-.368.556 0 .558"/><path d="M12.003 0c-3.434 0-6.23 2.814-6.23 6.268.349 8.316 12.112 8.314 12.46 0 0-3.454-2.797-6.268-6.23-6.268m0 10.679c-2.347.047-4.433-2.045-4.384-4.411-.02-3.886 4.751-5.884 7.48-3.125 2.755 2.75.772 7.554-3.096 7.536m11.862 2.457a.46.46 0 0 0-.653 0l-1.058 1.065V6.5c-.009-.606-.912-.614-.923 0v7.7l-1.058-1.064c-.427-.428-1.078.226-.653.657l1.846 1.856c.172.18.482.18.653 0l1.846-1.856a.466.466 0 0 0 0-.657M2.637 10.35a.464.464 0 0 0-.653 0L.138 12.208c-.424.432.224 1.084.653.657L1.849 11.8v7.7c0 .257.207.464.461.464a.463.463 0 0 0 .462-.464v-7.7l1.058 1.064c.427.428 1.078-.226.653-.657z"/><path d="M16.847 14.393h-3v1.393c0 .51-.415.928-.922.928h-1.846a.93.93 0 0 1-.923-.928v-1.393h-3c-.761 0-1.384.627-1.384 1.393v8.821c0 .766.623 1.393 1.384 1.393h9.691c.761 0 1.384-.627 1.384-1.393v-8.821c0-.766-.623-1.393-1.384-1.393m-7.384 9.75H8.08c-.606-.012-.607-.917 0-.929h1.384c.606.012.607.917 0 .929m0-1.857H8.08c-.606-.012-.607-.917 0-.929h1.384c.606.012.607.917 0 .929"/><path d="M11.079 14.393h1.845v1.393H11.08z"/></g></svg>