<svg xmlns="http://www.w3.org/2000/svg" width="20" height="24" fill="none"><g fill="#fff"><path d="M14.029 11.237v-1.63h2.288c.325 0 .61-.184.736-.485a.8.8 0 0 0-.146-.873L9.702.39c-.46-.52-1.322-.517-1.785 0L.712 8.248c-.478.49-.09 1.385.594 1.358h2.288v10.011c0 .445.36.809.803.809h2.867c-1.777-4.48 1.986-9.645 6.765-9.19"/><path d="M13.562 12.018c-3.274 0-5.938 2.694-5.938 6.006.327 7.97 11.55 7.967 11.876 0 0-3.312-2.664-6.007-5.938-6.007m-3.365 4.004c.048-1.848 2.724-1.848 2.771 0-.048 1.848-2.723 1.848-2.771 0m1.267 4.69c-.368.365-.923-.197-.558-.57l4.75-4.805c.365-.368.93.199.558.569zm4.077.716c-1.827-.048-1.826-2.755 0-2.803 1.827.048 1.827 2.755 0 2.803"/><path d="M12.176 16.022c-.015-.79-1.175-.79-1.187 0 .012.79 1.172.79 1.187 0m3.365 3.404c-.78.013-.78 1.189 0 1.201.78-.014.78-1.186 0-1.201"/></g></svg>