<svg xmlns="http://www.w3.org/2000/svg" width="24" height="22" fill="none"><path fill="#F7F7F7" d="M2.976 13.357a.39.39 0 0 0-.4.384v6.218c0 .211.18.384.4.384H7.5c.22 0 .4-.173.4-.384v-6.218a.39.39 0 0 0-.4-.384zm6.232-3.719v10.317c0 .108.044.204.116.273a.4.4 0 0 0 .284.115h4.524a.4.4 0 0 0 .284-.115.37.37 0 0 0 .116-.273V9.638a.39.39 0 0 0-.4-.383H9.608c-.22 0-.4.173-.4.383M16.5 20.343h4.524c.22 0 .4-.173.4-.384V3.983a.39.39 0 0 0-.4-.383H16.5a.39.39 0 0 0-.4.383V19.96c0 .211.18.384.4.384m7.1.889H.4c-.22 0-.4.172-.4.384 0 .211.18.383.4.383h23.2c.22 0 .4-.172.4-.383a.39.39 0 0 0-.4-.384M4.824 9.247c2.66 0 4.824-2.074 4.824-4.623S7.484 0 4.824 0 0 2.074 0 4.624s2.164 4.623 4.824 4.623m.264-4.24H4.56c-.748 0-1.356-.587-1.356-1.303 0-.675.536-1.227 1.22-1.292v-.46c0-.211.18-.384.4-.384.224 0 .4.173.4.383v.46c.684.066 1.22.618 1.22 1.293a.39.39 0 0 1-.4.383c-.22 0-.4-.173-.4-.383a.544.544 0 0 0-.556-.533H4.56a.544.544 0 0 0-.556.533c0 .295.248.536.556.536h.528c.748 0 1.356.583 1.356 1.3 0 .679-.536 1.23-1.22 1.296v.46a.39.39 0 0 1-.4.383c-.22 0-.4-.172-.4-.383v-.46c-.684-.065-1.22-.617-1.22-1.296 0-.21.18-.383.4-.383s.4.172.4.383c0 .295.248.537.556.537h.528a.547.547 0 0 0 .556-.537.544.544 0 0 0-.556-.533"/></svg>