<svg xmlns="http://www.w3.org/2000/svg" width="24" height="24" fill="none"><g fill="#F7F7F7"><path d="M12 6.75a5.25 5.25 0 1 0 0 10.5 5.25 5.25 0 0 0 0-10.5m-.375 4.5h.75a1.875 1.875 0 0 1 .375 3.713V15a.75.75 0 1 1-1.5 0h-.75a.75.75 0 1 1 0-1.5h1.875a.375.375 0 0 0 0-.75h-.75a1.875 1.875 0 0 1-.375-3.713V9a.75.75 0 1 1 1.5 0h.75a.75.75 0 1 1 0 1.5h-1.875a.375.375 0 0 0 0 .75"/><path d="M22.125 9.75h-.645a9.6 9.6 0 0 0-1.185-2.865l.457-.45a1.89 1.89 0 0 0 0-2.655l-.532-.532a1.89 1.89 0 0 0-2.655 0l-.45.457A9.7 9.7 0 0 0 14.25 2.52v-.645A1.876 1.876 0 0 0 12.375 0h-.75A1.876 1.876 0 0 0 9.75 1.875v.645a9.7 9.7 0 0 0-2.865 1.185l-.45-.457a1.89 1.89 0 0 0-2.655 0l-.532.532a1.89 1.89 0 0 0 0 2.655l.457.45A9.6 9.6 0 0 0 2.52 9.75h-.645A1.876 1.876 0 0 0 0 11.625v.75a1.876 1.876 0 0 0 1.875 1.875h.645a9.6 9.6 0 0 0 1.185 2.865l-.457.45a1.89 1.89 0 0 0 0 2.655l.532.533a1.89 1.89 0 0 0 2.655 0l.45-.458A9.7 9.7 0 0 0 9.75 21.48v.645A1.876 1.876 0 0 0 11.625 24h.75a1.876 1.876 0 0 0 1.875-1.875v-.645a9.7 9.7 0 0 0 2.865-1.185l.45.457a1.887 1.887 0 0 0 2.655 0l.533-.532a1.887 1.887 0 0 0 0-2.655l-.458-.45a9.6 9.6 0 0 0 1.185-2.865h.645A1.876 1.876 0 0 0 24 12.375v-.75a1.876 1.876 0 0 0-1.875-1.875M12 18.75A6.75 6.75 0 1 1 18.75 12 6.76 6.76 0 0 1 12 18.75"/></g></svg>