<svg xmlns="http://www.w3.org/2000/svg" width="20" height="24" fill="none"><g fill="#F7F7F7"><path d="M16.195 5.58c-.021-1.09-.823-1.989-1.856-2.137-.155-1.132-1.15-1.974-2.29-1.89a2.3 2.3 0 0 0-.514-.873 2.074 2.074 0 0 0-3.07 0 2.3 2.3 0 0 0-.514.873c-1.14-.084-2.135.757-2.29 1.89-1.033.148-1.835 1.047-1.856 2.137a2.22 2.22 0 0 0-1.017 1.31h14.424a2.22 2.22 0 0 0-1.017-1.31M2.29 10.453h15.42c.38 0 .689-.314.689-.703V9a.696.696 0 0 0-.689-.703H2.29A.696.696 0 0 0 1.6 9v.75c0 .389.309.703.689.703m6.197 7.828v.272l1.394-1.425a.68.68 0 0 1 .974 0 .714.714 0 0 1 0 .994l-1.395 1.425h.266c1.392 0 2.524-1.157 2.524-2.578v-1.266h-1.24c-1.391 0-2.523 1.157-2.523 2.578"/><path d="m18.923 20.494-.524-.535v-2.617c0-1.843-.194-3.685-.578-5.486-.074.005-15.55.006-15.642 0a26.4 26.4 0 0 0-.578 5.486v2.617l-.524.535c-.372.38-.577.886-.577 1.423v.07C.5 23.098 1.384 24 2.47 24c.541 0 1.064-.23 1.435-.633l.034-.037c1.17.445 2.395.67 3.65.67h4.822c1.255 0 2.48-.225 3.65-.67l.034.037A1.96 1.96 0 0 0 17.53 24c1.086 0 1.97-.903 1.97-2.012v-.07c0-.538-.205-1.044-.577-1.424m-5.297-3.525c0 2.197-1.75 3.984-3.901 3.984H8.082l-.532.544a.68.68 0 0 1-.974 0 .714.714 0 0 1 0-.994l.533-.544V18.28c0-2.197 1.75-3.984 3.9-3.984h1.928c.38 0 .689.315.689.703z"/></g></svg>