<svg xmlns="http://www.w3.org/2000/svg" width="24" height="24" fill="none"><g fill="#F7F7F7"><path d="M4.364 11.728H1.091A.273.273 0 0 0 .818 12v5.454c0 .15.122.273.273.273h3.273a.273.273 0 0 0 .273-.273V12a.273.273 0 0 0-.273-.273M14.37.363a.3.3 0 0 0-.21-.125L10.758.001c-.215-.017-.373.24-.248.42l.595.919L.887 8.229a.27.27 0 0 0-.077.373l.74 1.146a.275.275 0 0 0 .381.079l10.21-6.88.59.91c.111.185.414.153.485-.055L14.397.603a.27.27 0 0 0-.027-.242zm1.007 13.328a1.7 1.7 0 0 1 1.202-.19l1.97.417v-10.1a.274.274 0 0 0-.273-.272h-3.273a.274.274 0 0 0-.273.273v10.246zm-1.465-7.145a.274.274 0 0 0-.273-.273h-3.273a.274.274 0 0 0-.273.273v10.197l3.819-2.203zM8.868 17.45l.406-.235V9.273a.274.274 0 0 0-.272-.272H5.728a.274.274 0 0 0-.272.272v8.182c0 .15.122.273.272.273h2.81c.093-.107.202-.205.333-.279zm-.491 1.838a1.33 1.33 0 0 1-.134-1.015H.273a.274.274 0 0 0-.273.273v1.09c0 .15.123.273.273.273h8.461z"/><path d="M23.803 13.307c-1.124-1.68-3.391.095-4.43 1.344l-2.908-.616a1.15 1.15 0 0 0-.816.13l-6.508 3.756a.8.8 0 0 0-.292 1.094l2.646 4.584a.81.81 0 0 0 1.096.295l6.506-3.758c.248-.142.431-.371.521-.641l.958-2.946.103-.316a1.145 1.145 0 0 0-.458-1.309c-.436.472-.66.86-.807 1.328.038.538-.718.77-.985.29-.3-.527.39-1.067.824-.647.455-1.154 2.122-2.594 3.21-2.716.614-.112 1.162.512.944 1.069-.248.613-1.274 1.142-2.133 1.48.016.208 0 .399-.06.609 1.2-.445 3.467-1.457 2.589-3.033z"/></g></svg>