<svg xmlns="http://www.w3.org/2000/svg" width="24" height="24" fill="none"><path fill="#F7F7F7" d="M12.277.003q-.53-.012-1.06.024C8.935.177 6.78.914 4.88 2.343v-.746a.8.8 0 0 0-1.6 0v2.48a.8.8 0 0 0 1.364.567 10.4 10.4 0 0 1 13.69-.897A10.395 10.395 0 0 1 21.008 17.2a10.39 10.39 0 0 1-12.986 4.405A10.384 10.384 0 0 1 1.959 9.31a.8.8 0 0 0-.568-.98.8.8 0 0 0-.981.56c-1.557 5.812 1.44 11.894 6.999 14.197s11.976.118 14.984-5.09 1.69-11.858-3.084-15.52A11.96 11.96 0 0 0 12.277.003m-.275 3.81c-4.513 0-8.192 3.674-8.192 8.186s3.68 8.19 8.192 8.19 8.185-3.68 8.185-8.19c0-4.512-3.672-8.186-8.185-8.186m0 3.16a.8.8 0 0 1 .797.802V7.9c.8.108 1.486.604 1.85 1.295a.8.8 0 0 1-1.418.744.85.85 0 0 0-.763-.461h-.744a.844.844 0 0 0-.862.862c0 .492.37.863.862.863h.555a2.47 2.47 0 0 1 2.456 2.462 2.47 2.47 0 0 1-1.936 2.403v.16a.8.8 0 0 1-1.601 0v-.125A2.48 2.48 0 0 1 9.35 14.81a.8.8 0 1 1 1.418-.744c.143.273.426.46.767.46h.744c.492 0 .856-.37.856-.862a.84.84 0 0 0-.856-.862h-.555a2.475 2.475 0 0 1-2.463-2.463c0-1.168.836-2.156 1.937-2.401v-.163a.8.8 0 0 1 .804-.803"/></svg>