<svg xmlns="http://www.w3.org/2000/svg" width="24" height="22" fill="none"><g fill="#F7F7F7"><path d="M9.167 6.438h-.813v.82c0 1.186.956 2.15 2.13 2.15h.813v-.82c0-1.185-.956-2.15-2.13-2.15m3.538 2.15v.82h.813c1.174 0 2.13-.964 2.13-2.15v-.82h-.813c-1.174 0-2.13.965-2.13 2.15"/><path d="M20.258.675C17.333-.76 13.866.171 12 2.721q-.242-.33-.523-.629a6.617 6.617 0 0 0-9.403-.25A6.7 6.7 0 0 0 .002 6.534a6.7 6.7 0 0 0 1.824 4.797L12 22l10.171-10.665.004-.004a6.7 6.7 0 0 0 1.156-1.685c1.604-3.328.225-7.353-3.073-8.97m-3.202 6.583c0 1.969-1.588 3.57-3.539 3.57h-.812v2.488l1.675-1.164.798 1.17-2.473 1.719v1.53h-1.408v-1.53l-2.474-1.72.799-1.17 1.675 1.165V10.83h-.813c-1.95 0-3.538-1.602-3.538-3.57V5.016h2.22c1.16 0 2.19.565 2.835 1.436a3.52 3.52 0 0 1 2.834-1.436h2.22z"/></g></svg>