<svg xmlns="http://www.w3.org/2000/svg" width="16" height="24" fill="none"><g fill="#F7F7F7"><path d="M8 17.018a1.34 1.34 0 0 0-1.231.822 1.32 1.32 0 0 0 .29 1.448 1.337 1.337 0 0 0 2.278-.941c0-.353-.142-.69-.392-.94a1.34 1.34 0 0 0-.945-.39"/><path d="M11.317 13.663V3.302a3.3 3.3 0 0 0-.973-2.334 3.326 3.326 0 0 0-4.688 0 3.3 3.3 0 0 0-.973 2.334v10.361a5.7 5.7 0 0 0-2.11 2.841 5.68 5.68 0 0 0-.02 3.534 5.7 5.7 0 0 0 2.075 2.866 5.73 5.73 0 0 0 6.744 0 5.7 5.7 0 0 0 2.075-2.866 5.68 5.68 0 0 0-.02-3.534 5.7 5.7 0 0 0-2.11-2.84M8 20.876a2.54 2.54 0 0 1-1.69-.633 2.524 2.524 0 0 1-.403-3.337c.355-.508.886-.87 1.49-1.014V5.596a.6.6 0 0 1 .603-.6.603.603 0 0 1 .602.6v10.296a2.54 2.54 0 0 1 1.491 1.014 2.52 2.52 0 0 1-.403 3.338 2.54 2.54 0 0 1-1.69.632m6.726-16.782H13.52a.603.603 0 0 1-.602-.6.6.6 0 0 1 .602-.6h1.205a.603.603 0 0 1 .602.6.6.6 0 0 1-.602.6m.673 2.776H13.52a.603.603 0 0 1-.602-.6.6.6 0 0 1 .602-.6h1.877a.603.603 0 0 1 .602.6.6.6 0 0 1-.602.6m-.671 2.774H13.52a.603.603 0 0 1-.602-.6.6.6 0 0 1 .602-.6h1.205a.603.603 0 0 1 .602.6.6.6 0 0 1-.602.6m.673 2.776H13.52a.603.603 0 0 1-.602-.6.6.6 0 0 1 .602-.6h1.877a.603.603 0 0 1 .602.6.6.6 0 0 1-.602.6M2.479 4.094H1.274a.603.603 0 0 1-.602-.6.6.6 0 0 1 .602-.6H2.48a.603.603 0 0 1 .602.6.6.6 0 0 1-.602.6M2.479 6.87H.602A.603.603 0 0 1 0 6.27a.6.6 0 0 1 .602-.6H2.48a.603.603 0 0 1 .602.6.6.6 0 0 1-.602.6m-.001 2.774H1.274a.603.603 0 0 1-.602-.6.6.6 0 0 1 .602-.6H2.48a.603.603 0 0 1 .602.6.6.6 0 0 1-.602.6m-.001 2.776H.602a.603.603 0 0 1-.602-.6.6.6 0 0 1 .602-.6H2.48a.603.603 0 0 1 .602.6.6.6 0 0 1-.602.6"/></g></svg>