<svg xmlns="http://www.w3.org/2000/svg" width="22" height="24" fill="none"><g fill="#F7F7F7"><path d="M13.032 18.985a1.09 1.09 0 0 0 1.08 1.098 1.09 1.09 0 0 0 1.079-1.098 1.09 1.09 0 0 0-1.08-1.099 1.09 1.09 0 0 0-1.079 1.099"/><path d="M17.156 14.988V3.098C17.156 1.39 15.79 0 14.112 0c-1.679 0-3.045 1.39-3.045 3.098v11.89a5.06 5.06 0 0 0-1.907 3.974C9.16 21.74 11.38 24 14.112 24s4.951-2.26 4.951-5.038a5.06 5.06 0 0 0-1.907-3.974m-2.35-5.32v6.908a2.51 2.51 0 0 1 1.773 2.409c0 1.384-1.107 2.51-2.467 2.51s-2.467-1.126-2.467-2.51c0-1.14.75-2.103 1.773-2.409V9.668a.7.7 0 0 1 .694-.706.7.7 0 0 1 .694.706m-7.571.187c1.572 0 2.85-1.29 2.85-2.876 0-.684-.41-1.487-1.253-2.455a13 13 0 0 0-1.146-1.156l-.451-.392-.451.392c-.024.02-.582.509-1.147 1.156-.843.968-1.253 1.771-1.253 2.455 0 1.586 1.28 2.876 2.85 2.876m-2.774.171-.451-.393-.451.393c-.035.03-.875.764-1.726 1.742C.6 13.184 0 14.336 0 15.292c0 2.23 1.798 4.045 4.01 4.045 2.21 0 4.008-1.814 4.008-4.045 0-.956-.6-2.108-1.832-3.524a20 20 0 0 0-1.726-1.742m13.724-7.511H22v1.412h-3.816zm0 3.152h2.602v1.412h-2.602zm0 3.153H22v1.411h-3.816z"/><path d="M18.184 11.971h2.602v1.412h-2.602z"/></g></svg>