<svg xmlns="http://www.w3.org/2000/svg" width="7" height="8" fill="none"><path fill="#757575" d="M5.41 8H1.59C.7 8 0 7.267 0 6.333V2.667C0 1.733.7 1 1.59 1V.333c0-.2.128-.333.32-.333.19 0 .317.133.317.333V1h2.864V.333c0-.2.127-.333.318-.333s.318.133.318.333v.7A1.66 1.66 0 0 1 7 2.667v3.666C7 7.267 6.3 8 5.41 8M.635 3.667v2.666c0 .567.414 1 .955 1h3.818c.541 0 .955-.433.955-1V3.667zm0-.667h5.728v-.333c0-.567-.414-1-.955-1H1.591c-.541 0-.955.433-.955 1zm.955 2c-.191 0-.318-.133-.318-.333s.127-.334.318-.334c.19 0 .318.134.318.334S1.782 5 1.591 5"/></svg>