<svg xmlns="http://www.w3.org/2000/svg" id="Leaf" viewBox="0 0 2183.22 2183.22"><defs><style>.cls-1{fill:#008755}</style></defs><path d="M224.64 1603.24v201.34q0 7-7 7h-28.51q-7 0-7-7v-201.34q0-7 7-7h28.47q7.04-.04 7.04 7m80.06 208.37h-27.8q-7 0-7-7v-201.37q0-7 7-7H302q7 0 9.38 4.69l67.67 127h1.34v-124.69q0-7 7-7h27.8q7 0 7 7v201.34q0 7-7 7H390.8a11.19 11.19 0 0 1-10.72-6.7l-67-124.62h-1.34v124.29q0 7.07-7.04 7.06m195.98 0h-27.81q-7 0-7-7v-201.37q0-7 7-7H498q7 0 9.38 4.69l67.67 127h1.34v-124.69q0-7 7-7h27.81q7 0 7 7v201.34q0 7-7 7h-24.43a11.2 11.2 0 0 1-10.72-6.7l-67-124.62h-1.34v124.29q0 7.07-7.03 7.06m250.58 0h-37.52q-26.47 0-40.88-14.07t-14.4-40.54v-106.2q0-26.46 14.4-40.54t40.88-14.07h37.52q26.46 0 40.87 14.07t14.4 40.54V1757q0 26.46-14.4 40.53t-40.87 14.08m-30.82-36.85h23.78q10.72 0 15.24-4.52T764 1755v-102.18q0-10.72-4.53-15.24t-15.24-4.53h-23.79q-10.74 0-15.08 4.53t-4.36 15.24V1755q0 10.73 4.36 15.24t15.08 4.52m161.8 36.85h-28.48q-7 0-7-7v-201.37q0-7 7-7h106.87q6.69 0 6.7 7V1626q0 7-6.7 7h-67.34q-4 0-4 3.69v51.93q0 4 4 4h57.29q7 0 7 7v22.45q0 7.36-7 7.37h-57.29q-4 0-4 3.68v71.36q-.02 7.14-7.05 7.13m171.85 0h-8q-26.46 0-40.87-14.07T990.78 1757v-61.64q0-26.46 14.4-40.54t40.87-14.07h77.39q7.36 0 7.37 7v156.79q0 7-7.37 7h-28.14q-7 0-7-7v-11.06h-1.34a25.44 25.44 0 0 1-13.06 13.57 45.1 45.1 0 0 1-19.81 4.56m34.17-62.31v-68q0-3.69-4-3.69h-31.49q-10.73 0-15.07 4.52t-4.36 15.25V1755q0 10.73 4.36 15.24t15.07 4.52h12.4q23.09 0 23.09-25.46m114.91 62.31h-28.48q-7 0-7-7v-156.82q0-7 7-7h28.48q7 0 7 7v11.4h1.34a26.1 26.1 0 0 1 13.07-13.74 43.56 43.56 0 0 1 19.76-4.69h12.06q6.71 0 6.7 7v23.12q0 4-1.5 5.53c-1 1-2.74 1.4-5.2 1.17h-23.11q-23.11 0-23.12 26.13v100.84q.03 7.07-7 7.06m116.91 0h-28.47q-7 0-7-7v-156.82q0-7 7-7h28.47q7 0 7 7v11.06h1.34q4-8 13.57-13.07a46.4 46.4 0 0 1 21.94-5h9.38q29.14 0 41.87 21.44 11.38-21.43 39.2-21.44h9.71q25.8 0 39 14.07t13.24 40.54v109.21q0 7-7 7h-28.48q-7 0-7-7v-107.2q0-10.73-4.36-15.25t-15.07-4.52H1446q-23.11 0-23.11 25.8v101.17q0 7-7.37 7h-28.14q-7 0-7-7v-107.2q0-10.73-4.52-15.25t-15.24-4.52h-10.39q-23.12 0-23.11 25.46v101.51q0 7.02-7.04 7.01m296.48 0h-63.65q-6.71 0-6.7-7v-21.44c0-2.46.44-4.19 1.34-5.2s2.68-1.5 5.36-1.5h55.94q16.41 0 16.42-10v-1.68q0-8-13.74-15.41l-33.16-18.42q-17.08-8.72-25.13-18.76t-8-25.8q0-23.44 12.4-34.51t38.86-11h55.94q6.7 0 6.7 7v21.78q0 3.69-1.34 5.19t-5.36 1.51h-46.56q-16.42 0-16.42 8.38v1.67q0 7.38 14.41 15.08l33.83 20.1q17.41 9.38 24.46 19.26t7 26q-.01 44.76-52.6 44.75m119.25-48.24v41.21q0 7-6.36 7h-29.82q-6.7 0-6.7-7v-40.87q0-6.7 6.7-6.7h29.82q6.36-.01 6.36 6.36m56.95 48.24h-32.16q-6 0-4-7l52.93-201.34q2.34-7 10-7h44.56q8.37 0 10.05 7l52.93 201.34q2 7-4 7h-32.16q-3.69 0-5-1.51t-2-5.52l-9.38-36.85h-65.32l-9.38 36.85c-.45 2.68-1.17 4.52-2.18 5.52s-2.65 1.51-4.89 1.51m48.58-174.87-24.12 96.82h49.58l-24.12-96.82Zm159.79-33.5v201.34q0 7-7 7h-28.48q-7 0-7-7v-201.34q0-7 7-7h28.48q7.01-.04 7 7M1371.88 623.3l-258.09 145.62v-51.91l210.59-121.32-94.47-53.67-116.12 64.85v-51.15l69.27-39.7-91.93-52.73-91.93 52.73 69.3 39.7v51.15l-115.49-64.85-93.34 53.67 208.83 121.32v51.91L809.89 623.3l-91.64 52.42 372.88 215.86 372.41-215.69zm-677.24 524.54 94.43 54V767.67l-94.43-54.83zm138.27-354.06v433.69l257.98 146.35 257.99-146.35v-108.99l-257.99 146.19-22.63-13.45V929.67l-95.04-54.92v322.87l-45.26-25.54V848.7z" class="cls-1"/><path d="m1112.81 1197.88 94.71-53.99V981.45l184.91-104.13v53.99l-139.81 79.16v106.28l139.81-77.64v162.73l94.71-54v-435l-374.33 216.52zM661.23 670.51l411.41-233.92-.16-.29a35.07 35.07 0 1 0-16.33-29.62v.84l-.1-.17-428 243.84v456l33.15 19ZM1079.52 395a16.59 16.59 0 1 1-4.85 11.72 16.6 16.6 0 0 1 4.85-11.72" class="cls-1"/><path d="M1520.83 1143.93a35.06 35.06 0 1 0 33.12.4V651.52l-396.18-226-33.19 19 396.25 226.28Zm12.91 14.84a16.56 16.56 0 1 1-8.49 4.54 16.6 16.6 0 0 1 8.49-4.54m-442.13 251.61-410.35-233.15v-2a35.08 35.08 0 1 0-17.26 30.19l-.09.16 427.65 243L1487 1223.09v-38.3Zm-430-228.75A16.7 16.7 0 0 1 658 1187a16.54 16.54 0 1 1 3.6-5.38Z" class="cls-1"/></svg>