<svg xmlns="http://www.w3.org/2000/svg" width="20" height="24" fill="none"><path fill="#F7F7F7" d="M19.039 3.613H13.32V.703A.716.716 0 0 0 12.593 0H7.407a.716.716 0 0 0-.728.703v2.91H.962c-.255 0-.462.2-.462.446v2.048c0 .246.207.446.462.446h18.077c.254 0 .461-.2.461-.446V4.06a.454.454 0 0 0-.462-.446M8.134 1.406h3.73v2.207h-3.73zM2.513 24h14.974l1.105-16.04H1.408zm3.944-12.597a4.6 4.6 0 0 1 3.212-1.285c1.213 0 2.354.457 3.212 1.285a4.3 4.3 0 0 1 1.282 2.46l.073-.071a.747.747 0 0 1 1.03 0 .686.686 0 0 1 0 .994l-1.268 1.225a.74.74 0 0 1-.515.206.74.74 0 0 1-.515-.206L11.7 14.786a.686.686 0 0 1 0-.994.75.75 0 0 1 .948-.067 2.94 2.94 0 0 0-.797-1.328 3.12 3.12 0 0 0-2.182-.873c-.824 0-1.6.31-2.182.873a.747.747 0 0 1-1.03 0 .686.686 0 0 1 0-.994m-1.723 3.994 1.268-1.225a.747.747 0 0 1 1.03 0L8.3 15.397a.686.686 0 0 1 0 .994.74.74 0 0 1-.948.067c.138.497.41.954.797 1.328a3.12 3.12 0 0 0 2.182.873c.824 0 1.6-.31 2.182-.873a.747.747 0 0 1 1.03 0 .686.686 0 0 1 0 .994 4.6 4.6 0 0 1-3.212 1.285 4.6 4.6 0 0 1-3.212-1.285 4.3 4.3 0 0 1-1.282-2.46l-.073.071a.747.747 0 0 1-1.03 0 .686.686 0 0 1 0-.994"/></svg>