<svg xmlns="http://www.w3.org/2000/svg" width="22" height="24" fill="none"><path fill="#F7F7F7" fill-rule="evenodd" d="M8.737 15.206H1.301a.804.804 0 0 1-.801-.804v-1.763c0-.443.36-.804.8-.804h8.871q.099 0 .192.023c-.233.405-.458.81-.666 1.211a18 18 0 0 0-.96 2.137m2.073 7.839a.8.8 0 0 1-.639.32h-8.87a.803.803 0 0 1-.801-.804V20.8c0-.443.36-.804.8-.804h7.418a7.34 7.34 0 0 0 2.092 3.049M8.5 19.286H1.3a.804.804 0 0 1-.8-.804V16.72c0-.443.36-.804.8-.804h7.205c-.155.544-.242 1.043-.242 1.473 0 .657.082 1.293.237 1.898M3.873 3.051h3.725v2.122c0 .141.084.269.213.325a5.27 5.27 0 0 1 3.16 4.823.803.803 0 0 1-.8.804h-8.87a.804.804 0 0 1-.801-.804 5.28 5.28 0 0 1 3.16-4.824.36.36 0 0 0 .213-.325zm4.557-.963c0 .14-.113.253-.253.253H3.294a.253.253 0 0 1-.252-.253V.254c0-.14.113-.254.252-.254h4.883c.14 0 .253.113.253.254zm12.995 14.578c-3.056 1.404-4.621.521-6.148-.3-.862-.463-1.716-.9-2.77-.984-.916-.073-1.989.119-3.353.818.912-3.355 4.935-8.765 5.881-10.007a.252.252 0 0 1 .4 0c.992 1.302 5.361 7.18 5.99 10.473M8.983 17.1c1.45-.835 2.544-1.084 3.468-1.01.95.075 1.715.485 2.492.902 1.646.885 3.332 1.828 6.557.418-.011 3.64-2.814 6.59-6.265 6.59-3.458 0-6.265-2.963-6.265-6.612q0-.14.013-.288" clip-rule="evenodd"/></svg>