<svg xmlns="http://www.w3.org/2000/svg" width="24" height="22" fill="none"><g fill="#F7F7F7"><path d="M23.867 10.2a1.06 1.06 0 0 0-.943-.548h-.3C21.94 4.416 17.42.5 12 .5 8.212.5 4.666 2.496 2.747 5.708c-.15.249-.185.552-.099.83a1.08 1.08 0 0 0 1.957.223C6.142 4.197 8.975 2.605 12 2.605c4.211 0 7.786 3.006 8.452 7.047-.43-.026-.836.172-1.04.549-.192.343-.177.744.04 1.073l1.284 1.957c.199.302.536.482.903.482s.704-.18.902-.482l1.286-1.957a1.02 1.02 0 0 0 .04-1.073m-3.079 4.616a1.08 1.08 0 0 0-1.393.422c-1.537 2.564-4.37 4.156-7.395 4.156-4.211 0-7.786-3.006-8.452-7.047.43.026.836-.172 1.04-.549a1.02 1.02 0 0 0-.04-1.073L3.265 8.769a1.07 1.07 0 0 0-.903-.482c-.367 0-.704.18-.902.482L.173 10.726a1.02 1.02 0 0 0-.04 1.073c.191.344.544.549.943.549h.3C2.06 17.584 6.58 21.5 12 21.5c3.788 0 7.334-1.995 9.253-5.208.15-.249.185-.552.099-.83a1.07 1.07 0 0 0-.564-.645"/><path d="M16.684 12.636c0-2.45-4.27-7.54-4.45-7.755a.317.317 0 0 0-.467 0c-.182.216-4.45 5.305-4.45 7.755 0 2.531 2.1 4.59 4.683 4.59s4.684-2.059 4.684-4.59m-6.202 2.042a.306.306 0 0 1-.428.013 3.35 3.35 0 0 1-1.083-2.45.3.3 0 0 1 .303-.297.3.3 0 0 1 .302.296c0 .772.318 1.489.893 2.02a.29.29 0 0 1 .013.418"/></g></svg>