<svg xmlns="http://www.w3.org/2000/svg" width="24" height="24" fill="none"><g fill="#F7F7F7"><path d="M22.62 11.002 12.676.997a.7.7 0 0 0-.995 0l-.994 1a2.1 2.1 0 0 0-.397.58C8.668.696 5.828.586 4.107 2.319c-1.51 1.52-1.756 3.98-.067 5.949L1.566 9.895C-.28 11.132-.54 13.759 1.03 15.339l7.128 7.125a3.502 3.502 0 0 0 5.41-.54l.64-.965h5.573v-2.83h-3.698l3.127-4.719c.784.384 1.762.25 2.415-.407l.995-1a.71.71 0 0 0 0-1.001M5.1 3.318C6.484 1.926 8.96 2.306 9.774 4.42L5.172 7.508c-1.265-1.587-1.09-3.163-.07-4.19m9.746 6.367c-1.23 4.096-1.044 5.19-2.172 6.32a3.5 3.5 0 0 1-4.97 0 3.557 3.557 0 0 1 0-5.003c1.045-1.052 1.827-.879 6.28-2.184a.7.7 0 0 1 .68.183.71.71 0 0 1 .182.684"/><path d="M8.699 12.002a2.134 2.134 0 0 0 0 3.002c.822.828 2.16.828 2.983 0 .687-.69.534-1.246 1.49-4.501-3.435.992-3.845.867-4.473 1.5m14.283 4.787-1.794 1.339v2.83l1.794 1.34A.703.703 0 0 0 24 21.664v-4.243a.703.703 0 0 0-1.018-.632M21.521 1.893c-1.69-1.7-4.512-1.838-6.41-.446l.996 1.002c1.35-.868 3.261-.722 4.42.445a3.55 3.55 0 0 1 .447 4.451l.996 1.002a4.93 4.93 0 0 0-.449-6.454"/></g></svg>