<svg width="24" height="24" viewBox="0 0 24 24" fill="none" xmlns="http://www.w3.org/2000/svg">
<g id="Vector">
<path d="M22.692 5.518C22.3403 4.07872 20.9005 2.61132 19.4369 2.16594V3.04263C20.2257 3.60053 20.4111 4.6835 19.8456 5.46174C19.2801 6.23998 18.1824 6.42282 17.3936 5.86492C16.6047 5.30703 16.4194 4.22406 16.9849 3.44582C17.0989 3.29111 17.2367 3.15515 17.3936 3.04263V1.75807C16.6523 1.63618 15.9062 1.53773 15.1601 1.4674V3.04263C15.949 3.60053 16.1343 4.6835 15.5688 5.46174C15.0033 6.23998 13.9056 6.42282 13.1168 5.86492C12.328 5.30703 12.1426 4.22406 12.7081 3.44582C12.8222 3.29111 12.96 3.15515 13.1168 3.04263V1.33145C12.3707 1.308 11.6294 1.308 10.8834 1.33145V3.04263C11.6722 3.60053 11.8575 4.6835 11.292 5.46174C10.7266 6.23998 9.62886 6.42282 8.84004 5.86492C8.05121 5.30703 7.86589 4.22406 8.43137 3.44582C8.54542 3.29111 8.68322 3.15515 8.84004 3.04263V1.46271C8.09398 1.53304 7.35267 1.63149 6.60662 1.75338V3.03795C7.39544 3.59584 7.58077 4.67881 7.01529 5.45705C6.4498 6.23529 5.3521 6.41813 4.56328 5.86023C3.77445 5.30234 3.58912 4.21937 4.15461 3.44113C4.26865 3.28642 4.40646 3.15046 4.56328 3.03795V2.16594C3.10443 2.60663 1.65983 4.07403 1.30819 5.518C1.09435 6.46032 0.923278 7.40265 0.794975 8.34497H23.2052C23.0769 7.40265 22.9058 6.46032 22.692 5.518Z" fill="#F7F7F7"/>
<path d="M5.58495 5.67271C6.26923 5.67271 6.82046 5.12888 6.82046 4.45378C6.82046 3.97089 6.53059 3.53489 6.0839 3.33799V0.49226C6.0839 0.220345 5.86056 0 5.58495 0C5.30933 0 5.08599 0.220345 5.08599 0.49226V3.33799C4.46349 3.6099 4.17837 4.33188 4.45398 4.94604C4.65356 5.38673 5.0955 5.67271 5.58495 5.67271Z" fill="#F7F7F7"/>
<path d="M9.86171 5.67271C10.546 5.67271 11.0972 5.12888 11.0972 4.45378C11.0972 3.97089 10.8073 3.53489 10.3607 3.33799V0.49226C10.3607 0.220345 10.1373 0 9.86171 0C9.58609 0 9.36275 0.220345 9.36275 0.49226V3.33799C8.74025 3.6099 8.45513 4.3272 8.73074 4.94604C8.93032 5.38673 9.37226 5.67271 9.86171 5.67271Z" fill="#F7F7F7"/>
<path d="M14.1385 5.67271C14.8228 5.67271 15.374 5.12888 15.374 4.45378C15.374 3.97089 15.0841 3.53489 14.6374 3.33799V0.49226C14.6374 0.220345 14.4141 0 14.1385 0C13.8629 0 13.6395 0.220345 13.6395 0.49226V3.33799C13.017 3.6099 12.7319 4.3272 13.0075 4.94604C13.2071 5.38673 13.649 5.67271 14.1385 5.67271Z" fill="#F7F7F7"/>
<path d="M18.4152 5.67271C19.0995 5.67271 19.6507 5.12888 19.6507 4.45378C19.6507 3.97089 19.3609 3.53489 18.9142 3.33799V0.49226C18.9142 0.220345 18.6908 0 18.4152 0C18.1396 0 17.9163 0.220345 17.9163 0.49226V3.33799C17.2938 3.6099 17.0087 4.3272 17.2843 4.94604C17.4838 5.38673 17.9258 5.67271 18.4152 5.67271Z" fill="#F7F7F7"/>
<path d="M12.0001 11.6736C9.50531 11.6736 7.48573 13.6661 7.48573 16.1274C7.48573 18.5887 9.50531 20.5811 12.0001 20.5811C14.4949 20.5811 16.5144 18.5887 16.5144 16.1274C16.5097 13.6708 14.4901 11.6783 12.0001 11.6736ZM13.9959 17.9839C13.611 18.4527 13.093 18.6965 12.48 18.7527V19.5451H11.4774V18.7762C10.8929 18.7621 10.4367 18.5137 10.0613 18.0964C9.81419 17.8151 9.70489 17.4776 9.67163 17.1025C9.69539 17.1025 9.7144 17.0978 9.73341 17.0978C10.0185 17.0978 10.2989 17.0978 10.584 17.0931C10.622 17.0884 10.66 17.1119 10.6695 17.1494V17.1541C10.7836 17.5479 11.1352 17.7354 11.4726 17.7307V16.5212L11.1732 16.4743C10.8881 16.4321 10.6125 16.3336 10.3654 16.1883C9.99951 15.9633 9.78568 15.6351 9.7144 15.2132C9.62411 14.7068 9.8332 14.3177 10.1896 13.9802C10.5365 13.6567 10.9404 13.4645 11.4203 13.4317C11.4394 13.4317 11.4536 13.427 11.4726 13.427V12.7144H11.5154V12.7097H12.4183V12.7144H12.48V13.3895C12.4895 13.3942 12.5038 13.3942 12.5181 13.3942C12.7081 13.4082 12.8982 13.4504 13.0788 13.5254C13.5587 13.727 13.8771 14.0833 14.0814 14.5474C14.148 14.6928 14.1955 14.8522 14.2097 15.0116H13.1786C13.1786 14.8334 13.0835 14.6646 12.922 14.5803C12.7889 14.5006 12.6369 14.4584 12.4848 14.449V15.6304C12.5941 15.6398 12.6986 15.6445 12.8079 15.6585C13.1833 15.7007 13.5397 15.8461 13.8296 16.0852C14.4568 16.6056 14.4711 17.4072 13.9959 17.9839Z" fill="#F7F7F7"/>
<path d="M10.8786 15.2085C10.9927 15.3257 11.14 15.4054 11.3015 15.4429C11.3586 15.4523 11.4156 15.4616 11.4774 15.4663V14.4068C11.3063 14.4021 11.1352 14.4396 10.9832 14.5193C10.7361 14.6506 10.6933 15.0256 10.8786 15.2085Z" fill="#F7F7F7"/>
<path d="M12.9837 16.7556C12.8222 16.6853 12.6511 16.6806 12.4848 16.6665V17.7307H12.6226C12.7937 17.7213 12.96 17.6745 13.1025 17.5854C13.1833 17.5338 13.2499 17.4729 13.2736 17.3838C13.3401 17.0884 13.2546 16.8775 12.9837 16.7556Z" fill="#F7F7F7"/>
<path d="M23.2955 9.0482H0.704688C0.296019 12.6394 0.500353 16.2727 1.30819 19.7982C1.67409 21.3078 3.23273 22.8408 4.75811 23.2018C9.52432 24.2661 14.4711 24.2661 19.2373 23.2018C20.7674 22.8408 22.3213 21.3031 22.6872 19.7982C23.4998 16.2727 23.7042 12.6394 23.2955 9.0482ZM12.0001 21.6125C8.93032 21.6125 6.4403 19.1559 6.4403 16.1274C6.4403 13.0988 8.93032 10.6422 12.0001 10.6422C15.0699 10.6422 17.5599 13.0988 17.5599 16.1274C17.5599 19.1559 15.0699 21.6125 12.0001 21.6125Z" fill="#F7F7F7"/>
</g>
</svg>
