<svg width="20" height="24" viewBox="0 0 20 24" fill="none" xmlns="http://www.w3.org/2000/svg">
<g id="Vector">
<path d="M8.37856 24H11.5984C12.2271 24.0003 12.8354 23.7851 13.3153 23.3927C13.7953 23.0003 14.1157 22.4561 14.2195 21.8569H5.75746C5.86133 22.4561 6.18171 23.0003 6.66164 23.3927C7.14156 23.7851 7.74992 24.0003 8.37856 24Z" fill="#F7F7F7"/>
<path d="M5.71733 19.7139H14.2592V20.9996H5.71733V19.7139Z" fill="#F7F7F7"/>
<path d="M19.9807 9.07124C19.5107 0.953828 9.21008 -2.97431 3.13182 2.62066C-1.6739 6.83678 -0.817621 14.7917 4.7996 17.9436C5.15933 18.1547 5.43562 18.4761 5.58448 18.8566H14.3925C14.5442 18.4753 14.8216 18.1529 15.182 17.9393C16.7428 17.0249 18.0151 15.7152 18.8609 14.152C19.7068 12.5888 20.094 10.8318 19.9807 9.07124ZM9.98849 17.0307C7.96899 17.029 6.03265 16.2532 4.60424 14.8736C3.17582 13.4939 2.37198 11.623 2.36906 9.67132C2.78958 -0.0972347 17.1889 -0.0943811 17.608 9.67137C17.605 11.6231 16.8012 13.4939 15.3727 14.8736C13.9443 16.2532 12.008 17.029 9.98849 17.0307Z" fill="#F7F7F7"/>
<path d="M9.98849 3.1649C8.20357 3.1669 6.49235 3.85303 5.23023 5.07279C3.9681 6.29255 3.25813 7.94632 3.25607 9.67132C3.62408 18.2975 16.3543 18.295 16.7209 9.67127C16.7188 7.94628 16.0089 6.29251 14.7467 5.07277C13.4846 3.85302 11.7734 3.16689 9.98849 3.1649ZM14.6453 8.34257C14.6431 8.45482 14.5954 8.56174 14.5124 8.64036C14.4295 8.71898 14.318 8.76302 14.2018 8.76302C14.0856 8.76302 13.9741 8.71898 13.8912 8.64036C13.8082 8.56174 13.7605 8.45482 13.7583 8.34257V8.004L10.3433 11.3044C10.2595 11.3829 10.1474 11.4268 10.0306 11.4268C9.91389 11.4268 9.80174 11.3829 9.71796 11.3043L8.61363 10.2328L6.09008 12.6759C6.00595 12.7537 5.89365 12.7965 5.77724 12.7953C5.66082 12.794 5.54954 12.7488 5.46722 12.6692C5.3849 12.5897 5.33808 12.4821 5.33679 12.3696C5.3355 12.2571 5.37983 12.1486 5.46031 12.0673L8.29873 9.32415C8.38329 9.24517 8.49604 9.20066 8.61363 9.19983C8.73103 9.20148 8.84347 9.24588 8.92848 9.32415L10.0328 10.3957L13.1285 7.39964H12.7826C12.6661 7.39796 12.5549 7.35207 12.4732 7.27186C12.3914 7.19166 12.3456 7.08359 12.3456 6.971C12.3456 6.85842 12.3914 6.75035 12.4732 6.67015C12.555 6.58995 12.6661 6.54407 12.7826 6.5424C14.9288 6.55908 14.6331 6.25143 14.6453 8.34257Z" fill="#F7F7F7"/>
</g>
</svg>
