<svg xmlns="http://www.w3.org/2000/svg" width="24" height="24" fill="none"><path fill="#F7F7F7" d="M17.812.5c-3.413 0-6.189 2.774-6.189 6.184s2.776 6.183 6.189 6.183c3.412 0 6.188-2.774 6.188-6.183A6.193 6.193 0 0 0 17.812.5m3.823 6.215a.424.424 0 0 1-.43-.414l-.025-1.195-2.341 2.392a.423.423 0 0 1-.591.013l-.975-.913-2.977 2.984a.42.42 0 0 1-.598.001.42.42 0 0 1 0-.597l3.266-3.274a.423.423 0 0 1 .588-.01l.972.91 2.041-2.086-1.186.024a.423.423 0 0 1-.018-.844l2.212-.045a.424.424 0 0 1 .431.413l.045 2.21a.42.42 0 0 1-.414.43zM3.913 9.609l1.682.97v4.116l-1.74-1.004zm13.899 4.103a7 7 0 0 0 1.694-.207v4.612l-9.33 5.383V12.734l2.387-1.377a7.02 7.02 0 0 0 5.249 2.355m-6.786-8.878a7 7 0 0 0-.232 2.319l-.389.228c-1.62.955-3.16 1.86-4.297 2.519l-1.82-1.05A497 497 0 0 0 8.744 6.2c.762-.457 1.541-.925 2.282-1.366m-7.581 3.53L.423 6.62l9.33-5.383 2.345 1.352q-.332.461-.587.973c-.995.59-2.116 1.261-3.202 1.912a420 420 0 0 1-4.864 2.889m8.59 2.323-2.282 1.315-2.8-1.615a952 952 0 0 0 3.882-2.278l.08-.047c.191.96.579 1.85 1.12 2.625m-5.595.38 2.89 1.667V23.5L0 18.117V7.352l3.075 1.773-.07 4.802a.42.42 0 0 0 .212.372l2.59 1.493a.423.423 0 0 0 .633-.366z"/></svg>