<svg width="24" height="24" viewBox="0 0 24 24" fill="none" xmlns="http://www.w3.org/2000/svg">
<path id="path5470" d="M12.2768 0.0033519C11.9232 -0.00544817 11.5696 0.00335136 11.2176 0.0265516C8.93423 0.176153 6.7789 0.913758 4.87958 2.34257V1.59696C4.87798 1.15776 4.52196 0.801759 4.08273 0.800159C3.6411 0.798559 3.28108 1.15536 3.27948 1.59696V4.07699C3.27948 4.78979 4.13873 5.1458 4.64356 4.64419C8.33899 0.94976 14.1882 0.566555 18.3332 3.74738C22.4783 6.92821 23.6208 12.6755 21.0094 17.2003C18.3964 21.7251 12.8505 23.6052 8.02297 21.6051C3.19547 19.6051 0.605713 14.3563 1.9586 9.30983C2.0738 8.88263 1.81939 8.44342 1.39136 8.32982C0.965736 8.21382 0.526507 8.46502 0.4097 8.89062C-1.1472 14.7019 1.85059 20.7843 7.40854 23.0875C12.9665 25.39 19.3845 23.2051 22.3927 17.9971C25.4009 12.7891 24.0824 6.1386 19.3093 2.47697C17.2212 0.87456 14.7506 0.0585524 12.2768 0.0033519ZM12.0024 3.81298C7.48934 3.81298 3.80991 7.48662 3.80991 11.9987C3.80991 16.5107 7.49014 20.1891 12.0024 20.1891C16.5147 20.1891 20.1869 16.5099 20.1869 11.9987C20.1869 7.48742 16.5147 3.81298 12.0024 3.81298ZM12.0024 6.97221C12.4441 6.97381 12.8009 7.33381 12.7993 7.77542V7.89862C13.5993 8.00742 14.285 8.50342 14.649 9.19383C14.8538 9.58503 14.7026 10.0682 14.3106 10.2738C13.9209 10.4786 13.4369 10.3282 13.2305 9.93784C13.0873 9.66503 12.8105 9.47703 12.4681 9.47703H11.724C11.2328 9.47703 10.8616 9.84823 10.8616 10.3394C10.8616 10.8306 11.2328 11.2018 11.724 11.2018H12.2792C13.6297 11.2018 14.7354 12.3147 14.7354 13.6643C14.7354 14.8363 13.9025 15.8251 12.7993 16.0675V16.2267C12.7977 16.6659 12.4417 17.0219 12.0024 17.0235C11.56 17.0259 11.1992 16.6691 11.1976 16.2267V16.1019C10.3991 15.9915 9.71348 15.4987 9.35026 14.8099C9.14385 14.4195 9.29506 13.9339 9.68628 13.7283C10.0783 13.5219 10.5623 13.6739 10.7679 14.0659C10.9112 14.3387 11.1936 14.5251 11.5352 14.5251H12.2792C12.7713 14.5251 13.1353 14.1555 13.1353 13.6643C13.1353 13.1731 12.7713 12.8019 12.2792 12.8019H11.724C10.3735 12.8019 9.26145 11.689 9.26145 10.3394C9.26145 9.17063 10.0967 8.18262 11.1976 7.93782V7.77542C11.196 7.33061 11.5568 6.96981 12.0024 6.97221Z" fill="#F7F7F7"/>
</svg>
