<svg xmlns="http://www.w3.org/2000/svg" width="24" height="24" fill="none"><path fill="#fff" fill-rule="evenodd" d="M8.083 11.692a3.01 3.01 0 0 1-1.485-2.343 2.97 2.97 0 0 1 2.759.122 3 3 0 0 1 1.356 1.696V8.981a3.8 3.8 0 0 1-1.114-2.697c0-1.288.637-2.427 1.612-3.116a3.81 3.81 0 0 1 1.611 3.116 3.8 3.8 0 0 1-1.113 2.697v6.036h-.996v-3.146a2.97 2.97 0 0 1-2.63-.18m-5.535 6.426h.996v-2.85a3.8 3.8 0 0 0 1.114-2.697 3.81 3.81 0 0 0-1.612-3.116 3.81 3.81 0 0 0-1.611 3.116c0 1.054.426 2.007 1.113 2.696zM21.241 6.39a3 3 0 0 0-1.368 1.736V5.813a3.8 3.8 0 0 0 1.113-2.697A3.81 3.81 0 0 0 19.376 0a3.81 3.81 0 0 0-1.612 3.116c0 1.054.426 2.008 1.114 2.697v2.313A3 3 0 0 0 17.51 6.39a2.97 2.97 0 0 0-2.76-.122 3.01 3.01 0 0 0 1.486 2.343 2.97 2.97 0 0 0 2.642.173v3.64h.996v-3.64c.83.346 1.804.313 2.642-.173A3.01 3.01 0 0 0 24 6.268a2.97 2.97 0 0 0-2.76.122M0 24h6.093v-4.892H0zm8.164 0h6.093v-7.993H8.164zm8.164 0h6.093V13.413h-6.093z" clip-rule="evenodd"/></svg>