<svg xmlns="http://www.w3.org/2000/svg" width="25" height="22" fill="none"><path fill="#fff" d="M12.26 20.998a.405.405 0 1 0 .807 0V16.94a3.437 3.437 0 0 0 3.397-3.44v-.377a.303.303 0 0 0-.303-.304h-.375c-1.11 0-2.093.54-2.719 1.366v-1.104a3.437 3.437 0 0 0 3.397-3.44v-.377a.305.305 0 0 0-.303-.304h-.375c-1.11 0-2.093.54-2.719 1.366v-1.1a3.437 3.437 0 0 0 3.397-3.44v-.378a.303.303 0 0 0-.303-.304h-.375c-1.11 0-2.093.54-2.719 1.367v-.672l.295-.293a3.12 3.12 0 0 0 .912-2.218c0-.84-.323-1.621-.912-2.217l-.484-.483a.303.303 0 0 0-.428 0l-.484.483a3.13 3.13 0 0 0-.911 2.217c0 .835.322 1.626.911 2.218l.295.293v.672a3.4 3.4 0 0 0-2.719-1.367h-.375a.303.303 0 0 0-.303.304v.377a3.44 3.44 0 0 0 3.397 3.44v1.101A3.4 3.4 0 0 0 9.542 8.96h-.375a.305.305 0 0 0-.303.304v.377a3.437 3.437 0 0 0 3.397 3.44v1.104a3.4 3.4 0 0 0-2.719-1.367h-.375a.303.303 0 0 0-.303.305v.377a3.437 3.437 0 0 0 3.397 3.44zM24.362 8.866h-.376c-1.11 0-2.093.54-2.719 1.367v-.671l.291-.295a3.143 3.143 0 0 0 0-4.43l-.48-.487a.3.3 0 0 0-.214-.085.3.3 0 0 0-.213.085l-.484.486a3.15 3.15 0 0 0 0 4.431l.294.296v.669a3.4 3.4 0 0 0-2.719-1.366h-.375a.303.303 0 0 0-.302.304v.377a3.434 3.434 0 0 0 3.396 3.44v1.104a3.4 3.4 0 0 0-2.719-1.366h-.375a.3.3 0 0 0-.302.304v.377a3.437 3.437 0 0 0 3.396 3.44v4.248c0 .224.18.406.403.406a.405.405 0 0 0 .403-.406v-4.248a3.437 3.437 0 0 0 3.397-3.44v-.377a.303.303 0 0 0-.303-.304h-.375c-1.11 0-2.093.54-2.719 1.367v-1.105a3.435 3.435 0 0 0 3.397-3.44V9.17a.305.305 0 0 0-.303-.304M4.06 21.095a.405.405 0 1 0 .807 0v-4.248a3.437 3.437 0 0 0 3.396-3.44v-.377a.3.3 0 0 0-.302-.304h-.375a3.41 3.41 0 0 0-2.719 1.365v-1.103a3.434 3.434 0 0 0 3.396-3.44V9.17a.303.303 0 0 0-.302-.304h-.375c-1.11 0-2.093.54-2.719 1.366v-.669l.295-.295a3.15 3.15 0 0 0 0-4.431l-.484-.487a.31.31 0 0 0-.428 0l-.48.487a3.143 3.143 0 0 0 0 4.43l.29.295v.671a3.4 3.4 0 0 0-2.718-1.367H.967a.305.305 0 0 0-.303.304v.377a3.435 3.435 0 0 0 3.397 3.44v1.106a3.4 3.4 0 0 0-2.72-1.367H.968a.303.303 0 0 0-.303.304v.377a3.437 3.437 0 0 0 3.397 3.44z"/></svg>