<svg xmlns="http://www.w3.org/2000/svg" width="24" height="24" fill="none"><g fill="#fff"><path d="M22.8 20.8H1.2A1.2 1.2 0 0 0 0 22v.8A1.2 1.2 0 0 0 1.2 24h21.6a1.2 1.2 0 0 0 1.2-1.2V22a1.2 1.2 0 0 0-1.2-1.2M12 16a4.85 4.85 0 0 0-4.576 3.2h9.144a4.85 4.85 0 0 0-4.576-3.2z"/><path d="M11.2 14.456v-2.8a5 5 0 0 1-1.256.152 5.14 5.14 0 0 1-2.952-.928C5.424 9.784 4.6 7.912 4.832 5.992a.8.8 0 0 1 .432-.616 5.18 5.18 0 0 1 5.336.352c.568.4 1.04.904 1.4 1.472a5.1 5.1 0 0 1 1.4-1.472 5.18 5.18 0 0 1 5.336-.352c.24.12.4.352.432.616.232 1.92-.592 3.792-2.16 4.888a5.14 5.14 0 0 1-2.952.928c-.416 0-.84-.056-1.256-.152v2.8a6.43 6.43 0 0 1 5.448 4.744H22.4v-12c0-3.968-3.232-7.2-7.2-7.2H8.8C4.832 0 1.6 3.232 1.6 7.2v12h4.16c.704-2.576 2.848-4.424 5.44-4.744"/><path d="M9.688 7.04A3.59 3.59 0 0 0 6.4 6.624a3.57 3.57 0 0 0 1.512 2.944c.96.672 2.184.816 3.288.416A3.57 3.57 0 0 0 9.688 7.04m6.4 2.528A3.56 3.56 0 0 0 17.6 6.624a3.59 3.59 0 0 0-3.288.416A3.56 3.56 0 0 0 12.8 9.984a3.57 3.57 0 0 0 3.288-.416"/></g></svg>