<svg xmlns="http://www.w3.org/2000/svg" width="23" height="24" fill="none"><path fill="#fff" d="M21.618 14.296H17.38v-2.07c1-.03 1.78-.177 2.32-.709.58-.57.71-1.415.725-2.506a.71.71 0 0 0-.724-.713c-1.377.02-2.569.21-3.036 1.498-.468-1.29-1.664-1.479-3.035-1.498a.71.71 0 0 0-.725.713c.016 1.091.146 1.935.726 2.506.54.532 1.32.679 2.32.71v2.07H6.713v-2.07c1-.031 1.78-.178 2.32-.71.58-.57.71-1.415.726-2.506a.71.71 0 0 0-.725-.713c-1.376.02-2.568.21-3.035 1.498-.468-1.29-1.664-1.479-3.036-1.498a.71.71 0 0 0-.724.713c.016 1.091.146 1.935.726 2.506.54.532 1.32.679 2.32.71v2.07h-4.24a.71.71 0 0 0-.714.702c0 .389.32.704.714.704h20.572a.71.71 0 0 0 .714-.704.71.71 0 0 0-.714-.703m.001 8.298H17.38v-1.742c1-.03 1.78-.178 2.32-.71.58-.57.71-1.414.725-2.505a.71.71 0 0 0-.724-.714c-1.377.02-2.569.21-3.036 1.498-.468-1.29-1.664-1.478-3.035-1.498a.71.71 0 0 0-.725.714c.016 1.09.146 1.935.726 2.506.54.531 1.32.678 2.32.71v1.74H6.713v-1.74c1-.032 1.78-.179 2.32-.71.58-.571.71-1.415.726-2.506a.71.71 0 0 0-.725-.714c-1.376.02-2.568.21-3.035 1.498-.468-1.29-1.664-1.478-3.036-1.498a.71.71 0 0 0-.724.714c.016 1.09.146 1.935.726 2.506.54.531 1.32.678 2.32.71v1.74h-4.24a.71.71 0 0 0-.714.704c0 .388.32.703.714.703h20.572a.71.71 0 0 0 .714-.703.71.71 0 0 0-.714-.703M1.046 7.077h20.572a.71.71 0 0 0 .714-.703.71.71 0 0 0-.714-.703H17.38V3.929c1-.03 1.78-.178 2.32-.71.58-.57.71-1.414.725-2.505A.71.71 0 0 0 19.701 0c-1.377.02-2.569.21-3.036 1.498C16.197.208 15.001.02 13.63 0a.71.71 0 0 0-.725.714c.016 1.09.146 1.935.726 2.506.54.531 1.32.678 2.32.71v1.74H6.713V3.93c1-.032 1.78-.179 2.32-.71.58-.571.71-1.415.726-2.506A.71.71 0 0 0 9.034 0C7.658.02 6.466.21 6 1.498 5.53.208 4.335.02 2.963 0a.71.71 0 0 0-.724.714c.016 1.09.146 1.935.726 2.506.54.531 1.32.678 2.32.71v1.74h-4.24a.71.71 0 0 0-.714.704c0 .388.32.703.714.703"/></svg>