<svg xmlns="http://www.w3.org/2000/svg" width="24" height="24" fill="none"><path fill="#fff" d="M9.22 10.308q0 .28-.032.554h5.624c-.191-1.596.46-3.21 1.573-4.191-.686-1.612-2.172-2.777-3.933-2.949h1.095c.314 0 .616-.056.896-.158 1.054-.39 1.791-1.422 1.793-2.634V0H14.69C13.127-.012 11.907 1.401 12 2.97v.717c-.46-.83-1.266-2.278-1.735-3.121l-1.218.73 1.472 2.648c-1.3.439-2.357 1.44-2.904 2.727a4.88 4.88 0 0 1 1.604 3.637m-1.45.554c.3-1.754-.855-3.48-2.513-3.829a5.54 5.54 0 0 0-1.538-3.238l-.995 1.033c.591.6.985 1.38 1.115 2.226-1.593.376-2.722 2.08-2.424 3.808zm8.462 0h6.355c.298-1.727-.831-3.432-2.424-3.808a4.06 4.06 0 0 1 1.115-2.226l-.995-1.033a5.54 5.54 0 0 0-1.538 3.238c-1.658.349-2.812 2.076-2.513 3.829M0 24h24v-5.109H0zm19.52-3.285h1.406v1.46H19.52zm-16.446 0H4.48v1.46H3.074zm20.536-8.393H0v5.109h24v-5.109zM4.48 15.607H3.074v-1.46H4.48zm16.446 0H19.52v-1.46h1.406z"/></svg>