<svg xmlns="http://www.w3.org/2000/svg" width="24" height="24" fill="none"><g fill="#fff"><path d="M12.4 18.311v-3.26h2a3.17 3.17 0 0 0 2.263-.953c.6-.61.937-1.437.937-2.3h-2.4a3.16 3.16 0 0 0-1.625.451 3.23 3.23 0 0 0-1.175 1.228V8.93a4.38 4.38 0 0 0 2.916-1.515 4.52 4.52 0 0 0 1.08-3.144 4.5 4.5 0 0 0-1.356-3.032A4.36 4.36 0 0 0 12 0a4.36 4.36 0 0 0-3.04 1.24 4.5 4.5 0 0 0-1.355 3.03 4.52 4.52 0 0 0 1.079 3.145A4.38 4.38 0 0 0 11.6 8.93v2.92a3.23 3.23 0 0 0-1.174-1.228 3.16 3.16 0 0 0-1.626-.451H6.4c0 .863.337 1.69.937 2.3s1.414.954 2.263.954h2v4.886c-2.905.06-5.2.762-5.2 1.622v2.44C6.4 23.271 8.907 24 12 24s5.6-.729 5.6-1.627v-2.44c0-.86-2.295-1.562-5.2-1.622m-4-13.835c0-.724.211-1.432.607-2.034a3.6 3.6 0 0 1 1.615-1.348 3.55 3.55 0 0 1 2.08-.208c.699.14 1.34.49 1.844 1.002a3.7 3.7 0 0 1 .985 1.874c.139.71.067 1.446-.205 2.115A3.65 3.65 0 0 1 14 7.52a3.56 3.56 0 0 1-2 .617 3.57 3.57 0 0 1-2.544-1.074A3.7 3.7 0 0 1 8.4 4.476"/><path d="M12.8 5.29a.4.4 0 0 0-.117-.288.4.4 0 0 0-.283-.12v.814a.4.4 0 0 0 .283-.119.4.4 0 0 0 .117-.287"/><path d="M14.8 4.476a2.9 2.9 0 0 0-.472-1.582 2.8 2.8 0 0 0-1.256-1.048 2.76 2.76 0 0 0-1.618-.162 2.8 2.8 0 0 0-1.434.779 2.86 2.86 0 0 0-.766 1.458 2.9 2.9 0 0 0 .16 1.645c.211.52.57.965 1.03 1.277.46.313 1.002.48 1.556.48a2.78 2.78 0 0 0 1.979-.835c.525-.533.82-1.257.821-2.012m-4.4.814h.8a.4.4 0 0 0 .117.287.4.4 0 0 0 .283.12v-.814a1.2 1.2 0 0 1-.848-.358 1.23 1.23 0 0 1 0-1.725 1.2 1.2 0 0 1 .848-.358v-.406h.8v.406c.318 0 .624.129.848.358.226.229.352.539.352.863h-.8a.4.4 0 0 0-.117-.288.4.4 0 0 0-.283-.12v.814c.318 0 .624.129.848.358a1.23 1.23 0 0 1 0 1.725 1.2 1.2 0 0 1-.848.358v.407h-.8V6.51a1.2 1.2 0 0 1-.848-.358 1.23 1.23 0 0 1-.352-.862"/><path d="M11.6 3.256a.4.4 0 0 0-.283.119.41.41 0 0 0 0 .575.4.4 0 0 0 .283.12zM8 18.306v-2.441c0-.633-1.579-1.153-3.6-1.214v-2.483a2.4 2.4 0 0 0 1.432-.83A2.47 2.47 0 0 0 6.4 9.764V8.137a2.38 2.38 0 0 0-1.697.715A2.46 2.46 0 0 0 4 10.577a2.46 2.46 0 0 0-.703-1.725A2.38 2.38 0 0 0 1.6 8.137v1.627c0 .576.202 1.134.568 1.574s.873.734 1.432.83v2.483c-2.021.061-3.6.581-3.6 1.214v2.44c0 .675 1.79 1.22 4 1.22s4-.545 4-1.22m12.4-3.655v-2.482a2.4 2.4 0 0 0 1.432-.83 2.47 2.47 0 0 0 .568-1.574V8.137a2.38 2.38 0 0 0-1.697.715A2.46 2.46 0 0 0 20 10.577a2.46 2.46 0 0 0-.703-1.725 2.38 2.38 0 0 0-1.697-.715v1.627c0 .576.202 1.134.568 1.574s.873.734 1.432.83v2.483c-2.021.061-3.6.581-3.6 1.214v2.44c0 .675 1.79 1.22 4 1.22s4-.545 4-1.22v-2.44c0-.633-1.579-1.153-3.6-1.214"/></g></svg>