<svg width="24" height="24" viewBox="0 0 24 24" fill="none" xmlns="http://www.w3.org/2000/svg">
<g id="Vector">
<path d="M12 6.48374C12.5954 6.48374 13.0781 6.00236 13.0781 5.40854C13.0781 4.81472 12.5954 4.33333 12 4.33333C11.4046 4.33333 10.9219 4.81472 10.9219 5.40854C10.9219 6.00236 11.4046 6.48374 12 6.48374Z" fill="#F7F7F7"/>
<path d="M12.7031 3.03234V0.5H11.2969V3.03234C11.52 2.96596 11.7558 2.93089 12 2.93089C12.2442 2.93089 12.48 2.96596 12.7031 3.03234Z" fill="#F7F7F7"/>
<path d="M16.4531 21.2848C16.4531 20.1606 15.536 19.2459 14.4087 19.2459H12.7031V7.78474C12.48 7.85112 12.2442 7.88618 12 7.88618C11.7558 7.88618 11.52 7.85112 11.2969 7.78474V19.2459H9.63816C8.51086 19.2459 7.59375 20.1606 7.59375 21.2848V22.0976H6.04688V23.5H18V22.0976H16.4531V21.2848Z" fill="#F7F7F7"/>
<path d="M8.67188 13.1453V12.4441H7.71516L5.34731 7.36405L5.3475 7.364L9.74672 6.45195C9.59859 6.13453 9.51562 5.78112 9.51562 5.40854C9.51562 5.2912 9.52406 5.17526 9.54 5.06213L3.84703 6.24299L0.956719 12.4441H0V13.1453C0 15.5295 1.94531 17.4695 4.33594 17.4695C6.72656 17.4695 8.67188 15.5295 8.67188 13.1453ZM2.50734 12.4441L4.33589 8.52116L6.16439 12.4441H2.50734Z" fill="#F7F7F7"/>
<path d="M23.0433 9.26524L20.0667 2.879L14.1169 4.11315C14.3498 4.49041 14.4844 4.93404 14.4844 5.40854C14.4844 5.42864 14.4839 5.44921 14.4834 5.46931L18.4361 4.64986L16.2848 9.26524H15.3281V9.96646C15.3281 12.3506 17.2734 14.2907 19.6641 14.2907C22.0547 14.2907 24 12.3506 24 9.96646V9.26524H23.0433ZM17.8356 9.26524L19.6642 5.34229L21.4927 9.26524H17.8356Z" fill="#F7F7F7"/>
</g>
</svg>
