<svg xmlns="http://www.w3.org/2000/svg" width="24" height="24" fill="none"><g fill="#fff"><path d="M11.203 11.557c-.344-.596-.993-.965-1.49-1.173-.069.534-.073 1.278.272 1.876.261.452.7.774 1.113.994a4.8 4.8 0 0 1 .15-1.612z"/><path d="M12 6.14A5.866 5.866 0 0 0 6.14 12a5.87 5.87 0 0 0 5.157 5.817V14.87c-.703-.245-1.892-.802-2.53-1.907-.923-1.6-.276-3.624-.248-3.71a.703.703 0 0 1 .813-.469c.076.016 1.65.359 2.668 1.493 1.018-1.134 2.592-1.477 2.668-1.493.351-.073.7.129.813.47.028.085.675 2.11-.248 3.709-.638 1.105-1.827 1.662-2.53 1.907v2.947A5.87 5.87 0 0 0 17.86 12c0-3.23-2.628-5.86-5.859-5.86"/><path d="M14.015 12.26c.345-.598.34-1.343.272-1.877-.497.207-1.145.576-1.49 1.174-.343.595-.339 1.341-.27 1.876.496-.207 1.143-.576 1.488-1.173"/><path d="M23.297 10.36h-.877c-.115-.74-.306-1.46-.572-2.151l.756-.437a.703.703 0 0 0 .257-.96l-.937-1.624a.703.703 0 0 0-.96-.257l-.761.439a10.8 10.8 0 0 0-1.573-1.573l.44-.76a.703.703 0 0 0-.258-.96l-1.624-.938a.703.703 0 0 0-.96.257l-.437.756a10.5 10.5 0 0 0-2.15-.572V.703A.703.703 0 0 0 12.938 0h-1.876a.703.703 0 0 0-.703.703v.877c-.739.115-1.46.306-2.15.572l-.437-.756a.703.703 0 0 0-.96-.257l-1.624.937a.703.703 0 0 0-.257.96l.439.761A10.7 10.7 0 0 0 3.797 5.37l-.76-.44a.703.703 0 0 0-.96.258l-.938 1.624a.703.703 0 0 0 .257.96l.756.437a10.5 10.5 0 0 0-.572 2.15H.703a.703.703 0 0 0-.703.704v1.874c0 .389.315.704.703.704h.877c.115.739.306 1.46.572 2.15l-.756.437a.703.703 0 0 0-.257.96l.937 1.624a.703.703 0 0 0 .96.257l.761-.439a10.7 10.7 0 0 0 1.573 1.573l-.44.76a.703.703 0 0 0 .258.96l1.624.938a.703.703 0 0 0 .96-.257l.437-.756a10.5 10.5 0 0 0 2.15.572v.877c0 .388.315.703.704.703h1.874a.703.703 0 0 0 .704-.703v-.877c.739-.115 1.46-.306 2.15-.572l.437.756a.703.703 0 0 0 .96.257l1.624-.937a.703.703 0 0 0 .257-.96l-.439-.761a10.7 10.7 0 0 0 1.573-1.573l.76.44a.703.703 0 0 0 .96-.258l.938-1.624a.703.703 0 0 0-.257-.96l-.756-.437a10.5 10.5 0 0 0 .572-2.15h.877a.703.703 0 0 0 .703-.703v-1.876a.703.703 0 0 0-.703-.703M12 19.265c-4.006 0-7.266-3.26-7.266-7.266S7.994 4.734 12 4.734s7.266 3.26 7.266 7.266-3.26 7.266-7.266 7.266"/></g></svg>