<svg xmlns="http://www.w3.org/2000/svg" width="24" height="24" fill="none"><path fill="#fff" fill-rule="evenodd" d="M4.719 24h10.564v-2.805H4.72zM4.695 5.347a4.698 4.698 0 1 1 .006 9.395 4.698 4.698 0 0 1-.006-9.395M18.49.061a2.872 2.872 0 1 1-1.193 5.621A2.872 2.872 0 1 1 18.49.062m-.33 1.553a1.285 1.285 0 1 1-.531 2.515 1.285 1.285 0 0 1 .53-2.515M16.594 14.83l-.172.313 2.48 3.117 3.36-.194.142-1.282-2.261-.118-1.636-2.002c.342-.277.56-.679.62-1.11l2.563.325 1.293 1.866L24 14.948l-1.606-2.958-3.957-.467-.177.313a1.711 1.711 0 0 0-2.463 2.014c.136.437.431.773.797.98m.785-2.014c.272 0 .484.219.484.49a.483.483 0 0 1-.484.484.483.483 0 0 1-.485-.484c0-.271.213-.49.485-.49M4.695 7.461a2.586 2.586 0 1 1 0 5.172 2.586 2.586 0 1 1 0-5.172m11.557 3.885.443-5.214a3.48 3.48 0 0 0 3.319-.508l-.437 5.049-1.335-.047-.301.454a2.3 2.3 0 0 0-1.21.053q-.257.08-.48.213m-13.335 3.69 2.12 5.563h8.469l-4.43-7.57a5.3 5.3 0 0 1-4.381 2.314 5.2 5.2 0 0 1-1.778-.307m13.359-9.093-6.36 5.025q.078-.452.076-.921a5.3 5.3 0 0 0-2.244-4.334l6.797-3.773q-.028.105-.047.212a3.47 3.47 0 0 0 1.778 3.79" clip-rule="evenodd"/></svg>