<svg xmlns="http://www.w3.org/2000/svg" width="20" height="24" fill="none"><path fill="#fff" d="M8.683 8.05a1 1 0 0 0-.383-.68l-1.248-.997c-1.335-1.08-2.645-2.184-3.877-3.4a64 64 0 0 1 5.679 3.681c.34.245.588.596.703.997h.033V13.1a8.8 8.8 0 0 0-3.045-1.328C2.825 10.986.837 12.832.837 14.9c0 2.413.965 4.728 2.68 6.434A9.18 9.18 0 0 0 9.99 24a9.18 9.18 0 0 0 6.472-2.666 9.07 9.07 0 0 0 2.68-6.434 3.03 3.03 0 0 0-1.156-2.391c-1.061-.857-2.675-1.109-4.535-.716-.93.2-1.82.558-2.629 1.059 1.889 1.208 3.603 1.655 6.527.902a6.1 6.1 0 0 1-2.155.89c-2.08.367-3.328-.1-4.771-1.006V7.636h.033c.162-.5.506-.923.965-1.183a61 61 0 0 1 5.408-3.496 58 58 0 0 1-5.15 4.414 1 1 0 0 0-.383.678 6.45 6.45 0 0 0 6.166-.88 6.4 6.4 0 0 0 1.994-2.51 6.35 6.35 0 0 0 .518-3.158.41.41 0 0 0-.175-.302 6.44 6.44 0 0 0-5.68-.903 6.4 6.4 0 0 0-2.537 1.505A6.4 6.4 0 0 0 9.99 4.277 6.4 6.4 0 0 0 8.4 1.81 6.46 6.46 0 0 0 .2 1.2a.42.42 0 0 0-.175.301 6.35 6.35 0 0 0 .52 3.15 6.4 6.4 0 0 0 1.987 2.506 6.45 6.45 0 0 0 6.15.892"/></svg>