<svg width="24" height="24" viewBox="0 0 24 24" fill="none" xmlns="http://www.w3.org/2000/svg">
<g id="Vector">
<path d="M18.27 2.56951C18.53 2.42729 18.625 2.10362 18.475 1.84371C18.33 1.5838 18 1.49552 17.735 1.63774C16.93 2.0742 16.455 2.87356 16.18 3.71215C16.24 3.70725 16.305 3.70725 16.365 3.70725C16.69 3.70725 17.015 3.72196 17.32 3.76119C17.525 3.24136 17.83 2.80981 18.27 2.56951Z" fill="white"/>
<path d="M8.375 1.03945C8.125 0.872708 7.785 0.941364 7.62 1.18657L6.385 2.98635C6.09 2.84414 5.775 2.74606 5.455 2.69701V1.03454C5.455 0.740298 5.21 0.5 4.91 0.5C4.61 0.5 4.365 0.740298 4.365 1.03454V2.70192C4.045 2.75586 3.73 2.84904 3.44 2.99126L2.2 1.18657C2.03 0.941364 1.695 0.877612 1.445 1.03945C1.195 1.20618 1.13 1.53475 1.295 1.77996L2.56 3.62388C1.98 4.21727 1.64 5.01663 1.64 5.85032C1.64 5.87484 1.64 5.89936 1.645 5.91898L2.29 10.6612H7.215L8.07 6.46333C8.25 5.5904 8.095 4.7322 7.625 4.04563C7.515 3.8887 7.395 3.74648 7.265 3.61407L8.525 1.77996C8.69 1.53966 8.625 1.20618 8.375 1.03945Z" fill="white"/>
<path d="M17.7 5.93859C17.945 5.77185 18.29 5.84051 18.455 6.09062C18.625 6.33092 18.555 6.6693 18.3 6.83113C17.685 7.23817 17.055 7.44414 16.42 7.45885C16.415 7.45885 16.415 7.45885 16.41 7.45885H16.365C15.71 7.45885 15.06 7.24797 14.43 6.83113C14.18 6.6693 14.11 6.33582 14.275 6.09062C14.44 5.84542 14.775 5.77676 15.03 5.93859C15.29 6.10533 15.545 6.22793 15.8 6.29659C15.8 5.65906 15.865 4.65373 16.18 3.71215C12.485 3.78571 9.82 6.23774 9.82 9.59211C9.82 9.95501 9.855 10.313 9.915 10.6612H22.82C22.88 10.313 22.915 9.95501 22.915 9.59211C22.915 6.47804 20.615 4.13881 17.325 3.76119C16.985 4.58017 16.895 5.5904 16.895 6.3064C17.155 6.24264 17.43 6.11514 17.7 5.93859Z" fill="white"/>
<path d="M0 14.9424H24V11.7303H0V14.9424ZM20.18 12.8043C20.18 12.51 20.43 12.2697 20.73 12.2697C21.03 12.2697 21.275 12.51 21.275 12.8043V13.8733C21.275 14.1676 21.03 14.4079 20.73 14.4079C20.43 14.4079 20.18 14.1676 20.18 13.8733V12.8043ZM2.73 12.8043C2.73 12.51 2.975 12.2697 3.275 12.2697C3.575 12.2697 3.82 12.51 3.82 12.8043V13.8733C3.82 14.1676 3.575 14.4079 3.275 14.4079C2.975 14.4079 2.73 14.1676 2.73 13.8733V12.8043Z" fill="white"/>
<path d="M0 19.2237H24V16.0115H0V19.2237ZM20.18 17.0806C20.18 16.7864 20.43 16.5461 20.73 16.5461C21.03 16.5461 21.275 16.7864 21.275 17.0806V18.1546C21.275 18.4488 21.03 18.6891 20.73 18.6891C20.43 18.6891 20.18 18.4488 20.18 18.1546V17.0806ZM2.73 17.0806C2.73 16.7864 2.975 16.5461 3.275 16.5461C3.575 16.5461 3.82 16.7864 3.82 17.0806V18.1546C3.82 18.4488 3.575 18.6891 3.275 18.6891C2.975 18.6891 2.73 18.4488 2.73 18.1546V17.0806Z" fill="white"/>
<path d="M0 23.5H24V20.2928H0V23.5ZM20.18 21.3618C20.18 21.0676 20.43 20.8273 20.73 20.8273C21.03 20.8273 21.275 21.0676 21.275 21.3618V22.4309C21.275 22.7252 21.03 22.9655 20.73 22.9655C20.43 22.9655 20.18 22.7252 20.18 22.4309V21.3618ZM2.73 21.3618C2.73 21.0676 2.975 20.8273 3.275 20.8273C3.575 20.8273 3.82 21.0676 3.82 21.3618V22.4309C3.82 22.7252 3.575 22.9655 3.275 22.9655C2.975 22.9655 2.73 22.7252 2.73 22.4309V21.3618Z" fill="white"/>
</g>
</svg>
