<svg xmlns="http://www.w3.org/2000/svg" width="25" height="26" fill="none"><g fill="#F7F7F7"><path d="M10.695 5.927 3.838 17.76a2.144 2.144 0 0 0 .79 2.937l6.542 3.767a3 3 0 0 1-.216-1.113V9.686c0-1.225.476-2.403 1.33-3.285l2.752-2.835-2.054.577a3.88 3.88 0 0 0-2.287 1.784M.964 13.708a2.147 2.147 0 0 0 0 3.04l1.726 1.72a3 3 0 0 1 .401-1.14c1.006-1.72 5.45-9.405 7.863-13.534-.289.224.237-.27-9.99 9.914m16.77 2.33h.125v-1.72h-.125a.865.865 0 0 0-.863.86.86.86 0 0 0 .863.86"/><path d="M20.88.5a5.85 5.85 0 0 1-1.27 2.752 2.16 2.16 0 0 0-2.386-.481 2.2 2.2 0 0 0-.707.481l-3.612 3.755a3.86 3.86 0 0 0-1.088 2.68V23.35c0 .57.227 1.117.632 1.52s.954.63 1.526.63h8.2c.572 0 1.12-.227 1.525-.63s.632-.95.632-1.52V9.686c-.002-1-.391-1.96-1.088-2.679l-2.42-2.503a5.6 5.6 0 0 1-1.938 1.363.86.86 0 0 1-.696.564.866.866 0 0 1-.979-.794.86.86 0 0 1 1.21-.843q.166.075.288.209.398-.179.755-.43.409-.307.76-.675a6.54 6.54 0 0 0 1.519-3.29zm-3.146 12.958h.125v-1.045h.863v1.045h.125a1.725 1.725 0 0 1 1.726 1.72h-.863a.86.86 0 0 0-.863-.86h-.125v1.72h.125c.458 0 .897.182 1.22.504a1.717 1.717 0 0 1-1.22 2.937h-.125v1.045h-.863V19.48h-.125a1.73 1.73 0 0 1-1.22-.504 1.72 1.72 0 0 1-.506-1.216h.863a.86.86 0 0 0 .863.86h.125V16.9h-.125a1.73 1.73 0 0 1-1.22-.504 1.717 1.717 0 0 1 0-2.433 1.73 1.73 0 0 1 1.22-.504"/><path d="M19.71 17.759a.86.86 0 0 0-.863-.86h-.125v1.72h.125a.865.865 0 0 0 .863-.86"/></g></svg>