<svg xmlns="http://www.w3.org/2000/svg" width="24" height="22" fill="none"><path fill="#fff" d="M1.063 21.5h7.541l.226-6.197H.837zm4.47-13.795h1.29c1.545 0 2.797-1.288 2.797-2.876v-.257H7.63c-1.544 0-2.797 1.288-2.797 2.877 0-1.589-1.252-2.877-2.797-2.877H.046v.257c0 1.588 1.253 2.876 2.798 2.876h1.29v3.825H0v2.335h9.667V11.53H5.533zM13.732 21.5h8.983l.274-7.724h-9.531zm7.471-17.867C22.748 3.633 24 2.345 24 .756V.5h-2.98c-1.544 0-2.797 1.288-2.797 2.876C18.223 1.788 16.971.5 15.426.5h-2.98v.256c0 1.589 1.253 2.877 2.798 2.877h2.28V6.78a3.6 3.6 0 0 0-2.27-.813h-.302v1.438h.301c1.24 0 2.25 1.028 2.27 2.298v.299h-4.886v2.335H23.81v-2.335h-4.887v-.336c.038-1.253 1.04-2.261 2.269-2.261h.3V5.968h-.3a3.6 3.6 0 0 0-2.27.811V3.633z"/></svg>