<svg width="239" height="61" viewBox="0 0 239 61" fill="none" xmlns="http://www.w3.org/2000/svg">
<path d="M4.74786 20.0822V43.1028C4.74786 43.6392 4.48621 43.9073 3.96291 43.9073H0.78495C0.26165 43.9073 0 43.6392 0 43.1028V20.0822C0 19.5459 0.26165 19.2777 0.78495 19.2777H3.96291C4.48621 19.2777 4.74786 19.5459 4.74786 20.0822Z" fill="#008755"/>
<path d="M11.0848 43.9101H7.98319C7.45989 43.9101 7.19824 43.642 7.19824 43.1056V20.0822C7.19824 19.5459 7.45989 19.2777 7.98319 19.2777H10.785C11.3083 19.2777 11.6572 19.4565 11.8289 19.8141L19.3786 34.3315H19.5285V20.0822C19.5285 19.5459 19.7901 19.2777 20.3134 19.2777H23.4151C23.9357 19.2777 24.1973 19.5459 24.1973 20.0822V43.1028C24.1973 43.6392 23.9357 43.9073 23.4151 43.9073H20.6868C20.1363 43.9073 19.7384 43.6531 19.4903 43.1419L12.017 28.8927H11.8671V43.1028C11.8671 43.642 11.6081 43.9101 11.0848 43.9101Z" fill="#008755"/>
<path d="M30.5368 43.9101H27.4324C26.9091 43.9101 26.6475 43.642 26.6475 43.1056V20.0822C26.6475 19.5459 26.9091 19.2777 27.4324 19.2777H30.2342C30.7575 19.2777 31.1064 19.4565 31.2781 19.8141L38.8305 34.3315H38.9804V20.0822C38.9804 19.5459 39.2421 19.2777 39.7654 19.2777H42.867C43.3876 19.2777 43.6493 19.5459 43.6493 20.0822V43.1028C43.6493 43.6392 43.3876 43.9073 42.867 43.9073H40.1388C39.5882 43.9073 39.1903 43.6531 38.9423 43.1419L31.4689 28.8927H31.319V43.1028C31.319 43.642 31.0601 43.9101 30.5368 43.9101Z" fill="#008755"/>
<path d="M105.47 43.9101H102.292C101.768 43.9101 101.507 43.642 101.507 43.1056V20.0822C101.507 19.5459 101.768 19.2777 102.292 19.2777H114.213C114.709 19.2777 114.96 19.5459 114.96 20.0822V22.6857C114.96 23.222 114.709 23.4902 114.213 23.4902H106.699C106.402 23.4902 106.252 23.6327 106.252 23.912V29.8508C106.252 30.1553 106.402 30.309 106.699 30.309H113.09C113.614 30.309 113.875 30.5771 113.875 31.1135V33.6806C113.875 34.2449 113.614 34.5242 113.09 34.5242H106.699C106.402 34.5242 106.252 34.6667 106.252 34.946V43.1056C106.252 43.642 105.99 43.9101 105.47 43.9101Z" fill="#008755"/>
<path d="M124.469 43.9101H123.575C121.605 43.9101 120.086 43.3738 119.015 42.3011C117.944 41.2285 117.41 39.6837 117.407 37.6668V30.6134C117.407 28.5966 117.944 27.0518 119.015 25.9792C120.086 24.9065 121.607 24.3701 123.575 24.3701H132.204C132.755 24.3701 133.03 24.6383 133.03 25.1746V43.1028C133.03 43.6392 132.755 43.9073 132.204 43.9073H129.067C128.544 43.9073 128.282 43.6392 128.282 43.1028V41.8374H128.132C127.857 42.5274 127.372 43.0442 126.674 43.3906C125.987 43.7342 125.235 43.9101 124.469 43.9101ZM128.282 36.7841V29.01C128.282 28.7279 128.132 28.5882 127.832 28.5882H124.322C123.523 28.5882 122.962 28.7614 122.64 29.105C122.316 29.4514 122.155 30.0324 122.152 30.8481V37.4378C122.152 38.2562 122.316 38.8373 122.64 39.1809C122.965 39.5245 123.523 39.6977 124.322 39.6977H125.704C127.424 39.6949 128.282 38.7228 128.282 36.7841Z" fill="#008755"/>
<path d="M139.438 43.9101H136.262C135.739 43.9101 135.478 43.642 135.478 43.1056V25.1774C135.478 24.6411 135.739 24.3729 136.262 24.3729H139.438C139.961 24.3729 140.223 24.6411 140.223 25.1774V26.4792H140.373C140.648 25.7892 141.133 25.2668 141.831 24.9093C142.512 24.5545 143.27 24.3701 144.036 24.3729H145.379C145.878 24.3729 146.126 24.6411 146.126 25.1774V27.82C146.126 28.1273 146.072 28.3368 145.96 28.4513C145.845 28.5659 145.655 28.6106 145.379 28.5854H142.801C141.084 28.5854 140.223 29.5827 140.223 31.5716V43.1028C140.223 43.642 139.961 43.9101 139.438 43.9101Z" fill="#008755"/>
<path d="M152.539 43.9101H149.364C148.841 43.9101 148.579 43.642 148.579 43.1056V25.1774C148.579 24.6411 148.841 24.3729 149.364 24.3729H152.539C153.063 24.3729 153.324 24.6411 153.324 25.1774V26.4401H153.474C153.771 25.8283 154.275 25.3311 154.987 24.9484C155.695 24.5657 156.51 24.3729 157.434 24.3729H158.478C160.645 24.3729 162.201 25.1886 163.15 26.8228C163.997 25.1914 165.453 24.3729 167.521 24.3729H168.603C170.522 24.3729 171.972 24.9093 172.956 25.9819C173.943 27.0546 174.436 28.5966 174.436 30.6134V43.1028C174.436 43.6392 174.174 43.9073 173.651 43.9073H170.476C169.953 43.9073 169.691 43.6392 169.691 43.1028V30.8453C169.691 30.0296 169.53 29.4486 169.206 29.1022C168.881 28.7586 168.323 28.5854 167.524 28.5854H166.589C164.872 28.5854 164.014 29.5687 164.011 31.5353V43.1028C164.011 43.6392 163.738 43.9073 163.188 43.9073H160.051C159.528 43.9073 159.266 43.6392 159.266 43.1028V30.8453C159.266 30.0296 159.097 29.4486 158.759 29.1022C158.424 28.7586 157.857 28.5854 157.061 28.5854H155.903C154.183 28.5854 153.324 29.5575 153.324 31.4962V43.1028C153.324 43.642 153.063 43.9101 152.539 43.9101Z" fill="#008755"/>
<path d="M184.845 43.9101H177.745C177.246 43.9101 176.998 43.642 176.998 43.1056V40.653C176.998 40.3737 177.047 40.1753 177.148 40.0608C177.246 39.9463 177.445 39.8876 177.745 39.8876H183.984C185.205 39.8876 185.815 39.5049 185.815 38.7395V38.5468C185.815 37.935 185.306 37.3484 184.284 36.7841L180.585 34.6779C179.315 34.0158 178.38 33.3007 177.783 32.5353C177.184 31.7671 176.884 30.7838 176.884 29.5827C176.884 27.7977 177.347 26.482 178.268 25.6411C179.19 24.7975 180.634 24.3757 182.602 24.3757H188.841C189.339 24.3757 189.587 24.6439 189.59 25.1802V27.672C189.59 27.9513 189.538 28.1496 189.44 28.2642C189.339 28.3787 189.14 28.4374 188.841 28.4374H183.649C182.427 28.4374 181.817 28.7558 181.817 29.3955V29.5855C181.817 30.1497 182.354 30.7252 183.422 31.309L187.197 33.608C188.492 34.3231 189.402 35.0578 189.925 35.812C190.449 36.5634 190.71 37.5551 190.71 38.7786C190.71 42.2006 188.753 43.9101 184.845 43.9101Z" fill="#008755"/>
<path d="M197.943 38.9071V42.6056C197.943 43.0274 197.706 43.2369 197.235 43.2369H193.91C193.411 43.2369 193.16 43.0274 193.16 42.6056V38.935C193.16 38.5356 193.411 38.3345 193.91 38.3345H197.235C197.706 38.3345 197.943 38.5244 197.943 38.9071Z" fill="#008755"/>
<path d="M204.487 43.9101H200.9C200.451 43.9101 200.301 43.642 200.451 43.1056L206.354 20.085C206.529 19.5487 206.902 19.2805 207.474 19.2805H212.446C213.067 19.2805 213.441 19.5487 213.566 20.085L219.469 43.1056C219.619 43.642 219.469 43.9101 219.02 43.9101H215.433C215.158 43.9101 214.972 43.8543 214.871 43.7369C214.773 43.6224 214.697 43.4129 214.648 43.1056L213.604 38.8931H206.316L205.272 43.1056C205.223 43.4129 205.141 43.6224 205.03 43.7369C204.918 43.8543 204.735 43.9101 204.487 43.9101ZM209.903 23.9148L207.213 34.9851H212.743L210.05 23.9148H209.903Z" fill="#008755"/>
<path d="M226.723 20.0822V43.1028C226.723 43.6392 226.461 43.9073 225.938 43.9073H222.762C222.239 43.9073 221.978 43.6392 221.978 43.1028V20.0822C221.978 19.5459 222.239 19.2777 222.762 19.2777H225.938C226.461 19.2777 226.723 19.5459 226.723 20.0822Z" fill="#008755"/>
<path d="M77.6174 8.15991L72.5533 5.17933L67.4866 8.15991L71.3051 10.403V13.2914L64.941 9.62645L59.7979 12.6601L71.3051 19.5124V22.4455L57.0533 14.2188L52.0029 17.1799L72.5533 29.376L93.0738 17.191L88.0234 14.2188L73.8016 22.4455V19.5124L85.4042 12.6601L80.1984 9.62645L73.8016 13.2914V10.403L77.6174 8.15991Z" fill="#008755"/>
<path d="M50.7031 43.8543L55.9061 46.9019V22.3756L50.7031 19.2777V43.8543Z" fill="#008755"/>
<path d="M58.3232 23.8506V48.3517L72.5396 56.6202L86.7559 48.3517V42.195L72.5396 50.4523L71.2913 49.6925V31.5269L66.0528 28.4234V46.6645L63.559 45.223V26.9541L58.3232 23.8506Z" fill="#008755"/>
<path d="M73.7471 46.6784L78.9664 43.628V34.4516L89.1544 28.5687V31.6191L81.4521 36.0913V42.0972L89.1544 37.7087V46.9019L94.3738 43.8543V19.2777L73.7471 31.5101V46.6784Z" fill="#008755"/>
<path d="M48.8603 16.8866L71.5339 3.67088L71.523 3.65412C72.2698 4.14017 73.24 4.0452 73.8833 3.42785C74.5265 2.80771 74.6791 1.82163 74.2539 1.0283C73.8288 0.234966 72.9348 -0.1617 72.079 0.0617737C71.2259 0.288041 70.6263 1.07579 70.6263 1.98086V2.02834L70.6208 2.01996L47.0342 15.7971V41.5553L48.8603 42.6307V16.8866ZM71.9127 1.31881C72.2343 0.986397 72.7495 0.950082 73.1147 1.2378C73.4772 1.52273 73.578 2.04231 73.3491 2.44736C73.1201 2.8552 72.6323 3.0256 72.2098 2.84402C71.9263 2.7267 71.7219 2.4697 71.662 2.16243C71.602 1.85515 71.6974 1.53949 71.9127 1.31881Z" fill="#008755"/>
<path d="M98.8977 44.6085C98.7287 44.2034 98.4317 43.8654 98.0555 43.6531V15.8139L76.2214 3.04794L74.3926 4.11782L96.2294 16.9005V43.6308C95.3 44.1252 94.9266 45.2901 95.3873 46.2566C95.8451 47.2231 96.9735 47.6366 97.9274 47.1868C98.8786 46.7399 99.312 45.5946 98.8977 44.6085ZM97.7666 46.0527C97.4586 46.3683 96.9735 46.4186 96.611 46.17C96.2485 45.9214 96.1068 45.4437 96.273 45.0303C96.4393 44.6169 96.8699 44.3822 97.2978 44.4688C97.7257 44.5582 98.0337 44.9409 98.0337 45.3906C98.0337 45.6365 97.9356 45.8767 97.7666 46.0527Z" fill="#008755"/>
<path d="M49.964 45.5136C49.9667 45.4745 49.9667 45.4381 49.9667 45.399C49.9694 44.4995 49.378 43.7118 48.5303 43.4799C47.6827 43.2509 46.7887 43.6308 46.3527 44.413C45.9166 45.1951 46.0501 46.1784 46.6743 46.8097C47.2984 47.441 48.2605 47.5639 49.0155 47.1058L49.01 47.1142L72.5776 60.8439L94.3681 48.1087V45.9437L72.5749 58.6846L49.964 45.5136ZM48.8792 45.7622C48.6993 46.2091 48.2196 46.4438 47.7672 46.3041C47.3148 46.1644 47.0422 45.6951 47.1322 45.2203C47.2248 44.7482 47.6527 44.4213 48.1215 44.4688C48.5903 44.5163 48.9474 44.9186 48.9474 45.4018C48.9501 45.5247 48.9255 45.6476 48.8792 45.7622Z" fill="#008755"/>
<path fill-rule="evenodd" clip-rule="evenodd" d="M233.356 7.72413C230.789 7.72413 228.706 9.85831 228.706 12.4897C228.706 15.1239 230.789 17.2581 233.356 17.2581C235.926 17.2581 238.006 15.1239 238.006 12.4897C238.006 9.85831 235.926 7.72413 233.356 7.72413ZM227.861 12.4897C227.861 9.38063 230.322 6.85817 233.356 6.85817C236.392 6.85817 238.853 9.38063 238.853 12.4897C238.853 15.6016 236.392 18.124 233.356 18.124C230.322 18.124 227.861 15.6016 227.861 12.4897Z" fill="#008755"/>
<path fill-rule="evenodd" clip-rule="evenodd" d="M231.666 10.3248C231.666 10.0846 231.854 9.89183 232.088 9.88903H233.778C234.713 9.88903 235.471 10.6656 235.471 11.6237C235.471 12.5819 234.713 13.3585 233.778 13.3585H232.511V14.6574C232.503 14.8921 232.317 15.0764 232.088 15.0764C231.86 15.0764 231.674 14.8921 231.666 14.6574V10.3248ZM232.511 12.4897H233.778C234.086 12.4981 234.372 12.3361 234.531 12.0651C234.686 11.7914 234.686 11.4561 234.531 11.1852C234.372 10.9114 234.086 10.7494 233.778 10.7578H232.511V12.4897Z" fill="#008755"/>
<path fill-rule="evenodd" clip-rule="evenodd" d="M233.623 12.5623C233.814 12.4255 234.078 12.4757 234.212 12.6713L235.395 14.4088C235.528 14.6071 235.482 14.8753 235.291 15.0122C235.098 15.1491 234.836 15.1016 234.702 14.906L233.517 13.1657C233.383 12.9702 233.432 12.6992 233.623 12.5623Z" fill="#008755"/>
</svg>
