<?xml version="1.0" standalone="no"?>
<!DOCTYPE svg PUBLIC "-//W3C//DTD SVG 20010904//EN"
 "http://www.w3.org/TR/2001/REC-SVG-20010904/DTD/svg10.dtd">
<svg version="1.0" xmlns="http://www.w3.org/2000/svg"
 width="1600.000000pt" height="900.000000pt" viewBox="0 0 1600.000000 900.000000"
 preserveAspectRatio="xMidYMid meet">
<metadata>
Created by potrace 1.16, written by Peter Selinger 2001-2019
</metadata>
<g transform="translate(0.000000,900.000000) scale(0.100000,-0.100000)"
fill="#000000" stroke="none">
<path d="M1180 8940 c17 -33 34 -60 40 -60 5 0 8 -8 7 -18 -1 -23 44 -113 55
-106 4 3 8 -5 8 -17 0 -18 2 -19 15 -9 13 11 15 9 15 -13 0 -14 7 -28 16 -31
13 -5 14 -2 8 11 -5 10 -8 37 -8 61 0 26 -5 41 -11 38 -22 -8 -46 22 -49 63
l-3 41 43 0 c24 0 44 -4 44 -10 0 -5 5 -10 10 -10 6 0 10 9 10 20 0 11 2 20 5
20 10 0 75 -69 75 -80 0 -6 7 -13 15 -16 8 -4 15 -12 15 -19 0 -15 38 -31 48
-20 4 4 1 10 -5 12 -7 3 -13 10 -13 16 0 7 11 0 25 -15 14 -15 25 -39 25 -53
0 -14 5 -25 11 -25 10 0 34 -20 36 -30 1 -3 4 -17 8 -32 8 -30 25 -38 25 -13
0 8 5 15 10 15 6 0 10 -6 10 -14 0 -8 14 -30 30 -48 25 -27 30 -29 30 -13 0
11 -7 29 -15 39 -8 11 -15 26 -15 34 0 7 -7 20 -15 28 -17 17 -20 44 -5 44 6
0 10 -7 10 -15 0 -8 5 -15 10 -15 6 0 10 -5 10 -11 0 -6 7 -17 15 -25 13 -14
15 -14 15 0 0 9 8 16 20 16 11 0 20 5 20 11 0 16 27 -14 33 -37 4 -16 5 -16 6
4 1 20 21 33 21 14 0 -5 8 -18 18 -30 9 -11 24 -30 32 -41 8 -12 22 -21 32
-21 10 0 18 -5 18 -10 0 -6 15 -25 34 -43 19 -18 36 -42 39 -53 4 -16 5 -16 6
4 2 33 28 38 63 12 16 -12 31 -20 33 -18 2 2 -19 30 -47 63 -28 33 -71 92 -96
130 -93 143 -115 174 -121 171 -3 -2 -7 6 -7 17 -1 12 -19 50 -40 84 l-39 63
-308 0 -307 0 30 -60z"/>
<path d="M3012 8967 c-7 -18 -12 -52 -12 -75 0 -22 -5 -52 -11 -66 -8 -17 -8
-32 0 -53 11 -28 11 -27 5 7 -4 28 2 21 29 -36 33 -67 36 -71 64 -67 27 4 31
2 36 -26 6 -28 10 -31 42 -31 29 0 35 -4 33 -17 -2 -15 6 -19 50 -21 47 -3 52
-1 52 18 0 12 4 19 9 15 6 -3 19 5 30 17 12 12 28 23 38 24 9 2 20 9 24 16 7
10 9 10 10 -2 6 -53 18 -90 30 -90 4 0 11 -21 14 -47 4 -27 15 -66 25 -88 10
-22 23 -55 30 -72 21 -57 42 -73 94 -73 68 0 76 12 76 117 -1 102 -13 286 -30
461 l-13 122 -258 0 -259 0 -1 -37 -2 -38 -10 38 c-10 34 -13 37 -47 37 -32 0
-37 -4 -48 -33z"/>
<path d="M8040 8985 c0 -9 6 -12 15 -9 8 4 15 1 15 -5 0 -6 9 -11 19 -11 11 0
35 -13 53 -30 18 -16 40 -30 50 -30 11 0 18 -7 18 -19 0 -38 35 -30 73 17 21
24 37 40 37 33 0 -6 5 -11 10 -11 21 0 9 18 -20 30 -16 7 -30 16 -30 20 0 18
-59 30 -145 30 -77 0 -95 -3 -95 -15z"/>
<path d="M9286 8965 c-6 -28 -11 -35 -30 -35 -13 0 -26 -6 -29 -14 -5 -11 -22
-14 -72 -13 -53 2 -69 -2 -79 -16 -7 -9 -18 -17 -25 -17 -6 0 -11 -13 -11 -29
0 -21 9 -36 33 -54 69 -53 77 -64 77 -99 0 -41 -25 -77 -76 -108 -29 -18 -44
-21 -87 -16 -29 3 -79 2 -112 -3 -55 -7 -57 -8 -30 -16 17 -4 37 -13 45 -20 8
-6 30 -17 48 -25 17 -7 32 -17 32 -22 0 -5 5 -6 10 -3 6 3 10 2 10 -4 0 -6 6
-8 14 -5 21 8 56 -14 50 -31 -4 -9 0 -15 9 -15 9 0 19 -9 22 -20 3 -11 10 -20
15 -20 14 0 37 -50 45 -97 4 -28 2 -50 -8 -70 -9 -17 -12 -35 -7 -43 4 -8 11
-39 15 -67 5 -41 4 -53 -7 -53 -10 0 -10 -3 2 -11 12 -8 9 -9 -10 -4 -14 4
-35 9 -47 12 -24 6 -25 6 -25 68 0 22 -4 45 -8 50 -5 6 -8 14 -8 19 1 19 -75
88 -100 91 -144 19 -160 18 -171 -4 -9 -16 -8 -31 5 -69 17 -48 28 -162 15
-162 -3 0 -14 -15 -24 -33 -10 -18 -38 -48 -62 -67 -25 -19 -48 -46 -51 -58
-5 -16 -9 -20 -14 -12 -6 10 -14 7 -31 -9 -12 -11 -29 -21 -36 -21 -15 0 -7
-50 10 -61 5 -4 7 -11 3 -17 -3 -5 3 -12 14 -15 11 -3 20 -1 20 4 0 5 -4 9
-10 9 -5 0 -10 5 -10 10 0 6 8 10 18 10 14 0 18 -9 20 -45 1 -25 -2 -45 -7
-45 -5 0 -8 -8 -7 -17 1 -14 -7 -18 -34 -18 -26 0 -35 -5 -38 -19 -2 -11 -21
-35 -41 -53 -32 -29 -42 -32 -93 -31 -42 0 -58 4 -58 14 0 8 -4 14 -10 14 -5
0 -10 -11 -10 -24 0 -13 -6 -39 -14 -57 -15 -38 -30 -121 -18 -102 4 7 13 9
21 4 10 -7 7 -18 -16 -51 -15 -23 -35 -54 -43 -69 -8 -14 -17 -28 -21 -31 -3
-3 3 -13 13 -22 15 -15 19 -15 32 -3 8 8 26 15 40 15 16 0 26 6 26 14 0 13 45
28 55 18 3 -3 5 -15 5 -26 0 -17 7 -21 35 -23 110 -5 110 -5 111 -27 0 -11 4
-29 8 -38 6 -13 -1 -20 -30 -33 -22 -9 -40 -12 -43 -6 -3 5 -23 12 -44 16 -23
5 -37 13 -37 22 0 9 -6 13 -15 9 -23 -9 -45 4 -45 26 0 14 -5 18 -16 14 -9 -3
-25 -6 -36 -6 -17 0 -19 -4 -14 -33 5 -27 2 -38 -19 -57 -22 -21 -28 -22 -36
-10 -9 12 -10 12 -5 -2 3 -11 0 -18 -8 -18 -8 0 -16 -8 -19 -17 -3 -10 -14
-31 -24 -47 -13 -21 -15 -30 -5 -33 6 -3 12 -13 12 -24 0 -13 7 -19 24 -19 42
0 76 -18 76 -40 0 -11 -4 -20 -10 -20 -5 0 -10 -15 -9 -32 0 -18 3 -27 6 -19
3 8 11 -1 18 -23 9 -27 10 -44 3 -64 -14 -36 -2 -115 20 -135 52 -49 64 -57
87 -63 38 -9 69 2 106 39 19 18 42 36 52 40 9 3 17 11 17 17 0 6 8 9 18 6 24
-8 82 48 82 79 0 22 37 19 45 -4 9 -29 35 -48 44 -32 6 9 36 12 109 9 88 -3
102 -1 112 15 6 10 8 22 5 27 -3 6 -8 20 -10 32 -3 12 -11 26 -19 30 -8 4 -17
21 -21 37 -9 41 -25 51 -89 58 -38 4 -56 10 -56 19 0 8 -8 14 -17 14 -36 1
-78 34 -78 60 1 35 15 80 26 80 5 0 9 9 9 19 0 11 9 23 20 26 18 6 20 12 13
43 -12 63 -9 86 16 130 25 47 48 63 61 42 6 -10 9 -9 13 1 4 11 6 10 6 -2 1
-22 47 -53 111 -73 77 -25 130 -80 130 -135 0 -49 1 -53 14 -67 8 -9 13 -9 19
0 6 7 7 4 3 -6 -3 -10 -2 -28 3 -40 8 -22 10 -20 26 17 42 100 73 226 44 185
-8 -11 -9 -9 -3 10 4 13 10 47 14 75 4 27 8 40 9 28 2 -31 16 -36 29 -10 9 17
62 201 62 215 0 1 -6 2 -13 2 -7 0 -20 9 -30 20 -10 12 -22 18 -27 15 -6 -3
-10 -2 -10 4 0 6 -7 8 -16 4 -14 -5 -15 -1 -9 28 4 19 11 36 14 39 4 3 10 13
14 22 4 13 18 16 62 16 66 -1 66 -2 100 105 34 106 34 107 -22 108 -94 2 -115
20 -98 86 4 18 10 23 22 19 9 -4 20 -1 24 6 5 7 35 13 80 15 l72 2 39 83 c22
46 48 104 59 131 85 213 317 611 437 750 14 16 -4 17 -360 17 l-376 0 -6 -35z
m171 -595 c10 -11 26 -20 35 -20 11 0 23 -12 29 -27 6 -16 15 -36 20 -45 7
-13 3 -25 -12 -42 -21 -24 -23 -24 -53 -9 -42 21 -67 44 -60 55 3 5 -8 13 -25
19 -20 7 -31 18 -31 30 0 10 5 19 10 19 6 0 10 6 10 14 0 13 9 17 53 25 4 0
15 -8 24 -19z"/>
<path d="M10415 8908 c-3 -51 -11 -113 -15 -138 -5 -25 -12 -68 -14 -96 -6
-58 -82 -362 -95 -379 -5 -5 -14 -41 -20 -80 -6 -38 -23 -104 -37 -145 -123
-355 -209 -710 -173 -710 6 0 13 9 16 20 6 22 30 22 25 0 -1 -7 13 -2 34 11
30 18 40 20 55 11 10 -7 29 -12 41 -12 13 0 38 -9 55 -20 19 -11 40 -17 50
-13 17 7 17 6 1 -11 -31 -31 -20 -27 60 20 111 67 139 82 217 123 110 58 116
63 102 81 -10 13 -10 13 5 2 13 -11 21 -10 48 6 20 13 27 21 18 25 -16 5 -10
12 22 22 22 7 23 6 11 -9 -16 -19 -3 -21 21 -2 10 7 14 17 10 21 -4 5 1 5 11
2 11 -4 17 -1 17 8 0 7 5 17 12 21 8 5 9 2 5 -9 -5 -12 14 -6 71 22 117 59
222 124 188 116 -23 -5 -27 -3 -23 9 4 10 -1 20 -13 26 -11 6 -20 21 -20 34 0
12 -11 36 -25 52 -14 16 -25 39 -25 51 0 12 -7 28 -15 37 -8 8 -15 24 -15 34
0 11 -6 23 -12 25 -10 4 -9 8 2 16 24 17 65 13 93 -9 14 -11 34 -20 45 -20 21
0 25 -8 38 -70 3 -19 20 -54 37 -77 25 -35 28 -45 17 -58 -7 -8 -8 -15 -2 -15
5 0 15 7 22 15 7 8 17 15 22 15 15 0 157 102 208 150 25 23 34 34 20 26 -27
-18 -44 -21 -35 -7 3 6 -12 9 -35 8 -25 -1 -44 4 -49 12 -7 11 -10 11 -14 0
-3 -8 -6 -4 -6 9 -1 29 35 61 68 62 14 0 40 -5 58 -12 26 -10 41 -10 65 0 23
8 34 9 39 1 4 -6 8 -7 10 -3 2 5 40 36 84 68 79 58 235 184 245 196 3 4 28 22
55 41 44 30 191 144 205 159 42 46 274 172 468 256 151 65 156 67 267 102 55
17 129 40 165 51 l65 20 -365 -4 c-444 -4 -333 -4 -917 1 -490 5 -493 4 -493
-16 0 -11 -7 -20 -15 -20 -8 0 -15 9 -15 20 0 20 -7 20 -469 20 l-468 0 -8
-92z m364 -49 c23 -22 51 -77 51 -101 0 -18 -42 -64 -57 -62 -7 1 -25 2 -41 3
-21 1 -32 10 -50 44 -30 57 -29 90 6 116 35 26 63 26 91 0z m499 -46 c12 -17
9 -67 -7 -108 -5 -11 -14 -32 -20 -48 -10 -25 -13 -26 -33 -15 -35 20 -38 27
-38 117 l0 84 43 -7 c23 -4 48 -14 55 -23z m411 -64 c16 -13 33 -32 36 -41 3
-9 30 -27 60 -39 30 -13 55 -29 55 -36 0 -7 4 -13 9 -13 5 0 11 -13 14 -28 3
-16 22 -46 41 -68 34 -38 55 -101 41 -124 -3 -5 -22 -10 -40 -10 -25 0 -37 6
-46 23 -7 12 -25 37 -40 55 -16 18 -29 39 -29 47 0 7 -10 22 -23 32 -13 10
-26 26 -30 36 -3 9 -17 17 -30 17 -27 0 -107 79 -107 104 0 9 -9 16 -20 16
-13 0 -24 10 -30 26 -13 33 -13 32 13 36 39 6 94 -8 126 -33z m-879 -184 c0
-8 4 -15 8 -15 5 0 23 -22 40 -49 25 -39 32 -59 32 -100 0 -50 -1 -51 -42 -71
-26 -12 -44 -16 -46 -10 -2 5 -10 10 -17 10 -14 0 -95 126 -95 148 0 9 20 51
47 95 2 4 20 7 39 7 24 0 34 -5 34 -15z m-6 -360 c17 -13 18 -23 13 -96 -7
-81 4 -129 35 -167 26 -31 35 -124 14 -141 -9 -8 -16 -22 -16 -32 0 -24 -32
-24 -80 -1 -62 30 -124 184 -89 219 6 6 15 48 20 93 13 117 52 164 103 125z
m-433 -392 c1 -5 3 -25 5 -47 3 -41 14 -59 21 -38 10 26 23 10 23 -28 0 -43 2
-44 88 -43 14 0 22 -6 22 -18 0 -9 4 -19 8 -21 5 -1 12 -15 15 -29 5 -21 2
-28 -17 -38 -35 -19 -83 -6 -90 25 -4 16 -13 24 -24 23 -37 -6 -62 11 -62 42
0 22 -5 29 -20 29 -12 0 -20 -7 -20 -16 0 -11 -5 -14 -16 -10 -9 3 -19 6 -24
6 -11 0 -20 39 -13 56 3 8 11 14 19 14 8 0 14 9 14 20 0 13 7 20 20 20 16 0
20 7 20 30 0 20 5 30 15 30 8 0 15 -3 16 -7z"/>
<path d="M13470 8986 c0 -8 -15 -36 -34 -63 -19 -28 -46 -72 -60 -99 -15 -27
-44 -74 -66 -104 -22 -30 -47 -65 -56 -77 -13 -18 -13 -25 -2 -42 7 -12 16
-21 20 -21 5 0 16 -8 27 -19 10 -10 23 -20 28 -22 6 -2 13 -16 17 -32 5 -23 2
-29 -20 -39 -23 -11 -34 -8 -94 23 l-69 35 -98 -104 c-54 -57 -120 -129 -148
-159 -75 -81 -151 -158 -257 -259 -53 -50 -99 -102 -103 -114 -5 -15 -4 -20 4
-16 16 11 13 -13 -4 -31 -13 -12 -18 -13 -31 -2 -13 10 -21 9 -47 -6 -37 -22
-192 -151 -252 -210 -40 -39 -40 -39 -15 -43 14 -2 41 -16 60 -31 19 -16 45
-31 58 -35 22 -7 31 -26 12 -26 -5 0 -18 -20 -29 -45 -19 -42 -42 -57 -56 -36
-3 5 -19 12 -35 16 -17 4 -30 10 -30 15 0 4 -24 14 -52 23 -29 8 -45 16 -35
16 10 1 15 6 12 11 -9 14 -37 -2 -125 -74 -99 -81 -109 -91 -100 -106 6 -9 9
-9 13 1 3 8 6 4 6 -8 1 -16 7 -23 20 -23 11 0 23 -4 26 -10 3 -5 15 -10 26
-10 12 0 19 -7 19 -19 0 -10 7 -24 15 -31 8 -7 15 -20 15 -29 0 -17 -33 -51
-49 -51 -21 0 -32 -29 -22 -62 7 -25 9 -27 10 -10 1 28 31 30 31 2 0 -17 7
-20 40 -20 30 0 40 4 40 16 0 19 24 44 42 44 16 0 58 44 58 60 0 6 8 10 18 10
28 0 42 15 47 49 7 55 38 75 83 52 9 -5 41 -19 71 -32 68 -30 94 -76 79 -141
-16 -71 -13 -144 5 -163 19 -18 23 -30 7 -20 -16 10 -12 -7 13 -49 12 -22 37
-46 54 -55 32 -16 43 -31 22 -31 -18 0 -39 -28 -33 -44 3 -9 1 -16 -5 -16 -6
0 -11 -15 -11 -32 -1 -48 -17 -110 -31 -118 -7 -5 -13 -39 -14 -91 -3 -119 -5
-130 -15 -99 -5 17 -8 19 -9 8 -1 -10 -6 -18 -13 -18 -6 0 -8 -3 -5 -6 3 -4
-7 -19 -23 -34 -17 -16 -30 -33 -30 -39 0 -6 -7 -11 -15 -11 -8 0 -15 -7 -15
-16 0 -13 -7 -15 -37 -9 -50 9 -59 19 -45 50 16 34 15 45 -3 45 -8 0 -16 -10
-17 -22 -1 -13 -2 -32 -3 -43 0 -11 -6 -31 -12 -45 -7 -14 -28 -83 -48 -155
-20 -71 -43 -146 -51 -165 -8 -19 -15 -53 -15 -75 -1 -101 2 -135 13 -162 6
-15 10 -34 9 -40 -1 -7 3 -13 9 -13 5 0 10 7 10 15 0 8 6 15 13 15 6 0 45 33
85 72 50 50 72 78 69 90 -3 11 0 18 9 18 8 0 13 3 12 8 0 4 2 15 7 25 4 10 5
34 2 53 -3 19 -2 32 3 29 12 -8 26 21 39 83 6 29 18 63 26 75 21 33 46 113 55
177 23 169 33 219 51 257 10 24 19 46 19 50 1 25 41 52 81 55 43 3 44 4 47 41
1 22 -4 47 -14 62 -10 16 -12 25 -5 25 6 0 14 -7 17 -15 4 -8 10 -15 15 -15
14 0 11 30 -3 30 -43 1 -80 80 -38 80 13 0 20 -7 20 -20 0 -13 7 -20 20 -20
15 0 20 -7 20 -24 0 -14 5 -28 10 -31 6 -4 10 7 10 24 0 17 -4 31 -10 31 -6 0
-10 28 -10 64 0 49 -4 65 -16 70 -23 9 -24 8 -24 -14 0 -13 -7 -20 -20 -20
-16 0 -20 7 -20 30 0 17 5 30 10 30 6 0 10 18 10 40 0 33 3 40 20 40 11 0 20
5 20 10 0 6 7 10 16 10 23 0 44 25 44 54 0 22 -5 26 -32 27 -18 1 -43 0 -55
-1 -16 -1 -23 4 -23 17 0 23 14 45 26 42 5 -1 16 0 24 4 8 3 33 8 55 11 22 3
41 10 43 16 5 13 42 13 42 0 0 -5 8 -10 19 -10 10 0 40 -11 66 -26 26 -14 54
-23 61 -20 8 3 14 1 14 -4 0 -6 6 -10 13 -10 7 0 19 -9 27 -20 8 -11 20 -20
27 -20 18 0 25 -40 20 -112 -8 -89 -18 -140 -32 -161 -15 -22 -8 -67 11 -67 8
0 14 -9 14 -20 0 -15 7 -20 26 -20 14 0 32 -7 40 -15 21 -20 25 -19 62 15 18
16 48 37 67 45 18 9 41 27 49 40 15 23 14 26 -9 49 -14 14 -25 34 -25 46 0 11
-4 20 -10 20 -5 0 -10 8 -10 17 0 30 -24 83 -37 83 -10 0 -13 21 -13 79 0 74
10 106 25 81 3 -5 14 -10 24 -10 10 0 32 -18 50 -39 18 -22 39 -37 46 -35 7 3
16 1 19 -5 4 -5 28 -13 54 -17 60 -8 83 -20 76 -39 -4 -8 -1 -15 4 -15 13 0
38 -48 47 -90 6 -26 10 -29 31 -24 44 11 25 -14 -23 -31 -68 -24 -142 -56
-188 -83 -69 -39 -199 -135 -236 -174 -20 -21 -39 -35 -42 -31 -4 3 -7 -3 -7
-15 0 -12 -4 -22 -9 -22 -4 0 -26 -18 -47 -40 -22 -22 -45 -40 -53 -40 -18 0
-81 -67 -81 -86 0 -7 -11 -24 -25 -37 -14 -13 -27 -34 -28 -48 -1 -13 -8 -31
-15 -39 -7 -8 -28 -37 -46 -63 -30 -44 -33 -53 -31 -115 3 -56 0 -69 -18 -84
-11 -10 -23 -18 -27 -18 -4 0 -11 -25 -15 -55 -5 -42 -3 -58 9 -70 8 -8 18
-15 23 -15 12 0 40 -54 35 -68 -2 -7 -9 -9 -15 -5 -7 4 -6 -1 2 -10 7 -9 17
-14 22 -11 5 3 18 -4 30 -15 l21 -19 -21 -12 c-24 -12 -19 -33 5 -23 12 4 15
1 12 -13 -2 -11 -13 -20 -26 -22 -14 -2 -22 -10 -22 -23 0 -14 -7 -19 -30 -19
-23 0 -30 -4 -30 -20 0 -13 -7 -20 -20 -20 -13 0 -20 -7 -20 -20 0 -13 -7 -20
-20 -20 -13 0 -20 -7 -20 -20 0 -13 -7 -20 -20 -20 -13 0 -20 -7 -20 -20 0
-25 -37 -27 -43 -2 -3 10 -5 5 -6 -12 0 -16 -4 -26 -7 -23 -12 11 -52 -15
-115 -75 -46 -44 -70 -53 -101 -38 -21 10 -21 10 -5 -3 24 -19 12 -51 -13 -37
-24 13 -33 13 -25 -1 4 -5 -3 -18 -14 -28 -12 -10 -21 -23 -21 -29 0 -7 -11
-14 -25 -18 -22 -5 -25 -12 -25 -51 0 -27 4 -42 10 -38 6 3 10 17 10 31 0 17
5 24 20 24 11 0 20 5 20 10 0 6 14 10 30 10 24 0 30 4 28 17 -2 10 3 18 12 18
9 0 14 8 12 18 -2 10 3 17 12 17 24 0 28 -18 6 -30 -11 -6 -20 -17 -20 -25 0
-22 21 -18 27 5 3 12 14 20 27 20 12 0 32 14 46 30 14 17 28 30 32 30 14 0 57
43 52 52 -3 4 6 8 20 8 16 0 26 6 26 15 0 8 9 19 20 25 11 6 20 16 20 23 0 7
5 19 10 27 8 12 12 13 19 2 6 -11 15 -8 37 15 15 15 27 29 26 31 -1 1 -2 11
-2 22 0 13 7 20 20 20 11 0 20 5 20 10 0 6 14 10 30 10 27 0 30 3 30 30 0 30
14 40 24 18 5 -10 7 -10 12 0 8 18 94 16 94 -2 0 -8 -7 -16 -15 -20 -8 -3 -15
-15 -15 -26 0 -14 -6 -20 -17 -18 -11 2 -19 -6 -23 -22 -4 -14 -11 -24 -17
-23 -6 1 -13 -11 -17 -27 -5 -25 -10 -30 -36 -30 -27 0 -30 -3 -30 -30 0 -20
5 -30 15 -30 18 0 65 44 65 60 0 17 26 40 44 40 9 0 16 8 16 20 0 16 7 20 30
20 20 0 30 5 30 15 0 23 46 65 70 65 13 0 24 8 27 20 3 11 13 20 22 20 9 0 23
9 31 20 17 23 50 27 50 5 0 -8 4 -15 10 -15 5 0 9 6 7 13 -1 7 10 13 26 15 15
2 33 12 40 23 7 11 23 19 39 19 16 0 28 5 28 10 0 6 14 10 30 10 17 0 30 5 30
11 0 6 12 10 28 9 42 -3 52 -1 52 11 0 5 -6 7 -12 4 -7 -4 -5 0 5 8 13 11 27
13 52 7 20 -4 38 -4 41 1 3 5 14 9 25 9 21 0 26 16 7 23 -8 2 -9 8 -4 13 5 5
11 4 13 -3 3 -7 13 -13 24 -13 10 0 19 -6 19 -14 0 -8 6 -16 13 -19 16 -5 -19
-45 -53 -60 -25 -10 -25 -11 -3 -14 29 -5 39 1 107 65 31 28 60 52 64 52 4 1
32 24 62 52 30 28 49 48 43 44 -7 -4 -13 -2 -13 4 0 7 7 9 16 6 8 -3 25 -1 37
5 28 15 136 99 207 162 30 26 81 65 112 85 55 35 70 52 48 52 -5 0 -10 -4 -10
-10 0 -5 -4 -10 -10 -10 -5 0 -6 8 -3 18 9 21 -30 -10 -140 -114 -43 -41 -83
-74 -90 -74 -7 0 -18 -9 -25 -20 -7 -11 -20 -20 -29 -20 -14 0 -13 4 5 23 16
17 19 26 11 34 -8 8 2 25 34 59 114 125 158 179 164 203 3 14 11 33 19 41 7 8
18 38 25 65 6 28 15 55 18 60 3 6 -1 3 -10 -7 -15 -16 -18 -16 -23 -2 -10 27
-7 34 19 34 31 0 24 26 -11 34 -22 6 -35 36 -16 36 5 0 19 8 30 19 27 23 31
91 6 91 -13 0 -15 6 -9 27 3 15 10 30 14 33 5 3 12 16 16 30 4 14 17 38 28 54
21 30 17 51 -14 67 -43 22 -94 41 -124 46 -19 3 -40 12 -46 19 -14 17 -86 18
-179 3 -127 -20 -156 -21 -144 -9 6 6 30 14 53 17 25 4 41 11 41 19 0 8 8 14
19 14 10 0 35 7 56 16 20 8 34 10 30 4 -17 -27 122 -42 145 -15 13 16 55 21
45 5 -8 -12 31 -36 74 -45 38 -8 124 -82 147 -127 19 -36 18 -151 -1 -188 -12
-23 -13 -39 -5 -81 17 -91 13 -124 -25 -183 -39 -61 -44 -77 -17 -54 15 14
113 66 427 228 114 59 196 110 176 110 -6 0 -11 4 -11 9 0 5 8 8 18 6 9 -2 21
-4 25 -4 5 -1 6 -5 3 -10 -3 -5 11 -11 32 -14 88 -12 185 -49 221 -85 22 -21
61 -103 61 -127 0 -41 -80 -168 -159 -256 -17 -18 -31 -39 -31 -45 0 -7 -4
-14 -8 -16 -5 -1 -40 -39 -79 -83 -38 -44 -110 -114 -159 -155 -49 -41 -90
-78 -92 -82 -2 -5 -8 -8 -14 -8 -5 0 -37 -21 -70 -46 -33 -25 -65 -47 -72 -50
-7 -3 -10 -25 -7 -61 3 -54 17 -83 40 -83 6 0 11 -9 11 -20 0 -14 -7 -20 -21
-20 -29 0 -131 49 -150 73 -16 20 -17 20 -95 -18 -118 -58 -124 -63 -115 -88
5 -12 13 -23 20 -23 6 -1 15 -2 20 -3 5 0 11 -10 14 -20 4 -17 9 -18 46 -10
23 5 46 7 52 4 16 -10 10 -54 -11 -75 -11 -11 -20 -25 -20 -30 0 -6 -11 -15
-25 -20 -15 -6 -25 -17 -25 -29 0 -12 -11 -25 -27 -33 -15 -7 -30 -25 -34 -41
-9 -35 -2 -99 13 -108 6 -4 8 -11 4 -17 -11 -18 3 -37 58 -77 39 -28 56 -47
58 -67 3 -15 1 -28 -4 -28 -5 0 -8 -17 -6 -37 l3 -38 105 -1 c58 0 128 -3 155
-7 35 -5 43 -4 28 2 -12 5 -24 19 -28 30 -3 12 -10 21 -15 21 -4 0 -13 24 -20
53 -7 28 -19 57 -26 63 -9 7 -17 39 -21 76 -6 74 2 84 63 72 24 -4 34 -12 34
-25 0 -11 4 -19 9 -19 5 0 13 -9 16 -20 3 -11 12 -20 20 -20 7 0 15 -4 17 -9
2 -5 10 -11 18 -13 24 -5 41 -26 51 -63 6 -20 16 -35 24 -35 8 0 15 -4 15 -10
0 -5 5 -10 10 -10 6 0 10 8 10 18 0 10 9 24 20 32 11 8 20 22 20 32 0 15 9 18
59 18 56 0 59 -1 92 -42 51 -62 58 -68 84 -68 13 0 30 -7 39 -15 8 -8 22 -15
30 -15 9 0 16 -4 16 -10 0 -17 32 -11 49 8 9 11 28 22 43 25 15 4 33 14 42 22
8 8 28 15 45 15 24 0 31 -4 31 -20 0 -11 4 -20 9 -20 5 0 14 -14 21 -30 11
-27 11 -32 -6 -45 -29 -21 -68 -27 -111 -17 -51 13 -113 14 -113 2 0 -6 -7
-10 -15 -10 -8 0 -15 -4 -15 -10 0 -5 -6 -10 -14 -10 -8 0 -21 -7 -29 -15 -8
-8 -28 -13 -43 -12 -26 2 -29 -2 -32 -30 -2 -22 -10 -34 -23 -38 -18 -6 -20
-12 -14 -48 4 -23 15 -60 26 -82 10 -22 18 -56 17 -75 0 -19 7 -57 17 -85 9
-27 19 -76 21 -108 4 -72 16 -85 70 -79 28 2 44 -1 50 -10 12 -19 4 -220 -9
-236 -8 -11 -7 -16 4 -22 11 -7 14 -24 11 -72 -1 -35 -3 -73 -4 -85 0 -13 10
-34 23 -48 34 -35 85 -34 122 4 25 26 34 29 75 25 65 -6 99 -47 138 -161 26
-80 44 -117 88 -179 8 -11 33 -26 55 -33 71 -21 76 -36 78 -266 2 -110 4 -229
5 -263 2 -57 -1 -66 -22 -83 -38 -29 -65 -33 -132 -18 -51 11 -72 23 -124 69
-34 30 -63 61 -63 68 -1 6 -8 12 -16 12 -20 0 -19 10 1 25 15 10 14 14 -7 38
-14 15 -37 28 -54 29 -26 3 -30 0 -28 -22 1 -14 5 -34 8 -46 6 -19 2 -22 -41
-28 -73 -10 -125 -7 -169 10 -22 8 -65 22 -95 31 -30 8 -60 19 -66 24 -17 14
-193 99 -238 114 -23 8 -54 15 -69 15 -31 0 -80 22 -110 51 -12 10 -29 19 -39
19 -11 0 -15 5 -12 15 4 8 1 15 -5 15 -6 0 -11 9 -11 21 0 16 -4 19 -17 15 -9
-4 -20 -1 -25 6 -6 10 -8 10 -8 1 0 -18 -47 -16 -80 4 -26 15 -30 15 -66 -7
-22 -13 -57 -38 -79 -55 -22 -18 -59 -44 -83 -59 l-43 -27 47 -39 c27 -22 50
-37 52 -35 3 2 13 0 23 -6 28 -15 25 -57 -6 -69 -54 -20 -6 -100 55 -92 53 6
69 31 73 114 3 47 0 81 -6 87 -7 7 -8 11 -1 11 6 0 14 -3 18 -7 4 -4 37 -7 73
-8 l67 0 14 -45 c14 -49 11 -148 -5 -158 -6 -4 -12 -16 -14 -27 -3 -14 -16
-23 -44 -29 -22 -4 -77 -19 -122 -33 l-82 -24 -63 29 c-90 40 -119 60 -155
105 -30 35 -33 46 -33 103 0 36 -4 64 -10 64 -5 0 -10 -4 -10 -10 0 -5 -3 -9
-7 -8 -5 1 -34 -11 -67 -25 -32 -15 -61 -27 -65 -27 -3 0 -58 -51 -122 -113
-97 -93 -304 -257 -325 -257 -11 0 -120 -89 -156 -128 -67 -73 -63 -76 92 -83
113 -5 147 -11 209 -33 68 -26 162 -78 203 -113 13 -11 65 -15 245 -19 410 -7
817 -44 983 -89 81 -22 134 -42 237 -91 50 -24 99 -44 107 -44 21 0 20 -2 -8
-58 -34 -65 -70 -112 -116 -148 l-39 -31 25 -12 c14 -6 30 -11 37 -11 24 0
163 -72 246 -128 53 -36 108 -84 152 -135 74 -85 89 -125 89 -234 0 -45 -5
-62 -28 -92 -15 -20 -34 -49 -41 -66 -7 -16 -31 -53 -53 -82 -35 -46 -45 -53
-95 -63 -30 -7 -57 -9 -60 -6 -4 3 -17 -1 -30 -9 -69 -46 -205 -66 -303 -45
-25 6 -72 15 -105 20 -33 6 -87 19 -120 29 -33 11 -87 27 -120 36 -33 9 -88
25 -121 36 -68 21 -125 24 -155 9 -14 -8 -19 -21 -19 -54 0 -34 -4 -45 -22
-54 -13 -7 -33 -11 -45 -10 -30 3 -31 48 -2 87 13 17 19 39 17 56 -3 26 -8 30
-66 43 -34 7 -60 18 -57 23 4 5 -3 9 -13 9 -38 0 -195 75 -247 117 -69 57
-165 110 -221 122 -32 7 -64 18 -71 23 -55 45 -576 79 -738 48 -33 -6 -82 -14
-110 -18 -59 -9 -257 10 -335 31 -30 8 -95 22 -144 31 -50 10 -155 39 -235 66
-81 27 -175 56 -211 65 -216 54 -470 171 -648 299 l-44 31 104 17 c56 9 104
17 104 17 1 1 4 9 6 19 4 16 -5 21 -56 31 -33 7 -64 15 -68 17 -17 10 87 127
209 234 36 32 112 47 283 56 218 11 351 -15 652 -127 176 -66 250 -79 455 -79
125 0 163 14 45 17 -41 1 -78 6 -81 11 -3 5 -13 11 -21 14 -8 3 6 8 33 12 49
8 61 20 27 31 -25 8 -43 40 -35 65 4 13 0 22 -14 29 -27 15 -134 14 -149 -1
-6 -6 -15 -8 -19 -4 -5 4 3 17 17 28 67 53 259 251 254 260 -17 28 -33 143
-34 238 l0 105 -51 35 c-28 19 -61 40 -73 47 -21 13 -46 41 -46 54 0 4 10 10
23 12 12 3 2 5 -22 4 -25 -1 -46 3 -48 9 -4 12 238 264 253 264 5 0 29 19 52
42 38 36 46 40 63 30 27 -17 37 -15 88 17 30 19 66 32 106 37 33 4 54 9 48 11
-7 3 -13 11 -13 18 0 7 6 16 13 18 7 3 4 6 -6 6 -19 1 -51 -11 -144 -56 -28
-14 -56 -22 -61 -19 -17 10 -93 -5 -85 -17 4 -6 0 -8 -11 -4 -10 4 -20 7 -22
7 -2 0 -4 6 -4 13 0 6 14 18 30 25 19 9 30 21 30 34 0 17 -6 19 -57 18 -81 -2
-83 -2 -83 15 0 8 -7 15 -16 15 -13 0 -14 3 -4 15 6 8 9 18 6 23 -3 5 6 20 19
32 25 24 32 40 17 40 -4 0 -25 -27 -46 -60 -55 -85 -63 -90 -71 -39 -4 24 -14
49 -22 58 -11 10 -13 26 -9 55 4 23 3 36 -2 28 -15 -22 -34 38 -33 105 0 34
-4 65 -9 68 -6 4 -10 35 -10 71 0 37 -4 64 -10 64 -6 0 -16 12 -22 28 -28 67
-50 112 -57 112 -4 0 -13 20 -20 45 -7 25 -17 45 -21 45 -5 0 -11 13 -15 30
-4 16 -14 34 -23 39 -15 9 -15 11 2 30 10 11 16 27 12 36 -7 20 18 70 39 79 9
3 32 6 51 6 19 0 43 5 53 12 15 9 26 9 48 -1 37 -17 144 -22 162 -7 11 8 13 8
8 -1 -4 -6 -3 -15 3 -18 6 -4 10 -3 9 2 -4 25 2 34 21 28 11 -4 20 -2 20 4 0
6 18 11 39 11 31 0 41 4 46 20 3 11 12 20 18 20 7 0 19 10 27 21 8 12 22 28
30 37 8 9 15 22 15 31 0 8 10 15 22 16 11 1 28 9 38 18 9 9 24 17 33 17 9 0
29 6 43 14 80 41 132 51 284 51 83 0 155 3 161 8 7 4 14 1 17 -7 12 -30 71
-29 243 5 43 8 91 39 79 51 -2 2 5 4 15 4 11 0 20 -4 20 -8 0 -4 11 -8 25 -8
35 0 31 16 -5 24 -18 3 -30 12 -30 21 0 8 -4 15 -10 15 -5 0 -10 -5 -10 -11 0
-11 -28 -9 -62 6 -13 5 -18 2 -18 -10 0 -12 -5 -15 -16 -11 -9 3 -27 6 -40 6
-20 0 -24 5 -24 29 0 24 -5 30 -32 37 -32 8 -32 8 16 12 33 2 52 -1 58 -10 6
-10 10 -10 18 2 9 13 11 13 20 0 9 -13 11 -13 21 0 8 11 12 12 16 3 8 -20 23
-15 23 7 0 11 5 20 10 20 6 0 10 9 10 21 0 18 5 20 43 17 36 -3 42 0 45 17 5
39 -64 85 -126 85 -18 0 -22 6 -22 29 0 16 4 31 10 33 15 5 16 151 2 156 -7 2
-12 12 -12 22 0 10 -9 22 -20 25 -20 6 -28 35 -10 35 6 0 10 5 10 11 0 5 -4 7
-10 4 -5 -3 -10 -2 -10 3 0 23 -38 20 -123 -9 -51 -18 -110 -40 -132 -49 -22
-10 -60 -23 -85 -30 -25 -8 -49 -16 -55 -20 -5 -3 -42 -17 -82 -30 -39 -13
-70 -27 -67 -32 3 -4 -1 -5 -8 -3 -8 3 -56 -12 -108 -33 -52 -22 -117 -47
-144 -57 -26 -9 -43 -20 -38 -24 7 -4 10 -37 9 -81 -2 -62 -6 -81 -26 -107
-14 -18 -22 -36 -18 -39 4 -4 66 -8 139 -10 73 -2 140 -5 148 -7 8 -2 31 -7
50 -11 19 -5 40 -12 45 -16 6 -5 24 -11 40 -14 54 -9 76 -18 72 -30 -5 -15
-107 -20 -152 -7 -19 5 -35 6 -35 2 0 -5 -35 -11 -77 -15 -74 -6 -131 -19
-163 -37 -8 -4 -35 -19 -60 -31 -25 -13 -47 -26 -50 -29 -3 -4 -16 -10 -30
-13 -14 -4 -47 -18 -75 -30 -27 -13 -100 -40 -160 -60 -109 -35 -178 -45 -190
-26 -3 5 10 33 30 61 33 48 35 56 35 130 0 46 4 79 10 79 6 0 10 -9 10 -20 0
-21 20 -28 21 -7 0 6 5 3 11 -9 9 -19 15 -20 54 -13 41 8 59 15 164 70 38 20
42 24 23 27 -22 3 -23 8 -25 95 0 51 -1 98 -1 105 1 15 -47 16 -214 1 -127
-12 -128 -12 -166 -48 -78 -72 -127 -123 -127 -131 0 -4 14 -10 31 -14 24 -4
30 -10 25 -23 -7 -18 39 -73 62 -73 16 0 14 -13 -17 -105 -11 -33 -28 -94 -36
-135 -12 -56 -23 -81 -43 -100 -15 -14 -37 -38 -50 -54 -12 -16 -25 -27 -28
-24 -10 11 9 80 26 96 23 22 26 49 9 89 -20 48 -108 87 -96 43 3 -13 0 -20 -9
-20 -8 0 -14 -4 -14 -10 0 -5 -7 -10 -15 -10 -9 0 -15 -9 -15 -25 0 -28 -29
-48 -51 -34 -30 19 -48 10 -55 -28 -8 -47 -90 -135 -105 -112 -5 8 -9 18 -9
22 0 5 -4 6 -9 2 -5 -3 -13 0 -17 6 -4 8 -9 7 -16 -2 -15 -23 2 86 23 144 23
64 24 60 -6 55 -13 -3 -22 -1 -19 3 8 13 -7 11 -82 -12 -72 -22 -110 -42 -134
-71 -8 -10 -28 -33 -43 -51 -16 -18 -35 -47 -44 -64 -9 -20 -23 -33 -34 -33
-46 0 -34 71 17 95 19 9 34 20 34 25 0 12 -27 13 -32 3 -1 -5 -25 -19 -53 -33
-66 -33 -145 -81 -169 -102 -11 -10 -23 -18 -27 -18 -8 0 -74 -41 -96 -60 -10
-8 -13 -5 -13 11 0 13 32 57 83 113 45 50 94 109 109 131 14 22 45 60 67 85
23 25 51 60 64 78 12 17 30 35 40 38 9 3 17 12 17 19 0 17 43 65 58 65 6 0 14
9 17 20 3 11 12 20 20 20 8 0 17 9 20 20 3 11 15 25 26 30 28 15 27 90 -1 97
-11 3 -20 8 -20 12 0 17 27 40 50 43 21 2 26 10 30 43 10 69 54 126 83 108 7
-4 22 -9 35 -11 16 -2 22 2 22 18 0 11 5 20 10 20 6 0 10 6 10 14 0 15 -21 26
-50 26 -13 0 -20 9 -22 27 -4 33 -56 53 -74 28 -6 -8 -14 -12 -17 -8 -4 3 -7
1 -7 -5 0 -7 -6 -12 -14 -12 -9 0 -12 8 -8 26 3 19 7 22 13 12 6 -8 9 0 9 24
0 32 -4 39 -24 44 -14 3 -32 14 -42 25 -9 10 -20 16 -24 14 -4 -3 -13 9 -20
25 -7 17 -27 40 -44 52 -17 12 -38 29 -46 38 -18 22 -70 32 -70 15 0 -18 -34
-45 -58 -45 -13 0 -23 -9 -28 -22 -10 -34 -94 -118 -133 -135 -19 -8 -40 -21
-48 -29 -13 -12 -11 -14 10 -14 14 0 40 -6 59 -14 21 -9 67 -14 126 -14 51 1
95 -2 98 -5 8 -7 -23 -104 -43 -135 -19 -31 -11 -37 26 -18 16 9 32 12 35 7 4
-5 15 -7 26 -4 14 4 20 0 20 -12 0 -13 6 -15 29 -10 23 5 32 2 44 -16 9 -12
13 -28 10 -36 -3 -8 0 -19 8 -24 10 -6 11 -11 3 -19 -8 -8 -23 -7 -55 4 -24 9
-54 16 -65 16 -21 0 -48 22 -39 32 3 3 -15 5 -40 6 -40 0 -48 -4 -67 -31 -25
-38 -257 -267 -269 -267 -5 0 -9 -5 -9 -11 0 -17 -52 -59 -74 -59 -5 0 34 64
55 88 14 17 7 47 -11 46 -8 -1 -28 -5 -45 -8 -89 -19 -144 -28 -177 -29 -33 0
-38 -3 -38 -24 0 -12 -4 -23 -10 -23 -5 0 -10 5 -10 10 0 6 -4 10 -9 10 -5 0
-11 -17 -14 -37 -8 -45 -28 -60 -96 -69 -36 -5 -55 -13 -62 -26 -7 -13 -14
-16 -22 -10 -8 7 -23 1 -46 -19 -28 -23 -35 -36 -35 -64 0 -46 -29 -48 -56 -2
-26 42 -26 116 0 198 33 101 73 159 155 224 19 15 19 16 -5 4 -14 -7 -36 -19
-49 -28 -13 -8 -31 -16 -39 -17 -8 -2 -19 -9 -24 -16 -12 -16 -2 23 17 72 56
143 99 264 135 380 22 74 46 148 52 163 14 36 4 147 -17 186 -8 17 -16 42 -17
56 -1 14 -6 25 -10 25 -4 0 -8 6 -8 14 0 8 -3 16 -7 18 -5 2 -18 28 -30 58
-18 44 -21 62 -14 88 6 18 7 40 4 48 -3 8 1 14 10 14 8 0 18 6 20 13 4 9 8 8
16 -3 10 -13 12 -13 22 0 8 11 12 12 16 3 8 -22 20 -14 16 10 -3 13 4 31 17
45 13 14 23 41 26 75 4 28 14 64 25 79 15 22 17 38 13 95 -4 38 -15 82 -25
101 -14 24 -16 38 -9 57 5 14 7 25 5 25 -3 0 4 9 15 20 11 11 20 25 20 30 0 6
8 10 18 10 38 0 60 61 26 74 -22 8 -139 8 -148 -1 -8 -9 -24 -12 -108 -22 -39
-5 -82 -18 -102 -31 -41 -25 -39 -21 -25 -53 8 -17 29 -30 77 -46 81 -26 122
-34 122 -22 0 5 14 17 31 25 24 12 35 13 45 5 21 -17 17 -27 -10 -22 -17 4
-25 0 -29 -16 -3 -12 -13 -24 -24 -27 -10 -3 -28 -10 -40 -16 -11 -6 -27 -8
-33 -6 -7 2 -25 -8 -40 -22 -15 -14 -52 -45 -81 -70 -93 -78 -149 -141 -149
-166 0 -13 -9 -41 -20 -62 -14 -26 -17 -38 -8 -41 7 -2 14 1 16 8 6 19 19 12
32 -19 10 -25 10 -32 -4 -45 -9 -9 -16 -22 -16 -30 0 -21 11 -45 19 -40 5 2
12 -16 18 -40 9 -38 7 -53 -14 -107 -13 -35 -28 -71 -34 -80 -13 -25 -11 -39
7 -53 20 -14 22 -121 5 -154 -6 -11 -11 -37 -11 -59 0 -26 -5 -42 -15 -46 -8
-3 -14 -9 -13 -13 3 -12 -42 -104 -67 -138 -22 -29 -33 -61 -40 -117 -1 -14
-6 -32 -10 -40 -3 -7 -1 -6 7 3 14 17 45 29 84 34 23 2 23 2 17 -85 -3 -55 -1
-94 5 -106 9 -14 12 -15 12 -4 0 13 1 13 10 0 5 -8 10 -23 10 -32 0 -23 -68
-88 -85 -82 -7 3 -16 -4 -20 -15 -3 -12 -11 -18 -17 -15 -17 11 -26 -16 -20
-58 4 -31 0 -43 -16 -58 -11 -10 -22 -25 -25 -32 -3 -10 -8 -11 -26 0 -27 16
-26 16 -61 -18 -19 -19 -30 -39 -30 -57 0 -17 -8 -34 -19 -42 -16 -12 -18 -23
-14 -71 4 -44 2 -64 -11 -81 -9 -13 -16 -33 -16 -44 0 -12 -5 -26 -11 -32 -12
-12 -3 -53 12 -53 15 0 10 -37 -6 -44 -18 -6 -9 -36 11 -36 8 0 14 -4 14 -10
0 -5 11 -10 25 -10 22 0 25 -3 19 -25 -5 -21 -3 -24 11 -19 10 4 20 1 25 -6 6
-9 10 -6 15 11 11 39 27 69 36 63 12 -7 0 -31 -42 -91 -20 -29 -40 -49 -44
-45 -5 4 -5 1 -1 -6 5 -8 -2 -23 -18 -38 -14 -15 -28 -35 -31 -45 -9 -29 -22
-23 -35 16 -6 19 -17 38 -24 42 -21 13 -108 188 -112 228 -5 42 -59 175 -71
175 -13 0 -14 5 -17 60 0 17 -6 34 -12 38 -6 4 -15 22 -19 40 -4 18 -13 36
-21 39 -8 3 -14 11 -14 17 0 15 -59 70 -67 63 -16 -17 -13 -90 5 -142 11 -31
18 -63 16 -70 -3 -7 9 -49 26 -94 30 -78 33 -111 10 -111 -15 0 -64 55 -106
120 -20 30 -48 66 -63 80 -32 30 -57 69 -63 95 -2 11 -11 -27 -21 -84 -9 -57
-14 -107 -11 -112 2 -5 7 -25 10 -45 2 -21 11 -57 19 -81 21 -63 19 -90 -11
-118 -24 -22 -26 -29 -19 -72 4 -26 13 -60 21 -75 9 -17 14 -58 14 -108 0 -49
6 -95 15 -117 8 -19 15 -55 15 -79 0 -29 4 -44 13 -44 8 0 13 -20 15 -60 1
-33 -2 -60 -7 -60 -5 0 -17 26 -26 58 -9 31 -20 62 -24 67 -4 6 -18 44 -31 85
-13 41 -27 79 -32 85 -4 5 -8 21 -8 36 0 14 -4 39 -9 55 -6 16 -15 55 -21 87
-10 51 -14 58 -32 54 -15 -4 -18 -2 -13 11 4 9 9 64 12 122 6 97 5 104 -10 91
-10 -7 -17 -19 -17 -26 0 -7 -13 -39 -30 -71 -22 -43 -30 -73 -30 -112 0 -50
-3 -55 -47 -99 -117 -112 -133 -129 -138 -145 -3 -9 -12 -19 -20 -22 -8 -3
-15 -10 -15 -16 0 -6 -12 -29 -27 -53 -16 -23 -30 -53 -33 -66 -3 -13 -11 -26
-19 -29 -9 -3 -11 2 -6 17 6 20 5 21 -14 9 -12 -7 -22 -17 -22 -23 -2 -10 -3
-19 -18 -100 -11 -64 2 -313 18 -343 9 -18 11 -57 6 -151 -7 -115 -9 -127 -26
-127 -11 0 -19 3 -19 7 0 4 -9 5 -20 2 -11 -3 -34 0 -50 7 -17 7 -32 11 -35 9
-2 -3 9 -45 25 -94 70 -221 80 -256 80 -278 0 -13 3 -27 7 -31 11 -10 13 -39
22 -246 5 -107 12 -204 16 -215 5 -11 6 -18 2 -15 -144 124 -221 201 -289 290
-40 53 -53 77 -45 83 8 5 5 7 -8 5 -15 -2 -20 3 -20 19 0 11 -4 25 -8 29 -4 5
-5 0 -1 -11 7 -18 6 -19 -10 -6 -20 16 -51 72 -48 84 1 5 -2 6 -7 3 -11 -7
-81 108 -110 182 -11 28 -27 95 -36 148 -9 54 -18 100 -20 103 -3 2 -22 -2
-44 -9 -21 -7 -45 -10 -52 -7 -9 3 -7 6 6 6 17 1 17 3 5 11 -13 8 -12 10 3 10
9 0 17 -6 17 -12 0 -10 2 -10 9 0 4 8 11 13 15 13 32 -4 34 -1 21 36 -9 25
-13 86 -12 181 2 108 -1 142 -10 142 -7 0 -13 5 -13 10 0 6 5 10 10 10 6 0 10
7 10 15 0 8 6 15 14 15 8 0 19 20 26 48 24 90 87 193 158 260 57 54 72 63 99
60 43 -3 48 5 29 43 -9 17 -13 35 -10 40 3 5 2 9 -3 9 -4 0 -17 7 -28 16 -14
10 -16 17 -8 22 9 6 8 24 -2 77 -37 193 -101 416 -145 503 -20 41 -70 223 -70
257 0 28 -27 15 -56 -27 -51 -77 -66 -108 -52 -112 66 -21 73 -24 51 -25 -25
-1 -31 -16 -10 -25 6 -3 3 -4 -8 -3 -11 2 -19 9 -17 17 3 11 0 11 -12 1 -8 -7
-21 -9 -28 -5 -7 4 -10 3 -5 -1 4 -5 1 -15 -6 -24 -8 -9 -20 -32 -27 -51 -7
-19 -18 -42 -25 -50 -6 -8 -17 -28 -24 -45 -28 -66 -90 -145 -196 -250 -116
-115 -278 -289 -283 -306 -2 -5 -8 -6 -14 -3 -6 4 -14 1 -19 -7 -6 -11 -12
-10 -27 5 -14 12 -22 14 -27 6 -4 -6 1 -18 11 -26 18 -15 18 -15 -3 -11 -23 5
-33 -8 -12 -15 7 -2 5 -9 -5 -17 -11 -10 -16 -10 -16 -2 0 7 -4 9 -10 6 -5 -3
-10 -1 -10 4 0 6 5 11 11 11 12 0 1 43 -12 48 -5 2 -9 17 -9 33 0 27 -3 29
-35 29 -19 0 -35 -4 -35 -10 0 -5 -7 -10 -15 -10 -8 0 -15 -9 -15 -20 0 -13
-7 -20 -19 -20 -25 0 -31 -10 -37 -62 -3 -23 -10 -48 -16 -55 -7 -9 -5 -15 8
-20 43 -16 59 -53 24 -53 -11 0 -20 -4 -20 -9 0 -20 50 -7 76 20 l28 29 -32 0
c-18 0 -32 5 -32 10 0 14 42 12 61 -3 17 -13 9 -21 -141 -157 -91 -82 -381
-274 -406 -270 -4 1 -10 -3 -14 -10 -4 -6 -17 -12 -28 -13 -12 -1 -22 -4 -22
-8 0 -3 -35 -19 -77 -34 -43 -15 -96 -35 -118 -45 -52 -24 -211 -63 -227 -57
-9 4 -8 6 2 6 9 1 23 10 33 21 9 11 23 17 31 14 8 -3 17 0 21 5 3 6 11 9 16 6
5 -4 9 -2 9 4 0 5 -6 12 -12 14 -7 3 -3 6 10 6 18 1 22 7 22 31 0 17 5 30 10
30 6 0 10 9 10 19 0 11 5 21 11 23 7 2 12 40 13 101 0 53 4 97 9 97 4 0 7 18
7 40 0 22 5 40 10 40 6 0 10 18 10 40 0 22 5 40 10 40 6 0 10 18 10 40 0 35 3
40 24 40 25 0 36 28 36 91 0 16 5 29 10 29 6 0 10 9 10 20 0 13 -7 20 -20 20
-13 0 -20 -7 -20 -19 0 -10 -9 -21 -20 -24 -11 -3 -20 -12 -20 -21 0 -9 -8
-16 -20 -16 -14 0 -20 -7 -21 -22 0 -13 -3 -17 -6 -10 -2 6 -9 10 -14 6 -12
-7 -11 13 2 37 5 11 14 17 19 14 5 -3 12 5 16 19 3 14 15 28 25 31 10 4 19 15
19 25 0 10 4 20 9 22 18 7 23 65 7 81 -9 9 -16 20 -16 25 0 6 -6 13 -12 15
-10 4 -10 6 0 6 6 1 12 6 12 11 0 19 -59 10 -83 -12 -75 -69 -172 -139 -191
-137 -7 0 -7 2 2 6 6 2 12 13 12 23 0 10 4 20 9 22 10 3 15 48 12 126 -1 46
-4 54 -26 64 -21 9 -25 18 -25 53 0 26 -6 48 -15 55 -9 7 -15 30 -16 54 0 29
-3 36 -8 22 -5 -14 -10 -16 -15 -8 -4 7 -18 12 -32 12 -19 0 -24 5 -24 25 0
14 -3 25 -7 25 -5 0 -14 4 -22 9 -12 8 -12 11 1 25 9 8 18 12 22 9 3 -4 6 -1
6 6 0 8 -7 10 -19 6 -10 -3 -25 1 -33 8 -7 8 -27 18 -43 24 -19 6 -30 17 -30
29 0 12 -8 20 -22 22 -13 2 -23 -1 -23 -7 0 -6 7 -11 15 -11 17 0 19 -9 6 -29
-10 -16 -34 -5 -25 12 5 9 3 8 -6 0 -11 -10 -11 -16 2 -30 8 -10 18 -25 21
-33 3 -8 6 -3 6 13 1 18 6 27 17 27 13 0 14 -3 5 -14 -7 -8 -15 -45 -18 -83
-6 -77 3 -104 56 -160 48 -53 63 -84 113 -243 17 -56 20 -89 18 -245 -1 -198
-5 -209 -59 -207 -25 0 -31 -4 -31 -19 0 -11 -4 -18 -8 -15 -5 3 -7 -8 -4 -23
4 -28 2 -29 -45 -33 -26 -2 -59 0 -72 6 -19 9 -26 7 -41 -12 -22 -27 -30 -28
-30 -3 0 11 -4 23 -10 26 -5 3 -10 14 -10 23 0 10 -9 35 -20 56 -19 37 -25 70
-54 271 -7 50 -18 101 -24 115 -6 14 -16 48 -23 75 -13 56 -31 81 -118 175
-34 36 -64 73 -67 83 -3 9 -10 17 -15 17 -10 0 15 -43 41 -71 8 -9 24 -31 35
-50 11 -18 28 -46 37 -61 10 -15 16 -28 13 -28 -2 0 -39 23 -81 50 -42 27 -84
50 -92 50 -8 0 -23 6 -31 14 -45 40 -188 37 -361 -8 -52 -13 -98 -21 -102 -17
-16 15 36 168 97 281 5 10 25 28 45 39 34 20 35 21 8 21 -15 0 -33 -7 -41 -15
-13 -12 -17 -12 -31 4 -17 19 -21 77 -6 101 8 12 13 11 38 -7 17 -12 39 -21
50 -20 17 1 19 6 15 37 -2 19 -10 53 -17 75 -36 108 -39 126 -29 136 11 11 43
-46 43 -78 0 -10 11 -57 25 -104 31 -105 31 -107 -2 -112 -28 -4 -27 -4 3 -6
18 0 40 -11 54 -26 28 -30 66 -32 100 -5 28 22 61 25 91 9 14 -7 36 -7 75 2
43 10 69 10 120 0 l65 -12 33 36 c18 19 41 35 50 35 9 0 16 5 16 11 0 33 -175
258 -343 441 -49 53 -78 77 -76 60 5 -29 -2 -34 -21 -17 -17 15 -22 16 -37 4
-67 -51 -91 -100 -71 -145 8 -17 7 -31 -1 -52 -10 -24 -17 -28 -39 -24 -27 5
-92 51 -92 64 0 4 16 14 35 22 21 9 39 26 45 41 14 37 14 38 -25 32 -26 -4
-35 -2 -35 9 0 18 -36 54 -55 54 -8 0 -23 10 -34 22 -18 18 -24 20 -46 10 -21
-10 -28 -8 -51 13 -32 29 -40 31 -48 8 -8 -20 9 -32 38 -25 11 3 18 1 14 -3
-4 -5 -28 -11 -53 -15 -41 -6 -48 -4 -65 18 -11 14 -20 30 -20 37 0 24 -59 78
-77 71 -9 -4 -19 -2 -23 4 -11 17 -59 -6 -70 -34 -5 -13 -15 -26 -22 -29 -8
-4 -7 -6 5 -6 18 -1 25 -21 7 -21 -5 0 -10 -4 -10 -10 0 -5 9 -10 19 -10 11 0
21 -4 23 -8 6 -14 144 -70 196 -80 48 -8 67 -2 42 13 -5 3 -14 14 -20 24 -8
15 -6 17 15 13 14 -2 31 2 40 12 12 12 21 13 34 6 10 -5 21 -6 25 -2 4 3 4 -1
1 -9 -4 -10 -14 -14 -29 -12 -38 8 -39 -14 -1 -44 37 -29 44 -43 22 -43 -24 0
-57 -45 -57 -77 0 -23 -8 -37 -27 -51 -25 -18 -28 -27 -27 -69 2 -63 -8 -70
-112 -74 -115 -5 -120 -2 -134 81 -7 39 -16 72 -21 76 -5 3 -9 17 -9 32 0 15
-9 38 -20 52 -11 14 -20 31 -20 39 0 10 -9 12 -36 7 -32 -7 -39 -4 -70 30 -19
20 -38 33 -42 29 -4 -3 0 -12 9 -18 9 -7 19 -22 23 -35 4 -12 14 -22 22 -22
15 0 15 -1 19 -36 1 -12 5 -26 9 -32 4 -7 2 -20 -3 -30 -5 -10 -12 -69 -14
-131 -4 -84 -9 -116 -21 -130 -9 -10 -16 -25 -16 -35 0 -34 -29 -75 -50 -71
-14 3 -20 -2 -20 -15 0 -23 46 -201 66 -257 11 -32 13 -47 5 -60 -9 -15 -10
-13 -5 10 4 17 2 27 -5 27 -6 0 -11 7 -11 15 0 21 -22 65 -32 65 -5 0 -4 -9 2
-20 14 -26 3 -45 -16 -29 -8 6 -16 10 -19 8 -10 -11 24 -94 47 -114 l26 -23
-24 -11 c-28 -12 -48 -5 -78 28 -11 12 -24 21 -29 21 -6 0 0 -11 13 -25 41
-44 12 -27 -48 28 -31 29 -88 75 -127 102 -38 27 -76 55 -83 62 -41 40 -166
93 -147 63 3 -5 12 -10 19 -10 12 0 126 -69 114 -70 -3 0 -38 16 -77 36 -86
44 -145 55 -155 29 -3 -10 -11 -59 -16 -109 -9 -89 -44 -205 -75 -250 -8 -11
-15 -30 -15 -41 0 -11 -14 -33 -30 -48 -17 -16 -30 -33 -30 -38 0 -5 -9 -9
-21 -9 -11 0 -33 -8 -47 -19 -60 -42 -177 -53 -272 -25 -40 12 -55 13 -60 4
-6 -9 -9 -9 -13 1 -3 8 -3 -11 0 -41 2 -30 9 -65 15 -77 12 -25 2 -46 -11 -24
-7 10 -10 10 -16 1 -7 -12 -14 -4 -46 58 -20 36 -31 25 -14 -14 8 -20 12 -41
8 -47 -3 -6 -1 -7 6 -3 7 4 15 -2 20 -16 7 -19 5 -25 -12 -31 -13 -5 -23 -3
-28 4 -5 8 -8 7 -11 -2 -4 -11 -12 -10 -46 3 -23 9 -42 13 -42 8 0 -4 -11 -11
-25 -14 -14 -4 -23 -10 -21 -15 3 -5 -3 -11 -14 -14 -11 -3 -20 -2 -20 2 0 4
-12 13 -27 20 -22 10 -28 10 -35 -3 -13 -23 -48 -20 -48 3 0 11 -5 23 -12 27
-8 5 -9 2 -5 -9 3 -10 3 -17 -2 -17 -8 0 13 -197 23 -207 3 -4 6 10 6 30 0 47
21 49 76 7 69 -53 171 -120 182 -120 6 0 30 -21 54 -46 24 -26 48 -52 55 -59
10 -10 6 -16 -21 -29 -61 -29 -73 -97 -26 -156 17 -21 30 -45 30 -54 0 -12 10
-16 43 -16 37 0 45 -4 61 -31 11 -19 15 -34 9 -38 -6 -3 -12 -12 -14 -20 -4
-11 -7 -11 -19 1 -8 8 -27 22 -42 32 -15 10 -25 22 -22 27 5 8 -9 13 -28 10
-5 0 -8 11 -8 25 0 22 -2 25 -15 14 -15 -13 -12 -15 -117 73 -15 12 -43 45
-63 74 -19 29 -40 55 -45 58 -5 3 -17 23 -27 43 l-18 37 -6 -30 c-6 -29 -8
-27 -22 15 -3 8 -6 -6 -6 -32 -1 -41 -3 -46 -19 -41 -9 3 -30 18 -45 32 -24
22 -29 23 -37 11 -7 -10 -12 -12 -18 -4 -21 31 -92 46 -92 19 0 -12 -9 -13
-45 -8 -47 6 -58 -4 -30 -27 8 -7 13 -16 10 -20 -5 -8 41 -53 65 -64 8 -3 33
-17 55 -30 38 -23 40 -27 43 -77 2 -29 -3 -71 -11 -94 -24 -66 -38 -158 -39
-262 -1 -67 -5 -105 -15 -120 -8 -12 -12 -27 -9 -32 7 -10 -4 -103 -24 -211
-9 -52 -19 -135 -40 -360 -5 -52 -14 -140 -20 -195 -5 -55 -14 -178 -20 -273
-9 -148 -8 -187 7 -280 9 -59 16 -138 15 -176 -3 -80 27 -190 60 -228 18 -20
20 -20 13 -3 -5 11 -9 44 -9 73 -1 29 -6 56 -11 60 -37 25 -45 241 -20 515 8
95 20 237 25 317 5 80 16 206 24 280 8 74 17 180 20 235 10 166 24 318 34 365
13 56 31 203 37 295 3 39 7 80 9 93 3 12 1 22 -5 22 -5 0 -9 4 -9 9 0 18 76
-32 160 -106 25 -22 40 -33 147 -110 32 -23 78 -60 103 -83 25 -23 64 -60 87
-81 50 -46 54 -71 14 -104 -22 -19 -30 -36 -35 -76 -4 -29 -14 -61 -22 -73
-18 -26 -18 -54 1 -99 18 -43 20 -110 4 -140 -6 -12 -24 -34 -40 -49 -32 -30
-36 -56 -30 -238 3 -77 0 -98 -12 -109 -20 -16 -50 -118 -42 -138 3 -9 1 -21
-5 -28 -6 -7 -10 -17 -8 -21 3 -15 -13 -109 -21 -123 -9 -13 20 -83 46 -112
12 -15 10 -20 -22 -50 -26 -25 -35 -41 -35 -67 0 -42 -15 -70 -55 -104 -31
-27 -32 -30 -24 -80 10 -61 5 -85 -19 -92 -9 -3 -23 -19 -30 -35 -12 -26 -17
-29 -53 -26 -22 1 -43 5 -46 9 -10 10 -23 7 -23 -5 0 -5 5 -7 10 -4 6 3 10 3
10 0 0 -10 -28 -35 -39 -35 -6 0 -11 -4 -11 -8 0 -4 -8 -8 -17 -9 -56 -4 -59
-6 -58 -44 0 -20 3 -35 6 -33 4 2 14 -21 24 -51 9 -30 21 -55 26 -55 5 0 9
-12 9 -27 0 -31 62 -156 95 -193 12 -14 30 -39 39 -57 9 -17 40 -49 69 -69 40
-28 53 -43 49 -56 -2 -10 1 -18 7 -18 7 0 11 -20 11 -49 0 -52 14 -76 23 -40
7 25 27 16 27 -12 0 -13 -4 -18 -12 -13 -7 4 0 -7 16 -24 15 -17 39 -33 52
-36 13 -4 28 -15 34 -26 10 -20 22 -20 585 -20 l575 0 28 41 c59 88 110 145
147 164 21 11 41 28 44 37 3 9 18 26 33 37 14 12 30 35 33 52 4 18 36 63 76
106 38 42 69 82 69 90 0 7 5 13 11 13 7 0 8 7 4 18 -4 9 -15 46 -25 82 -10 36
-19 56 -19 45 -1 -11 -17 -40 -36 -64 -19 -24 -35 -49 -35 -56 0 -7 -16 -37
-36 -66 -46 -68 -73 -127 -74 -159 0 -31 -32 -62 -98 -95 -47 -24 -101 -33
-115 -19 -13 13 16 46 68 80 69 44 95 72 95 102 0 16 7 26 20 29 11 3 23 17
26 32 19 85 83 224 171 369 54 89 88 129 117 138 12 3 29 16 38 28 13 15 20
18 26 9 5 -8 15 17 26 65 33 146 125 263 269 346 123 69 386 129 478 108 79
-19 155 -82 201 -169 20 -37 21 -45 9 -66 -15 -28 -11 -67 16 -152 13 -42 14
-72 6 -175 -9 -116 -12 -131 -49 -205 -105 -214 -213 -352 -340 -437 -84 -55
-149 -78 -224 -78 -81 0 -139 21 -247 87 -51 32 -105 65 -118 73 -31 19 -51 8
-78 -41 -11 -19 -30 -45 -43 -58 -13 -13 -24 -27 -24 -32 0 -5 -20 -31 -45
-59 -25 -28 -45 -54 -45 -58 0 -4 -14 -23 -31 -42 -16 -19 -37 -47 -45 -63 -8
-15 -21 -27 -29 -27 -8 0 -15 -7 -15 -15 0 -13 363 -15 3205 -15 l3205 0 -20
32 c-15 25 -20 51 -20 109 0 144 -57 203 -196 203 -40 0 -78 -5 -85 -11 -31
-25 -93 -35 -139 -23 -41 11 -63 29 -138 113 -11 12 -19 14 -26 7 -13 -13 -53
-13 -61 0 -3 6 1 13 9 16 9 3 16 12 16 19 0 7 16 25 35 41 28 22 35 35 35 63
0 47 24 133 47 174 23 38 77 77 108 77 37 0 59 -33 52 -80 -3 -22 -1 -42 3
-45 14 -9 185 217 223 295 48 99 102 168 160 204 39 24 49 27 62 16 49 -41 86
-211 64 -293 -31 -117 -78 -168 -218 -237 -61 -30 -111 -57 -111 -60 0 -4 26
-7 58 -7 92 0 141 -19 194 -73 66 -69 93 -158 84 -275 -6 -72 -4 -92 19 -160
14 -43 25 -84 25 -91 0 -12 92 -14 558 -14 l557 0 44 35 c24 19 50 43 57 52
15 20 19 73 5 73 -5 0 -12 8 -15 17 -10 26 20 43 74 43 43 0 50 4 96 53 47 51
92 122 86 139 -1 4 2 8 8 8 5 0 10 6 10 14 0 7 6 19 14 25 17 15 38 103 26
111 -14 9 -60 103 -62 126 -1 13 -5 22 -8 22 -18 -2 -30 3 -30 13 0 5 5 7 10
4 6 -3 10 -2 10 4 0 5 -5 11 -12 13 -6 2 -8 10 -4 17 5 7 15 9 25 6 9 -4 29
-9 45 -12 16 -3 40 -9 53 -14 13 -5 34 -9 46 -9 20 0 23 6 25 47 1 25 8 56 16
68 8 11 20 56 26 99 11 63 10 84 -1 118 -12 37 -11 42 6 54 10 8 29 14 41 14
13 0 39 10 59 21 29 17 41 20 59 11 23 -10 23 -14 20 -109 -3 -96 -7 -120 -40
-291 -8 -46 -14 -86 -11 -88 2 -3 67 -9 143 -14 163 -12 237 -31 423 -106 203
-82 408 -189 597 -310 82 -52 264 -194 298 -233 l19 -21 624 0 623 0 0 770 0
770 -30 0 c-19 0 -30 5 -30 14 0 16 -43 26 -114 26 -72 0 -81 8 -65 58 10 36
9 45 -9 81 -25 48 -19 55 51 54 30 0 55 -7 67 -18 10 -9 23 -14 28 -11 5 3 15
-1 22 -9 7 -8 20 -15 30 -15 10 0 20 -7 24 -15 3 -8 10 -15 16 -15 7 0 10 177
10 545 0 357 -3 545 -10 545 -5 0 -10 11 -10 24 0 14 5 28 10 31 7 4 10 1043
10 3086 l0 3079 -320 0 c-266 0 -320 -2 -320 -14 0 -7 -9 -16 -20 -19 -28 -7
-60 3 -60 19 0 12 -141 14 -905 14 -765 0 -905 -2 -905 -14z m1970 -296 c0 -5
8 -10 18 -10 10 0 30 -19 45 -42 22 -34 27 -50 22 -77 -4 -19 -13 -40 -20 -47
-20 -21 -45 -17 -45 6 0 13 -7 20 -20 20 -11 0 -20 5 -20 11 0 17 -40 49 -62
49 -13 0 -18 7 -18 28 0 15 5 34 10 42 8 12 10 12 10 1 0 -12 3 -11 18 1 9 9
23 13 30 11 6 -3 12 0 12 6 0 6 5 11 10 11 6 0 10 -4 10 -10z m-374 -377 c6
-13 14 -20 17 -16 4 3 7 -1 7 -10 0 -26 33 -87 47 -87 9 0 13 -14 13 -40 0
-27 -4 -40 -14 -40 -7 0 -16 -9 -19 -20 -3 -11 -12 -20 -21 -20 -8 0 -20 9
-26 20 -10 18 -8 20 20 20 23 0 30 4 30 20 0 15 -7 20 -26 20 -28 0 -54 21
-54 43 0 8 -13 20 -30 27 -24 10 -30 19 -30 41 0 22 5 29 20 29 11 0 20 5 20
10 0 6 -4 10 -10 10 -5 0 -10 5 -10 11 0 20 54 5 66 -18z m-1684 -74 c54 -27
87 -96 86 -178 0 -34 -5 -64 -9 -67 -5 -3 -9 -25 -9 -50 0 -45 -12 -58 -25
-27 -3 10 -1 19 4 21 18 6 12 23 -16 51 -28 26 -38 40 -71 94 -22 38 -98 117
-112 117 -5 0 -10 9 -10 20 0 11 -5 20 -12 20 -28 0 7 15 50 21 54 7 72 4 124
-22z m793 -369 c3 -5 14 -10 23 -10 18 0 55 -69 79 -148 12 -41 11 -44 -7 -49
-11 -3 -20 -12 -20 -19 0 -9 -11 -14 -27 -14 -21 1 -36 12 -60 44 -18 24 -33
48 -33 53 0 6 -11 19 -25 29 -49 37 -21 124 39 124 14 0 28 -4 31 -10z m948
-87 c9 -21 21 -60 27 -87 6 -27 15 -57 21 -68 16 -29 3 -53 -28 -53 -34 0 -68
32 -89 85 -9 22 -20 40 -25 40 -10 0 -12 80 -3 104 4 11 19 16 44 16 33 0 39
-4 53 -37z m350 -73 c38 -71 34 -145 -8 -110 -9 7 -15 8 -20 0 -3 -5 -14 -10
-24 -10 -40 0 -76 85 -46 110 8 7 15 18 15 26 0 13 27 33 45 34 6 0 22 -23 38
-50z m-2059 -37 c3 -38 9 -100 12 -140 4 -44 2 -85 -5 -106 -11 -33 -14 -34
-70 -40 -39 -3 -69 -13 -89 -27 -23 -17 -37 -20 -61 -15 -17 4 -31 10 -31 15
0 5 -8 9 -17 9 -33 1 -88 14 -93 22 -3 4 -4 26 -2 49 4 37 7 40 33 40 26 0 29
4 29 30 0 23 4 30 20 30 11 0 20 5 20 10 0 6 9 10 19 10 11 0 21 5 23 12 3 7
18 13 34 14 16 1 37 2 46 3 9 0 29 13 43 27 22 22 26 32 20 60 -7 39 9 63 41
64 20 0 22 -7 28 -67z m-638 -33 c13 0 24 5 24 12 0 6 8 2 18 -9 9 -11 34 -23
55 -27 22 -4 37 -13 37 -21 0 -9 10 -15 25 -15 14 0 25 -4 25 -10 0 -5 -7 -10
-16 -10 -12 0 -15 -6 -11 -22 3 -11 0 -33 -8 -47 -25 -49 -46 -58 -151 -65
-137 -9 -159 -11 -172 -20 -17 -10 -26 38 -11 66 7 12 25 35 41 50 15 14 28
33 28 42 0 9 8 16 20 16 11 0 20 7 20 15 0 18 43 66 48 53 2 -4 15 -8 28 -8z
m1555 -312 c0 -10 2 -10 6 0 9 23 19 12 20 -23 1 -20 7 -42 13 -50 17 -21 7
-87 -20 -125 -24 -34 -38 -38 -47 -12 -4 9 -15 26 -26 37 -23 25 -19 103 7
117 9 5 16 22 16 38 0 20 5 30 15 30 8 0 15 -6 16 -12z m364 -205 c6 -17 7
-17 20 1 13 17 14 17 20 -10 4 -16 11 -39 16 -52 5 -13 9 -33 9 -46 0 -13 7
-37 15 -52 8 -16 15 -39 15 -51 0 -20 -5 -23 -38 -23 -44 0 -64 18 -80 70 -6
19 -14 49 -19 65 -18 60 21 150 42 98z m750 -1223 c12 -11 31 -20 44 -20 31 0
60 -29 41 -40 -8 -5 -27 -6 -42 -3 -23 4 -29 1 -37 -20 -21 -55 -86 -63 -126
-15 -68 81 42 172 120 98z m379 -121 c16 -30 22 -54 19 -73 -6 -27 -7 -28 -57
-22 -28 3 -52 6 -53 6 -2 0 -3 7 -3 15 0 8 -7 15 -16 15 -10 0 -14 5 -10 15 6
17 -13 55 -28 55 -4 0 -3 -7 4 -15 9 -11 10 -18 1 -28 -6 -8 -8 -16 -5 -19 3
-3 -6 -8 -19 -12 -34 -8 -88 20 -80 42 11 29 30 42 62 42 17 0 31 4 31 9 0 12
22 16 82 15 47 0 49 -2 72 -45z m-464 -169 c0 -5 9 -10 20 -10 11 0 20 -4 20
-10 0 -5 6 -10 14 -10 7 0 19 -7 26 -15 6 -8 36 -30 65 -50 30 -19 56 -44 60
-54 8 -28 -23 -61 -58 -61 -53 0 -119 22 -125 42 -5 19 -27 21 -170 18 -60 -1
-92 12 -92 38 0 5 -22 12 -50 16 -49 7 -50 7 -50 41 0 35 14 55 23 33 4 -10 8
-9 16 2 10 13 11 13 12 0 0 -10 2 -11 6 -2 9 22 30 13 43 -18 11 -27 17 -30
56 -30 37 0 44 3 44 20 0 13 7 20 18 20 10 0 24 9 32 20 10 14 26 20 52 20 21
0 38 -4 38 -10z m-398 -146 l13 -36 52 6 c43 5 53 3 53 -8 0 -8 -5 -18 -11
-21 -6 -4 -9 -37 -8 -81 1 -46 -2 -79 -9 -86 -7 -7 -12 -18 -12 -25 0 -17 -47
-17 -57 1 -4 7 -18 18 -30 25 -13 6 -23 18 -23 26 0 8 -13 22 -29 31 -17 10
-27 23 -24 31 3 7 -4 22 -16 32 -22 19 -28 41 -11 41 6 0 10 7 10 15 0 18 60
83 77 84 6 1 18 -15 25 -35z m838 -54 c0 -5 11 -10 25 -10 22 0 25 -4 25 -35
0 -33 -40 -95 -61 -95 -4 0 -33 24 -63 53 -46 43 -54 56 -43 67 10 10 9 12 -5
7 -18 -6 -32 5 -21 17 11 10 143 7 143 -4z m-1995 -290 c3 -11 15 -20 26 -20
12 0 19 -7 19 -20 0 -14 7 -20 21 -20 24 0 49 -22 49 -44 0 -13 -14 -16 -76
-16 -67 0 -76 -2 -81 -20 -3 -11 -9 -20 -14 -20 -5 0 -9 -9 -9 -20 0 -16 -7
-20 -30 -20 l-30 0 0 60 c0 33 -4 60 -10 60 -5 0 -10 9 -10 20 0 14 7 20 21
20 11 0 18 4 15 8 -3 5 11 14 30 21 18 7 34 17 34 22 0 18 39 9 45 -11z
m-2196 -251 c-10 -10 -19 -27 -19 -37 0 -10 -7 -27 -15 -38 -8 -10 -15 -32
-15 -49 0 -38 -51 -141 -68 -137 -11 2 -16 -10 -13 -30 0 -4 -12 -17 -27 -28
-15 -12 -26 -25 -25 -28 5 -12 -8 -42 -18 -42 -5 0 -17 -16 -26 -35 -9 -19
-20 -32 -24 -30 -11 7 -19 -23 -12 -42 5 -12 2 -15 -10 -10 -12 4 -17 1 -17
-9 0 -9 -24 -41 -54 -71 -30 -30 -62 -70 -72 -89 -16 -29 -34 -45 -34 -29 0
16 69 127 105 170 23 27 50 64 59 80 20 37 39 68 46 75 20 20 94 138 122 195
19 39 39 79 45 90 6 11 17 35 23 53 7 17 16 32 20 32 5 0 12 14 15 32 7 29 9
30 20 14 11 -15 10 -21 -6 -37z m-440 -233 c-17 -25 -38 -47 -45 -50 -8 -3
-14 -10 -14 -16 0 -6 -6 -17 -12 -25 -7 -7 -33 -39 -58 -70 -25 -31 -57 -71
-72 -87 -14 -17 -29 -46 -33 -64 -4 -22 -12 -34 -22 -34 -13 0 -13 3 -3 15 7
9 10 18 7 21 -3 3 -11 -5 -18 -17 -18 -35 -139 -150 -150 -144 -12 8 -12 105
0 124 10 16 4 41 -11 41 -11 0 -47 40 -48 53 0 16 50 6 69 -14 l20 -21 33 20
c38 24 52 41 93 119 28 52 34 58 91 78 94 34 161 70 182 98 29 38 21 14 -9
-27z m4451 -440 c5 -13 12 -85 16 -160 l7 -136 -37 -15 c-37 -16 -37 -16 -72
19 -34 34 -34 34 -34 129 0 87 -2 95 -21 100 -15 4 -20 12 -17 29 2 18 10 24
35 26 17 2 37 10 43 18 21 24 69 18 80 -10z m-6077 -423 c-3 -27 -9 -55 -14
-64 -4 -9 -11 -46 -15 -83 -4 -37 -13 -74 -22 -82 -10 -11 -14 -36 -13 -92 4
-192 2 -222 -14 -246 -8 -11 -15 -28 -15 -38 0 -10 -10 -20 -24 -24 -16 -4
-26 -15 -30 -35 -3 -16 -10 -29 -15 -29 -6 0 -6 12 1 33 12 40 14 47 29 124 9
51 9 66 -2 79 -12 14 -14 14 -25 -1 -8 -10 -32 -19 -57 -22 -38 -5 -47 -2 -61
18 -24 35 -21 49 34 156 28 54 50 109 50 123 0 46 27 102 61 128 19 15 38 32
42 39 4 7 14 13 22 13 8 0 22 11 32 25 30 40 44 32 36 -22z m772 -210 c-7 -31
5 -83 20 -83 16 0 30 33 16 38 -16 5 -13 42 3 42 15 0 29 -27 21 -41 -4 -5 5
-21 19 -36 25 -27 29 -47 39 -189 l5 -60 -41 -11 c-35 -10 -43 -9 -54 5 -7 10
-13 24 -13 33 0 9 -8 24 -19 33 -16 15 -18 28 -15 102 3 54 1 84 -6 84 -5 0
-10 -12 -10 -27 0 -21 -3 -24 -12 -15 -9 9 -9 19 0 45 7 18 12 43 12 55 0 12
5 22 10 22 6 0 10 19 11 43 1 41 1 41 10 12 5 -16 7 -40 4 -52z m1532 -381 c6
-4 25 -24 41 -45 43 -54 65 -158 53 -258 -12 -104 -84 -255 -175 -364 -36 -44
-66 -87 -66 -95 0 -24 -56 -74 -75 -66 -9 3 -13 2 -10 -4 3 -6 -3 -10 -14 -10
-12 0 -21 7 -21 15 0 8 -9 15 -20 15 -11 0 -20 7 -20 15 0 18 -41 20 -58 3 -9
-9 -12 -9 -12 0 0 7 -7 12 -15 12 -8 0 -15 -8 -15 -17 0 -9 -17 -37 -38 -62
-21 -25 -44 -61 -51 -79 -12 -29 -71 -84 -71 -67 0 4 -9 -3 -21 -16 l-21 -24
14 25 c18 31 99 169 113 192 83 138 135 234 135 248 0 6 21 53 46 103 25 51
56 131 69 178 25 95 40 128 93 203 68 97 102 121 139 98z m-6690 -168 c87 -29
203 -85 203 -97 0 -5 -10 -5 -21 -2 -27 9 -40 -10 -32 -47 5 -27 5 -28 -41
-28 -25 0 -46 4 -46 9 0 5 -24 11 -52 14 -29 3 -66 8 -83 12 -25 5 -32 3 -40
-17 -7 -15 -18 -23 -35 -23 -15 0 -25 -6 -26 -15 -2 -36 -5 -40 -28 -40 -18 0
-27 -8 -34 -30 -13 -36 -62 -109 -62 -92 0 17 -48 15 -66 -2 -11 -11 -11 -16
-1 -20 6 -3 -4 -4 -24 -1 -40 6 -66 -13 -55 -40 3 -9 0 -15 -9 -15 -8 0 -15
-4 -15 -10 0 -5 7 -10 15 -10 17 0 20 -25 5 -35 -9 -6 40 -55 55 -55 4 0 18
-9 32 -20 14 -11 32 -20 39 -20 13 0 157 -67 204 -94 14 -9 48 -25 75 -37 28
-11 88 -39 135 -61 47 -22 114 -54 150 -70 221 -101 303 -140 335 -162 17 -12
30 -19 30 -18 0 6 47 -17 100 -47 28 -16 77 -43 110 -60 33 -17 78 -44 100
-61 22 -16 56 -40 75 -53 19 -14 58 -46 85 -73 l50 -48 -40 -8 c-54 -11 -89
-29 -74 -39 25 -15 -89 -21 -205 -11 -165 16 -304 49 -546 130 -232 78 -316
117 -446 208 -112 77 -329 280 -398 372 -64 85 -120 205 -142 302 -16 71 -20
194 -8 251 5 25 52 69 74 69 5 0 10 4 10 8 0 4 13 15 29 25 22 13 49 17 103
16 73 -1 119 10 210 51 67 30 205 28 305 -6z m435 -523 c-10 -6 -2 -11 25 -15
172 -32 383 -132 383 -183 0 -8 4 -12 9 -9 13 9 28 -15 35 -56 5 -25 12 -38
23 -38 10 0 14 -6 10 -20 -3 -11 -2 -20 3 -20 4 0 18 -10 31 -22 60 -57 66
-60 88 -47 11 7 23 10 27 6 9 -9 -25 -36 -45 -37 -7 0 -24 -11 -37 -25 -15
-16 -34 -25 -53 -25 -16 0 -33 -4 -36 -10 -3 -5 2 -10 11 -10 10 0 15 -3 11
-6 -3 -3 -20 -3 -37 1 -28 6 -31 10 -25 32 5 20 2 24 -14 21 -11 -2 -31 10
-50 30 -17 17 -35 32 -39 32 -17 1 -54 41 -49 54 8 19 -63 84 -131 121 -48 26
-66 45 -42 45 6 0 10 -4 10 -10 0 -5 7 -10 15 -10 10 0 4 12 -19 35 -20 19
-37 35 -39 35 -3 0 -28 22 -56 50 -53 52 -63 75 -33 83 29 8 38 7 24 -2z
m7694 -1039 c6 -4 15 -41 18 -83 l7 -77 -33 -5 c-18 -3 -47 -9 -65 -13 -26 -5
-33 -2 -44 17 -7 13 -18 30 -26 37 -34 35 -22 105 22 123 25 10 106 11 121 1z"/>
<path d="M8608 8973 c-21 -2 -38 -8 -38 -14 0 -5 -17 -9 -37 -9 -28 0 -34 3
-23 10 10 7 -11 10 -67 10 -67 0 -83 -3 -83 -15 0 -8 9 -15 20 -15 11 0 20 -4
20 -10 0 -5 14 -10 30 -10 23 0 30 -5 30 -19 0 -11 9 -23 21 -26 11 -4 36 -20
55 -37 19 -17 37 -28 41 -24 3 3 23 -12 45 -34 21 -23 38 -36 38 -30 0 5 6 10
14 10 14 0 26 29 26 67 0 12 6 23 12 25 7 3 11 18 10 36 -1 18 2 32 8 32 5 0
10 9 10 20 0 14 -11 22 -37 29 -21 6 -42 10 -48 9 -5 -1 -27 -3 -47 -5z"/>
<path d="M7793 8805 c-3 -9 4 -40 15 -70 19 -53 19 -55 1 -55 -11 0 -19 6 -19
14 0 14 -66 30 -82 20 -11 -7 -10 -54 2 -54 6 0 10 -10 10 -22 0 -32 48 -108
64 -102 8 3 17 1 20 -4 6 -10 85 5 96 17 3 3 17 12 31 20 24 12 47 16 112 20
18 1 24 21 6 21 -6 0 -20 11 -31 25 -12 15 -30 25 -46 25 -44 0 -76 11 -60 21
10 7 10 9 1 9 -7 0 -13 6 -13 13 0 39 -22 84 -49 100 -36 21 -50 21 -58 2z"/>
<path d="M7366 8717 c-26 -21 -28 -27 -22 -68 6 -42 4 -46 -31 -81 -21 -20
-50 -40 -65 -43 -14 -4 -34 -15 -44 -26 -10 -11 -30 -19 -49 -19 -19 0 -39 -8
-49 -19 -22 -24 -76 -176 -76 -213 0 -15 -5 -30 -10 -33 -7 -4 -7 -12 0 -24 5
-10 7 -21 3 -24 -3 -4 0 -13 7 -22 15 -19 60 -9 78 17 13 18 42 25 42 11 0 -5
-7 -35 -14 -68 -8 -33 -18 -117 -22 -187 -7 -126 -6 -128 15 -128 18 0 21 6
21 43 0 31 6 47 21 60 18 16 20 16 17 1 -2 -9 3 -19 10 -21 9 -4 11 2 6 23 -5
20 -2 30 10 39 9 7 16 17 15 21 -3 21 2 35 11 29 9 -6 43 59 55 107 4 15 15
28 28 31 12 2 30 8 39 12 15 6 17 -1 20 -52 l3 -58 17 31 c9 16 19 59 23 95
10 106 10 106 55 114 23 4 50 17 61 28 22 24 22 35 -5 157 -26 117 -36 151
-50 173 -8 12 -19 39 -26 60 -10 33 -34 57 -57 57 -4 0 -21 -11 -37 -23z"/>
<path d="M8208 8485 c-3 -3 -2 -20 1 -38 5 -23 12 -31 25 -29 22 4 46 -15 40
-32 -4 -12 15 -27 32 -25 3 0 15 -6 28 -14 24 -16 101 -13 112 4 3 5 13 9 23
9 9 0 29 6 44 13 23 10 27 18 27 54 l0 42 -52 1 c-29 1 -99 2 -155 3 -57 1
-103 5 -103 10 0 8 -14 10 -22 2z"/>
<path d="M5418 8336 c-25 -24 -52 -60 -62 -79 -9 -20 -20 -38 -25 -41 -10 -7
-62 -147 -91 -246 -12 -41 -33 -112 -46 -158 -14 -45 -23 -88 -21 -95 3 -7 6
-4 6 6 1 24 37 61 51 52 8 -5 5 -14 -9 -29 -11 -12 -22 -38 -24 -59 -6 -56
-27 -72 -28 -21 l0 39 -20 -55 c-23 -66 -36 -170 -22 -170 6 0 16 -27 23 -60
7 -33 17 -57 21 -54 5 3 9 32 9 64 0 33 5 62 11 66 7 4 10 26 6 60 -4 39 -2
56 9 65 8 6 14 30 14 53 1 38 2 40 15 22 8 -11 15 -33 15 -49 l0 -30 20 23
c12 13 18 30 15 38 -3 7 6 28 20 46 26 34 32 56 16 56 -5 0 -11 -10 -13 -22
-2 -12 -8 -23 -15 -25 -8 -3 -11 4 -8 19 3 13 9 24 15 26 5 2 10 16 10 30 1
27 39 108 40 84 0 -7 14 0 33 17 17 17 35 31 40 31 4 0 7 5 7 10 0 6 -8 10
-17 10 -10 0 -14 4 -8 8 6 4 11 18 12 32 1 26 43 151 53 160 11 9 40 112 40
140 0 40 -17 80 -34 80 -7 0 -34 -20 -58 -44z"/>
<path d="M7667 7520 c-11 -31 -37 -238 -37 -300 0 -61 -15 -123 -46 -195 -7
-16 -15 -51 -17 -77 -4 -45 -3 -48 19 -48 13 0 39 7 58 17 l35 16 3 266 c3
252 -2 355 -15 321z"/>
<path d="M3681 7216 c27 -52 57 -108 66 -124 40 -65 76 -117 84 -120 5 -2 9
-11 9 -20 0 -23 47 -114 66 -129 17 -12 44 -7 44 8 0 5 -7 9 -15 9 -8 0 -15 4
-15 9 0 5 -9 11 -20 14 -20 5 -29 37 -10 37 6 0 10 9 10 20 0 11 -4 20 -9 20
-5 0 -8 15 -7 33 1 29 -2 32 -26 30 -16 -1 -28 5 -32 15 -3 9 -9 24 -13 32 -5
13 -4 13 11 1 19 -16 35 -6 18 11 -7 7 -12 25 -12 41 0 23 -3 27 -19 22 -22
-7 -40 18 -36 48 2 9 0 17 -3 17 -4 0 -13 15 -21 33 -33 81 -34 82 -77 85
l-42 3 49 -95z"/>
<path d="M9990 7285 c-7 -8 -15 -13 -19 -11 -4 3 -17 -18 -30 -47 -26 -57
-157 -194 -180 -189 -14 4 -61 -43 -61 -61 0 -12 -58 -66 -65 -59 -3 3 -5 -4
-5 -15 0 -12 -6 -24 -12 -26 -10 -4 -9 -6 1 -6 9 -1 10 -5 4 -13 -6 -7 -13
-31 -16 -52 -4 -22 -12 -43 -19 -47 -12 -7 -15 -90 -8 -198 2 -43 27 -72 42
-50 7 11 11 11 15 2 7 -19 27 -16 48 7 10 11 21 18 25 15 4 -2 5 7 2 20 -4 25
12 35 21 13 4 -10 6 -10 6 0 1 8 8 30 17 50 9 21 20 46 24 57 8 20 124 257
139 285 5 8 14 31 21 50 40 112 48 140 53 176 4 21 9 56 12 77 7 40 4 45 -15
22z"/>
<path d="M11660 7146 c0 -8 -13 -17 -30 -21 -16 -4 -31 -10 -31 -13 -1 -4 -3
-17 -4 -30 -1 -12 -5 -25 -9 -29 -3 -3 -1 -12 5 -19 6 -8 9 -20 6 -28 -3 -8
-2 -16 3 -18 12 -4 -33 -96 -58 -120 -9 -9 -31 -19 -47 -22 -28 -6 -32 -4 -44
29 -7 19 -16 33 -21 30 -5 -3 -13 2 -18 11 -5 8 -20 21 -33 28 -21 11 -34 8
-94 -17 -77 -32 -113 -57 -81 -57 15 0 16 -3 7 -14 -10 -11 -6 -17 16 -28 15
-8 47 -15 69 -16 65 -4 85 -10 99 -29 12 -15 10 -19 -13 -30 -16 -6 -21 -12
-12 -13 27 -3 -44 -29 -81 -30 -20 0 -39 -3 -43 -7 -10 -11 -79 -33 -103 -33
-12 0 -24 -4 -27 -9 -10 -16 5 -41 25 -41 12 0 19 -7 19 -20 0 -11 3 -20 8
-20 4 0 16 -18 26 -40 11 -22 23 -40 28 -40 4 0 8 -13 8 -30 0 -16 5 -30 10
-30 6 0 10 -6 10 -13 0 -17 32 -47 49 -47 17 0 41 26 41 44 0 9 5 16 10 16 6
0 10 9 10 20 0 13 -7 20 -20 20 -13 0 -20 7 -20 20 0 13 -7 20 -20 20 -26 0
-25 6 5 36 14 14 25 30 25 37 0 7 12 28 28 46 24 29 34 33 90 38 34 3 65 10
68 14 7 13 124 11 124 -1 0 -5 5 -10 10 -10 6 0 10 9 10 20 0 11 5 20 10 20 6
0 10 7 10 16 0 9 14 29 30 44 17 15 30 34 30 42 0 7 9 20 20 28 12 8 20 26 20
42 0 15 5 28 11 28 8 0 8 5 -1 15 -11 13 -9 19 9 34 11 10 21 26 21 35 0 9 5
16 10 16 6 0 10 14 10 30 0 27 -3 30 -30 30 -20 0 -30 5 -30 15 0 8 -7 15 -15
15 -25 0 -65 23 -65 37 0 7 -9 13 -20 13 -11 0 -20 -6 -20 -14z"/>
<path d="M7740 6912 c-20 -16 -21 -20 -8 -33 8 -8 21 -25 27 -38 11 -19 15
-21 23 -10 7 11 8 9 6 -6 -3 -15 -11 -20 -38 -21 -19 -1 -44 5 -56 12 -19 13
-34 10 -34 -7 0 -4 24 -19 53 -34 28 -15 59 -33 67 -40 8 -7 27 -15 43 -19 26
-6 27 -5 21 21 -4 16 -15 46 -25 68 -10 23 -21 60 -25 83 -7 46 -20 52 -54 24z"/>
<path d="M12218 6833 c-16 -2 -28 -11 -28 -19 0 -8 -6 -14 -13 -14 -16 0 -41
-93 -26 -98 5 -2 9 -17 9 -33 0 -36 24 -39 53 -6 13 15 21 18 24 10 5 -15 43
-17 43 -3 0 6 7 10 16 10 22 0 53 32 36 38 -14 4 -16 42 -2 42 18 0 10 29 -10
35 -11 3 -20 12 -20 20 0 7 -7 16 -16 19 -16 6 -19 6 -66 -1z"/>
<path d="M1881 6728 c10 -29 16 -60 13 -70 -3 -9 -1 -26 5 -36 6 -11 14 -50
20 -88 5 -38 19 -94 31 -124 40 -98 54 -178 43 -234 -6 -27 -9 -65 -8 -85 3
-48 30 -168 46 -206 10 -24 38 -159 41 -200 0 -5 -3 -45 -7 -88 -6 -55 -4 -86
5 -105 6 -15 18 -40 26 -57 7 -16 31 -69 52 -116 22 -48 43 -100 47 -118 3
-17 11 -31 16 -31 5 0 9 -11 9 -25 0 -33 24 -81 45 -88 12 -5 15 2 15 34 0 22
-5 49 -11 61 -6 11 -8 31 -5 44 5 20 9 23 20 12 7 -7 16 -26 20 -41 l6 -27 25
24 25 25 -11 123 c-6 68 -9 159 -7 203 7 106 -7 295 -21 304 -7 5 -8 17 -1 41
14 49 12 76 -5 94 -20 19 -19 26 3 26 10 0 21 3 25 6 6 6 -17 63 -43 104 -9
14 -23 43 -31 65 -9 22 -63 112 -120 200 -58 88 -118 183 -134 210 -39 68
-122 190 -140 205 -10 8 -9 -2 6 -42z"/>
<path d="M8015 6656 c-13 -13 -31 -47 -39 -77 -17 -55 -22 -199 -8 -199 5 0
19 -10 31 -21 19 -18 25 -19 32 -8 6 10 9 8 9 -8 0 -13 5 -23 10 -23 6 0 10 9
10 20 0 12 7 20 16 20 18 0 36 16 53 49 11 19 11 25 1 31 -9 6 -2 18 25 42 21
18 42 32 46 31 10 -3 39 72 39 102 0 14 -1 25 -2 25 -2 1 -32 3 -68 6 -36 3
-75 12 -87 20 -30 19 -40 18 -68 -10z"/>
<path d="M11760 6630 c0 -5 -9 -10 -21 -10 -40 0 -53 -27 -53 -107 0 -52 -4
-73 -13 -73 -7 0 -13 -5 -13 -11 0 -5 -4 -8 -9 -5 -10 7 -34 -18 -25 -27 3 -3
-4 -8 -15 -12 -11 -3 -28 -16 -38 -28 -10 -13 -37 -29 -60 -36 -24 -8 -43 -18
-43 -22 0 -5 -7 -6 -16 -2 -9 3 -20 0 -25 -8 -7 -11 -9 -11 -9 4 0 10 -8 17
-20 17 -11 0 -20 -7 -20 -15 0 -8 5 -15 11 -15 7 0 9 -10 7 -25 -4 -19 0 -26
16 -31 23 -8 42 -28 56 -61 5 -13 18 -23 27 -23 10 0 24 -9 31 -20 7 -11 19
-20 27 -20 8 0 15 -8 15 -17 1 -25 29 -74 30 -51 0 9 9 19 19 23 12 4 17 12
14 24 -2 10 3 25 12 34 9 9 15 22 14 29 -6 45 3 76 24 86 12 6 16 11 10 11
-16 1 -18 121 -3 121 6 0 10 14 10 30 0 21 5 30 16 30 11 0 14 6 9 20 -3 11
-2 20 4 20 5 0 11 8 14 18 3 14 6 12 17 -10 28 -58 60 -23 60 63 0 16 5 29 10
29 6 0 10 -4 10 -10 0 -5 9 -10 20 -10 11 0 20 5 20 10 0 6 -4 10 -10 10 -5 0
-10 9 -10 20 0 11 -4 20 -10 20 -5 0 -10 9 -10 20 0 17 -7 20 -40 20 -22 0
-40 -4 -40 -10z"/>
<path d="M10455 6524 c-38 -20 -77 -42 -86 -50 -8 -8 -20 -14 -26 -14 -14 0
-63 -39 -63 -51 0 -5 7 -9 15 -9 8 0 14 -3 14 -7 -3 -21 3 -31 18 -29 24 2 33
-42 16 -83 -9 -23 -10 -37 -3 -41 6 -4 -2 -25 -20 -54 -35 -54 -54 -126 -45
-170 4 -20 3 -26 -3 -18 -5 8 -7 -9 -5 -45 6 -77 11 -89 13 -28 0 28 7 61 15
75 16 27 20 54 5 30 -17 -27 -22 -2 -6 31 9 18 16 38 16 46 0 7 5 13 11 13 8
0 9 -11 5 -32 l-6 -33 20 25 c11 14 35 43 52 64 18 22 27 37 21 33 -6 -4 -14
-3 -17 2 -4 5 4 11 16 13 13 2 23 10 24 18 2 30 6 35 13 17 6 -17 13 -14 56
25 28 24 66 54 85 65 20 12 46 33 58 46 20 21 21 25 7 31 -9 3 -13 11 -9 17 4
7 3 9 -3 6 -15 -9 -49 32 -63 78 -14 46 -28 65 -44 65 -6 -1 -42 -17 -81 -36z"/>
<path d="M7585 6410 c-3 -5 -13 -10 -21 -10 -8 0 -36 -15 -63 -34 -27 -19 -77
-49 -112 -67 -69 -34 -189 -118 -189 -131 0 -4 -7 -8 -15 -8 -8 0 -15 -4 -15
-10 0 -5 -18 -14 -40 -20 -22 -6 -45 -20 -51 -32 -10 -19 -9 -20 17 -14 16 4
37 16 47 28 9 11 17 15 17 8 0 -10 20 -11 87 -6 75 6 98 13 173 52 48 24 94
52 101 61 8 9 38 27 67 39 l52 24 0 55 c0 43 -4 56 -19 65 -24 12 -28 13 -36
0z"/>
<path d="M8264 6342 c-28 -4 -34 -37 -25 -127 5 -38 4 -77 0 -86 -20 -39 -101
15 -101 67 0 18 -7 28 -20 32 -15 3 -19 11 -15 28 2 13 -2 29 -10 36 -11 9
-15 7 -20 -10 -3 -12 -9 -22 -13 -22 -5 0 -12 -9 -15 -20 -3 -11 -15 -20 -26
-20 -13 0 -19 -7 -19 -21 0 -12 -8 -23 -19 -26 -13 -3 -23 -20 -31 -51 -7 -26
-14 -53 -16 -61 -4 -11 -1 -11 10 -2 11 9 17 8 29 -3 8 -8 23 -12 34 -10 11 3
27 -2 36 -10 19 -19 34 -20 40 -3 4 10 6 10 6 0 1 -8 15 -13 36 -13 34 0 35
-1 29 -27 -8 -33 -20 -42 -54 -44 -44 -3 -55 -5 -72 -13 -20 -9 -78 19 -78 39
0 16 -36 39 -43 28 -2 -5 -12 -42 -21 -83 -10 -41 -19 -81 -22 -88 -2 -7 0
-10 6 -7 5 3 14 -4 20 -15 7 -13 21 -20 41 -20 62 0 108 -95 64 -132 -9 -7
-22 -19 -30 -26 -20 -18 -61 4 -99 53 -23 30 -26 39 -15 46 11 7 11 9 1 9 -15
0 -44 -65 -62 -140 -7 -30 -16 -59 -20 -65 -9 -13 -30 -88 -30 -106 0 -12 2
-12 9 0 7 10 21 12 62 6 66 -10 181 -17 229 -15 19 1 76 3 125 5 50 2 100 4
113 4 14 1 20 5 17 12 -4 5 6 15 23 21 28 11 29 14 24 57 -3 27 -13 53 -24 62
-10 9 -18 22 -18 28 0 6 -14 14 -30 18 -40 8 -62 56 -63 141 -1 59 1 64 36 96
20 19 37 36 37 39 0 4 10 18 23 32 57 65 79 84 93 78 8 -3 14 1 14 11 0 9 7
16 15 16 10 0 15 10 15 30 0 22 5 30 18 30 35 0 57 124 24 134 -10 4 -24 21
-32 40 -12 31 -16 34 -54 34 -23 -1 -57 8 -76 18 -19 11 -45 18 -56 16z"/>
<path d="M10200 6281 c0 -4 -11 -20 -25 -35 -13 -14 -22 -26 -20 -26 2 0 -12
-16 -31 -35 -34 -35 -80 -121 -84 -161 -1 -10 -2 -44 -1 -76 1 -51 3 -56 21
-51 15 4 20 0 20 -16 0 -34 13 -25 45 32 58 103 67 169 31 237 -12 23 -10 28
17 57 25 27 46 83 31 83 -2 0 -4 -4 -4 -9z"/>
<path d="M3200 6226 c0 -8 6 -17 13 -19 6 -3 3 -6 -7 -6 -11 -1 -16 -4 -13 -7
3 -4 2 -15 -4 -25 -11 -21 12 -77 37 -92 8 -4 14 -14 14 -22 0 -8 8 -20 18
-27 9 -7 23 -25 31 -40 17 -34 28 -35 34 -5 2 12 5 5 6 -18 1 -29 10 -51 33
-80 18 -22 36 -41 39 -43 4 -2 5 -11 3 -20 -2 -10 9 -26 26 -40 36 -28 75 -22
84 14 8 30 -1 47 -20 40 -9 -3 -16 4 -20 19 -3 14 -10 23 -14 20 -5 -3 -11 -1
-15 4 -3 5 -14 8 -25 6 -13 -2 -20 2 -20 11 0 8 -4 14 -8 14 -12 0 -32 46 -32
73 0 22 -31 57 -50 57 -6 0 -10 7 -10 15 0 8 -5 15 -11 15 -5 0 -9 8 -8 18 3
31 -1 43 -11 37 -6 -4 -10 8 -10 29 0 19 -5 47 -12 61 -12 26 -48 35 -48 11z"/>
<path d="M11260 6160 c-8 -6 -31 -10 -51 -10 -46 0 -48 -5 -56 -182 -3 -76 -9
-135 -13 -133 -17 11 -34 -31 -35 -86 l-1 -60 34 36 c19 19 57 48 86 64 54 31
136 55 136 40 0 -5 19 -8 43 -7 40 1 40 1 7 5 -19 3 -42 12 -51 21 -17 19 -25
90 -21 192 2 74 -11 127 -33 127 -8 0 -15 -5 -15 -11 0 -7 -3 -7 -8 1 -5 8
-13 9 -22 3z"/>
<path d="M4255 6052 c-3 -12 16 -61 54 -133 32 -63 64 -134 71 -159 6 -25 25
-62 41 -82 16 -20 29 -41 29 -45 0 -5 8 -20 18 -33 31 -45 112 -241 112 -272
0 -10 5 -18 11 -18 5 0 15 -14 21 -32 l11 -32 12 34 c11 31 16 35 48 35 21 0
37 3 37 7 0 4 -9 27 -19 50 -63 144 -81 196 -81 241 0 26 -4 47 -10 47 -5 0
-10 7 -10 15 0 8 -16 32 -36 52 -19 21 -61 90 -92 152 -52 105 -103 177 -115
165 -3 -3 -19 2 -36 10 -40 21 -58 20 -66 -2z"/>
<path d="M3065 5794 c48 -40 113 -84 124 -84 6 0 11 -4 11 -10 0 -5 6 -10 13
-10 6 -1 22 -9 35 -19 29 -25 29 -68 0 -93 -19 -16 -20 -22 -10 -38 20 -33 13
-35 -17 -6 -31 30 -55 19 -29 -12 18 -22 59 -115 93 -212 14 -41 32 -87 40
-102 8 -14 15 -34 15 -45 0 -10 9 -35 20 -56 11 -21 32 -72 46 -115 14 -42 32
-89 40 -104 8 -15 14 -36 14 -48 0 -11 4 -20 8 -20 5 0 23 -31 42 -69 35 -73
47 -81 124 -81 18 0 66 -11 106 -25 87 -30 93 -30 86 -7 -2 9 -8 45 -11 79 -6
56 -5 64 12 70 10 4 23 12 30 17 34 30 43 36 53 36 5 0 10 4 10 10 0 5 3 10 8
9 12 -2 52 13 52 20 0 3 -7 14 -14 24 -13 16 -15 16 -39 -3 -14 -11 -30 -20
-36 -20 -6 0 -11 -4 -11 -9 0 -5 -10 -13 -22 -17 -13 -4 -28 -14 -35 -23 -16
-22 -26 -9 -48 59 -29 89 -225 468 -289 559 -90 126 -164 203 -190 196 -14 -4
-17 -3 -8 3 9 6 -1 17 -38 40 -28 18 -53 32 -56 32 -11 0 -114 81 -114 90 0 6
-10 10 -22 10 -22 -1 -22 -2 7 -26z"/>
<path d="M9955 5771 c-11 -5 -23 -7 -27 -4 -5 2 -8 -1 -8 -7 0 -6 -4 -9 -10
-5 -5 3 -17 -2 -27 -12 -10 -10 -35 -27 -56 -38 -26 -14 -37 -26 -37 -42 0
-14 -14 -32 -36 -49 -20 -16 -40 -37 -45 -48 -6 -12 -21 -41 -34 -66 -40 -73
-36 -80 41 -80 37 0 106 5 155 12 83 11 89 13 100 41 10 24 14 26 21 13 5 -9
15 -16 22 -16 16 0 28 37 16 45 -5 3 -8 19 -8 35 1 22 6 30 19 30 9 0 19 5 21
11 2 7 15 12 29 13 24 1 79 37 79 51 0 4 7 22 16 41 18 38 17 43 -14 49 -11 2
-29 8 -40 14 -11 6 -32 10 -48 9 -16 -1 -47 1 -69 5 -22 3 -49 2 -60 -2z"/>
<path d="M3480 5720 c0 -12 49 -112 59 -120 3 -3 12 -17 20 -32 8 -16 18 -28
23 -28 4 0 8 -5 8 -11 0 -21 43 -98 52 -93 4 3 8 -4 8 -14 0 -11 6 -25 14 -31
7 -6 39 -53 70 -104 31 -50 65 -103 76 -117 l20 -25 -10 30 c-6 17 -17 56 -26
88 -8 31 -19 57 -24 57 -5 0 -7 13 -4 29 5 22 1 34 -15 47 -12 10 -21 25 -21
34 0 13 -2 13 -9 1 -7 -11 -14 -6 -28 25 -10 21 -26 48 -35 58 -10 10 -15 24
-11 29 3 6 1 7 -5 3 -7 -4 -14 4 -18 21 -13 59 -62 141 -89 149 -11 3 -28 8
-37 10 -10 3 -18 0 -18 -6z"/>
<path d="M13545 5703 c-11 -3 -24 -10 -30 -17 -5 -7 -26 -21 -45 -31 -170 -93
-233 -145 -224 -186 5 -22 4 -23 -9 -6 -17 21 -27 22 -27 2 0 -8 -13 -28 -30
-43 -16 -16 -30 -39 -30 -51 0 -11 -5 -21 -12 -21 -6 0 -9 -2 -6 -5 3 -3 19
-2 36 1 25 5 32 12 32 30 0 13 5 24 10 24 16 0 120 110 120 126 0 8 4 14 9 14
6 0 52 31 103 70 51 38 98 70 104 70 7 0 14 7 18 15 3 8 4 14 3 14 -1 -1 -11
-3 -22 -6z"/>
<path d="M12606 5304 c-3 -9 -6 -27 -6 -41 0 -23 -3 -25 -35 -19 -30 6 -35 4
-39 -16 -22 -114 -28 -132 -54 -154 -15 -13 -36 -24 -47 -25 -13 0 -7 -5 15
-13 39 -14 60 -5 60 25 0 12 7 19 20 19 11 0 20 5 20 10 0 6 12 10 26 10 26 0
54 20 54 40 0 20 28 40 54 40 22 0 26 4 26 30 0 27 -3 30 -30 30 -28 0 -30 2
-30 40 0 41 -21 57 -34 24z"/>
<path d="M9484 5272 c-19 -59 -12 -56 -129 -54 l-108 1 6 -167 c7 -213 56
-552 87 -602 7 -12 17 -11 62 7 29 12 62 23 73 25 17 3 21 13 26 78 8 93 10
100 73 166 34 36 64 58 88 65 21 5 38 15 38 21 0 6 27 66 60 135 33 68 60 126
60 128 0 2 13 23 29 47 16 24 32 53 35 66 7 21 5 22 -71 23 -43 1 -93 1 -112
-1 -19 -1 -63 1 -98 5 -60 6 -64 8 -69 35 -7 33 -42 48 -50 22z"/>
<path d="M7640 5194 c-11 -22 -20 -45 -20 -51 0 -6 -11 -36 -25 -67 -29 -65
-31 -82 -11 -89 10 -4 13 -1 9 9 -3 9 2 14 16 14 16 0 21 -7 22 -27 1 -26 1
-26 7 -5 6 21 8 20 18 -13 6 -19 7 -35 3 -35 -5 0 -9 -13 -9 -30 0 -23 -4 -30
-20 -30 -11 0 -20 -4 -20 -9 0 -19 -65 -73 -86 -73 -12 0 -37 7 -55 16 -34 17
-35 17 -60 -27 -6 -11 -19 -17 -33 -15 -13 1 -30 -3 -39 -10 -9 -8 -22 -15
-30 -16 -8 -1 -20 -8 -28 -17 -24 -25 -79 -98 -79 -104 0 -4 -69 -100 -150
-207 -11 -14 -20 -28 -20 -31 0 -3 26 8 57 25 32 17 103 49 158 70 165 66 327
139 383 175 29 18 54 33 56 33 15 0 248 147 281 177 11 10 29 21 40 25 15 4
12 6 -12 7 -37 1 -46 21 -10 21 17 0 19 2 8 9 -11 7 -2 14 32 30 55 25 61 26
78 5 16 -19 37 -14 140 34 l80 37 -3 43 c-2 44 -36 90 -57 77 -7 -4 -19 12
-32 39 l-20 45 -275 3 -275 3 -19 -41z"/>
<path d="M6293 5200 l-102 -5 23 -40 c13 -23 29 -39 37 -37 8 2 45 4 82 5 62
1 70 4 86 27 10 14 20 32 23 41 7 17 14 17 -149 9z"/>
<path d="M4636 5143 c-8 -8 -137 -37 -244 -55 -65 -11 -73 -14 -70 -33 4 -24
51 -30 85 -9 12 7 65 17 118 20 60 4 102 12 110 21 12 11 15 11 24 -4 15 -26
13 -1 -2 36 -7 17 -17 28 -21 24z"/>
<path d="M2106 5001 c-7 -10 48 -156 65 -175 5 -6 9 -29 9 -52 0 -39 8 -60 78
-201 9 -18 20 -33 23 -33 4 0 11 -19 15 -42 4 -24 9 -37 11 -30 7 19 23 14 23
-8 0 -11 4 -20 9 -20 5 0 7 36 5 81 -3 75 -2 80 16 74 17 -5 17 -3 7 19 -6 13
-14 24 -17 24 -26 -2 -31 4 -25 30 4 20 0 36 -15 54 -11 14 -20 31 -20 36 0 6
-3 12 -8 14 -4 2 -27 36 -50 76 -24 39 -47 72 -52 72 -5 0 -11 8 -15 18 -10
30 -52 75 -59 63z"/>
<path d="M14872 4933 c-14 -5 -45 -73 -37 -81 3 -3 0 -11 -5 -17 -8 -9 -2 -16
20 -25 28 -12 29 -14 13 -26 -10 -7 -32 -14 -49 -14 -22 0 -47 -12 -80 -40
-51 -42 -64 -48 -64 -27 0 7 -3 8 -8 2 -4 -5 -24 -11 -46 -13 -21 -1 -63 -9
-92 -18 -43 -12 -61 -13 -88 -4 -26 8 -51 8 -98 0 -116 -21 -136 -29 -140 -62
-5 -35 -3 -36 78 -41 33 -2 66 -7 73 -11 17 -11 318 -8 339 3 10 6 40 11 67
12 26 2 54 9 61 17 8 7 14 9 14 4 0 -5 7 -9 15 -9 8 0 15 4 15 9 0 5 9 7 19 3
11 -3 22 -1 26 6 4 6 23 17 41 25 23 9 34 21 34 34 0 11 -4 20 -10 20 -5 0
-10 14 -10 30 0 17 5 30 10 30 6 0 10 9 10 19 0 12 8 21 22 23 32 5 44 51 21
82 -10 14 -24 26 -30 26 -7 0 -13 5 -13 10 0 6 -9 10 -20 10 -11 0 -20 7 -20
15 0 15 -39 20 -68 8z"/>
<path d="M6999 4819 c-28 -55 -32 -79 -13 -79 8 0 12 -5 9 -11 -4 -6 -14 -8
-22 -5 -22 9 -43 -12 -43 -40 0 -29 36 -33 56 -6 13 16 14 16 8 0 -3 -10 -2
-18 4 -18 12 0 38 30 26 30 -5 0 -2 5 6 11 11 8 12 12 3 16 -15 6 -17 43 -3
43 6 0 10 -4 10 -10 0 -5 5 -10 10 -10 6 0 10 9 10 20 0 13 7 20 20 20 30 0
26 38 -5 52 -14 6 -25 15 -25 20 0 24 -32 3 -51 -33z"/>
<path d="M820 4763 c0 -10 52 -63 62 -63 8 0 100 -56 164 -100 22 -16 69 -42
105 -58 35 -17 116 -55 179 -86 78 -38 127 -56 153 -56 22 0 36 4 32 10 -9 14
-151 120 -161 120 -5 0 -15 9 -22 21 -8 12 -19 18 -28 15 -8 -3 -14 1 -14 10
0 11 -4 12 -18 5 -22 -12 -93 1 -127 23 -21 14 -25 14 -25 2 0 -8 6 -16 13
-19 6 -2 9 -7 5 -11 -7 -9 -83 26 -118 54 -21 17 -23 21 -10 30 8 5 22 7 30 4
11 -4 12 -2 4 6 -9 9 -17 9 -32 1 -29 -16 -50 -14 -28 2 17 13 16 14 -13 26
-17 7 -37 11 -45 8 -8 -3 -20 1 -26 8 -7 8 -16 13 -20 10 -4 -2 -17 4 -29 14
-16 14 -18 21 -9 24 8 4 7 6 -4 6 -10 1 -18 -2 -18 -6z"/>
<path d="M13585 4706 c-39 -11 -40 -24 -1 -17 27 5 37 -83 11 -93 -8 -3 -15
-12 -15 -20 0 -24 -34 -75 -53 -80 -22 -5 -47 2 -47 15 0 5 -9 9 -20 9 -17 0
-20 7 -20 44 0 41 -2 44 -32 50 l-33 7 25 14 c46 26 5 15 -55 -15 -33 -16 -64
-30 -70 -30 -20 -1 -56 -40 -49 -51 4 -8 3 -9 -4 -5 -7 4 -28 -5 -47 -20 -38
-28 -46 -62 -21 -87 19 -18 47 -114 39 -133 -3 -9 -13 -14 -23 -11 -11 3 -16
-2 -16 -16 1 -10 -6 -23 -14 -27 -87 -42 -109 -56 -114 -72 -2 -11 5 -49 16
-86 18 -61 36 -137 40 -169 5 -46 45 18 103 167 9 25 21 52 26 60 5 8 12 22
15 31 3 10 18 19 32 22 15 3 37 8 50 12 19 6 22 4 22 -18 0 -14 -8 -31 -17
-37 -13 -8 -15 -13 -5 -16 20 -9 42 -73 42 -125 0 -27 -13 -90 -30 -141 -25
-79 -38 -102 -85 -153 -47 -52 -54 -65 -55 -102 0 -23 4 -44 8 -47 9 -6 79 25
107 48 l20 16 -20 -6 c-15 -5 -17 -4 -9 5 9 10 21 10 50 2 43 -12 224 -13 264
-2 25 7 25 7 22 109 -3 62 0 102 6 102 5 0 15 15 23 33 7 17 17 35 23 39 6 4
9 34 8 67 -2 60 -2 61 23 61 30 0 55 21 55 44 0 22 65 22 74 1 7 -20 -3 -45
-19 -45 -16 0 -25 -76 -25 -225 0 -106 3 -125 23 -159 29 -51 74 -67 194 -67
85 0 110 4 213 30 19 5 61 15 93 22 32 7 60 16 63 21 8 13 -31 9 -44 -4 -8 -8
-12 -9 -12 -1 0 6 6 18 14 26 8 8 14 22 13 33 -2 14 6 20 29 22 34 3 43 19 45
77 0 17 3 24 6 18 6 -17 33 -17 33 0 0 7 17 20 38 29 36 15 38 18 34 55 -7 55
-45 88 -111 96 -32 4 -60 14 -70 24 -9 10 -32 19 -51 20 -59 4 -80 12 -80 32
0 10 -6 32 -12 47 -13 29 -14 29 -88 27 -41 -1 -78 -2 -82 -2 -5 -1 -8 -8 -8
-16 0 -8 -7 -15 -15 -15 -8 0 -15 7 -15 15 0 8 5 15 10 15 6 0 10 9 10 20 0
17 -7 20 -50 20 -43 0 -50 3 -50 20 0 11 -4 20 -10 20 -5 0 -10 9 -10 20 0 11
-4 20 -10 20 -5 0 -10 9 -10 20 0 11 -4 20 -10 20 -5 0 -10 9 -10 20 0 13 7
20 20 20 11 0 20 5 20 10 0 6 5 10 10 10 6 0 10 -13 10 -30 0 -36 4 -37 35 -5
17 16 25 35 25 60 0 19 5 35 10 35 6 0 10 14 10 30 0 17 3 30 8 30 4 0 13 14
21 31 11 26 11 33 0 39 -7 5 -16 7 -19 5 -3 -2 -21 10 -39 26 -19 16 -44 29
-57 29 -33 0 -36 1 -59 22 -10 10 -37 23 -60 28 -22 6 -47 14 -56 19 -30 17
-104 20 -154 7z m47 -491 c7 -9 19 -22 26 -30 6 -7 12 -23 12 -34 0 -12 -6
-21 -12 -21 -9 0 -8 -4 2 -10 10 -6 11 -10 3 -10 -7 0 -13 -7 -13 -15 0 -8 7
-15 15 -15 8 0 15 -9 15 -19 0 -15 -8 -21 -32 -23 -18 -2 -31 -7 -30 -12 3 -8
-16 -25 -28 -26 -3 0 -20 13 -38 29 -27 25 -32 37 -32 75 0 49 7 76 21 76 4 0
19 11 33 25 29 29 40 31 58 10z"/>
<path d="M14093 4545 c8 -8 27 -17 42 -21 22 -5 26 -11 22 -32 -4 -19 4 -33
29 -58 18 -19 36 -34 39 -34 12 0 35 -29 35 -44 0 -9 5 -16 10 -16 6 0 10 -11
10 -25 0 -21 -6 -27 -31 -32 -19 -3 -34 -14 -36 -25 -3 -10 -12 -18 -19 -18
-8 0 -14 -6 -14 -14 0 -8 -3 -23 -6 -33 -5 -14 -4 -15 4 -4 8 11 14 12 24 3
14 -11 41 -2 38 14 -1 10 33 21 68 23 15 1 22 -5 22 -18 0 -11 9 -22 19 -26
11 -3 23 -15 26 -26 4 -10 14 -19 24 -19 11 0 24 -12 31 -30 15 -35 50 -78 50
-60 0 6 14 -2 30 -20 17 -18 30 -27 30 -21 0 6 7 11 15 11 8 0 15 -4 15 -10 0
-5 9 -10 20 -10 11 0 20 5 20 11 0 6 8 8 19 4 13 -4 30 7 60 40 35 38 43 42
48 28 4 -10 14 -25 24 -33 14 -13 49 -106 49 -133 0 -19 64 -111 100 -145 32
-30 40 -32 84 -29 27 3 54 11 60 19 6 8 19 17 29 21 22 8 21 36 -3 67 -11 14
-20 30 -20 36 0 6 -7 18 -16 25 -31 26 -109 155 -126 209 -18 57 -23 127 -10
145 4 6 14 10 22 10 8 0 15 8 14 18 -4 86 -3 84 -34 97 -17 7 -39 23 -49 36
-11 13 -22 24 -25 24 -4 0 -18 11 -32 25 -26 26 -49 32 -59 15 -3 -5 -15 -10
-26 -10 -11 0 -22 -8 -26 -17 -3 -10 -20 -49 -39 -88 -18 -38 -34 -83 -36
-100 -2 -16 -6 -29 -10 -27 -5 1 -26 2 -48 2 -29 0 -40 4 -40 15 0 8 -4 15
-10 15 -5 0 -10 24 -10 54 0 46 -3 56 -20 61 -12 4 -20 15 -20 30 0 23 -17 35
-50 35 -10 0 -20 7 -24 15 -3 8 -12 15 -21 15 -18 0 -19 12 -3 28 9 9 5 11
-18 10 -16 0 -60 4 -99 10 -143 22 -168 23 -152 7z"/>
<path d="M15375 3365 c-14 -19 -23 -40 -20 -45 3 -5 -5 -15 -19 -22 -25 -11
-36 -38 -16 -38 6 0 10 -13 10 -28 0 -42 40 -69 110 -74 8 0 21 -6 28 -11 15
-12 44 17 62 61 16 38 12 53 -23 86 -19 17 -42 44 -52 59 -31 49 -49 51 -80
12z"/>
<path d="M8636 2995 c-3 -9 3 -15 17 -17 19 -3 22 -10 23 -48 1 -64 2 -67 26
-73 18 -5 19 -8 8 -21 -7 -9 -8 -16 -2 -16 5 0 8 -9 5 -20 -3 -11 0 -20 6 -20
7 0 8 -8 1 -26 -13 -33 -13 -54 0 -54 6 0 10 9 10 20 0 11 5 20 10 20 6 0 10
-7 10 -15 0 -17 18 -52 38 -73 7 -8 12 -9 12 -3 0 6 7 11 15 11 8 0 15 5 15
10 0 6 5 10 10 10 6 0 5 -8 -2 -20 -7 -10 -9 -23 -5 -27 5 -4 12 -1 18 7 8 13
10 13 18 0 6 -8 13 -11 17 -7 4 3 1 13 -5 21 -8 10 -10 30 -6 58 4 30 2 52 -9
72 -8 16 -13 33 -10 38 3 4 -1 8 -8 8 -10 0 -10 2 -1 8 19 12 4 81 -20 93 -10
6 -32 9 -49 7 -32 -5 -43 5 -43 42 0 23 -4 25 -47 27 -31 1 -48 -3 -52 -12z"/>
<path d="M13410 2919 l-45 -40 -90 3 -90 3 2 -30 c1 -16 3 -51 4 -78 l2 -47
25 16 c52 34 119 89 185 150 75 70 80 88 7 23z"/>
<path d="M764 1415 c-31 -24 -105 -55 -131 -55 -14 0 -33 10 -42 22 -28 33
-51 18 -51 -34 0 -24 4 -50 10 -58 8 -12 11 -12 28 3 24 22 32 14 25 -27 -4
-27 -1 -35 21 -50 26 -16 28 -16 56 4 17 12 30 26 30 31 0 5 6 9 14 9 8 0 21
8 28 18 7 9 25 23 41 29 16 8 27 20 27 32 0 10 9 21 20 24 29 7 36 35 14 52
-25 19 -65 19 -90 0z"/>
<path d="M0 1136 c0 -44 0 -44 43 -52 23 -4 51 -7 63 -5 11 1 51 -14 89 -34
37 -19 74 -35 81 -35 19 0 18 -24 -1 -40 -8 -7 -12 -16 -9 -21 9 -15 54 -10
60 6 7 17 40 20 49 5 11 -19 33 -10 48 18 13 27 12 29 -18 50 -18 11 -52 26
-76 32 -73 19 -133 40 -156 56 -12 8 -32 14 -43 14 -12 0 -34 7 -50 15 -17 9
-41 20 -55 25 -24 9 -25 8 -25 -34z"/>
<path d="M5210 976 c0 -9 -9 -12 -27 -9 -27 3 -27 3 -6 -8 12 -6 24 -18 27
-25 4 -11 0 -10 -19 2 -20 13 -26 14 -30 3 -24 -71 -35 -106 -35 -118 0 -8
-12 -29 -27 -45 -16 -17 -19 -23 -8 -15 48 39 86 51 141 44 65 -8 64 -10 27
103 -25 74 -43 104 -43 68z"/>
<path d="M2442 675 c-23 -7 -53 -20 -65 -27 -12 -8 -38 -18 -56 -22 -25 -4
-52 -24 -95 -70 -34 -34 -82 -75 -107 -89 -55 -31 -63 -46 -48 -99 5 -22 7
-52 4 -68 -5 -21 0 -34 18 -54 35 -38 69 -34 100 12 39 56 260 252 284 252 10
0 68 -45 103 -80 11 -11 30 -9 27 2 -1 7 8 17 21 23 13 5 25 19 27 30 4 21 17
116 17 125 0 3 7 17 16 32 9 15 13 30 10 33 -3 3 -30 6 -59 5 -91 -1 -113 -1
-134 4 -11 2 -39 -2 -63 -9z"/>
<path d="M108 544 c-8 -17 -17 -23 -30 -18 -15 4 -18 0 -18 -28 0 -19 4 -38 9
-44 5 -5 5 -33 1 -64 -4 -30 -6 -91 -4 -134 3 -50 0 -84 -7 -93 -9 -10 -7 -23
7 -55 14 -31 15 -43 6 -46 -6 -2 -12 -17 -12 -33 l0 -29 83 0 82 1 -38 32
c-38 33 -49 70 -22 81 27 10 17 43 -20 65 -34 20 -45 44 -26 55 5 4 12 25 16
49 4 23 14 55 22 70 14 28 15 28 39 12 14 -9 33 -14 41 -11 24 10 10 79 -24
124 -15 20 -28 39 -28 42 -1 16 -23 38 -43 43 -18 4 -26 0 -34 -19z"/>
<path d="M13190 450 c13 -8 12 -10 -3 -10 -10 0 -20 -7 -23 -15 -4 -8 -12 -15
-19 -15 -13 0 -65 -62 -65 -78 0 -6 -7 -13 -16 -16 -8 -3 -24 -25 -34 -48 -11
-24 -35 -56 -55 -73 -19 -16 -35 -34 -35 -38 0 -18 -87 -110 -122 -128 -21
-11 -38 -22 -38 -24 0 -3 196 -5 435 -5 l435 0 -37 62 c-51 83 -303 338 -368
372 -48 25 -86 36 -55 16z"/>
<path d="M2573 248 c-11 -13 -24 -33 -28 -46 -13 -43 -68 -73 -152 -83 -65 -7
-80 -13 -100 -35 -13 -15 -23 -33 -23 -40 0 -7 -3 -19 -6 -28 -6 -14 33 -16
395 -16 418 0 419 0 388 41 -20 27 -40 27 -82 3 -25 -15 -51 -22 -70 -19 -17
2 -58 4 -92 4 l-62 1 -7 45 c-4 29 -14 52 -28 63 -12 9 -28 33 -34 52 -29 80
-61 99 -99 58z"/>
</g>
</svg>
