<?xml version="1.0" standalone="no"?>
<!DOCTYPE svg PUBLIC "-//W3C//DTD SVG 20010904//EN"
 "http://www.w3.org/TR/2001/REC-SVG-20010904/DTD/svg10.dtd">
<svg version="1.0" xmlns="http://www.w3.org/2000/svg"
 width="624.000000pt" height="406.000000pt" viewBox="0 0 624.000000 406.000000"
 preserveAspectRatio="xMidYMid meet">
<metadata>
Created by potrace 1.16, written by Peter Selinger 2001-2019
</metadata>
<g transform="translate(0.000000,406.000000) scale(0.100000,-0.100000)"
fill="#000000" stroke="none">
<path d="M60 4046 c0 -9 -12 -16 -27 -18 -27 -3 -28 -5 -31 -67 -4 -74 4 -83
59 -69 21 6 45 8 54 4 20 -7 20 -62 0 -74 -9 -4 -17 -19 -20 -31 -6 -31 -29
-56 -66 -71 l-29 -12 0 -130 c0 -84 4 -127 10 -123 13 8 29 -33 32 -85 1 -32
-3 -44 -20 -56 -21 -15 -22 -21 -22 -184 0 -117 4 -171 12 -176 7 -4 8 -3 4 4
-4 7 -1 12 8 12 22 0 20 -22 -4 -48 -17 -18 -20 -35 -20 -126 0 -98 6 -120 30
-121 3 0 17 -9 32 -21 25 -20 26 -22 10 -39 -13 -13 -14 -19 -4 -22 14 -5 17
-33 3 -33 -25 0 -41 13 -31 25 8 9 4 11 -15 7 -41 -7 -33 -45 13 -62 20 -8 43
-14 50 -13 7 0 11 -2 7 -5 -3 -3 7 -11 22 -18 26 -12 24 -13 -27 -10 -30 2
-63 6 -73 11 -17 7 -18 -2 -16 -143 2 -83 6 -149 11 -146 5 3 6 15 3 27 -5 17
-4 18 4 8 8 -12 12 -13 26 -1 9 7 14 19 11 26 -5 13 24 44 41 44 5 0 18 9 28
20 15 17 16 20 3 20 -21 0 -29 55 -12 78 8 9 14 14 15 10 1 -5 3 -12 4 -18 1
-5 3 -21 4 -35 1 -24 2 -24 41 -10 53 19 152 24 157 8 5 -14 -47 -43 -77 -43
-12 0 -30 -10 -40 -22 -9 -12 -33 -27 -51 -33 -20 -7 -36 -20 -38 -30 -7 -40
-33 -64 -82 -76 l-49 -13 0 -323 0 -323 24 0 c23 0 25 5 31 68 4 37 10 93 14
124 7 49 5 60 -11 75 -25 22 -23 29 17 88 34 49 36 55 45 185 6 74 14 149 19
165 8 26 9 23 11 -30 1 -33 1 -77 0 -99 -1 -25 2 -36 9 -32 6 4 11 12 11 18 0
19 48 114 65 128 20 17 20 15 -21 -92 -34 -91 -54 -127 -54 -98 0 24 -13 1
-16 -29 -2 -17 2 -33 8 -37 8 -5 7 -9 -5 -13 -11 -4 -13 -11 -8 -20 8 -12 19
-12 72 -2 58 12 95 28 189 81 39 22 128 27 162 9 16 -9 23 -8 29 2 14 22 10
37 -9 43 -24 8 -54 60 -46 80 12 32 65 49 162 52 51 2 102 9 114 15 24 13 86
3 108 -16 16 -15 60 -10 60 6 0 5 5 9 11 9 17 0 -8 -28 -39 -43 -14 -6 -27
-18 -30 -24 -5 -17 47 -17 69 0 17 13 44 58 42 68 -1 3 9 12 22 19 14 7 25 19
25 27 0 17 -15 17 -30 -2 -27 -32 -59 -11 -39 26 11 21 11 21 -15 3 -14 -11
-26 -22 -26 -25 0 -3 -7 -14 -15 -25 -14 -18 -14 -18 -15 4 0 52 119 138 172
124 17 -4 19 -11 14 -42 -6 -40 3 -50 46 -50 14 0 18 -5 14 -16 -4 -11 1 -10
20 5 15 12 37 21 49 21 40 0 92 -78 78 -117 -11 -33 -38 -51 -66 -46 -15 3
-27 1 -27 -5 0 -6 -8 -18 -17 -27 -16 -16 -16 -18 0 -27 19 -10 51 -67 43 -75
-7 -7 -66 17 -66 26 0 4 5 12 11 18 9 9 8 16 -4 27 -19 19 -147 22 -164 5 -7
-7 -38 -11 -70 -11 -39 0 -64 -5 -75 -15 -24 -21 -51 -9 -43 18 6 19 4 21 -18
15 -14 -3 -38 -19 -54 -34 -15 -16 -34 -31 -42 -33 -11 -4 -11 -10 4 -33 l18
-28 -34 15 c-19 8 -45 13 -59 11 -14 -1 -35 -3 -47 -3 -24 -1 -33 -21 -10 -21
7 0 20 -11 30 -24 12 -16 25 -22 38 -19 26 7 35 23 18 35 -10 6 -6 7 11 2 14
-4 27 -10 30 -14 13 -18 37 -5 37 19 0 14 1 35 2 46 3 37 21 -7 21 -52 0 -23
5 -45 10 -48 6 -4 10 7 10 25 0 17 4 29 9 26 5 -3 14 1 21 9 7 8 22 15 34 14
17 0 14 -4 -12 -15 -24 -11 -32 -19 -28 -32 3 -10 8 -46 10 -81 3 -34 7 -65 9
-68 3 -2 23 13 45 35 22 21 53 42 69 45 16 3 53 27 81 52 66 60 138 80 178 51
19 -14 19 -15 -5 -40 -23 -25 -49 -36 -36 -17 3 5 1 13 -5 16 -6 4 -9 1 -8 -7
2 -7 -4 -13 -12 -13 -9 0 -14 7 -12 18 4 27 -49 23 -67 -5 -14 -22 -14 -22 12
-5 31 20 48 22 45 5 -4 -19 -71 -40 -80 -25 -4 7 -8 8 -9 2 -1 -13 -5 -33 -14
-67 -5 -18 -3 -28 4 -28 6 0 11 8 11 18 0 31 34 52 101 62 57 9 68 15 99 50
48 54 87 65 131 37 19 -11 45 -23 59 -25 48 -7 53 -45 10 -67 -29 -15 -40 -35
-20 -35 6 0 10 -4 10 -10 0 -5 -10 -10 -23 -10 -13 0 -28 -5 -35 -12 -18 -18
-27 -1 -11 19 13 16 12 17 -4 4 -9 -8 -20 -11 -24 -7 -3 3 -13 -3 -21 -15 -13
-19 -15 -19 -33 -3 -10 9 -19 23 -19 29 0 7 -9 15 -20 18 -22 6 -19 -4 11 -38
19 -22 62 -96 57 -99 -2 -1 -50 1 -108 4 -58 3 -140 2 -183 -4 -73 -8 -107 -4
-163 20 -7 3 -8 -17 -3 -63 4 -38 10 -99 14 -138 4 -38 9 -72 11 -74 4 -4 21
4 54 25 15 10 10 2 -12 -20 -38 -37 -49 -69 -25 -80 10 -5 10 -7 0 -12 -21 -9
-16 -44 4 -38 17 5 17 5 0 -6 -9 -6 -15 -15 -12 -20 8 -13 13 -162 5 -153 -8
8 -28 138 -50 323 -6 47 -14 112 -19 145 -5 33 -6 75 -4 92 4 24 1 34 -10 39
-9 3 -21 29 -28 60 -7 30 -16 54 -21 54 -4 0 -8 -4 -8 -9 0 -5 -18 -27 -41
-48 l-41 -40 40 -6 c39 -7 92 -40 92 -58 0 -5 -14 -23 -30 -39 -22 -22 -40
-30 -66 -30 -43 0 -99 -28 -139 -69 -50 -52 -75 -61 -151 -54 -77 7 -104 26
-104 74 0 24 4 30 16 25 22 -8 107 30 134 61 22 25 38 26 85 8 20 -8 20 -8 2
13 -19 20 -18 21 22 47 23 14 39 30 36 36 -4 5 -11 7 -16 4 -5 -4 -9 -1 -9 5
0 6 -10 8 -25 4 -28 -7 -33 7 -9 27 26 22 46 67 31 72 -9 4 -9 8 2 15 9 7 10
11 2 17 -7 4 -20 -4 -31 -17 -10 -14 -37 -33 -60 -43 -39 -18 -43 -18 -71 -1
-16 9 -29 13 -29 7 0 -5 4 -12 9 -16 6 -3 16 -19 24 -35 14 -28 14 -29 -12
-38 -26 -9 -26 -9 -3 -16 12 -4 22 -12 22 -17 0 -5 7 -9 15 -9 41 0 -4 -65
-52 -76 -16 -3 -41 -10 -57 -15 -23 -7 -34 -5 -50 8 -33 28 -35 34 -19 71 14
33 13 36 -13 63 -24 25 -26 32 -16 54 9 19 9 25 -1 25 -16 0 -41 -64 -27 -68
5 -2 10 -8 10 -13 0 -5 -27 -9 -59 -9 -68 0 -66 3 -76 -105 -4 -38 -14 -81
-23 -95 -12 -19 -6 -16 26 13 53 47 104 51 151 11 36 -30 39 -58 15 -139 -13
-46 -23 -60 -65 -89 -27 -20 -53 -36 -59 -36 -26 0 -81 36 -86 57 -7 26 -24
31 -24 8 0 -8 -5 -15 -10 -15 -7 0 -7 -6 -1 -19 6 -10 7 -21 4 -25 -4 -4 1
-22 11 -41 17 -31 17 -35 3 -49 -21 -21 -26 -20 -37 7 -8 20 -9 20 -9 2 -1
-49 36 -61 95 -30 16 8 39 15 52 15 25 0 92 46 92 62 0 7 -4 7 -13 1 -6 -6
-21 -13 -32 -15 -11 -3 -28 -9 -37 -13 -11 -4 -18 -3 -18 4 0 6 10 15 23 20
12 5 33 21 47 36 14 15 45 39 70 53 39 23 42 27 23 30 -24 4 -30 16 -12 27 13
9 46 -21 65 -57 9 -18 27 -31 52 -37 57 -16 65 -15 52 10 -14 25 -6 49 16 49
13 0 15 -8 12 -40 -3 -30 0 -41 12 -45 8 -3 23 -17 32 -32 10 -16 18 -22 18
-15 0 14 36 17 45 3 3 -6 -1 -13 -8 -18 -8 -4 -17 -20 -20 -35 -6 -21 -2 -31
20 -47 14 -12 24 -23 22 -25 -16 -13 -52 -26 -76 -26 -34 0 -81 29 -64 40 7 3
-2 7 -19 7 -17 0 -26 -4 -19 -7 6 -4 -2 -9 -20 -12 -17 -2 -31 -1 -31 4 0 4 4
8 9 8 5 0 12 7 15 16 3 8 2 13 -3 10 -5 -3 -11 1 -15 9 -9 23 -26 18 -26 -9 0
-13 -9 -35 -20 -49 -11 -14 -20 -30 -20 -36 0 -6 -8 -11 -17 -12 -53 -1 -109
-11 -117 -19 -17 -17 -54 -11 -61 9 -5 18 -78 51 -112 51 -25 0 -13 -18 20
-29 l32 -12 -33 -20 c-25 -17 -32 -28 -32 -53 l0 -33 51 25 c46 23 52 24 66 9
14 -14 14 -18 -6 -43 -11 -14 -21 -41 -21 -59 0 -25 -6 -34 -27 -44 -18 -8
-29 -9 -37 -1 -7 7 -6 10 4 10 10 0 11 3 3 11 -13 13 3 59 19 59 5 0 7 4 4 9
-4 5 0 12 6 14 7 3 8 6 2 6 -5 1 -23 -12 -38 -28 -25 -26 -27 -33 -24 -102 l3
-74 50 -11 c66 -15 82 -23 89 -40 8 -20 -9 -51 -35 -64 -11 -6 -17 -15 -14
-20 4 -6 17 -3 30 6 18 11 36 14 60 10 39 -8 40 -10 21 -45 -8 -14 -12 -31 -9
-38 3 -7 -6 -22 -20 -33 -29 -23 -29 -28 21 -147 16 -40 36 -93 43 -118 7 -25
17 -45 21 -45 4 0 8 -4 8 -10 0 -20 -28 -9 -33 13 -7 30 -31 91 -38 97 -6 5
-64 133 -107 238 -24 59 -27 62 -59 62 l-33 0 0 -80 0 -79 32 4 c42 5 78 -17
71 -44 -6 -25 -50 -54 -69 -47 -8 3 -14 1 -14 -5 0 -6 -4 -7 -10 -4 -7 4 -10
-58 -10 -179 l0 -186 451 0 452 0 -6 35 c-5 32 -4 34 14 25 11 -6 19 -21 19
-35 0 -24 2 -25 80 -25 l79 0 -14 27 c-23 46 -52 126 -60 163 -10 47 7 28 30
-34 10 -27 32 -73 49 -103 l30 -53 1353 0 c1340 1 1353 1 1353 20 0 11 5 20
11 20 6 0 8 -9 4 -20 -6 -19 -2 -20 58 -20 l64 0 -3 217 c-1 120 -8 267 -14
328 -13 126 -46 328 -59 365 -5 14 -15 57 -21 95 -28 164 -84 339 -162 500
-81 169 -73 162 -144 120 -32 -19 -63 -35 -70 -35 -7 0 -21 -3 -31 -7 -16 -5
-16 -4 2 14 13 14 22 16 27 9 5 -7 8 -3 8 8 0 11 3 16 7 13 3 -4 12 2 20 12 7
11 26 22 43 26 16 4 32 10 34 14 5 8 -44 6 -127 -4 -60 -7 -128 10 -121 30 5
13 34 28 59 31 6 0 23 6 38 12 15 7 39 15 53 18 14 4 37 24 50 44 26 39 54 55
117 70 23 5 39 4 46 -3 20 -20 12 -74 -14 -105 -14 -17 -25 -35 -25 -41 0 -6
-5 -11 -12 -11 -6 0 -8 -3 -5 -7 4 -3 17 3 30 15 12 11 34 24 49 27 33 8 33
34 0 109 -12 27 -22 54 -22 61 0 6 -3 15 -7 19 -4 4 -15 37 -24 74 -10 37 -21
78 -25 91 -5 17 -4 22 4 17 9 -5 10 -1 3 16 -12 33 -24 197 -13 178 6 -8 12
-34 15 -57 8 -57 18 -93 26 -93 10 0 4 121 -7 132 -7 7 -4 21 9 44 l19 34 -59
-2 c-68 -3 -82 5 -117 75 -14 27 -28 47 -30 44 -3 -3 6 -26 20 -51 14 -25 23
-52 20 -60 -3 -8 9 -22 30 -36 24 -14 36 -29 36 -44 0 -12 5 -27 11 -33 16
-16 7 -56 -14 -59 -9 -1 -15 1 -12 6 9 15 -7 40 -34 55 l-26 14 23 7 c28 8 28
30 0 45 -23 12 -23 12 -5 -9 18 -20 18 -20 -20 -11 -21 5 -64 9 -95 9 -47 0
-59 4 -68 20 -16 30 15 42 65 23 50 -19 95 -27 95 -18 0 4 -20 37 -45 74 -39
59 -50 68 -90 79 -47 13 -82 50 -71 77 5 13 9 14 28 3 22 -12 27 -14 53 -17 6
0 24 -23 40 -51 35 -58 55 -68 25 -13 -11 21 -20 47 -20 59 0 13 -15 36 -36
53 -41 37 -64 37 -133 0 -91 -47 -185 -23 -178 46 6 54 48 97 126 128 l69 28
66 -65 c36 -36 66 -70 66 -76 0 -7 9 -23 20 -37 11 -14 20 -34 20 -45 0 -22
46 -98 60 -98 6 0 2 17 -8 38 -34 65 -44 110 -37 154 l7 42 33 -36 c32 -34 33
-38 28 -98 -4 -41 -2 -64 6 -69 8 -5 5 -14 -9 -29 -24 -25 -19 -28 13 -8 12 7
48 19 80 26 32 7 60 17 63 22 10 16 -17 37 -55 44 -49 9 -62 21 -55 51 6 21
-1 32 -36 64 -23 21 -47 39 -52 39 -5 0 -6 5 -3 10 4 6 -5 5 -19 -2 -14 -6
-26 -15 -26 -20 0 -15 -18 -8 -64 22 -25 17 -48 40 -51 50 -4 11 -13 20 -21
20 -21 0 -17 17 14 58 l27 36 -30 -22 c-17 -12 -39 -24 -50 -26 -32 -6 -28 47
6 85 25 28 32 31 63 25 36 -7 57 -30 49 -53 -3 -10 14 -11 74 -6 66 5 82 3 96
-11 23 -23 21 -44 -6 -99 l-24 -46 38 1 c20 0 42 -3 48 -6 6 -4 11 0 11 11 1
17 1 17 11 0 6 -9 15 -15 21 -11 6 4 5 9 -3 15 -9 5 9 8 44 6 56 -2 57 -3 37
-19 -11 -9 -26 -18 -32 -20 -8 -3 -3 -16 15 -37 33 -40 34 -54 5 -46 -22 6
-22 6 2 -14 21 -17 34 -20 75 -14 50 6 73 13 42 13 -31 0 -17 19 20 29 88 23
114 21 91 -7 -10 -11 -8 -16 7 -25 11 -7 27 -12 35 -12 8 0 15 -9 15 -20 0
-13 -20 -33 -60 -59 -33 -22 -62 -44 -64 -50 -7 -20 -88 -96 -94 -90 -12 13
33 80 73 109 45 33 39 43 -15 25 -46 -15 -85 -57 -85 -91 0 -26 -27 -59 -48
-59 -7 0 -12 -16 -12 -41 l0 -41 50 4 c33 3 49 1 47 -6 -2 -6 -19 -10 -38 -8
-59 4 -62 -2 -61 -147 1 -117 5 -143 32 -234 17 -56 34 -110 36 -120 5 -17 34
-18 95 -1 19 5 33 -32 17 -43 -7 -4 -8 -1 -3 7 6 10 4 11 -11 5 -10 -4 -30
-10 -44 -12 -14 -3 -30 -6 -36 -8 -7 -2 -2 -32 17 -87 15 -45 25 -85 23 -87
-6 -6 -15 5 -18 22 -1 8 -7 21 -12 28 -6 8 -17 35 -25 62 -7 26 -18 47 -24 47
-13 0 -94 -31 -119 -46 -17 -10 -16 -14 16 -60 19 -27 45 -74 57 -104 31 -75
45 -86 25 -20 -9 29 -18 63 -21 74 -34 152 68 -136 133 -374 49 -181 62 -234
68 -283 3 -17 12 -74 21 -126 25 -147 30 -227 30 -518 l0 -272 348 0 348 0 -6
37 c-6 36 -24 132 -45 240 -5 29 -10 73 -10 97 0 48 -16 70 -25 33 -2 -13 -12
-63 -20 -113 -8 -50 -18 -101 -21 -115 -3 -14 -11 -51 -18 -82 -6 -31 -17 -63
-25 -70 -9 -8 -11 -9 -7 -1 5 10 10 40 19 135 1 9 4 15 7 13 4 -2 7 10 7 28 0
30 38 244 49 278 8 27 5 97 -9 227 -7 68 -10 125 -5 128 4 3 8 4 9 2 0 -2 3
-23 6 -48 5 -45 19 -64 37 -53 6 4 7 -34 3 -103 -4 -62 -2 -137 4 -174 6 -36
12 -76 13 -90 10 -80 59 -337 67 -346 5 -6 6 -14 2 -18 -4 -3 153 -5 347 -4
l354 3 21 75 c28 99 33 112 44 106 7 -5 -11 -93 -35 -169 -5 -16 12 -17 269
-17 l274 0 11 25 c7 14 12 33 12 41 0 8 7 17 15 20 8 4 13 10 10 14 -5 7 35
134 40 128 5 -5 -41 -182 -54 -206 l-12 -22 116 0 115 0 0 784 0 784 -73 48
c-39 26 -74 51 -77 55 -3 4 -30 18 -60 32 -92 41 -129 91 -109 145 8 21 8 24
-2 15 -9 -9 -19 -8 -43 4 l-31 16 24 -26 c15 -17 22 -33 18 -47 -3 -13 0 -23
9 -27 33 -13 8 -18 -82 -17 -98 1 -138 15 -101 35 12 7 15 17 11 34 -9 34 3
60 32 74 15 6 24 14 21 18 -4 3 -12 1 -19 -4 -21 -17 -67 -21 -111 -10 -50 12
-58 22 -46 56 8 19 6 27 -5 33 -8 5 -13 15 -10 23 4 9 0 15 -9 15 -10 0 -14 8
-12 25 3 29 -5 31 -45 10 -34 -18 -40 -11 -34 39 2 21 -1 45 -7 52 -6 8 -9 20
-6 28 4 11 1 13 -11 9 -14 -5 -15 -4 -4 8 16 17 86 16 108 -2 8 -7 13 -21 11
-31 -4 -13 0 -18 14 -18 17 0 19 8 20 93 0 50 3 113 5 140 l5 47 -55 0 c-63 0
-111 18 -145 54 -22 23 -23 29 -12 50 12 21 17 23 51 15 20 -5 49 -13 64 -19
23 -8 26 -7 24 7 -2 10 10 25 28 37 30 20 32 24 38 115 4 51 11 104 16 117 8
21 7 24 -15 24 -24 0 -25 -1 -18 -60 6 -60 6 -60 -21 -60 -22 0 -26 -4 -26
-29 0 -28 -14 -41 -45 -41 -14 0 -10 61 5 70 5 3 -3 18 -16 33 l-25 29 -20
-25 c-12 -16 -27 -24 -38 -22 -23 4 -32 -15 -26 -53 11 -66 13 -92 5 -92 -4 0
-10 19 -13 42 -7 54 -49 99 -75 80 -9 -7 -23 -15 -30 -18 -20 -10 -62 17 -68
43 -4 13 -10 23 -15 23 -4 0 -24 14 -44 31 -19 17 -35 28 -35 24 0 -11 49 -55
61 -55 22 0 -12 -134 -36 -144 -18 -7 -19 6 -2 23 10 10 7 16 -13 31 -14 11
-34 20 -45 20 -11 1 -29 6 -40 11 -15 7 -11 8 18 5 20 -2 37 0 37 5 0 5 5 9
10 9 6 0 10 -8 10 -17 0 -15 4 -13 24 7 13 14 21 28 19 33 -4 7 -19 5 -108 -9
-35 -6 -127 -5 -133 1 -2 2 -20 -6 -40 -17 -21 -11 -53 -21 -72 -22 -28 -1
-36 -5 -38 -24 -2 -12 -11 -26 -20 -31 -32 -17 -108 -23 -150 -11 -35 9 -42
15 -42 36 0 18 4 25 14 21 14 -5 80 13 92 26 4 4 0 7 -9 7 -32 0 -19 40 18 56
32 13 34 16 23 39 -10 21 -8 28 8 40 10 8 25 12 32 10 9 -3 12 1 10 13 -2 10
-11 16 -21 14 -9 -2 -17 1 -17 5 0 4 -20 7 -45 6 -25 0 -47 3 -50 7 -3 5 13 6
34 4 42 -5 111 17 111 35 0 6 4 11 10 11 5 0 9 -3 8 -7 -2 -5 10 -20 25 -35
32 -32 34 -61 7 -88 -21 -21 -18 -25 25 -32 12 -2 21 -12 23 -26 3 -16 10 -22
28 -22 34 0 81 26 95 51 10 19 9 20 -13 14 -12 -4 -26 -12 -29 -18 -4 -5 -12
-6 -18 -3 -6 4 -11 2 -11 -5 0 -7 -13 0 -30 16 -23 22 -30 38 -30 67 0 52 43
81 111 74 69 -7 93 28 44 66 -30 24 -31 35 -4 43 14 5 28 0 43 -14 12 -12 28
-21 35 -21 14 0 71 -38 83 -55 4 -5 6 -15 3 -22 -2 -7 5 -22 15 -35 17 -19 21
-21 29 -8 7 11 5 21 -9 35 -11 12 -20 33 -20 48 0 14 -4 28 -9 31 -4 3 -6 17
-3 32 3 15 -1 29 -8 34 -21 13 -3 42 21 35 14 -5 25 -2 30 6 13 20 11 27 -11
49 -15 15 -33 20 -75 20 -49 0 -55 -2 -55 -20 0 -28 -21 -49 -40 -40 -8 4 -35
13 -60 19 -25 7 -54 14 -65 17 -18 5 -18 4 3 -15 l23 -20 -43 -27 c-31 -20
-54 -27 -87 -25 -71 2 -88 27 -50 74 15 20 18 31 10 44 -7 13 -4 25 10 44 17
24 24 26 82 26 40 0 75 5 96 16 19 9 48 17 65 18 17 0 40 4 51 9 15 7 9 9 -26
9 -30 1 -55 8 -70 20 -22 17 -22 19 -6 35 20 20 21 32 7 41 -8 5 -7 12 2 23
10 14 10 15 -1 5 -7 -6 -20 -9 -27 -6 -17 6 -18 50 -2 56 8 4 4 8 -9 12 -33
10 -18 25 24 25 50 0 37 8 -20 14 -51 5 -54 2 -34 -47 8 -18 12 -48 9 -68 -3
-25 1 -41 13 -53 10 -9 15 -20 11 -23 -3 -3 -1 -12 5 -20 15 -18 -6 -43 -36
-43 -30 0 -41 27 -14 35 23 8 23 15 3 80 -8 28 -16 70 -18 95 -5 58 -32 68
-42 16 -10 -55 -27 -57 -19 -2 6 37 4 47 -9 52 -19 7 -21 30 -4 37 7 2 9 8 5
13 -4 4 -17 3 -27 -4 -28 -17 -40 -15 -40 6 0 10 -7 27 -15 38 -8 10 -15 22
-15 25 0 10 38 21 90 28 32 4 44 10 42 20 -2 8 1 24 7 35 5 12 12 51 13 89 3
61 2 67 -15 67 -18 0 -19 -6 -15 -65 7 -82 -9 -86 -18 -5 -4 33 -8 60 -10 60
-15 0 -54 -26 -54 -36 0 -19 -20 -28 -60 -29 -19 -1 -45 -5 -57 -9 -40 -13
-25 11 16 27 48 20 64 39 23 27 -33 -9 -76 -4 -110 12 -21 11 -21 13 -6 29 16
18 14 18 -49 12 -39 -3 -72 -2 -79 4 -7 5 -32 8 -55 5 l-42 -4 15 -30 c13 -25
20 -29 41 -23 28 7 63 -2 63 -16 0 -5 -9 -23 -21 -38 -20 -27 -20 -30 -5 -59
9 -17 16 -37 16 -44 0 -7 14 -29 31 -48 22 -24 30 -29 25 -15 -22 72 -31 162
-21 199 15 54 23 36 24 -59 2 -95 22 -197 39 -203 6 -2 12 3 12 12 0 9 5 16
10 16 6 0 10 -9 10 -20 0 -11 4 -20 9 -20 19 0 70 -51 65 -65 -3 -8 1 -21 9
-30 8 -8 17 -19 19 -24 1 -6 27 -12 57 -15 30 -3 64 -12 77 -21 34 -22 31 -54
-6 -68 -16 -6 -30 -15 -30 -19 0 -9 -32 -10 -54 -2 -9 3 -16 12 -16 19 0 17
-55 51 -98 60 l-33 7 7 -44 c4 -23 12 -46 17 -49 12 -8 2 -39 -12 -39 -10 0
-51 114 -51 143 0 11 8 26 18 33 15 12 15 13 0 14 -9 0 -18 -6 -21 -12 -3 -10
-9 -9 -22 4 -12 11 -18 30 -17 57 2 51 -14 61 -42 26 -22 -28 -24 -28 -100
-22 -66 6 -77 5 -72 -8 3 -8 0 -17 -6 -21 -7 -4 -8 -3 -4 4 13 22 -21 12 -48
-13 -15 -14 -31 -25 -35 -25 -5 0 -7 -13 -5 -30 2 -16 -1 -30 -6 -30 -6 0 -9
-6 -7 -12 1 -8 -12 -14 -36 -16 -43 -4 -79 20 -75 47 2 12 -6 16 -29 16 -29 1
-33 -3 -33 -26 0 -23 5 -27 36 -32 43 -7 74 -32 74 -60 0 -31 -45 -101 -84
-131 -44 -33 -102 -41 -109 -14 -3 10 -11 18 -17 18 -8 0 -10 -8 -5 -22 14
-45 11 -73 -7 -70 -10 1 -29 -5 -42 -14 -20 -12 -32 -14 -53 -6 l-28 10 30 1
c17 1 37 6 45 11 11 7 6 10 -20 10 -56 0 -108 19 -145 52 -32 27 -40 28 -36 5
1 -5 -8 -20 -19 -34 -19 -24 -19 -28 -5 -50 9 -12 11 -23 6 -23 -13 0 -33 37
-40 74 -7 32 -31 48 -31 21 0 -9 -9 -19 -20 -22 -25 -7 -26 -23 -2 -23 11 0
24 -11 30 -25 11 -24 11 -25 -16 -19 -15 4 -29 11 -30 16 -12 29 -35 37 -95
33 -53 -4 -60 -3 -44 9 18 14 10 27 -23 38 -42 14 124 36 179 24 23 -5 23 -5
6 14 -17 19 -17 20 1 20 11 0 30 7 42 16 35 24 62 26 62 4 0 -19 1 -19 20 -3
11 10 20 24 20 33 0 12 2 13 9 1 5 -7 14 -10 21 -6 6 4 44 14 83 22 40 8 81
22 92 32 11 10 32 25 46 34 17 10 29 28 33 50 6 30 2 39 -24 66 -38 38 -36 61
8 81 30 13 33 18 30 47 -3 26 0 33 14 33 15 0 17 -6 12 -35 -6 -42 6 -45 48
-10 34 29 85 33 103 8 11 -14 13 -14 18 9 8 32 44 48 93 41 35 -4 43 -1 77 32
31 30 44 36 68 33 16 -3 28 -2 27 1 -24 49 -87 130 -101 131 -27 0 -58 20 -51
31 3 5 13 7 23 4 16 -5 16 -1 7 40 -10 44 -27 57 -43 32 -4 -7 -29 -25 -56
-41 -26 -15 -46 -30 -43 -34 2 -4 -17 -8 -43 -9 l-46 -2 33 15 c17 8 32 16 32
18 0 3 -24 2 -53 -1 -41 -4 -56 -2 -66 11 -11 13 -11 19 0 32 8 9 12 28 11 41
-2 13 2 31 8 39 11 12 3 14 -55 14 -52 0 -66 -3 -62 -13 3 -8 1 -20 -3 -28 -7
-11 -13 -10 -30 6 -20 18 -21 18 -59 -3 -21 -12 -53 -22 -70 -22 -27 0 -34 -6
-56 -50 -18 -35 -31 -50 -45 -50 -29 0 -25 34 5 54 35 23 32 30 -18 41 l-42
10 3 -32 c7 -54 -6 -37 -18 25 l-12 57 -271 3 c-240 2 -270 1 -253 -12 13 -11
25 -12 43 -5 13 5 35 9 49 9 20 0 24 -5 24 -30 l0 -29 -100 6 c-55 3 -100 3
-100 -1 0 -3 18 -13 40 -22 43 -17 52 -38 21 -47 -12 -3 -21 -15 -23 -33 -2
-20 -12 -33 -32 -43 -37 -17 -138 -20 -143 -4 -3 7 -11 9 -19 6 -8 -3 -14 -3
-14 0 0 2 26 17 57 33 l58 28 -34 13 c-22 9 -37 11 -45 4 -7 -6 -31 -13 -53
-17 -29 -4 -40 -10 -36 -20 4 -11 10 -11 26 -3 20 10 21 10 7 -5 -18 -18 -56
-12 -65 12 -4 10 1 22 11 29 15 11 14 13 -10 23 -15 5 -24 15 -21 20 4 6 11 8
16 5 5 -4 19 -8 31 -10 12 -3 26 -11 30 -20 20 -36 74 1 63 43 -5 20 -3 23 10
18 27 -10 62 4 74 30 l11 24 -189 0 c-181 0 -189 -1 -184 -19 4 -15 -3 -22
-31 -31 -31 -10 -34 -14 -26 -30 20 -37 -20 -72 -83 -74 -23 -1 -34 -6 -33
-15 1 -8 -5 -16 -11 -18 -7 -3 -13 1 -13 9 0 7 -4 19 -9 27 -7 11 -13 9 -30
-8 -25 -25 -47 -27 -55 -5 -4 10 -14 14 -26 11 -10 -3 -25 2 -32 10 -15 18
-12 85 5 95 7 4 13 16 13 28 1 18 -5 20 -50 20 l-51 0 33 -21 c36 -24 39 -31
16 -50 -10 -8 -13 -21 -9 -36 3 -13 1 -23 -5 -23 -20 0 -49 39 -56 75 -4 26
-11 35 -21 31 -8 -3 -11 -1 -8 4 3 6 -3 10 -14 10 -12 0 -21 -7 -21 -15 0 -11
-9 -14 -32 -11 -17 2 -49 -4 -70 -12 l-38 -15 5 -86 c4 -47 2 -131 -3 -186 -9
-103 -3 -134 22 -100 8 12 19 16 30 12 26 -10 14 -30 -20 -33 -65 -4 -63 -9
-62 164 1 231 2 224 -22 217 -26 -8 -26 7 0 23 11 7 20 19 20 26 0 22 -21 31
-31 13 -10 -17 -103 -16 -138 2 -26 14 -166 14 -193 0 -15 -8 -22 -8 -28 1 -4
6 -23 10 -45 8 -46 -4 -54 -27 -21 -63 29 -31 34 -31 46 0 14 38 47 32 67 -11
15 -31 15 -36 3 -44 -8 -5 -22 -8 -30 -5 -66 19 -72 18 -66 -3 4 -11 2 -23 -4
-27 -13 -8 -4 -193 11 -211 5 -7 32 -17 59 -24 66 -16 84 -37 75 -89 -7 -41
-42 -81 -72 -81 -7 0 -16 -7 -19 -15 -4 -8 -12 -15 -20 -15 -8 0 -14 7 -14 15
0 25 -17 17 -24 -11 -6 -23 -10 -25 -39 -18 -18 3 -43 11 -57 17 -29 12 -80 9
-97 -5 -8 -6 -19 -6 -32 2 -18 9 -21 8 -21 -10 0 -11 7 -20 15 -20 9 0 35 -19
58 -42 41 -42 43 -43 77 -31 43 15 140 7 160 -13 12 -12 10 -14 -22 -14 -23 0
-38 -6 -42 -15 -7 -20 -49 -18 -116 5 -54 18 -54 18 -69 -2 -12 -18 -16 -19
-25 -6 -6 8 -27 17 -48 21 -30 4 -37 2 -41 -14 -6 -21 -31 -24 -70 -10 -13 5
-39 12 -57 14 -32 6 -58 22 -49 31 2 3 23 6 47 9 23 2 45 7 49 11 3 3 14 -1
24 -10 10 -9 23 -14 30 -12 7 2 -4 13 -23 25 -38 22 -56 61 -32 70 18 7 18 23
1 23 -8 0 -20 11 -27 25 -7 14 -17 25 -22 25 -4 0 -8 6 -8 14 0 10 16 17 48
22 26 3 54 13 64 21 14 13 17 12 27 -4 10 -17 10 -17 11 3 0 11 -5 25 -12 32
-15 15 -48 16 -48 2 0 -5 -6 -10 -14 -10 -13 0 -26 68 -26 140 1 33 2 34 15
16 14 -18 15 -18 21 -1 7 18 8 18 15 -1 4 -10 8 -36 8 -56 1 -29 5 -38 19 -40
40 -4 58 -5 79 -7 12 0 28 -7 35 -15 16 -16 68 -28 121 -28 45 0 82 33 68 61
-14 26 -32 143 -29 185 3 38 3 38 -44 50 -26 7 -55 19 -65 27 -10 7 -7 1 6
-13 l24 -27 -29 -11 c-40 -16 -100 7 -96 37 4 31 -24 36 -47 8 -10 -14 -22
-25 -27 -25 -4 0 -16 -7 -26 -17 -14 -12 -18 -13 -18 -3 0 11 -3 11 -12 2 -21
-21 -47 -13 -84 23 -40 40 -61 43 -97 15 -28 -22 -72 -26 -84 -7 -12 18 -4 49
19 74 19 20 19 23 4 29 -9 3 -16 12 -16 20 0 11 -18 14 -76 14 -66 0 -80 -3
-110 -26 -18 -14 -40 -24 -48 -21 -8 3 -22 -3 -31 -13 -16 -17 -15 -19 4 -30
27 -14 27 -37 1 -45 -25 -8 -27 -51 -4 -83 19 -27 38 -29 29 -2 -5 14 -2 20 9
20 9 0 16 5 16 10 0 6 3 9 8 8 4 -1 20 2 36 7 19 5 39 3 62 -8 63 -30 36 -69
-48 -67 -29 0 -75 -5 -102 -13 l-49 -14 31 -21 c17 -13 47 -23 71 -24 43 -1
72 -20 51 -33 -8 -5 -8 -11 0 -20 19 -23 7 -58 -29 -82 -60 -40 -88 -30 -82
30 1 9 -4 17 -13 17 -9 0 -16 -4 -16 -10 0 -16 -26 -11 -43 8 -21 23 -21 70
-2 96 8 11 15 23 15 28 0 13 -65 9 -91 -5 -32 -17 -34 -35 -4 -29 27 5 34 -12
9 -22 -20 -8 -68 -8 -88 0 -12 5 -14 10 -6 19 7 9 6 16 -5 25 -23 19 -18 39
15 58 16 9 30 20 30 25 0 4 7 7 14 7 18 0 66 43 66 59 0 7 -6 11 -14 9 -20 -4
-21 15 -2 27 11 7 19 4 30 -10 15 -20 15 -19 16 4 0 13 8 30 18 37 11 9 13 13
4 14 -20 0 -122 52 -122 62 0 4 -63 8 -140 8 -115 0 -140 -3 -140 -14z m3281
-46 c10 -6 19 -21 19 -34 0 -32 -86 -84 -110 -67 -8 6 -26 16 -40 22 -21 9
-27 7 -43 -15 -22 -31 -52 -34 -67 -7 -5 11 -10 22 -10 25 0 15 88 58 143 70
79 18 84 18 108 6z m99 -20 c0 -14 7 -20 23 -20 14 0 44 -20 78 -52 36 -35 65
-54 82 -54 15 -1 40 -13 56 -27 40 -33 26 -45 -68 -59 -59 -9 -73 -8 -92 5
-20 15 -24 15 -52 -5 -19 -14 -31 -17 -36 -10 -4 7 -19 8 -46 2 -25 -6 -44 -5
-49 0 -7 7 -5 10 5 10 12 0 12 2 -1 10 -9 6 -17 5 -22 -3 -5 -8 -8 -7 -8 5 0
9 10 24 21 32 20 14 21 18 9 47 -13 30 -12 33 14 55 33 29 62 31 76 3 9 -15 8
-24 -1 -35 -20 -25 7 -44 62 -44 59 0 63 12 9 34 -27 11 -40 22 -40 35 0 10
-9 30 -20 44 -22 27 -26 47 -10 47 6 0 10 -9 10 -20z m-1094 -180 c30 0 54 -4
54 -9 0 -13 -58 -31 -77 -24 -11 4 -14 3 -9 -5 4 -7 16 -12 26 -12 23 0 57
-57 43 -71 -5 -5 -33 -12 -62 -16 -45 -5 -55 -3 -76 17 -28 27 -32 48 -10 56
25 10 17 23 -17 26 -17 2 -33 8 -35 15 -5 15 46 33 81 28 16 -3 53 -5 82 -5z
m339 -70 c7 -6 23 -13 36 -15 12 -3 51 -14 87 -26 47 -16 67 -18 75 -10 19 19
55 12 133 -24 64 -30 75 -39 81 -65 3 -17 11 -30 18 -30 18 0 48 -37 40 -49
-3 -6 -25 -11 -48 -11 -81 0 -162 35 -151 64 8 20 -65 79 -85 70 -9 -4 -25 -8
-37 -8 -17 -1 -19 -4 -11 -18 6 -9 15 -14 19 -12 16 10 78 -17 79 -34 2 -33
-3 -67 -12 -76 -17 -19 13 -36 65 -37 28 0 60 -4 71 -8 11 -5 25 -5 30 0 17
13 95 28 100 19 3 -5 13 -9 23 -8 54 0 156 -17 168 -29 19 -19 18 -29 -6 -53
-12 -12 -18 -25 -15 -29 9 -15 -83 -45 -134 -43 -19 1 -45 -7 -61 -18 -16 -11
-35 -20 -43 -20 -16 0 -29 -67 -15 -76 4 -3 8 9 8 25 0 17 5 31 11 31 6 0 8
-9 5 -20 -3 -11 -8 -28 -11 -39 -4 -12 1 -21 12 -25 10 -3 23 -8 28 -11 6 -3
10 7 11 23 0 15 3 38 7 52 3 14 6 33 6 44 1 11 6 16 15 13 7 -3 18 -1 24 5 12
12 12 13 30 -62 7 -30 7 -50 0 -64 -6 -10 -8 -34 -5 -53 6 -33 5 -35 -17 -29
-19 5 -25 1 -29 -16 -9 -32 -1 -37 38 -27 20 6 43 9 53 7 9 -1 24 2 32 6 9 6
7 1 -4 -13 -15 -16 -17 -24 -8 -33 17 -17 15 -23 -14 -36 -14 -7 -23 -8 -19
-3 6 10 -34 37 -48 33 -5 -1 -6 2 -2 8 3 5 0 10 -9 10 -17 0 -32 -42 -40 -115
-10 -81 -27 -145 -38 -145 -7 0 -8 22 -3 68 4 37 9 87 10 111 2 24 6 64 10 90
14 84 13 88 -23 105 -47 23 -50 21 -50 -26 0 -49 -22 -115 -29 -85 -3 9 1 33
7 52 8 25 8 39 0 56 -8 15 -9 19 -1 15 6 -4 11 -3 11 3 0 15 -47 28 -107 30
-13 1 -23 6 -23 11 0 13 90 13 123 1 24 -9 24 -9 19 42 -6 72 -16 85 -78 113
-62 27 -69 44 -19 44 19 0 35 5 35 10 0 6 -8 10 -17 10 -9 0 -24 7 -33 15 -8
8 -40 25 -70 38 -53 23 -57 24 -117 9 -48 -12 -60 -18 -53 -28 8 -9 -3 -20
-45 -44 -69 -39 -83 -33 -23 10 23 17 46 41 51 52 4 11 13 18 20 15 7 -3 24 1
38 9 13 7 34 13 47 14 12 0 22 5 22 11 0 6 7 9 15 6 8 -4 27 0 42 8 l28 15
-32 0 c-25 0 -36 6 -48 28 l-16 27 4 -33 c5 -47 -19 -64 -44 -32 -15 21 -19
22 -19 7 0 -10 -8 -21 -17 -24 -10 -4 -21 -11 -24 -16 -9 -13 -98 55 -99 75 0
10 -14 24 -34 32 -18 8 -36 18 -40 24 -3 6 -30 8 -64 5 -71 -7 -92 9 -72 54
11 25 18 28 62 30 27 0 57 8 66 16 9 8 24 17 32 20 21 9 100 -1 115 -13z
m-190 -225 c17 -7 48 -18 71 -24 38 -10 91 -51 66 -51 -6 0 -18 -7 -26 -16
-15 -14 -19 -14 -48 0 l-32 16 25 -26 24 -27 -74 7 c-48 4 -82 13 -93 23 -10
9 -16 18 -13 21 2 3 -7 14 -21 24 -25 20 -25 54 0 70 14 9 81 0 121 -17z
m-2183 -9 c16 -9 30 -11 33 -5 10 15 35 10 35 -6 0 -11 11 -15 43 -15 24 0 48
-5 54 -11 9 -9 16 -8 28 5 23 22 56 29 112 22 71 -8 71 -8 66 -22 -7 -19 -33
-26 -33 -9 0 34 -105 -51 -112 -90 -3 -17 -12 -21 -56 -23 -32 -2 -52 1 -52 7
0 6 3 11 8 11 4 0 13 10 21 22 12 19 11 23 -5 35 -10 7 -30 13 -46 13 -17 0
-28 5 -28 14 0 7 -7 19 -15 26 -13 11 -15 9 -15 -13 0 -13 9 -31 20 -38 10 -8
22 -26 26 -41 5 -24 3 -28 -14 -28 -12 0 -24 5 -27 10 -4 6 -11 8 -16 4 -6 -4
-6 -11 1 -19 8 -10 8 -15 0 -20 -19 -12 8 -33 35 -27 15 2 25 0 25 -7 0 -7 4
-10 8 -7 4 2 14 1 22 -4 33 -20 -37 -90 -90 -90 -12 0 -24 -9 -30 -22 -7 -18
-9 -19 -9 -5 -1 9 -7 17 -14 17 -6 0 -25 16 -41 35 -28 33 -33 35 -89 35 l-59
0 16 24 c9 14 13 32 10 41 -4 9 2 25 13 38 34 37 42 59 32 85 -21 56 74 94
143 58z m1648 -6 c0 7 12 3 28 -7 36 -25 79 -43 101 -43 30 0 110 -57 117 -84
6 -24 -33 -126 -48 -126 -5 0 -8 -7 -8 -15 0 -16 -16 -21 -22 -6 -1 5 -19 1
-39 -8 -53 -26 -163 -27 -229 -2 -100 38 -128 95 -72 149 15 15 25 26 23 25
-8 -5 -32 37 -26 47 3 6 -1 7 -9 4 -9 -3 -16 -10 -16 -16 0 -5 -8 -7 -19 -3
-10 3 -23 -1 -31 -10 -11 -13 -15 -13 -42 1 -17 9 -38 14 -47 11 -13 -3 -16 3
-15 30 2 69 66 71 76 3 2 -14 11 -26 21 -28 15 -3 18 2 15 24 -3 25 1 29 31
35 37 8 100 1 117 -12 19 -15 82 -21 90 -8 4 7 3 9 -3 6 -6 -4 -13 0 -17 8 -3
8 -13 15 -23 15 -15 0 -15 2 -4 9 9 6 22 6 33 0 12 -7 18 -6 18 1z m368 -143
c-13 -18 -24 -42 -25 -54 -2 -20 1 -21 28 -11 64 22 50 -19 -20 -59 -36 -19
-51 -34 -51 -49 0 -11 -7 -29 -15 -40 -21 -27 -20 -30 29 -48 24 -9 52 -26 61
-36 10 -11 30 -20 44 -20 14 0 39 -9 55 -19 l30 -20 13 26 c7 14 13 30 12 37
0 7 -2 7 -6 -1 -7 -18 -58 -16 -73 2 -10 12 -10 15 4 15 9 0 15 3 15 8 -3 20
2 32 16 32 8 0 24 9 36 21 l21 21 -7 -33 -7 -32 26 21 c20 15 36 19 61 15 23
-4 43 0 60 11 14 9 41 16 59 14 19 -1 42 4 51 12 19 15 74 15 89 0 15 -15 23
-12 31 13 7 19 9 17 14 -18 4 -22 3 -46 -2 -52 -8 -11 -12 -32 -16 -85 -2 -14
-46 -8 -87 10 -40 19 -110 23 -108 6 2 -19 69 -43 104 -37 29 4 33 3 23 -8
-16 -16 -17 -33 -2 -24 6 4 13 -2 16 -14 6 -23 43 -30 43 -8 0 7 7 22 15 33
15 18 16 18 14 -6 -2 -42 0 -50 17 -50 10 0 14 -7 12 -22 -2 -17 -11 -24 -32
-26 -25 -3 -28 -1 -23 18 5 19 2 21 -26 18 -19 -2 -31 -8 -29 -15 1 -7 -5 -13
-13 -13 -9 0 -12 6 -9 15 4 9 0 15 -10 15 -10 0 -13 -6 -10 -15 8 -21 -33 -20
-87 1 -34 14 -40 20 -35 39 4 14 0 28 -9 35 -17 14 -20 46 -5 55 6 4 8 11 5
16 -4 5 3 9 15 9 12 0 18 5 15 10 -8 13 -45 13 -45 -1 0 -5 -5 -7 -10 -4 -6 4
-8 15 -5 25 4 11 -1 20 -11 24 -23 9 -26 4 -28 -48 -2 -52 -10 -64 -31 -46
-11 9 -13 16 -5 24 12 12 13 26 2 26 -8 0 -42 -86 -42 -106 0 -6 7 -11 15 -11
8 0 15 4 15 9 0 5 9 6 20 3 15 -5 20 -2 20 12 1 16 2 16 12 -2 17 -29 20 -56
7 -71 -16 -20 -36 -17 -42 6 -3 11 -13 20 -22 20 -9 0 -14 -4 -10 -9 3 -5 0
-13 -6 -17 -8 -4 -8 -8 0 -13 6 -4 3 -11 -9 -19 -18 -11 -19 -8 -14 54 4 58 3
65 -13 62 -10 -2 -25 -11 -33 -20 -8 -10 -32 -20 -52 -22 -20 -3 -55 -14 -77
-25 -47 -24 -69 -26 -94 -7 -15 12 -16 18 -7 35 16 32 -2 25 -25 -9 -12 -18
-23 -26 -29 -20 -6 6 -18 0 -32 -15 -12 -13 -48 -31 -79 -40 l-57 -17 -30 32
c-27 30 -31 32 -76 24 -63 -10 -89 -9 -107 6 -24 20 -18 28 35 58 52 28 62 42
32 42 -23 0 -100 52 -84 58 6 2 39 -13 72 -32 41 -24 74 -36 99 -36 23 0 48
-8 64 -20 41 -32 97 -24 97 14 0 12 5 27 11 33 6 6 9 17 6 25 -4 9 -8 5 -12
-9 -4 -13 -14 -23 -22 -23 -12 0 -13 3 -4 13 16 20 4 26 -36 16 -20 -4 -41 -6
-45 -3 -11 7 -10 41 2 63 9 19 77 51 106 51 8 0 30 10 47 23 18 12 37 23 42
22 6 0 32 13 59 29 52 31 49 49 -3 22 -32 -17 -57 -22 -29 -6 9 6 30 35 47 66
22 38 42 60 64 69 44 18 52 9 25 -28z m330 -29 c9 -9 8 -16 -5 -30 -15 -17
-15 -18 3 -18 28 0 74 -23 71 -35 -2 -5 -18 -15 -35 -21 -18 -5 -37 -15 -44
-22 -7 -7 -18 -12 -25 -12 -8 0 -25 -7 -39 -16 -35 -23 -42 -10 -10 19 27 25
36 54 14 41 -7 -4 -2 5 12 21 l25 28 -25 -6 c-14 -4 -28 -7 -31 -7 -4 0 -10
-11 -13 -25 -11 -45 -66 -86 -66 -50 0 8 3 15 8 15 4 0 14 15 21 33 19 41 79
97 106 97 12 0 26 -5 33 -12z m-1302 -49 c9 -10 17 -33 16 -50 -1 -25 3 -30
16 -25 9 3 50 16 89 30 40 14 90 28 110 32 35 7 37 6 24 -9 -7 -10 -25 -17
-39 -17 -27 0 -73 -13 -136 -39 -22 -8 -50 -14 -63 -13 -13 2 -30 -2 -38 -8
-8 -6 -19 -9 -25 -5 -5 3 -19 3 -31 0 -14 -5 -18 -12 -13 -27 5 -17 3 -19 -14
-14 -11 4 -23 3 -26 -3 -3 -5 -14 -8 -24 -6 -9 2 -37 7 -62 10 -82 10 -134 80
-90 120 18 16 34 19 85 17 44 -2 74 3 103 16 48 22 93 18 118 -9z m3133 -37
c34 -33 42 -36 57 -25 24 17 85 17 78 0 -3 -8 6 -13 28 -15 94 -7 92 -50 -2
-67 -18 -3 -38 -9 -44 -13 -6 -3 -18 -5 -27 -4 -20 3 -31 -51 -15 -69 8 -8 3
-10 -21 -7 -18 3 -33 1 -33 -4 0 -4 5 -8 10 -8 6 0 24 -13 40 -30 16 -16 34
-30 40 -30 5 0 10 -5 10 -11 0 -8 -5 -8 -15 1 -12 10 -15 10 -15 -3 0 -8 -13
-21 -30 -28 -33 -15 -48 -55 -41 -109 0 -5 11 -14 23 -21 18 -9 20 -9 15 4 -7
18 12 27 54 27 33 0 36 -6 12 -32 -13 -14 -14 -21 -5 -30 18 -18 15 -26 -19
-43 -24 -13 -34 -14 -45 -4 -11 9 -14 9 -14 -1 0 -9 -10 -11 -31 -6 -27 5 -30
3 -24 -12 3 -9 13 -53 21 -97 8 -44 17 -87 19 -95 2 -8 4 -21 4 -28 1 -9 14
-11 51 -6 46 6 52 4 85 -25 20 -17 43 -31 53 -32 52 -3 89 5 114 26 15 13 41
26 57 30 16 3 37 17 45 31 9 13 22 24 28 24 6 0 3 -9 -7 -20 -14 -15 -16 -23
-8 -31 6 -6 9 -17 7 -24 -9 -23 12 -25 53 -5 22 10 46 20 54 22 7 2 28 19 47
38 27 28 35 31 43 20 9 -15 -14 -43 -42 -52 -6 -2 0 -22 15 -48 14 -25 26 -58
26 -73 0 -24 -3 -27 -20 -22 -11 4 -20 2 -20 -4 0 -14 47 -44 58 -37 5 3 8 33
6 67 -2 52 0 59 11 48 19 -19 30 -69 16 -69 -15 0 -13 -41 3 -63 11 -14 19
-16 40 -7 14 5 26 14 26 20 0 5 18 10 40 10 29 0 38 -4 34 -13 -3 -8 2 -20 11
-27 20 -17 20 -70 0 -70 -9 0 -21 -11 -27 -25 -6 -14 -17 -25 -24 -25 -8 0
-11 -6 -8 -15 4 -8 12 -15 19 -15 7 0 15 -9 18 -20 6 -23 3 -24 -24 -10 -32
18 -42 0 -14 -25 14 -13 25 -28 25 -33 0 -13 -25 -22 -57 -22 -20 0 -24 4 -20
20 3 11 1 23 -4 26 -14 8 -10 24 6 24 18 0 19 14 4 41 -9 17 -7 21 10 26 12 3
21 9 21 14 0 5 6 9 14 9 8 0 17 7 20 16 5 12 0 14 -24 10 -20 -3 -30 0 -30 9
0 17 -42 27 -52 12 -4 -7 -5 -21 -2 -32 4 -14 3 -16 -4 -7 -8 12 -15 11 -40
-2 -17 -9 -51 -16 -76 -16 -36 0 -48 5 -65 26 -11 14 -23 33 -26 42 -6 19 -49
42 -79 42 -21 0 -56 27 -56 43 0 6 7 19 17 29 25 28 9 31 -19 4 -13 -14 -33
-25 -44 -26 -10 0 -31 -1 -46 -1 -16 -1 -28 -6 -28 -12 0 -6 -3 -7 -6 -4 -4 4
-19 -2 -35 -13 -15 -11 -41 -23 -58 -26 -17 -4 -30 -9 -29 -13 3 -24 -10 -35
-74 -66 -74 -36 -98 -42 -98 -25 0 6 8 10 18 10 14 0 15 2 2 10 -9 5 -19 5
-27 -1 -6 -6 -22 -9 -35 -7 -14 2 -31 -5 -44 -19 -22 -21 -22 -22 -39 -3 -10
11 -22 17 -26 14 -5 -3 -9 -1 -9 5 0 5 6 11 13 14 9 3 8 8 -3 22 -13 17 -13
18 0 10 12 -6 12 -5 4 4 -9 10 -21 8 -54 -9 -35 -18 -47 -20 -73 -11 -23 9
-33 8 -40 -1 -6 -10 -8 -9 -4 3 3 9 1 22 -4 30 -7 11 -9 10 -9 -5 0 -12 -5
-16 -16 -12 -8 3 -34 -5 -57 -17 -68 -38 -123 -13 -141 66 -5 20 -3 27 8 27 8
0 17 7 20 16 5 13 15 15 51 11 27 -4 45 -3 45 3 0 6 5 10 11 10 6 0 9 -7 5
-15 -7 -19 14 -19 40 0 10 8 32 15 48 15 28 0 29 -1 10 -15 -19 -14 -19 -14 0
-15 20 0 20 0 0 -14 -28 -21 -14 -27 34 -14 35 9 42 15 42 35 0 19 9 28 42 43
38 17 45 17 80 3 48 -19 106 -10 130 20 16 21 18 21 30 4 11 -15 13 -8 11 45
0 35 -8 96 -17 136 -9 40 -14 77 -11 81 2 5 -2 14 -10 21 -8 7 -15 19 -15 26
0 8 -4 14 -10 14 -5 0 -10 -5 -10 -11 0 -14 -18 -2 -30 22 -8 15 -8 19 2 17 7
-2 13 6 13 16 0 13 -10 22 -28 27 -23 6 -26 5 -17 -6 9 -10 7 -20 -6 -40 -15
-24 -15 -27 0 -44 9 -9 16 -23 16 -29 0 -7 10 -11 22 -9 15 1 23 -5 28 -25 9
-31 -11 -46 -30 -22 -11 12 -18 9 -49 -16 -49 -41 -50 -42 -66 -65 -14 -19
-14 -18 -5 9 12 33 4 50 -11 23 -6 -9 -17 -17 -26 -17 -13 0 -13 3 -3 15 8 10
9 15 1 15 -6 0 -13 -10 -16 -22 -5 -20 -13 -23 -59 -24 -51 -1 -53 -1 -48 23
3 16 -3 32 -18 49 -20 20 -21 24 -7 25 26 2 30 3 65 18 37 16 42 31 10 31 -31
1 -55 21 -63 53 -6 21 0 35 29 69 38 44 39 47 36 90 -1 15 6 38 14 50 24 34
20 37 -28 20 -25 -9 -42 -20 -40 -24 7 -12 -42 -28 -83 -28 -27 0 -42 8 -65
32 -16 18 -40 33 -51 35 -36 5 -47 12 -47 28 0 18 44 38 78 36 19 -1 21 3 16
23 -5 20 -2 25 18 28 21 3 23 7 20 60 -3 51 -1 58 21 73 46 30 89 30 125 0 25
-21 38 -25 67 -21 26 5 37 2 41 -9 4 -9 19 -16 38 -16 17 0 52 0 79 -1 38 -1
55 4 87 28 43 31 52 49 20 39 -11 -4 -20 -2 -20 4 0 6 -7 11 -15 11 -9 0 -15
-6 -14 -12 3 -24 -1 -38 -11 -38 -5 0 -10 9 -10 21 0 23 30 79 42 79 4 0 25
-17 47 -38z m-3433 -158 c-3 -8 -10 -14 -15 -14 -6 0 -8 7 -5 15 8 19 -10 20
-25 1 -10 -11 -10 -37 -2 -75 1 -2 8 2 16 9 20 17 41 7 47 -23 4 -23 3 -24
-25 -16 -16 5 -38 16 -48 25 -15 13 -22 14 -33 5 -10 -9 -16 -9 -21 -1 -8 12
-46 3 -58 -14 -4 -7 -9 -3 -13 11 -4 13 -11 20 -20 16 -10 -3 -14 2 -14 19 0
33 52 59 134 67 36 4 69 11 73 15 10 10 17 -20 9 -40z m-134 -99 c107 -2 148
-18 148 -58 0 -41 -76 -98 -140 -104 -19 -2 -37 -8 -40 -14 -4 -5 -27 -7 -53
-4 -51 5 -52 4 -36 -27 6 -11 13 -36 15 -56 7 -53 14 -52 14 1 0 26 5 47 10
47 6 0 10 -26 10 -59 0 -63 6 -71 58 -71 15 0 34 -5 42 -11 11 -8 -1 -9 -45
-4 -33 4 -71 8 -85 10 -140 16 -181 23 -189 31 -3 3 24 4 61 2 69 -4 87 5 62
29 -7 7 -21 13 -32 13 -11 0 -25 7 -32 15 -10 13 -9 15 8 15 12 0 24 -4 27
-10 3 -5 14 -10 24 -10 9 0 28 -10 40 -21 l23 -22 -6 22 c-3 11 -8 30 -11 40
-5 16 -12 19 -38 15 -26 -5 -39 1 -73 30 -23 19 -44 33 -47 29 -3 -3 -13 2
-22 11 -9 9 -14 16 -12 16 3 0 13 3 23 7 13 5 16 3 12 -9 -5 -11 -1 -14 18
-10 14 2 32 -2 42 -11 28 -25 59 -30 66 -11 5 13 4 14 -7 6 -10 -8 -17 -8 -24
-1 -6 6 -22 16 -34 23 -13 6 -30 25 -39 41 -8 17 -18 32 -22 33 -13 6 -9 22 6
22 7 0 20 9 27 20 19 28 87 52 124 43 17 -4 73 -7 127 -8z m580 -45 c14 -7 28
-23 31 -36 5 -27 3 -28 -24 -14 -13 7 -19 7 -19 0 0 -5 27 -23 60 -40 33 -17
60 -32 60 -35 0 -3 -18 -23 -41 -46 -31 -31 -45 -39 -62 -33 -56 18 -99 66
-78 87 6 6 11 24 11 39 0 21 -6 29 -26 34 -14 4 -23 12 -20 19 2 7 -1 18 -7
24 -30 30 52 31 115 1z m931 -31 c-3 -10 -11 -24 -19 -30 -23 -19 -16 -47 16
-64 16 -8 33 -27 36 -40 5 -22 12 -25 48 -25 42 0 42 1 40 33 l-3 32 8 -30
c14 -48 12 -59 -9 -73 -17 -10 -26 -10 -50 3 -37 19 -46 14 -65 -32 -20 -48
-18 -65 9 -85 23 -16 47 -17 94 -3 34 11 27 28 -9 20 -42 -9 -35 14 9 34 23
11 32 22 33 40 2 25 2 25 6 3 4 -21 8 -22 36 -15 49 11 110 9 114 -4 2 -7 -13
-21 -34 -32 -21 -11 -53 -36 -72 -55 -52 -55 -128 -65 -177 -25 -17 14 -29 6
-19 -11 10 -17 69 -40 101 -40 56 0 13 -12 -58 -15 -40 -3 -101 -6 -136 -8
-37 -2 -67 -9 -71 -16 -5 -8 -22 -11 -41 -9 -20 2 -35 -2 -37 -9 -3 -7 2 -13
10 -13 21 0 32 -37 16 -56 -15 -18 -54 -41 -45 -26 3 5 -5 10 -19 10 -14 0
-22 -5 -19 -10 4 -6 -4 -5 -16 2 -12 6 -24 9 -27 6 -3 -3 -12 2 -20 12 -8 9
-11 11 -7 3 4 -8 3 -12 -3 -8 -5 3 -35 7 -67 8 -43 2 -65 8 -85 25 -14 12 -30
22 -36 23 -16 3 -6 34 17 54 18 15 14 22 -13 19 -4 -1 -5 8 -2 18 3 11 10 20
15 20 5 0 6 5 3 10 -3 6 1 10 11 10 13 0 11 4 -7 20 -20 16 -21 19 -7 20 9 0
20 -4 23 -10 3 -5 15 -10 26 -10 17 0 23 -10 21 -31 -1 -3 21 -4 48 -1 51 5
109 -12 112 -32 0 -6 1 -18 2 -26 1 -8 7 -15 14 -14 33 3 35 4 24 17 -14 16
11 57 35 57 11 0 14 -8 11 -30 -4 -27 -2 -30 21 -30 23 0 26 5 28 35 1 19 9
42 17 51 21 20 21 20 -11 19 -39 0 -37 28 2 36 49 10 3 23 -55 15 -42 -6 -52
-3 -77 18 -25 22 -26 26 -13 38 9 7 22 22 30 33 11 15 7 13 -14 -5 -18 -15
-27 -19 -24 -10 2 8 32 29 66 45 34 17 62 35 62 41 0 6 13 11 30 11 16 0 38 7
48 16 10 10 31 17 46 17 26 0 27 2 23 40 -2 22 -2 41 -1 43 2 2 17 2 33 -1 22
-3 28 -8 24 -23z m518 -41 c25 -28 24 -63 -1 -81 -22 -15 -17 -27 10 -27 20 0
44 51 45 94 0 16 6 31 13 33 8 3 10 -1 5 -13 -4 -12 -3 -15 5 -10 16 10 15
-10 -1 -25 -7 -7 -11 -28 -9 -50 4 -40 14 -47 70 -52 23 -1 29 -21 13 -46 -7
-10 -21 -12 -54 -8 -49 7 -57 0 -57 -49 0 -21 4 -24 39 -24 48 0 54 -8 36 -43
-12 -24 -4 -40 9 -18 6 10 67 5 75 -7 3 -4 31 -7 61 -7 l55 0 -1 -43 c-1 -35
-6 -48 -29 -66 l-28 -23 19 -27 c17 -24 24 -26 66 -22 90 8 116 -44 51 -105
l-37 -34 19 30 c12 19 13 26 4 19 -27 -22 -70 -23 -91 -2 -10 10 -24 16 -30
12 -7 -4 -8 -3 -4 4 4 7 13 12 21 12 7 0 15 7 18 15 5 11 1 12 -18 5 -13 -5
-46 -8 -74 -7 l-49 2 21 30 c12 17 28 35 37 42 21 17 5 16 -31 -3 -17 -8 -38
-13 -46 -10 -13 5 -14 1 -9 -24 5 -28 3 -31 -25 -37 -39 -7 -24 -23 24 -26 21
-1 37 -5 37 -8 0 -9 -69 -39 -90 -39 -10 0 -31 -5 -45 -12 -21 -9 -28 -9 -34
1 -6 9 -13 5 -25 -13 l-16 -26 45 0 c33 0 50 -5 62 -20 10 -11 21 -20 25 -20
17 0 56 -43 53 -58 -2 -10 -4 -31 -4 -47 -1 -27 -6 -32 -58 -51 -49 -17 -58
-25 -65 -52 -5 -20 -5 -40 2 -51 5 -11 10 -29 10 -41 0 -12 5 -18 10 -15 6 3
10 22 10 41 0 20 8 42 19 53 10 10 20 24 23 32 2 7 9 9 17 5 9 -6 9 -11 -1
-24 -7 -10 -9 -14 -4 -10 5 4 17 3 27 -3 15 -8 19 -6 19 8 1 10 7 29 14 42
l14 25 6 -32 c3 -18 9 -45 12 -61 4 -24 9 -28 27 -23 l22 5 -23 -26 -24 -25 7
-324 c4 -177 9 -326 11 -330 3 -4 26 -4 53 -1 51 6 56 3 103 -55 14 -17 29
-22 62 -22 84 0 136 -35 136 -90 0 -32 -5 -41 -37 -62 -48 -31 -86 -44 -140
-47 -30 -1 -43 2 -43 11 -1 7 -12 26 -25 43 -23 28 -25 28 -43 11 -11 -9 -34
-18 -51 -18 -35 -1 -35 -2 -21 -28 5 -10 12 -38 15 -61 8 -79 16 -114 27 -137
17 -33 -4 -44 -76 -38 -47 3 -64 10 -90 34 -17 16 -52 36 -78 46 -49 18 -82
55 -72 80 8 20 21 20 103 1 135 -32 140 -34 147 -63 7 -26 20 -42 37 -42 12 0
8 34 -6 55 -14 21 -41 146 -39 179 0 10 -5 28 -13 40 -8 12 -16 41 -19 66 -4
44 -80 427 -92 462 -6 21 -34 24 -34 4 0 -39 -87 -61 -158 -40 -26 8 -60 17
-77 20 -37 7 -58 12 -65 14 -3 1 -8 2 -13 1 -4 -1 -12 11 -18 26 -12 32 2 44
46 41 23 -2 30 2 33 17 2 11 8 24 12 29 11 12 0 -35 -12 -51 -12 -15 24 -35
55 -31 19 3 22 8 18 43 -2 22 -4 49 -5 60 -1 11 3 26 8 34 9 12 7 13 -9 6 -11
-4 -48 -8 -82 -8 -49 1 -76 8 -136 37 -68 32 -127 82 -127 107 0 10 58 26 75
20 6 -2 24 -3 42 -3 17 1 36 -4 41 -11 8 -9 2 -12 -24 -12 -19 0 -34 3 -34 8
0 4 -4 7 -10 7 -5 0 -7 -8 -4 -17 5 -17 5 -17 -9 0 -15 18 -42 23 -52 8 -3 -5
0 -13 7 -17 6 -4 14 -2 16 5 3 8 10 5 22 -9 13 -15 19 -17 23 -8 4 8 6 7 6 -4
1 -12 6 -15 17 -11 10 4 14 1 12 -8 -2 -8 1 -14 7 -14 5 0 8 10 7 23 -2 12 1
22 6 22 11 0 22 -24 22 -50 0 -15 11 -18 62 -22 99 -7 108 -3 104 47 -2 24 -7
48 -10 54 -12 19 12 49 41 49 22 0 24 -2 12 -12 -29 -21 -3 -121 29 -109 10 4
13 2 8 -6 -4 -7 -16 -9 -27 -6 -18 6 -20 3 -17 -31 3 -39 3 -39 44 -36 23 2
45 -1 49 -7 3 -6 3 -11 -2 -11 -4 0 -21 -20 -36 -45 -16 -25 -35 -45 -43 -45
-28 0 -13 -17 19 -23 47 -7 113 6 109 23 -2 7 3 17 10 22 9 6 6 7 -9 3 -16 -4
-25 0 -33 15 -10 19 -8 23 19 33 36 13 40 42 17 117 -8 25 -17 68 -21 95 -19
130 -26 165 -34 165 -18 0 -19 -15 -5 -48 8 -19 12 -37 9 -40 -2 -3 -29 -5
-60 -6 -30 0 -55 -4 -55 -8 0 -5 -4 -8 -10 -8 -5 0 -7 25 -5 57 3 39 1 53 -5
43 -7 -11 -10 -11 -10 -2 0 7 -8 15 -17 19 -10 3 -29 15 -42 27 l-24 21 7 -28
c5 -22 4 -27 -6 -21 -7 5 -19 9 -26 10 -10 2 -11 -1 -1 -12 19 -23 -6 -16 -28
9 -26 28 -37 63 -23 72 18 11 0 24 -22 16 -12 -4 -37 -5 -54 -1 -18 4 -37 3
-42 -2 -11 -11 -39 -1 -45 16 -4 9 2 11 19 8 27 -5 76 12 115 40 16 12 48 20
90 23 35 2 77 6 92 10 23 6 34 2 57 -20 26 -25 28 -26 23 -6 -4 17 -1 21 21
21 15 0 29 -7 32 -15 7 -18 24 -20 24 -3 0 6 8 20 18 31 17 20 16 20 -33 14
-27 -4 -61 -10 -74 -13 -17 -5 -22 -3 -19 6 8 26 148 64 148 41 0 -5 16 -9 35
-8 19 1 35 4 35 8 0 4 -27 17 -60 29 -33 12 -60 27 -60 32 0 11 11 9 90 -21
30 -12 56 -21 57 -21 2 0 3 13 3 29 0 31 -14 41 -59 41 -14 0 -37 7 -50 16
-17 13 -28 14 -44 6 -12 -6 -37 -11 -54 -11 -30 0 -32 2 -22 21 8 16 8 19 -1
13 -16 -10 -30 13 -30 50 l-1 30 -19 -39 c-22 -43 -25 -60 -11 -51 5 3 12 1
16 -5 9 -14 -19 -12 -33 2 -10 10 -15 10 -20 1 -8 -13 -99 25 -121 51 -32 38
22 101 95 111 27 3 48 -1 73 -16 28 -17 45 -19 95 -14 65 6 114 -10 108 -35
-2 -7 0 -20 3 -29 5 -12 9 -10 19 9 7 15 9 32 5 41 -5 9 -5 19 -2 23 3 3 -13
6 -36 6 -25 0 -40 4 -36 10 4 6 -1 7 -11 3 -12 -4 -15 -2 -12 8 2 8 18 15 35
17 25 3 32 9 37 34 3 17 6 39 6 50 0 23 -37 57 -63 58 -27 0 -57 19 -57 34 0
7 14 16 31 20 35 7 30 26 -7 26 -39 0 -28 18 14 22 29 2 36 7 34 21 -4 23 7
22 29 -5z m-1170 -68 c9 0 24 7 35 15 46 35 76 -2 47 -59 -26 -53 -43 -66 -84
-66 -21 0 -40 -4 -43 -8 -3 -5 -40 -4 -83 0 -77 9 -132 7 -165 -7 -10 -4 -18
-3 -18 2 0 19 75 32 148 26 39 -3 72 -4 72 -2 1 2 3 21 6 42 4 23 2 37 -5 37
-21 0 -11 19 17 34 23 12 29 12 43 0 8 -8 22 -14 30 -14z m-377 -125 c35 -27
37 -30 20 -42 -10 -7 -13 -13 -6 -13 6 0 9 -7 6 -15 -5 -11 -2 -13 10 -9 9 3
16 10 16 16 0 12 129 8 137 -5 3 -5 9 -4 13 3 5 7 27 12 54 12 80 -2 87 -21
24 -67 -66 -48 -87 -57 -154 -65 -48 -6 -75 -16 -111 -42 -55 -38 -103 -47
-127 -23 -21 21 -20 51 1 64 29 16 8 23 -35 12 -31 -9 -49 -8 -82 4 -23 8 -52
15 -64 16 -11 0 -36 5 -55 12 -28 10 -36 20 -47 57 -16 54 -17 63 -4 55 6 -3
10 -16 10 -29 0 -21 3 -22 58 -18 68 5 129 -10 160 -38 15 -15 29 -19 47 -14
24 6 35 24 15 24 -5 0 -22 18 -36 40 -22 33 -24 42 -14 55 7 9 15 13 18 11 2
-3 14 0 26 6 11 7 24 12 28 13 3 0 9 3 12 6 12 12 43 2 80 -26z m3916 -11 c0
-14 -14 -33 -21 -28 -5 3 -6 -1 -4 -8 3 -8 25 -20 48 -28 39 -14 42 -17 40
-50 -2 -19 -3 -42 -4 -52 0 -9 -9 -24 -20 -34 -10 -9 -19 -24 -19 -33 0 -9 -7
-25 -15 -35 -20 -26 -10 -36 36 -36 37 0 51 -12 28 -25 -12 -8 -70 14 -81 29
-4 7 -17 1 -32 -13 -37 -35 -43 -18 -12 29 15 22 24 45 21 51 -9 14 -27 0 -21
-17 7 -19 -12 -28 -30 -13 -8 6 -17 9 -21 5 -9 -8 -43 24 -43 41 0 7 5 13 11
13 6 0 9 15 8 34 -2 19 0 38 4 42 4 4 2 13 -4 21 -17 19 7 43 42 43 16 0 29 4
29 8 0 13 -66 33 -84 26 -9 -3 -16 -1 -16 5 0 7 7 14 15 17 17 7 87 -15 97
-30 5 -7 8 -4 8 7 0 9 5 17 11 17 5 0 8 4 5 8 -3 5 1 9 9 9 8 0 15 -1 15 -3z
m-4679 -40 c24 -8 72 -16 106 -17 l63 -2 16 -40 c14 -37 14 -40 -2 -52 -31
-23 -82 -15 -149 22 -56 32 -95 38 -95 16 0 -4 -10 -12 -22 -18 -57 -25 -66
29 -13 76 41 36 39 36 96 15z m1839 -148 c0 -7 -9 -16 -20 -19 -23 -6 -27 -27
-5 -27 20 0 19 -19 -1 -27 -12 -5 -13 -7 -3 -14 8 -5 17 -3 21 4 6 9 8 9 8 -1
0 -10 9 -12 32 -6 30 6 31 5 19 -10 -8 -9 -16 -14 -19 -12 -2 3 -17 -1 -32 -9
-15 -8 -37 -11 -49 -8 -19 5 -22 11 -17 36 5 25 4 28 -9 17 -8 -7 -15 -19 -15
-27 0 -9 -6 -13 -14 -10 -7 3 -18 1 -23 -4 -5 -5 -22 1 -43 16 -19 14 -39 25
-44 25 -6 0 -2 -7 8 -15 20 -15 20 -15 0 -29 -17 -13 -20 -12 -33 12 -12 22
-11 30 4 59 19 35 61 50 111 40 14 -2 44 1 67 9 54 17 57 17 57 0z m2962 -170
c-6 -45 -11 -88 -11 -96 1 -8 -2 -40 -5 -70 -3 -30 -10 -109 -16 -174 -12
-136 -18 -168 -32 -160 -5 3 -7 12 -4 20 3 8 8 96 11 197 6 191 10 228 27 238
6 4 12 26 13 50 1 24 6 57 10 74 14 52 18 5 7 -79z m-3451 -22 c27 -14 29 -17
14 -28 -14 -10 -13 -12 10 -14 26 -2 80 -42 56 -42 -7 0 -9 -5 -5 -12 5 -7 11
-5 21 7 12 18 13 18 13 -3 0 -36 -101 -68 -155 -48 -18 7 -18 6 -2 -4 21 -13
49 -65 40 -74 -15 -15 51 -4 87 14 22 11 52 20 67 20 34 0 73 -25 73 -46 0 -8
4 -13 9 -10 5 3 7 15 4 27 -5 18 -2 20 28 17 38 -3 49 -26 24 -51 -8 -9 -15
-33 -15 -54 0 -58 -9 -78 -41 -97 -25 -15 -29 -15 -29 -2 0 9 -11 18 -25 22
-27 7 -33 20 -12 27 6 2 9 8 5 12 -4 4 -19 0 -33 -9 -19 -12 -30 -14 -44 -7
-15 9 -20 7 -24 -9 -3 -14 1 -21 17 -25 45 -13 66 -29 76 -61 19 -56 -12 -92
-81 -98 -24 -2 -57 -11 -74 -20 -36 -19 -84 -20 -107 -2 -22 16 -23 26 -3 26
8 0 15 5 15 10 0 6 9 10 20 10 28 0 25 27 -8 59 -19 19 -43 30 -75 35 -26 4
-47 11 -47 15 0 4 -14 23 -32 41 -29 31 -32 32 -44 15 -8 -10 -17 -15 -21 -12
-4 4 17 29 46 56 47 43 52 53 56 97 5 58 38 94 87 94 25 0 28 2 19 14 -10 11
-9 21 3 45 9 16 16 36 16 44 0 15 19 37 32 37 5 0 23 -7 39 -16z m-393 -38
c35 -8 41 -26 17 -50 -10 -10 -12 -17 -4 -21 6 -4 15 -3 21 3 10 10 108 -43
108 -59 0 -4 -17 -11 -37 -14 -21 -3 -61 -12 -89 -20 -67 -20 -80 -20 -64 0 6
8 9 19 6 24 -4 5 -2 12 4 16 18 11 10 23 -12 17 -18 -4 -20 -2 -15 18 5 20 4
21 -8 9 -12 -11 -13 -22 -4 -52 12 -43 4 -59 -42 -83 -37 -19 -113 -18 -129 1
-7 8 -20 15 -29 15 -14 -1 -14 -2 2 -14 13 -10 15 -15 5 -18 -11 -4 -11 -8 0
-20 9 -11 10 -18 2 -23 -12 -8 -24 19 -17 39 3 8 3 17 0 20 -3 3 -7 19 -8 36
-3 28 2 33 52 58 50 25 73 51 37 44 -21 -4 -17 25 6 48 32 32 120 44 198 26z
m1565 -162 c21 -7 35 -9 32 -3 -7 11 38 3 67 -12 23 -12 48 -11 48 1 0 10 -56
27 -72 22 -5 -1 -8 4 -8 12 0 12 7 12 43 -2 56 -21 77 -40 77 -71 0 -18 -3
-22 -11 -14 -9 9 -17 6 -32 -8 -12 -11 -36 -20 -56 -20 -20 -1 -43 -2 -51 -3
-8 -1 -22 5 -32 12 -9 7 -27 12 -40 10 -23 -3 -23 -1 -24 87 -1 107 9 145 16
61 5 -58 6 -59 43 -72z m1490 86 c7 0 33 -18 57 -40 44 -40 46 -41 115 -39
101 4 145 -27 145 -102 0 -53 -8 -68 -49 -88 -46 -23 -161 -36 -161 -18 0 7
-9 19 -20 27 -14 10 -18 21 -13 39 6 24 5 25 -13 11 -10 -8 -23 -20 -29 -26
-16 -19 -53 -23 -66 -8 -6 8 -18 14 -25 14 -8 0 -32 16 -54 36 -22 20 -38 30
-35 22 4 -9 -4 -19 -20 -26 -14 -7 -25 -20 -25 -31 0 -11 -9 -23 -20 -26 -11
-3 -20 -11 -20 -16 0 -6 -9 -7 -20 -4 -12 4 -26 2 -33 -3 -19 -14 -56 -21 -63
-11 -3 5 -1 9 3 9 5 0 22 21 38 46 22 35 42 52 85 71 52 24 57 30 69 72 6 25
13 54 14 63 1 9 4 15 8 13 3 -3 15 2 25 10 10 8 31 15 47 15 19 0 27 5 28 18
0 13 2 12 9 -5 5 -13 15 -23 23 -23z m552 -50 c-3 -11 1 -20 11 -24 14 -5 14
-9 3 -23 -11 -12 -13 -53 -11 -182 2 -91 1 -163 -3 -159 -4 3 -7 9 -6 12 0 3
-5 20 -10 38 -5 18 -9 74 -10 123 0 118 -3 127 -47 150 -29 16 -37 26 -37 48
-1 16 3 31 7 33 4 3 8 -4 8 -14 0 -13 9 -22 24 -26 35 -9 56 3 56 31 0 14 4
22 10 18 6 -4 8 -15 5 -25z m-2743 -68 c21 -9 29 -8 38 4 19 22 71 17 103 -11
l27 -24 -22 -26 c-24 -28 -78 -35 -78 -10 0 9 -6 12 -16 8 -8 -3 -13 -11 -11
-17 3 -6 -7 -11 -24 -12 -16 -1 -26 3 -23 7 3 5 0 9 -5 9 -6 0 -11 -5 -11 -11
0 -6 -6 -9 -12 -6 -7 2 -12 9 -11 14 1 5 -7 15 -19 22 -15 9 -18 10 -13 0 5
-8 4 -10 -3 -5 -17 10 -15 41 3 56 13 11 13 15 3 22 -10 6 -10 10 2 18 11 7
19 4 30 -8 8 -10 27 -23 42 -30z m1716 -17 c24 -4 46 -13 49 -21 3 -9 14 -12
32 -8 25 6 25 6 9 -11 -23 -25 -81 -32 -163 -20 -106 15 -124 35 -55 62 22 9
40 20 40 26 0 5 10 3 23 -6 12 -8 42 -18 65 -22z m-2414 -156 c6 -5 1 -20 -12
-39 -35 -46 -28 -60 20 -41 45 18 68 23 68 16 0 -3 -2 -4 -4 -2 -2 1 -12 -5
-22 -14 -11 -9 -28 -19 -40 -23 -13 -4 -20 -14 -20 -29 1 -18 -5 -22 -37 -25
-26 -2 -39 1 -43 12 -11 29 -23 6 -19 -39 2 -25 -1 -47 -6 -50 -16 -10 -10
-25 7 -18 14 5 14 3 -2 -15 -9 -12 -21 -19 -25 -16 -4 2 -28 -5 -54 -16 l-47
-20 -46 22 c-25 13 -47 31 -50 41 -9 33 -20 17 -15 -23 4 -28 0 -47 -11 -66
-17 -25 -17 -25 2 -15 11 6 23 16 25 23 4 8 8 4 12 -9 4 -13 13 -23 21 -23 7
0 16 -5 20 -12 5 -8 0 -9 -14 -6 -22 6 -30 -6 -12 -17 10 -6 7 -66 -5 -85 -7
-12 -25 -4 -25 11 0 6 5 7 11 3 8 -4 7 0 -1 15 -6 12 -10 29 -9 39 4 42 -1 53
-20 47 -23 -7 -37 11 -22 28 7 9 6 25 -4 52 -20 56 -19 86 1 78 10 -4 24 4 39
21 12 14 27 26 34 26 6 0 11 5 11 10 0 6 6 10 14 10 7 0 20 7 27 16 13 16 17
28 21 76 2 24 15 39 34 37 4 0 10 4 13 9 15 24 162 33 185 11z m2474 -20 c-9
-6 -6 -13 10 -27 12 -11 22 -24 22 -30 0 -12 32 -11 42 2 4 6 13 4 22 -3 13
-11 16 -11 16 2 0 8 -7 17 -15 21 -17 6 -21 36 -4 36 6 0 17 -7 25 -15 23 -23
35 -18 28 10 -3 14 -2 25 3 25 5 0 15 -29 23 -64 12 -57 16 -65 39 -69 14 -2
35 -8 45 -12 17 -8 17 -6 -2 13 -27 27 -28 46 -2 72 25 25 34 25 86 1 30 -14
45 -16 53 -8 21 21 22 -3 3 -77 l-20 -76 46 0 c43 0 44 1 29 18 -15 17 -15 22
0 75 16 53 33 75 33 43 0 -7 12 -35 26 -62 l26 -48 -22 -18 c-20 -16 -20 -18
-4 -18 11 0 32 -7 47 -15 30 -16 61 -10 53 10 -3 8 2 16 10 19 8 3 14 12 14
20 0 8 8 20 18 25 10 6 12 11 4 11 -7 0 -25 -12 -39 -26 l-27 -27 -29 34 c-42
49 -54 70 -60 106 -7 38 -1 41 91 49 l67 5 20 -32 c15 -25 31 -36 68 -45 26
-7 63 -24 81 -38 34 -26 42 -47 50 -149 2 -34 1 -37 -18 -31 -19 6 -19 5 -7
-10 30 -35 -41 -58 -135 -44 -96 15 -108 12 -188 -51 -27 -22 -55 -37 -61 -34
-7 2 -16 0 -20 -6 -10 -18 -73 -13 -83 6 -14 24 6 63 32 64 12 0 1 6 -23 14
-24 7 -51 22 -61 32 -9 11 -44 25 -76 32 -76 16 -116 31 -131 51 -21 27 -25 3
-12 -74 6 -42 9 -79 6 -82 -4 -5 -25 97 -32 162 -2 12 -8 30 -13 41 -6 11 -11
28 -11 39 0 37 -6 64 -14 64 -4 0 -23 6 -42 14 -38 16 -52 7 -35 -24 9 -16 8
-20 -5 -20 -8 0 -15 -6 -15 -14 0 -17 -72 -48 -127 -53 -48 -5 -85 22 -77 54
3 11 -2 25 -10 32 -22 18 -20 44 4 66 25 22 141 22 174 0 11 -8 27 -15 35 -15
11 0 10 4 -4 20 -21 23 -13 50 14 50 11 0 23 5 26 11 5 7 14 4 26 -7 15 -13
16 -19 7 -25z m1345 -44 c33 -14 77 -57 77 -77 0 -5 -8 -11 -17 -15 -37 -13
-63 -46 -63 -80 0 -42 -19 -43 -60 -2 -30 31 -31 31 -51 13 -16 -15 -20 -27
-16 -57 4 -30 1 -40 -16 -52 -28 -19 -110 -19 -147 0 -48 25 -80 85 -45 85 26
0 95 32 89 41 -3 6 -15 7 -26 4 -19 -7 -19 -6 -4 23 19 37 71 70 117 76 20 2
33 9 31 16 -9 39 65 53 131 25z m314 -77 c15 -19 7 -47 -19 -68 -13 -11 -28
-24 -35 -30 -7 -5 -20 -7 -30 -4 -10 3 2 -13 27 -35 43 -39 44 -42 22 -47 -33
-9 -22 -27 25 -40 39 -11 40 -11 57 17 9 16 21 29 26 29 8 0 19 -38 25 -86 5
-46 15 -37 15 14 0 29 5 52 12 54 7 3 5 13 -7 31 -17 27 -17 28 1 48 19 21 19
21 26 -37 4 -33 10 -90 12 -127 3 -38 8 -78 12 -89 3 -11 10 -43 14 -72 4 -28
24 -114 43 -191 30 -120 45 -207 47 -277 0 -9 7 -24 16 -32 12 -13 12 -16 2
-16 -10 0 -14 -17 -16 -62 -3 -99 -11 -152 -44 -308 -32 -154 -34 -160 -49
-160 -5 0 -2 14 6 30 9 17 14 34 11 39 -3 4 -1 23 4 42 6 19 12 55 15 80 3 25
8 56 11 70 13 56 14 348 2 439 -22 164 -33 109 -34 -178 -1 -147 -2 -280 -3
-297 -2 -26 -4 -27 -10 -10 -5 11 -8 136 -7 278 1 142 -1 260 -5 263 -4 2 -9
-4 -11 -13 -2 -10 -10 50 -17 134 -7 83 -10 156 -6 163 4 6 -5 23 -19 37 -14
14 -30 40 -35 57 l-8 31 -20 -45 c-24 -52 -54 -83 -102 -103 -62 -26 -130 13
-131 74 0 40 -36 79 -73 80 -18 1 -43 4 -57 9 -23 7 -23 8 -6 15 16 7 17 15
12 65 -6 55 -6 57 29 93 23 23 33 42 28 50 -15 24 -12 47 6 57 28 15 51 12 51
-5 0 -18 44 -65 60 -65 6 0 -1 10 -16 23 -24 21 -25 24 -9 37 15 12 16 12 13
-6 -2 -15 4 -20 26 -22 19 -2 26 0 21 8 -4 6 -16 8 -26 5 -18 -6 -19 -5 -7 14
14 23 24 26 33 11 9 -15 25 -12 25 5 0 14 12 19 33 16 4 0 7 4 7 9 0 14 16 12
27 -2z m-4543 -126 c22 -79 22 -80 -24 -80 -21 0 -60 -10 -86 -21 -58 -26
-134 -28 -164 -3 -18 15 -20 21 -11 45 6 15 7 27 2 27 -5 0 -11 -7 -15 -15 -3
-8 -16 -15 -28 -15 -21 0 -20 4 16 35 30 27 47 35 77 35 22 0 47 -4 57 -9 41
-20 82 -29 82 -18 0 12 59 75 71 76 4 1 14 -25 23 -57z m2247 -56 c13 -13 33
-25 44 -27 31 -6 31 -50 -1 -88 -51 -61 -117 -78 -150 -38 -10 12 -12 16 -4
10 20 -18 65 -16 84 3 22 21 20 27 -9 41 -14 6 -23 7 -20 2 4 -5 -9 -6 -27 -3
-56 10 -87 65 -53 94 8 7 13 16 10 20 -2 4 20 8 49 9 44 1 58 -3 77 -23z m294
-105 c-3 -5 -2 -11 3 -13 4 -1 25 -48 46 -103 21 -55 83 -191 137 -302 54
-111 99 -206 99 -211 0 -5 12 -31 26 -56 16 -28 23 -51 17 -57 -5 -5 -26 29
-53 84 -24 50 -59 118 -77 150 -18 32 -31 62 -28 67 3 5 0 12 -6 16 -12 7 -99
188 -99 206 0 5 -6 24 -14 41 -38 85 -83 253 -55 204 6 -9 8 -21 4 -26z
m-2075 -42 c0 -6 5 -7 10 -4 12 8 50 -3 50 -14 0 -5 -13 -11 -30 -14 -41 -9
-38 -27 5 -23 23 1 41 11 54 28 11 14 30 28 42 31 28 7 59 -25 59 -62 0 -35
-55 -108 -88 -117 -29 -8 -70 12 -68 34 0 9 -7 18 -16 20 -13 2 -18 -3 -18
-19 0 -12 -3 -19 -7 -16 -3 4 -12 2 -19 -4 -36 -30 -121 32 -97 70 7 11 8 23
2 34 -17 29 15 75 53 79 36 4 68 -7 68 -23z m407 18 c-4 -10 3 -12 24 -9 16 2
27 7 25 11 -2 3 29 7 70 8 66 1 74 -1 74 -17 0 -25 -21 -70 -32 -70 -5 0 -6 5
-3 10 8 13 -4 50 -16 50 -20 0 -64 -64 -55 -79 3 -4 -7 -14 -21 -20 -15 -7
-33 -21 -40 -31 -41 -58 -179 -13 -199 65 -8 32 12 74 41 86 11 4 46 8 79 8
44 1 57 -2 53 -12z m388 -117 c8 -7 15 -27 15 -44 0 -38 -31 -60 -100 -70 -53
-8 -76 -23 -89 -60 -6 -14 -21 -30 -33 -35 -30 -11 -116 -2 -150 15 -33 17
-47 60 -27 79 19 17 66 27 74 16 3 -6 15 -8 28 -5 12 3 38 7 57 9 32 5 80 45
80 69 0 4 7 6 15 2 8 -3 15 0 15 7 0 37 78 48 115 17z m2563 -137 c-4 -37 -15
-117 -23 -178 -8 -60 -17 -128 -20 -150 -19 -171 -51 -375 -58 -375 -11 0 -2
134 20 280 22 147 31 223 38 310 3 41 10 77 14 80 5 3 12 29 16 58 4 28 10 50
14 47 4 -2 4 -35 -1 -72z m-3410 22 c12 -14 20 -30 17 -35 -4 -6 16 -9 52 -8
68 2 97 -11 119 -54 27 -52 5 -112 -49 -131 -10 -4 -39 -2 -65 4 -36 8 -57 21
-88 54 l-40 44 -72 -6 c-61 -5 -75 -3 -92 12 -26 24 -27 86 -2 108 57 52 177
58 220 12z m2917 15 c3 -5 20 -10 37 -10 22 0 41 -11 69 -39 42 -41 50 -79 24
-101 -13 -11 -15 -32 -11 -124 5 -113 -4 -90 -19 47 l-6 57 -38 0 c-20 0 -43
-6 -50 -12 -10 -11 -15 -9 -26 6 -12 16 -17 17 -30 6 -9 -8 -15 -8 -15 -2 0 6
-16 28 -35 49 -53 57 -47 93 20 117 48 18 72 19 80 6z m-100 -231 c1 -46 8
-97 14 -113 6 -16 9 -31 6 -34 -3 -4 -8 4 -12 17 -4 14 -11 20 -20 17 -8 -3
-23 -6 -34 -6 -11 0 -19 -7 -20 -17 -1 -17 -2 -17 -6 -1 -2 10 -18 20 -39 24
-19 3 -34 10 -34 15 0 5 -7 9 -15 9 -18 0 -65 29 -65 40 0 4 11 12 25 18 17 8
25 20 26 39 l2 28 4 -28 c4 -25 8 -28 29 -23 15 4 42 -1 69 -13 31 -14 45 -16
46 -8 1 7 2 30 3 52 6 108 16 100 21 -16z m-4420 -39 c-4 -6 2 -25 13 -43 11
-17 27 -56 36 -84 13 -47 13 -53 0 -53 -8 0 -13 4 -10 9 3 5 -22 6 -58 4 -55
-5 -66 -3 -85 16 -33 33 -27 56 25 86 25 14 50 37 56 51 6 13 15 24 20 24 5 0
6 -5 3 -10z m529 -107 c57 -114 103 -227 136 -335 13 -43 27 -78 32 -78 4 0 5
-6 2 -14 -3 -8 0 -31 6 -53 19 -66 48 -233 40 -233 -16 0 -27 29 -39 105 -21
137 -97 415 -113 415 -4 0 -8 6 -8 14 0 12 -78 186 -111 248 -11 22 -11 28 -1
28 4 0 29 -44 56 -97z m3181 87 c-3 -5 -15 -10 -25 -10 -16 0 -21 -10 -26 -51
-8 -60 -29 -85 -78 -95 -45 -8 -95 19 -118 65 -16 33 -15 61 4 61 5 0 7 -3 4
-8 -2 -4 2 -16 10 -27 13 -17 16 -18 24 -5 6 9 10 11 10 3 0 -7 7 -10 15 -7
11 4 15 -1 15 -17 0 -18 3 -21 9 -10 6 9 6 24 0 38 -5 14 -9 32 -8 41 0 10 5
5 11 -11 6 -18 16 -27 27 -24 9 2 15 8 14 15 -2 7 4 9 14 5 12 -5 14 -3 8 7
-5 8 -4 11 3 6 5 -3 13 0 15 6 4 9 6 9 6 1 1 -6 -7 -19 -16 -29 -13 -13 -14
-16 -3 -13 8 3 21 20 29 37 11 23 21 32 38 32 14 0 21 -4 18 -10z m1750 -167
c-4 -10 -9 -31 -12 -48 -3 -16 -10 -38 -15 -49 -6 -10 -12 -31 -15 -46 -3 -25
0 -29 27 -35 43 -9 65 -46 52 -85 -10 -27 -9 -30 9 -30 10 0 19 -7 19 -15 0
-17 -5 -18 -29 -6 -19 11 -50 -3 -37 -16 4 -4 34 -8 67 -9 33 0 64 -5 70 -11
13 -13 -123 -16 -181 -4 -25 5 -81 14 -125 20 -102 13 -157 29 -149 43 3 5 19
8 35 6 34 -5 35 -2 13 41 -16 31 -15 34 3 59 27 37 54 38 108 6 44 -26 46 -26
60 -8 8 11 14 14 15 7 0 -23 20 -14 20 9 0 19 44 160 57 181 9 14 15 7 8 -10z
m-4383 -379 c27 -14 72 -22 133 -23 22 -1 55 -47 55 -78 0 -39 -78 -79 -131
-68 -22 5 -29 15 -38 51 -10 39 -14 43 -30 34 -11 -5 -27 -7 -36 -4 -9 4 -15
3 -14 -2 4 -21 -2 -34 -14 -34 -7 0 -21 6 -30 13 -15 11 -13 16 18 52 53 61
54 62 48 69 -11 11 8 6 39 -10z"/>
<path d="M2991 1745 c1 -34 13 -55 39 -68 31 -15 39 -61 15 -87 -16 -18 -15
-28 13 -172 17 -84 36 -183 43 -220 9 -48 16 -65 24 -58 8 7 9 31 4 82 -5 40
-11 179 -15 308 l-6 235 -59 0 c-53 0 -59 -2 -58 -20z"/>
<path d="M1115 4053 c27 -7 55 -33 66 -60 11 -29 33 -31 24 -3 -6 19 -4 19 52
-5 32 -14 62 -30 67 -35 13 -13 46 7 46 29 0 10 -7 24 -15 31 -8 7 -15 19 -15
26 0 8 6 11 15 8 8 -4 15 -2 15 3 0 6 -56 10 -137 11 -76 0 -129 -2 -118 -5z"/>
<path d="M5113 4048 c7 -21 -23 -29 -66 -17 -44 12 -46 12 -40 -12 5 -19 4
-20 -15 -8 -26 16 -44 2 -19 -15 9 -7 17 -18 17 -24 0 -12 -74 -52 -96 -52 -7
0 -14 -28 -19 -77 -3 -43 -8 -89 -10 -103 -5 -27 11 -39 95 -73 19 -8 49 -26
65 -41 17 -14 33 -26 38 -26 17 0 5 -31 -15 -41 -26 -11 -34 -58 -17 -90 8
-17 6 -19 -22 -19 -28 0 -30 -2 -18 -17 10 -11 10 -14 2 -9 -7 4 -13 3 -13 -3
0 -6 20 -10 45 -9 30 0 45 5 45 13 0 8 -6 16 -12 18 -7 3 4 6 24 6 l37 1 -15
35 c-8 20 -14 50 -14 68 1 18 -2 45 -6 61 -5 20 -4 27 4 22 6 -4 16 -26 22
-49 17 -66 41 -150 50 -172 4 -11 13 -33 19 -48 13 -34 14 -47 2 -47 -5 0 -12
15 -15 34 -9 47 -41 85 -66 79 -27 -7 -25 -22 4 -33 33 -12 41 -29 23 -47 -13
-13 -12 -17 9 -38 17 -17 24 -35 24 -64 0 -34 2 -38 20 -34 11 3 20 12 20 19
0 16 16 19 24 5 4 -5 18 -6 34 -2 l27 8 -3 86 c-2 73 0 87 13 87 11 0 15 -11
16 -42 0 -24 1 -61 2 -82 l2 -40 50 -3 c28 -2 65 -3 83 -3 24 0 43 -10 75 -39
36 -33 47 -38 76 -33 27 4 37 0 55 -21 22 -28 76 -47 76 -28 0 6 11 11 25 11
15 0 25 -6 25 -14 0 -15 -30 -44 -30 -30 0 11 -20 -18 -20 -28 0 -17 39 -6 53
15 23 33 51 12 57 -44 4 -32 9 -44 22 -44 24 0 29 -8 33 -56 26 -289 34 -329
59 -329 28 0 54 -47 50 -90 l-4 -40 40 0 c22 0 40 -4 40 -9 0 -5 -58 -6 -131
-3 -110 4 -131 3 -127 -9 6 -17 110 -30 188 -23 107 10 105 11 108 -14 2 -13
-5 -33 -15 -45 -18 -20 -17 -20 2 -12 11 4 46 10 78 13 31 2 57 7 57 10 0 2
-8 11 -17 19 -15 12 -16 14 -2 10 14 -5 17 7 18 94 1 55 -3 114 -8 132 -6 18
-22 73 -36 122 -35 119 -73 238 -97 303 -15 41 -24 52 -41 52 -41 0 -97 -21
-107 -40 -6 -11 -16 -17 -25 -14 -10 4 -15 0 -15 -14 0 -26 -20 -41 -44 -32
-14 4 -16 9 -8 14 20 12 14 57 -8 63 -34 9 -22 21 25 29 26 3 49 13 55 23 5 9
10 13 10 9 0 -4 12 -1 27 7 15 8 39 11 56 8 l29 -6 -23 41 -24 41 -22 -21
c-46 -43 -203 -54 -203 -13 0 9 -19 4 -59 -18 -60 -31 -85 -31 -65 1 6 9 30
20 52 24 74 12 84 28 14 21 -52 -5 -66 -3 -82 12 -25 23 -25 55 0 88 17 21 18
30 9 56 -12 33 -29 33 -29 -1 0 -18 -4 -20 -36 -15 -25 4 -44 1 -61 -10 -23
-15 -29 -15 -96 7 -82 26 -132 61 -114 79 8 8 3 11 -19 11 -16 0 -35 5 -42 12
-19 19 -23 6 -27 -88 -2 -49 -4 -91 -5 -93 0 -3 -5 0 -10 5 -6 6 -11 57 -10
120 0 138 0 125 -6 220 -4 57 -2 89 7 105 l13 24 9 -34 8 -34 22 25 c51 60
147 59 147 -1 0 -20 7 -31 25 -39 51 -23 25 -53 -57 -67 -33 -5 -38 -10 -44
-40 -7 -40 0 -55 26 -55 10 0 37 -18 60 -40 45 -43 67 -52 50 -20 -8 14 -8 26
0 41 11 19 17 20 79 14 57 -6 69 -4 74 9 9 23 34 19 42 -6 4 -13 8 -25 9 -28
1 -3 8 -16 15 -29 7 -13 14 -37 15 -51 2 -39 80 -104 114 -95 21 5 23 4 14 -8
-17 -20 -5 -27 32 -20 45 8 56 23 17 23 -19 0 -30 4 -26 10 3 6 27 10 53 9
103 -3 118 4 102 46 -13 35 -6 62 13 47 8 -7 18 -7 27 -2 8 6 37 10 64 10 56
0 59 6 6 11 -34 4 -75 39 -53 46 5 2 19 10 29 18 18 14 18 14 -4 30 -40 29
-12 44 79 41 l79 -3 0 108 c0 104 -1 107 -23 113 -35 8 -77 45 -77 66 0 11 8
24 18 29 14 9 14 12 4 20 -20 12 -11 43 15 57 l23 11 -30 22 c-17 12 -30 28
-30 36 0 12 -15 15 -66 15 l-67 0 28 -22 c27 -21 27 -22 6 -29 -29 -11 -26
-35 7 -64 25 -22 25 -25 7 -26 -11 -1 -23 -1 -27 0 -9 1 -15 -24 -26 -99 -8
-61 -27 -70 -26 -12 1 35 -1 37 -32 39 -34 2 -94 28 -106 47 -12 17 -9 91 3
103 5 5 7 22 3 37 l-6 26 -142 -1 c-92 -1 -123 -4 -89 -8 37 -5 56 -13 70 -30
18 -22 20 -22 35 -7 22 21 28 20 28 -4 0 -10 8 -24 18 -29 10 -7 12 -11 4 -11
-9 0 -7 -9 7 -29 40 -55 19 -88 -66 -104 -37 -7 -46 2 -45 45 1 27 -2 29 -25
23 -24 -6 -25 -5 -18 34 6 34 3 41 -15 51 -33 18 -112 40 -143 40 -15 0 -41 7
-58 16 -44 22 -192 18 -222 -7 -21 -17 -21 -18 -2 -19 15 0 16 -3 7 -12 -15
-15 -16 -48 -2 -49 35 -5 80 -28 80 -41 0 -7 11 -18 25 -25 l25 -11 0 84 c0
63 3 84 13 84 8 0 14 -8 14 -17 -1 -104 4 -163 14 -160 24 5 18 -20 -7 -32
-19 -8 -25 -17 -21 -31 3 -11 1 -20 -3 -20 -15 0 -17 35 -3 51 12 15 11 16
-13 11 -19 -3 -25 -1 -20 7 4 6 1 11 -6 11 -12 0 -24 -12 -75 -78 -18 -23 -53
-23 -53 0 0 5 -9 21 -20 35 -25 32 -25 57 0 97 25 41 23 75 -3 70 -11 -2 -27
1 -36 6 -15 9 -15 9 0 10 9 0 22 7 29 15 11 13 11 18 0 28 -10 10 -12 9 -7 -5z
m357 -154 c26 -10 52 -14 75 -10 29 6 36 3 50 -18 19 -29 11 -72 -16 -87 -31
-16 -92 -7 -123 18 -22 18 -29 34 -32 68 -2 25 -1 45 1 45 3 0 23 -7 45 -16z"/>
<path d="M6191 3387 c-21 -12 -36 -17 -38 -10 -2 6 -18 8 -42 3 -22 -4 -46 -3
-55 2 -12 7 -16 4 -16 -12 0 -17 7 -20 48 -21 48 -1 48 -3 0 -13 -16 -4 -27
-10 -27 -14 3 -21 -2 -42 -11 -42 -5 0 -9 10 -7 23 2 17 -4 23 -25 25 -35 4
-35 -2 0 -54 15 -23 35 -56 44 -74 10 -17 22 -29 26 -26 5 3 24 1 43 -4 29 -9
36 -7 52 11 l17 21 0 -26 c0 -20 5 -26 20 -26 18 0 20 6 18 40 -1 32 -6 40
-21 40 -12 0 -16 4 -10 13 27 41 46 168 26 166 -5 0 -23 -10 -42 -22z"/>
<path d="M5786 2932 c-3 -5 8 -12 24 -16 42 -8 47 -30 16 -71 -30 -38 -64 -45
-125 -24 -42 15 -61 -1 -61 -50 l1 -36 20 38 c11 20 26 37 34 37 16 0 37 -33
34 -53 -3 -28 2 -48 11 -42 6 3 10 -1 10 -9 0 -9 -6 -16 -12 -16 -10 0 -10 -2
-1 -8 6 -4 13 -25 15 -46 2 -27 8 -40 19 -42 9 -1 26 -5 38 -9 22 -7 30 9 9
19 -7 3 -4 4 7 3 11 -2 19 -8 18 -15 -2 -9 3 -9 22 0 25 11 34 28 15 28 -7 0
-7 6 0 19 5 11 10 35 10 53 0 50 -27 219 -37 228 -14 14 -60 22 -67 12z"/>
<path d="M5652 2423 c2 -37 -7 -162 -18 -255 l-6 -47 49 -6 c26 -3 59 -7 71
-9 13 -2 38 3 54 12 17 8 41 16 52 16 12 1 47 8 78 15 43 10 61 11 71 3 8 -7
29 -9 50 -5 33 5 37 9 37 34 0 20 10 36 36 56 20 15 44 35 55 43 10 8 21 29
24 45 6 29 6 29 -9 11 -9 -11 -16 -28 -16 -37 0 -17 -3 -17 -34 -4 -30 13 -41
13 -83 0 -100 -31 -173 -12 -173 45 0 38 -48 73 -102 74 l-40 1 0 -145 c0
-161 -11 -142 -23 40 -7 97 -10 107 -34 127 -36 31 -42 29 -39 -14z"/>
</g>
</svg>
