<svg width="15" height="16" viewBox="0 0 15 16" fill="none" xmlns="http://www.w3.org/2000/svg">
<path d="M12.5 7.33265H13.75C13.75 3.91265 11.3294 1.33331 8.11874 1.33331V2.66665C10.6575 2.66665 12.5 4.62865 12.5 7.33265Z" fill="#FF5E00"/>
<path d="M8.12499 5.33333C9.43937 5.33333 9.99999 5.93133 9.99999 7.33333H11.25C11.25 5.18333 10.1406 4 8.12499 4V5.33333ZM10.2637 8.962C10.1436 8.84556 9.98583 8.78347 9.82362 8.78882C9.66141 8.79417 9.50749 8.86654 9.39437 8.99066L7.89874 10.6313C7.53874 10.558 6.81499 10.3173 6.06999 9.52466C5.32499 8.72933 5.09937 7.95533 5.03249 7.574L6.56937 5.978C6.68588 5.85742 6.75383 5.69321 6.75884 5.52013C6.76386 5.34706 6.70555 5.17869 6.59624 5.05066L4.28687 2.342C4.17752 2.21357 4.02554 2.13567 3.86321 2.12484C3.70088 2.11401 3.54099 2.1711 3.41749 2.284L2.06124 3.52466C1.95319 3.64034 1.88869 3.7943 1.87999 3.95733C1.87062 4.124 1.69187 8.072 4.56187 11.1347C7.06562 13.8047 10.2019 14 11.0656 14C11.1919 14 11.2694 13.996 11.29 13.9947C11.4428 13.9855 11.5871 13.9164 11.695 13.8007L12.8575 12.3533C12.9634 12.2217 13.017 12.0512 13.007 11.878C12.997 11.7049 12.9241 11.5427 12.8037 11.426L10.2637 8.962Z" fill="#FF5E00"/>
</svg>
