<svg width="67" height="12" viewBox="0 0 67 12" fill="none" xmlns="http://www.w3.org/2000/svg">
<path d="M6.509 1.21117L7.48571 3.1646C7.6189 3.43653 7.97407 3.69735 8.27374 3.7473L10.044 4.04142C11.1761 4.23011 11.4425 5.05144 10.6267 5.86167L9.25046 7.23795C9.01738 7.47103 8.88974 7.92054 8.96188 8.24241L9.3559 9.94611C9.66667 11.2946 8.95079 11.8163 7.75764 11.1115L6.09833 10.1292C5.79866 9.95166 5.30475 9.95166 4.99953 10.1292L3.34022 11.1115C2.15262 11.8163 1.43118 11.2891 1.74196 9.94611L2.13597 8.24241C2.20812 7.92054 2.08048 7.47103 1.8474 7.23795L0.471117 5.86167C-0.339113 5.05144 -0.0782856 4.23011 1.05382 4.04142L2.82411 3.7473C3.11824 3.69735 3.47341 3.43653 3.6066 3.1646L4.58331 1.21117C5.11607 0.151209 5.98179 0.151209 6.509 1.21117Z" fill="#EDE221" stroke="black" stroke-opacity="0.5" stroke-width="0.832428" stroke-linecap="round" stroke-linejoin="round"/>
<path d="M20.2245 1.21117L21.2013 3.1646C21.3344 3.43653 21.6896 3.69735 21.9893 3.7473L23.7596 4.04142C24.8917 4.23011 25.1581 5.05144 24.3423 5.86167L22.966 7.23795C22.7329 7.47103 22.6053 7.92054 22.6774 8.24241L23.0714 9.94611C23.3822 11.2946 22.6663 11.8163 21.4732 11.1115L19.8139 10.1292C19.5142 9.95166 19.0203 9.95166 18.7151 10.1292L17.0558 11.1115C15.8682 11.8163 15.1467 11.2891 15.4575 9.94611L15.8515 8.24241C15.9237 7.92054 15.796 7.47103 15.5629 7.23795L14.1867 5.86167C13.3764 5.05144 13.6373 4.23011 14.7694 4.04142L16.5397 3.7473C16.8338 3.69735 17.189 3.43653 17.3221 3.1646L18.2989 1.21117C18.8316 0.151209 19.6973 0.151209 20.2245 1.21117Z" fill="#EDE221" stroke="black" stroke-opacity="0.5" stroke-width="0.832428" stroke-linecap="round" stroke-linejoin="round"/>
<path d="M33.9401 1.21117L34.9168 3.1646C35.05 3.43653 35.4052 3.69735 35.7049 3.7473L37.4752 4.04142C38.6073 4.23011 38.8736 5.05144 38.0579 5.86167L36.6816 7.23795C36.4485 7.47103 36.3209 7.92054 36.393 8.24241L36.787 9.94611C37.0978 11.2946 36.3819 11.8163 35.1888 11.1115L33.5295 10.1292C33.2298 9.95166 32.7359 9.95166 32.4306 10.1292L30.7713 11.1115C29.5837 11.8163 28.8623 11.2891 29.1731 9.94611L29.5671 8.24241C29.6392 7.92054 29.5116 7.47103 29.2785 7.23795L27.9022 5.86167C27.092 5.05144 27.3528 4.23011 28.4849 4.04142L30.2552 3.7473C30.5494 3.69735 30.9045 3.43653 31.0377 3.1646L32.0144 1.21117C32.5472 0.151209 33.4129 0.151209 33.9401 1.21117Z" fill="#EDE221" stroke="black" stroke-opacity="0.5" stroke-width="0.832428" stroke-linecap="round" stroke-linejoin="round"/>
<path d="M47.6557 1.21117L48.6324 3.1646C48.7656 3.43653 49.1208 3.69735 49.4204 3.7473L51.1907 4.04142C52.3228 4.23011 52.5892 5.05144 51.7734 5.86167L50.3972 7.23795C50.1641 7.47103 50.0364 7.92054 50.1086 8.24241L50.5026 9.94611C50.8134 11.2946 50.0975 11.8163 48.9043 11.1115L47.245 10.1292C46.9454 9.95166 46.4514 9.95166 46.1462 10.1292L44.4869 11.1115C43.2993 11.8163 42.5779 11.2891 42.8887 9.94611L43.2827 8.24241C43.3548 7.92054 43.2272 7.47103 42.9941 7.23795L41.6178 5.86167C40.8076 5.05144 41.0684 4.23011 42.2005 4.04142L43.9708 3.7473C44.2649 3.69735 44.6201 3.43653 44.7533 3.1646L45.73 1.21117C46.2628 0.151209 47.1285 0.151209 47.6557 1.21117Z" fill="#EDE221" stroke="black" stroke-opacity="0.5" stroke-width="0.832428" stroke-linecap="round" stroke-linejoin="round"/>
<path d="M61.3712 1.21117L62.348 3.1646C62.4811 3.43653 62.8363 3.69735 63.136 3.7473L64.9063 4.04142C66.0384 4.23011 66.3048 5.05144 65.489 5.86167L64.1127 7.23795C63.8796 7.47103 63.752 7.92054 63.8241 8.24241L64.2181 9.94611C64.5289 11.2946 63.813 11.8163 62.6199 11.1115L60.9606 10.1292C60.6609 9.95166 60.167 9.95166 59.8618 10.1292L58.2025 11.1115C57.0149 11.8163 56.2934 11.2891 56.6042 9.94611L56.9982 8.24241C57.0704 7.92054 56.9427 7.47103 56.7096 7.23795L55.3334 5.86167C54.5231 5.05144 54.784 4.23011 55.9161 4.04142L57.6864 3.7473C57.9805 3.69735 58.3357 3.43653 58.4688 3.1646L59.4456 1.21117C59.9783 0.151209 60.844 0.151209 61.3712 1.21117Z" fill="#EDE221" stroke="black" stroke-opacity="0.5" stroke-width="0.832428" stroke-linecap="round" stroke-linejoin="round"/>
</svg>
